<mxfile host="app.diagrams.net" modified="2024-01-27T22:01:36.030Z" agent="Mozilla/5.0 (Windows NT 10.0; Win64; x64) AppleWebKit/537.36 (KHTML, like Gecko) Chrome/121.0.0.0 Safari/537.36" etag="McKyEitCi27OlNJC5NTn" version="23.0.2" type="device">
  <diagram name="Page-1" id="phXo1SiayU0urykHE__U">
    <mxGraphModel dx="3027" dy="1085" grid="1" gridSize="10" guides="1" tooltips="1" connect="1" arrows="1" fold="1" page="1" pageScale="1" pageWidth="827" pageHeight="1169" math="0" shadow="0">
      <root>
        <mxCell id="0" />
        <mxCell id="1" parent="0" />
        <mxCell id="52jPrDx0_dcCrGvd4Qb2-1" value="" style="shape=image;verticalLabelPosition=bottom;labelBackgroundColor=default;verticalAlign=top;aspect=fixed;imageAspect=0;image=data:image/jpeg,/9j/4AAQSkZJRgABAQAAAQABAAD/2wBDAAMCAgICAgMCAgIDAwMDBAYEBAQEBAgGBgUGCQgKCgkICQkKDA8MCgsOCwkJDRENDg8QEBEQCgwSExIQEw8QEBD/2wBDAQMDAwQDBAgEBAgQCwkLEBAQEBAQEBAQEBAQEBAQEBAQEBAQEBAQEBAQEBAQEBAQEBAQEBAQEBAQEBAQEBAQEBD/wAARCAGlAX0DAREAAhEBAxEB/8QAHwAAAQUBAQEBAQEAAAAAAAAAAAECAwQFBgcICQoL/8QAtRAAAgEDAwIEAwUFBAQAAAF9AQIDAAQRBRIhMUEGE1FhByJxFDKBkaEII0KxwRVS0fAkM2JyggkKFhcYGRolJicoKSo0NTY3ODk6Q0RFRkdISUpTVFVWV1hZWmNkZWZnaGlqc3R1dnd4eXqDhIWGh4iJipKTlJWWl5iZmqKjpKWmp6ipqrKztLW2t7i5usLDxMXGx8jJytLT1NXW19jZ2uHi4+Tl5ufo6erx8vP09fb3+Pn6/8QAHwEAAwEBAQEBAQEBAQAAAAAAAAECAwQFBgcICQoL/8QAtREAAgECBAQDBAcFBAQAAQJ3AAECAxEEBSExBhJBUQdhcRMiMoEIFEKRobHBCSMzUvAVYnLRChYkNOEl8RcYGRomJygpKjU2Nzg5OkNERUZHSElKU1RVVldYWVpjZGVmZ2hpanN0dXZ3eHl6goOEhYaHiImKkpOUlZaXmJmaoqOkpaanqKmqsrO0tba3uLm6wsPExcbHyMnK0tPU1dbX2Nna4uPk5ebn6Onq8vP09fb3+Pn6/9oADAMBAAIRAxEAPwD6z/Zk/Zk/Zt1/9m34Ua7rv7Pnw11HUtR8D6Fd3l5d+E7Cae5nksIWklkkaIs7sxLFiSSSSaAPS/8Ahk79lj/o2n4Vf+Ebp3/xmgA/4ZO/ZY/6Np+FX/hG6d/8ZoAP+GTv2WP+jafhV/4Runf/ABmgA/4ZO/ZY/wCjafhV/wCEbp3/AMZoAP8Ahk79lj/o2n4Vf+Ebp3/xmgA/4ZO/ZY/6Np+FX/hG6d/8ZoAP+GTv2WP+jafhV/4Runf/ABmgA/4ZO/ZY/wCjafhV/wCEbp3/AMZoAP8Ahk79lj/o2n4Vf+Ebp3/xmgA/4ZO/ZY/6Np+FX/hG6d/8ZoAP+GTv2WP+jafhV/4Runf/ABmgA/4ZO/ZY/wCjafhV/wCEbp3/AMZoAP8Ahk79lj/o2n4Vf+Ebp3/xmgA/4ZO/ZY/6Np+FX/hG6d/8ZoAP+GTv2WP+jafhV/4Runf/ABmgA/4ZO/ZY/wCjafhV/wCEbp3/AMZoAP8Ahk79lj/o2n4Vf+Ebp3/xmgA/4ZO/ZY/6Np+FX/hG6d/8ZoAP+GTv2WP+jafhV/4Runf/ABmgA/4ZO/ZY/wCjafhV/wCEbp3/AMZoAP8Ahk79lj/o2n4Vf+Ebp3/xmgA/4ZO/ZY/6Np+FX/hG6d/8ZoAP+GTv2WP+jafhV/4Runf/ABmgA/4ZO/ZY/wCjafhV/wCEbp3/AMZoAP8Ahk79lj/o2n4Vf+Ebp3/xmgA/4ZO/ZY/6Np+FX/hG6d/8ZoAP+GTv2WP+jafhV/4Runf/ABmgA/4ZO/ZY/wCjafhV/wCEbp3/AMZoAP8Ahk79lj/o2n4Vf+Ebp3/xmgA/4ZO/ZY/6Np+FX/hG6d/8ZoAP+GTv2WP+jafhV/4Runf/ABmgA/4ZO/ZY/wCjafhV/wCEbp3/AMZoAP8Ahk79lj/o2n4Vf+Ebp3/xmgA/4ZO/ZY/6Np+FX/hG6d/8ZoAP+GTv2WP+jafhV/4Runf/ABmgA/4ZO/ZY/wCjafhV/wCEbp3/AMZoAP8Ahk79lj/o2n4Vf+Ebp3/xmgA/4ZO/ZY/6Np+FX/hG6d/8ZoAP+GTv2WP+jafhV/4Runf/ABmgA/4ZO/ZY/wCjafhV/wCEbp3/AMZoAP8Ahk79lj/o2n4Vf+Ebp3/xmgA/4ZO/ZY/6Np+FX/hG6d/8ZoAP+GTv2WP+jafhV/4Runf/ABmgA/4ZO/ZY/wCjafhV/wCEbp3/AMZoAP8Ahk79lj/o2n4Vf+Ebp3/xmgA/4ZO/ZY/6Np+FX/hG6d/8ZoA/NX/gsp8J/hZ8L/8AhUH/AArP4aeFPCX9p/8ACQfbf7C0a2sPtXl/2f5fm+Si79vmPt3ZxvbHU0AfpV+yd/yax8G/+yf+Hv8A03QUAeq0AFABQAUAFABQAUAFABQAUAFABQAUAFABQAUAFABQAUAFABQAUAFABQAUAFABQAUAFABQAUAFABQAUAFABQAUAFABQAUAFABQAUAFABQAUAflX/wXO/5on/3Mn/uNoA+//wBk7/k1j4N/9k/8Pf8ApugoA9VoAKACgAoAKACgAoAKAOc+JF1dWPw78UXtlcy29xb6LfSwzROUeN1gcqysOQQQCCOQaAPz70bxL8CLf9mLRviHd/t/eOLH4kt4Ls9VmtI/i1NqVxHrbWSSPAdLeZzIfPJRoCmRkr8pGQAeseG/jH+0WfjP8O9Ok8EXmv8AifxD8FbLWNY8P3GtHSdJsdSN4vn3U/ySiKTJEYCQu+W28KpIAPWdA/aX1/xP8NJvEuhfBTxDfeMbPxZN4Jv/AAvbXCypY6nDIVlkmvVXy0s1QCQ3OzGGUBdzAUAUoP2qNY8J6l468P8Axw+Fb+E9W8E+DpPHe3R9Y/tm11HSo2kSQxTGGBlmV4tpjdB94NnbzQBq/C/49fELxlq2gL4t+C6aR4d8VadNqOmeIdE8RJrdlbiONZPKv3SCJbV2RjtIaRGZSobOKAOHf9t6YeFR8ZE+FkTfCP7TtbX/APhJYBq32LzzD/aA0ry8m3zh8GcTeWd3ldqAPqSOSOaNZYnV0cBlZTkMD0IPcUAOoAKACgD5h/4KAah8R7b4aeA9G+FXj3UfB3iHxJ8SvD2gwapZXEkXl/apJIwJQhBki3FS0ZyrBcEGgDnPH/7Q3iXx5+yJq/iGOe/8HfEXwt4p8OeHPFmn2V09vcabqI12whuUR0IYwTxSMyMCVeKbGT81AHpfjL9pDxDF8Q/EXw3+Evw50zxbf+DY7Y6/c6r4ph0S3hnuIjNHa27NFK08/l7GIKpGvmKDIDkAAb8N/wBrTw18S/FngnSNN8Oz2Gj+OfDWq6vZaje3SrLb6jpl0kF9pssIUqHiDl/MEpBCNgYwxAOT8B/t0aZ8QvglcfFjRfh1cJqb+NbHwXpnh+fUSkl9Lez2wtLjzTDlEktrtLnGxhtUgMfvUAdx+2d4g17wt+zV4w17wxrd/pGp2v8AZ/kXthcvbzxbr+3VtsiEMuVZlODyCR0NACeIvj546v8A4h+JPh78Ffg8njeXwT9mTxHfXviGPSLeG5nhE0dpbFoZftE/lMrMG8uNd6AyAk4AMeP9r3T/ABb4c8Av8I/AN94l8W/EP7ebPw9qF6mmf2WunuI9QbUJ9svkCGUiPCpIzuyhAQcgA4Xx/wDtPeI/Enwz+NeieLvhv4m8B6x8MbjQbW7/ALF8VpDd3LXk8bCS1vEt2CRbdpDFCZEdlZYzkAA9G1z9oX4lXXxX8b/CT4W/AxPFOoeBodPur29vfE0emWssV3b+bGisYJG88kSKExswm55I9wBAPRPgv8U9H+Nnwt8OfFPQtPvLC08QWn2gWd4m2e2kVmjliceqSI6574z3oA8mtf2rvF+v6n4k1LwL8EJ/FHhDwl4ln8M6rcadrqya6ssFyLeeePSFgLNEr7mAaZJGRCwTGKAN7xR+0D44ufiH4n+HPwU+Do8dXfgaK1bxHd3fiCPSLeCe4i86KztmaGU3Fx5W1yCI413oGkBOAAY9x+1F461jxn4Z+H3w/wDgFqd3r3iPwbF4zktPEmqHQ30uD7QYJre6VoJWSZX8sKoDby5+6ql6AKuuftc6+03i3V/h98JrXxN4V8CX93putajJ4qt7C8ubi0A+2Lp1o8TfahEd6ZkkgDshCbuDQBq67+1dY6rq3hvw18FPDNh4z1bxH4Zt/GKvqWupothZ6VcMFgeadopX82Q7wsSRMw8ti2wYJAMe9/bRtIPh7YeKLH4Yalf+JD47h+Heq+GYNSgae01aRGZBFOAYp4nJhKSZRSku4lSrLQB23w0+N/izxF8UdX+DfxO+GKeD/E9jokHiSzNlrQ1WyvtPkneAss/kwlJUlUK0bJ/ECCQQSAev0AFABQAUAFABQAUAFABQB+Vf/Bc7/mif/cyf+42gD7//AGTv+TWPg3/2T/w9/wCm6CgD1WgAoAKACgAoAKACgAoAwfHumX2teBfEejaZB515f6TeW1vHuC75XhZVXLEAZJAySBQBwX7O3we0fwB8F/hro/iPwDomneLNA8K6RZak62ls88N/DZxRz/vowQzCRXBdWIPUEg5oAT/hBPFf/DWn/Czf7K/4pr/hXX9hfbvPj/4/v7T87yvL3eZ/q/m3bdvbOeKAPD/FHwU+P0HhPxTY6FoGrzadq/xm1LxPq+iaN4lh0rUNd8OTRjy1gvFlXySZVjZo2lhZlRlLLnkArfDT4EfFrwj8ZvF/xF8D/AnQ/BWnaz8NZ9F0az13XE1bzdXW7WVF1ZkmeVvNDbf3UkyLHFy4ZgpAD4a/s6+KE+MPhbxb4T/Z3f4FWUEN6PHTaf4ltptO15JbR4ktrawtZpIyBNIJBNLHCyhB8rHAABz3gf8AZc8V+APAWnfB5v2Jfg54r8SaVOLCD4ja3pukzaXdWAmOy7u7fjUHuRDgNGFIZxnzcHFAH3lBClvDHBFGiJGoRVRdqqAMAAdh7UASUAFABQB4j+1P8OfGfxHsfhdD4M0b+0X8OfFLwz4j1MfaIofI060uS9xN+8Zd21TnYuXP8KmgDy39sj9mP4k+NfEth8QfgTawTXniS90TTfHmktcRwLqVhY6jb3lteqZHVPPtzbmPP3milKjO0AgDPGv7O934c+OfxC+IWofsq+EPjlonj97LUbB72LSBqOiX0VstvLBI2ohQbV/KjcNEzMhLjy2zmgCp8av2fPjfefs4+B2+E/w+8C+H/in4Vv72eLRvCEcWl6TaQalbXVpdRxGVlXKJdRyu2R5kkDFV+YAAGnpH7LfjHw5+1d4Yu9I0qH/hT2haNpeueYZ4V/4qPTtOm0i2i8kN5hxaSQyB9uwGFRuyNpAPX/2sfAniv4mfs/8AinwT4J0r+0ta1L7D9ltfPjh8zy72CV/nlZUGERjyR0wOcCgDirfw/wDGb4F/Fr4ka74C+ET/ABD8NfEnUbbxBbmz12zsLjStRW1itp4rkXToGgfyUkWSLe65ZfLbAJAPOvC/wR+JfwG1z4V+PbRND8ZfEOODxU3iXwrZ6tBYz6hBql9HfXEml/amRH+yTvErbyodJASyEqpAOYuvDvxc+N037WOh/wDCC29j4p1a98GQ2uhw6pBMbdIY4pfKmuSyweeIQJHVXKqXChn4LAH1D8NvAnivQP2gPjJ421fSvI0XxX/wj39kXXnxt9p+y2TxT/IrF02uQPnC56jI5oAP2TvAniv4Z/s/+FvBPjbSv7N1rTft32q18+Oby/MvZ5U+eJmQ5R1PBPXB5yKAPnX40fAD4nfEfW/Edza/sy6NpPxLm1WUeG/iv4W8SRaRBbWplH2e6vUWcXkk6Q8SReVMjsvylQRtAPUoPD/x0+B3xQ+IniDwX8M2+Jei/Eaax1i3e01ay02bTNVisorScXS3LoDbyCCGRWh3unzr5Z4JAL3ws+GXxq0j44eH/HnxUvrbXbqL4WpoWs67aiCGGbWDqf2h4Y4E2sEVDhX8sKQoyQxIoA8hT9mfXPh1qfj7Rf8AhjX4cfF+58Q+ItS13wz4s1aDSB9mS9kMwt9U+1AXJEMruA0Al3oAAIzQBu+Nv2Y9R0X4m+HfiZf/ALOHw8+LGjt4HsfC2r+FrPTNOtk0i9tZGeO50qLUSIUtmE0sZiMquFVDlsbaANO3+B3xCm8G+BPsHwN8AeAprP4t6Z4quvD/AIQhtrVNP0eAOnm3kilYrq6C43tCMEFVVTtJIB6x/wAIJ4r/AOGtP+Fm/wBlf8U1/wAK6/sL7d58f/H9/afneV5e7zP9X827bt7ZzxQB65QAUAFABQAUAFABQAUAFAH5V/8ABc7/AJon/wBzJ/7jaAPv/wDZO/5NY+Df/ZP/AA9/6boKAPVaACgAoAKACgAoAKACgAoAKACgAoAKACgAoAKACgAoAKACgAoAKACgAoAKACgDi/iX8HPhz8XrfTYfH3h972XR53uNOvLW+ubC8spHXa5hubaSOaPcvDBXAYAZzgUAW/h38MPAnwo0OTw74A8PRaVZ3Fy97ckSyTTXVw4AaaeaVmlmkIVQXkZmIUDPAoA6mgAoAKACgAoAKACgAoAKACgAoAKACgAoAKACgAoAKAPyr/4Lnf8ANE/+5k/9xtAH07+y58aPi3o/7N/w1tdS/ZN8fXumad4L0WCy1HRta0G6GoW6WUKxzrDLfwyoHUB9hXcu7BGQaAOvi/a+1ya7ksk/Y5/aIEkbbSz+HNOWMn2c34Uj3BIoA6Kx+P8A471Nf9C/ZG+MasVLKLp/DtsOPUyasMdfrQBnaj8cv2h4pANJ/Ym8Z3MeRlrjxf4chOO5wt6/PtmgC3dftBfEfR9OW8179j/4upJ/FHplz4e1DH08rU95/wC+RQBkWv7WviC7x5X7Hf7Qa5/566Dpkf8A6HqAoA27P9oD4garBI+l/sifGDzEGVW+m8O2YJ+smqg/kDQBit8d/wBpwaksSfsNeKTYH7058c+HhMPpF9q2n/vsUAaGsftJ+NvDyxDV/wBkD42PLJtBXToNC1BVJ/2oNTbj3IHvigCPW/jz8dX0+O88EfsWfEDUpJF3CPWPEfh7S8H0IF/M4/FQfagCn4Y+O/7Tt3s/4TP9hnxRpefv/wBmeOfD1/j6eZdQZ/SgC7qH7TnizTJXhuf2Qfjo7IcE29hos6/gY9TYH8DQBnQ/td67PdLZp+x1+0MJG6F/D2mon4u1+FH50Ab8/wAc/ixPbxXGifsffE6cORuW91fw1aMo7/KdUZs+xAoAra3+0j408OQiTVf2QvjZI23LLp0Ghahj6fZ9Tcn8qAKOiftWeJPEG37B+x78fot3T7bo2k2f5+fqKY/GgDZvPjZ8YVydN/Y8+I86kZXz9e8Mwn8QNUbFAGS/x0/aOEuI/wBiLxgY/wC8fGfh0N+X2w/zoAv23xu+OLj/AEz9jTx9F/1y8TeGpP56itAF1PjR8WT/AKz9kL4lr/u634XP/uVFAFXUv2hvHOjxhtQ/ZF+MzNtBYWY8P3YB9B5WqsT+VAHOD9sTWWlaEfscftF7lOCT4YsAv4N9uwfwNAF+D9qrxLc48v8AY++Poz/z00fSU/8AQtRFAF5P2kfGLrvH7InxuAyBzbaEDycdDqme/wCFADJ/2l/F1v8A6z9kL45HH9yz0N//AEHUzQBVP7VPiYdf2Pvj5+GkaQf/AHI0AOh/al8TzttT9j/49A/7el6On/oWpCgDQh/aJ8aTjKfsjfGof78egJ/6FqooAnPx88dBN/8AwyR8Y8D/AG/Dmfy/tbNAGJqf7VfiTSM/av2Pfj7Jt6/ZdH0m5/8ARWotmgC1oH7THjDxPFv0n9kD44xEqSo1Kz0TTsnHQ/adTQj8qAJ7L43fHOS7dNS/Yy8ewWob5JIPE3hqWQr6lDqKgH23H60AR3/7Sni/Trj7Ncfsh/HB39YLTQ50/wC+o9UZf1oAYP2mvFhAb/hkH46YLKv/AB46J1JAH/MT6c8noBycAUAatr8dvHt3jyv2Svi+uf8AnrP4aj/9D1cUAZ+s/tI+MdBBN/8Ash/G6Tb1+xW2hXn5eRqj5oA5/T/2ytW1K5a0t/2Nv2j0dG2k3HhSygTPs8l8qke4NAHX23x0+Il/bi4sv2R/i1tPa5vPDVu3/fL6sG/SgBG+NPxcDAJ+yB8SSueSdc8MA4/8GtAFbVP2h/G2jgm8/ZF+ND4HP2RPD91+Xlaq2aAKdh+074r1LH2f9kH46pn/AJ+NP0WD/wBGamtAG2vxr+I80Qkt/wBkr4rEnoJdQ8Lx/wA9Yz+lAFSb41/GZT/o/wCx18RHH+34h8Mp/LUzQBUf44fHwH93+xb45YZ/i8VeGx/7fmgDQs/jT8W3GdQ/ZB+JUPr5Ot+GJf56qtAEjfHLx+vX9kv4u/hc+GT/AO5egAHxy8fnbj9kv4u/MMjN14Z9cc/8Tjjp3oA+B/8AgqxoPxe+PY+Fx0b4EeLfDf8AYf8Abfmf27qGijz/ADvsOPL+y38/3fKO7ft+8uN3OAD9AP2T/wDk1z4QD+74E0FfysIRQB6rQAUAFABQAUAFABQAUAFABQAUAFABQAUAFABQAUAFABQAUAFABQAUAFABQAUAFABQAUAFABQAUAFABQAUAFABQAUAFABQAUAFABQAUAFABQB4F+1VoQ1r/hF8qD5P239fI/woA679lu3Np+zL8I7U9YvAmgIfqNPhFAHnf7eLanZfCrw9rGieKPE2hXqeM9B04z6H4gvtLeS2u7+GGeNzayx+YGjYgbslc5XaeaAM3xJ8X/j7B40+M/hD4cXfgOw0L4NaLp95aSa/p2o6ne6m0ul/avIlkW8i25ZGBuCZG5GY3OWIB9B/DnxevxB+Hvhfx6lgbFfEujWWri1MvmGAXECS+XvwN23fjOBnGcCgD5e8D/tP/H6f4PeBf2ifHVt8P5PCfiTxHaaHqOiaVpd7Ff29tc37WEd5HdyXToWWcxO1uYDlNwEoOCADf0j9on4vnRPjJ8WfETeDLfwN8Ite8Sab/ZVppN3JqusQ6bGzoPtLXQitnYmNS3kyq3zHEfGADfsPi78aPAXiX4bQ/GyXwVdaN8SI7q3l/sLTbqzl8PahHp73yxPLLdTi+iMcFzGZVjgIZEbbhyqAHHWX7Rnx8vPB/wAI/jHOfAln4W+LHi/SNIg8OnQ7uXUbDTNQlk8mVtQF8IpJ/IRHIFqqq0hX5gmWALlp+0l8XrXw78ZPi94jHg2LwP8ACPxD4g0kaRaaVdvqusRWCnyv9Ka6EVq5ZogW8mYN8x2pwKAI/Cv7S3x4huNQXWfhbqnjZh4P1DXbe30j4deIvDAtNXtY1kXS3n1VXS6FxuZI5olV90JzAfMUKASfDP8Aad8b+JbDxdeWnjPwF8Rde8JeG9Tvb3wDo3hnVPDHiaLV7Zbdo7YWmoXE80lu5leJpvITEhiCiQsyKAdB+zl8etf+Kvi278P6t8Xfhxr11pdhcLrXhyx8Lap4b8QaRqEb2v37PUbqWaW1AnkRpjFEBIIgNxZwgB8mfthf8FGP2vP2WPjjrHwyuPA3wzu9IIGoaBf3Gk6hvvNOkJ8tmK3oBdSGjchVBeNyAARQB9PfsC/Hr4+/tK/C6++LPxl8O+E9F0u+vDa+HYdFsbqB7mOLKz3DtNcShkMn7tQoUhopc5BWgD6foAKACgAoAKACgDyP4nfEb4gR/FTwp8FPhYNBstZ1zStR8RajrOuWUt9bafp1o8EOEtYp7d55ZJ7qFR++QIodiG4FAHFTfEf9pu6+OGm/Aa11T4YWF8ngk+KNV1uTQ9Qu4jJ/aU1sggtReREK8awsUaYmNi+HlAGQDj9O/a8+K3iDW5Nf8MeCrzV/Ddv4wk8OjQrH4ceIrm8vLCC9Nlc6hHrSA6cjLIk0/wBnZWURxGNplkJ2gF7xJ+1X428J/FfTdBHiPwn4o0K7+I1v4GvbHRvBmthdOW6m8iEP4gMj6c15C0tuZ7bylIPmxAqy5oAxvhf8W/jD8O/CX7QHxb+IPjzTPFHhj4feNPE2/RjpF2L6X7PBC0UFpdyX0kdpb7mUCLyJNuXIb5uADS039rf4n+DbPWfEXxQ8HXms6FpvgzUfElzdWHw68Q+GItK1CzjWT+zpZ9WBjulnDMkU8flsHiO6ECQFQCDUj8ZLz9pj9mfXPi1rnhCaXU7fxLcx6ZoOiXNqdOmfRw0kT3Mt5MLoKWCh1ihztLbRu2qAdd+29/b/APZXwcHhUaf/AGwfi3oIsTqG/wCzLMYrrY0oT5igOCQuCQMArnIAMfxp+0b8bvhi3xJ8O+IdO8J+JNb+GljonjKW60rSLqzh1TwzcTOl/Gtu93M1tdwLbXTrIZZUYBMxjmgD034S/Gi/+MPxL8cw+Fjpdz8PPCkOmadY6pDFI82p6rPB9quSsu8IsMUE1omzyyxd3JcABaAPXqACgD4x+Ot18Q7Lxb8TviFc+JPHd74Z0G3hfQ/E3w+8WRvB4HmsoI5Z49V0BrqCK/KytJcSh1unlgdYikahRQBW0j45/Gbwx44+IPjGy8VaB4g8DxfE7wp4fltL21vZLk22qWWkxO+nk3Ijs40a6EyxMku9pJMlCNzgHQ2X7Wfjj/hdnh7wzJqHhXVvCHiDxTrXh9hYeF9YgFjFZ2t1LG/9uXDLp11OGtGWaGFcRtvCyOEaSgDzLxz+118XPEHgHxvoreItFeHVfhP4j8V6Vrfhnwzr2hGwurTyVjNnf35VdSiKXIZbm3SLlQ2FDKCAel337Snxg+HkGqeDfiDqvw+/4SBvCugeI9F1eDTdSeyh+3Xps5LSe2ilnur64DqfJ+z7DcsQCkAyygGT4d/at+O/iq/0/wAEaNH4Oj127+J8ngg6tqnhHV9Mh+wf2GdSFy2lXNyl1DOuNvlvLtcAYKhhIAD1Twf8WfHXxA/Zh8T+MNR8UeE/BvjTT28RaANcnXyNGs9Ssry5sobsrcNIUhLxRuVkL4LEEOBhgD5x8deI/iF8Jfh94w0a/wBW+Lfw98UXPwr8QXJsfEPiyTxNa6xf2EaFdS0rVftsk9jPF5hZ0MVuJUnQ+UrQqQAerXH7Rnxf8Cw+NfCPj3Wfh+muaLovhXVNF1RNK1NrUf2rcz27281tFLNdX1wjW5ES24Rrh3QFYAWZADh1/aC+OvxL8TeDvDuk6/pmk65pPxen8Lm9bw9q+i2Wo2J8Nz3ite6RdTrdfIZN4geVVd4oiGQEPQBur+2H8WNV0jwv4V03SdHtPGd2/ik61qdt4M1vxDpwGj6m2nokGn6a73aCeVonM0smyFVdf3rOgoAPEP7Z/wAY7/7PD4N+D+q6TrWj+D9P8S634a1PwRr2rX19qF08oGlRSWMeNNwtpOFubxG8wzREQqqSGgDV1D9qD41J4p8R6/a6V4Us/A/hvx/4X8IS6Xf6ReJrstvq0WnmR3k+0iKCaFtQX5DEwbaynYV3OAfXFABQB8k/t7+P/wDhBv8AhBf3/l/bf7T74zs+y/8AxdAHun7O67P2f/hkgGNvg7RR/wCSUVAFb47fAzTPj34d03wxrfjjxN4estN1O21cf2H9hDz3NvIssBc3VtPwkiBgF2g9G3DigAsvgJ4Xtb/4jarPr2u3t78UNOs9N1yeeS3BC29kbNZIRHCqo7IxZshl3/dVV+WgDsfBPhPTvAXgzQPA2jzXM1h4d0u10m1kuWVpnht4liRnKhVLFUBJCgZzgDpQB83fszfsp+JdC+E3w80n41+LvFkk3hHUn1uHwZLcaZ/ZVlfxXc8lrKZLS3E8+wusypJcyIJNrFcooUA9o8M/AvwL4c8N+O/CEkd5q+kfEbWNW1jXLXUZVZZG1FQtzAnlqhWErkAHLAE5Y0AYngr9m7RPCniPwt4j1n4ieNPGDeBLKax8K2uvT2Rh0dJYVgd0NtbQyXEvkL5QluXmcK0nO53ZgD5/8P8A7PPxR1XWfhr4NtPC3xJ8JeDfh/41i8SQ6b4g8QeH77QtPs7WeaSGCweyB1O4Zt6JGt4dkUbPklkjyAfTHh/4C+ANE8L+PPBd1Bd6zovxH1nVdZ1y01GVWV31AAXEKGNUKxYGF5LjP3icEAGHpH7Ot/pmiP4cuf2hvi1f6bFoM+gabFJqljbSaarpGiXUc9rZxTTXMSxAJJcvNyzlg7MTQA2b9mq11bUrrxD4x+MfxE8R6+NEvdD0bWbi50+xu9Aiu9n2iax/s+zt41nYxQHzJUkI8lVHyl1YA1/C3wNt9H8d2fxJ8X/Ejxb481/SbC403SLjX106JNLhuGRrnyYrC0tkLS+TCGeRXYCNQpUFgwB5P+3t+xzY/tZ+DfDNvpziz8R6BrlmI71Qu4aZcTxx3wO4gNsiJnUZyTDtXlzQB9GeDvCOgeAfCej+CfCunpY6PoVlDp9jbr0jhiQKoJ7nA5J5JyTyaANmgAoAKACgAoAKAPPviV8GdI+IuveHPGVt4p8QeE/FPhU3SaZrmhPbfaEt7lAlxbSR3UM9vLE+2NsSRMVaJGQqQSQCv4P+Beh+EvH1t8TZfF3ijXvEMHhk+F5brV7uGY3MBvXvGmkCRJiUyyMAE2xKgVEjUKMAGTZ/s32Gha5qV54L+K/j7wtoWs6//wAJJqHhrSrqxXT57x5Y5bgLJLaveQRzvHukjguI1JklKhN7ZAMR/wBj7wi93p1v/wALL8fJ4b0bxnH480zwwl1Yrp1nqq35vjtYWn2l4WmeXMMk7oPNYqFdY3QA6CL9m3wlFq/jU/8ACS+IJPCnxDuLy88R+DpBZPpN7c3VqlvcS7zb/bIy6xq5WO5VQ+WCjJBAGeH/ANnS00/SX8K+Lfi38QPG/hZvD9z4ZHh/XruxFmbKeNIm8x7S1guLiQQoYxJPLIwEjtkud9AFHwx+y5peheN/BPjvWvi58Q/FV38PLa5svD9trN1YfZ7eCe2Nu6utvaRNM2zb+8kZpCVGXILAgHWfGP4O6V8ZdK0Cw1DxRr3h658M6/a+JdM1DRTa+fDe26yLGSLqCaJl/esSrRnJA7ZBAMvR/g/p/gDRvHniNn1/4l+KPFlgF1OTW7izjudYjtrd47bT1EUUFpBFh5FAEaLunkdySzNQBR/ZH+CMP7Pf7PvhH4aSWcVvqltZrd6yI23g6jP+8nG/Lb1Rj5anJ+SNKAPYaACgDzPxp+zf8HfiDr9/4k8U+Gr2a41hbZdXtrbXL+zsNYFvgRfb7KCdLa9IUKmbiOQmNEjOUVVABfvfgV8KdQj1mG68KK0ev69p/ifUFW8uEE2pWP2f7LMAsg2BPsdt8iYQ+X8ync2QDCtv2VfgTa+JbLxZH4Ou3vtM1O81jT45dd1GWzsLq7MpuzbWjzm3gSYzymWKONY5Cw3q2FwAZtt+xn+zrbWsll/whWpXEL+H7nwoBd+J9WuTFo06Kj6fEZbljFbgIuyJCqxnJjCEkkA0bP8AZT+BVjoeoeH4PCN8YNSk06WS5l1/Upb6A2EgksVtrx7g3Fqlu43RJBIixkttA3HIBZ8L/syfBPwdqttrmg+ErmPULXXD4mW5uNav7qR9VNo9o93I00zGWV4JHV2fdvJ3tucBqAOq0L4YeAfDvhTU/A2m+GLRvD+tXGo3Oo6dd7ruC7e/lkluxIsxfckrzSkofkwxUALxQBxVn+yh8C7XTNX0m58MatqsGtaFJ4ZuH1nxPquqTRaU4w9pbzXVzJJaxNxuWBo87UznYuADa8Ufs/8Awl8ZXeoaj4g8Lyy3up2ulWk13Bqd3bTxpptw9xYtDLDKrwSQzSO6yxFJMnliABQBQ8L/ALMnwT8Harba5oPhK5j1C11w+JlubjWr+6kfVTaPaPdyNNMxlleCR1dn3byd7bnAagB2qfs0fBjVtEttAl8MXtpBZ6lqeq28+m67qFheRT6jI8l8Fu7edJxFO8jM8PmeU2Eyn7tNoBD4i/Za+A/ifTdJ0bUfAgt9P0XSl0GC00zUrzToZ9MVg62V0lrLGt5bhgWEVwJEBeQgZkfcAa9z8BvhNdwavazeEYxDruu6d4lv447u4jWTUbEW4tJgFcBBGLO2AjTah8v5lOWyAd/QAUAfn1/wVisJL7/hVnlsw2f25nacdfsP+FAH2L+z2wb4BfDRh0Pg/RiP/AKKgD0CgAoAKACgAoAKACgAoAKACgAoAKACgAoAKACgAoAKACgDjvFHxS8P+EviF4J+GupWeoSan49bUU02WCNDBEbK38+XzmLhlynC7VbJ64HNAFnxz8Uvhj8MYbS4+JXxG8L+E4tQZ0tH1zV7ewW4ZACwjMzqHIDLkDOMj1oAZr/xY+FnhTwrpvjrxT8S/CmjeG9Z8n+ztY1DWba3sbzzYzLF5M7uI5N8as67WO5QWGQM0AcL4t/a+/Z58Ga74I0nV/ih4bNl49ivp9N1uLW7H+y4obVTukmuGmAVHdWiRlDBpFZOCDQB6o3iLw+nh8+LX13T10NbP+0TqZukFoLTZ5nn+dnZ5ez5t+du3nOKAIf+Ew8JfadFsv8AhKNI+0eJI3m0aH7bFv1KNIxI7Wy7szBYyHJTICkE8c0Ac/oXxy+CfinxBaeEvDPxh8Eavrl/G0tpplh4gtLi7uEVWZmjhSQu4Co7EgEAKx6A0AcX+0T+1f8AC79n7wvrV3e+KvC2p+LtLjtpIfCMviO3s9SuxNLGg2xHfKPkcuMRnIU9uQAdzq3xo+DugeMIPh7rvxZ8G6d4qupoLeDQ7vXrWHUJZZiBCi27OJGaQsu0BctuGM5oA5fSP2pvghq3xe8R/BB/Hej6f4p8O3NlZfZr7VLOL+0rm5RmEFmnnGSaSMrskTYCrMowc0Adho/xX+FviHxdfeANA+JPhXU/FGmCQ32iWes281/aiNgsnm26OZE2syg7lGCQD1oAq6V8a/g3rvjGb4d6J8WvBmoeKreee2l0K0161m1COaDd50bWyyGQNHsfepXK7WzjBoAr/Ej44fDf4UXMNl4y1TUxdzWU+p/ZtK0K/wBWnisoSoluZY7KGV4YVLqDLIFTJxnINAGb4o/aU+C3hCy0vUtV8Xy3Fpq+i/8ACSwT6VpV7qccWkYUjULhrSGQWtqQ2RPNsjIV8N8jYAN/XPi38N/DUuvx6/4tsrBPC2j22v6xPPuWCzsbhplhlaXHlnebabCBi52g7cMuQDntf/aV+DnhvQtC8SXviHU7uy8SaH/wkunjSvDupalOdK2Rv9tlgtbeSW3hAljy8yoAWwTkEAA0dd+Pfwh8NaNYeIdY8cWUWmap4em8VWV1HHLNHcaXEbcG4Ro1YHc15bLGn35WlVY1dsigDLj/AGm/g1PoFt4htdf1a5F1q1xoUemW3hrU5tYGoQIZJ7dtMS3N6jxxjzG3QjajK5wrKSAQ337VPwMsfCOkeOV8W31/pGuWV7qVo2l6BqWoXC2lm4ju55ra3t3mt44JGEcrTIgjchGIbigD1DTdS07WdOtdY0e/tr6wvoEubW6tpVlhnhdQySI6kqyspBDAkEEEUAc/F8T/AADP8SZPhBB4ntJfGMGkHXZtJj3PLDYiVIvNkIG1MvKgCsQzA5AIBIAOd+IH7Rvwf+F+sXOieNfEt5aTafDbXOpT2+iX95aaXFcOUhe9ureF4LNXKtgzvGMAt93mgCbWP2g/hFoHxEh+Feq+KpIfEUt1aWLRrpt3JaQXd0jPa2014sRtoJ5lXMcMkqyPuTap3rkA9FoAKACgAoA/PH/grZ45svB7/CuO50+a8a6GuMBEpYoF+w8nA4zn9DQB9mfs7xTW/wCz/wDDKC4UrLH4O0VHU9mFlECPzoA9CoAKACgAoAKACgAoAKACgAoAKACgAoAKACgAoAKACgAoA+df2iZ73w/8f/gP4/m8M+KNS0Lw9P4lGq3Oh+Hb/V2s/tGnLFCZIrKGWQB3O0Hbjr2BoAyfir8Vda8VeMfBOpeErT4l+FfCMcOsQ6p4p0r4Vahd+IILtVtTDYx219p0slvazLI0j3AtZFke1SMOhVzQB4t8PPAviTwv8EfhVLqk3xl+GnxC8PweNLfRtZsPhz/wkcVhDc66Wa31DTre1n8t5YUgeN4lgRkD7JSuFIB3sdx8TV1z4EfGn4h/Cy802x8P+IvGZ1VPC/hO+M/2bUYbg2WoTaPB9ou7Z7kgPMjGV45Z8ylSzBQD6S+LGkah8Rfgd4y0LwvayyX3ifwpqNpp0F1E1pI0tzZyLEkiTBWiO51BDhSpyGAINAHzZ4L1fXPG/wAUf2W47D4Z/EGwi8DaDqdv4ku9X8Jahptrpt1JoiQrA0tzDGrnzI2UPHujJwA5LAEA81+BVta/EX9lP4O/Cf4d+CPEaeJ7Xx1Y+IbvWV8KXtpp2mpa6vLcXOof2hLDHazv9njaELFK8jtKExgOVANj4o6X4t0L9nX40/BB/hX491jx94o8d6lrS3Ok+E766s9XtrjVIbmC9F5HG1sAtmsMRh83zUMHl7PlGQCT9sKH4teMtH+Ongyz0L4iWs9wtinhfw/4R8AJe2HieOO2t5Wv77VXspt06uroIknt3RLOJIxLI67gD2jSIdb8E/tP/GL+09F8S2sfxL07w2nhnWLDw/fX9j50Frc28vn3NtC8VoY5NjHz2jG11YEjOADyT4A/Dd9K0n4Q+DfHs/x8HjD4e3k+NBj8JWdto1jfpbXUV3ONbj02GOW1uFaZgf7Qd5TcxBy8m7ABs/AOLxt4T8VfDrwJ8NofGvib4eWJhYaJ8RfhbPod/wCB7WPT7mN5rfWTBbQT3BkuEgaMRXEjpJLiUL5kjAHsP7SfxZ8X+Fm0/wCG3gnw/wCLrW88T2spu/GOmeENU1u28PW2djPHHY28plvWBbyY32xqR5khKqsUwB86eOvhfc+Ajq118KdK+Nlraaj8M9D0b4Yt4XsdVspI9X01rqNItYiRIzF81xbSf8TBEt2SW8bG8GgD2XQ/hjqfjXwd8YfF/wAVPAFrqPiXVNUmGkwXWlmXa+lactnbXVnHKm9S1yt5NDIoDFblSpwwJAMGb4i/EL4dfs+fB/4OaH4O8caNrmr+AtKtdW8S23gvVtWTwskdlDFKPIs7eV21DO9YoZNiRspklJCrFMAcX4v+Ed9qfhDWtT+GfgDxa/hr4ZaT4C0jwzpl5o1zaX+sabpmow6pqe22uYo5ZZWjEAKiPfJNaFApclaAOni+J3jzwDrfxR+K/hP4S+Nbk/FXxXZ2fhsX/g7WJBYQWOk21rLq2o2VtbteRQGWJhFCY0mnCIP3SMZYwDTePwj4V/Z7b4baY3x2Fv4nttXm1bxho/w8ujrOoalPO814k1nNZPcQPcvdTtHI1ssSopVbiNghIB7f+zxp/irSPgT4A0fxv4ctNA1vT/DtjaXel2hbyrIxwqiwjc7kFVVQRvbBBG49aAODi+HNl4d/bFj8U6D4AjsNB1L4eay+rX9jpGy2u9Un1Sxd/OeNNslzJHESdxMjrH3AoA4744eONP8AFOmWX7OegeA/H/hT4a6loNmNa1nSfhxrk2dHliAGi6fb2tk4tpWh2xzNMqfZ42MaxtKSYADhPHvhvxfP8YNZ1LR/ht4tN/deO/Cer6D4es/Dd6PDetWNnFarFqmoX+0CyurZElAhM1uimztlktrjOWAPuugAoAKACgD4f/bq0Twp4k+Juh2fji6jtrOy0GOWwZxkPLJcTCYD6COD/voUAfZXhHSV0DwpouhKABpunW1oAOgEcar/AEoA81sP2gdf1+TUpvCH7OfxK8Qabp2sanog1K0u/D0MFzPYXs1ncNGtzqsUwTzreUAvGpIAOOaALf8AwuT4i/8ARp3xV/8ABl4V/wDlzQAf8Lk+Iv8A0ad8Vf8AwZeFf/lzQAf8Lk+Iv/Rp3xV/8GXhX/5c0AH/AAuT4i/9GnfFX/wZeFf/AJc0AH/C5PiL/wBGnfFX/wAGXhX/AOXNAB/wuT4i/wDRp3xV/wDBl4V/+XNAB/wuT4i/9GnfFX/wZeFf/lzQAf8AC5PiL/0ad8Vf/Bl4V/8AlzQAf8Lk+Iv/AEad8Vf/AAZeFf8A5c0AH/C5PiL/ANGnfFX/AMGXhX/5c0AH/C5PiL/0ad8Vf/Bl4V/+XNAB/wALk+Iv/Rp3xV/8GXhX/wCXNAB/wuT4i/8ARp3xV/8ABl4V/wDlzQAf8Lk+Iv8A0ad8Vf8AwZeFf/lzQAf8Lk+Iv/Rp3xV/8GXhX/5c0AH/AAuT4i/9GnfFX/wZeFf/AJc0AH/C5PiL/wBGnfFX/wAGXhX/AOXNAB/wuT4i/wDRp3xV/wDBl4V/+XNAB/wuT4i/9GnfFX/wZeFf/lzQAf8AC5PiL/0ad8Vf/Bl4V/8AlzQAf8Lk+Iv/AEad8Vf/AAZeFf8A5c0AH/C5PiL/ANGnfFX/AMGXhX/5c0AH/C5PiL/0ad8Vf/Bl4V/+XNAB/wALk+Iv/Rp3xV/8GXhX/wCXNAHPeAPEusfC7whp/gPwL+xx8VdM0LSlkW0tP7Z8NTeWHkaRvnl1tnOXdjyx646YFAHQ/wDC5PiL/wBGnfFX/wAGXhX/AOXNAB/wuT4i/wDRp3xV/wDBl4V/+XNAB/wuT4i/9GnfFX/wZeFf/lzQAf8AC5PiL/0ad8Vf/Bl4V/8AlzQAf8Lk+Iv/AEad8Vf/AAZeFf8A5c0AH/C5PiL/ANGnfFX/AMGXhX/5c0AH/C5PiL/0ad8Vf/Bl4V/+XNAB/wALk+Iv/Rp3xV/8GXhX/wCXNAB/wuT4i/8ARp3xV/8ABl4V/wDlzQAf8Lk+Iv8A0ad8Vf8AwZeFf/lzQAf8Lk+Iv/Rp3xV/8GXhX/5c0AH/AAuT4i/9GnfFX/wZeFf/AJc0AH/C5PiL/wBGnfFX/wAGXhX/AOXNAB/wuT4i/wDRp3xV/wDBl4V/+XNAB/wuT4i/9GnfFX/wZeFf/lzQAf8AC5PiL/0ad8Vf/Bl4V/8AlzQAf8Lk+Iv/AEad8Vf/AAZeFf8A5c0AZPiz9o3xR4G8K6z418U/sufFWy0Xw/p9xqmo3P23wxJ5FrBG0ksmxNYZ22ojHCgscYAJ4oA9roAKAPgn/gqP8IvEvxLuPhrdeFtQuLKWxTV47l4SAZFY2hjBz6ESY/3jQB9zeHrr7boGm3uc/aLOGXP+8gP9aAPir4j6Lo3iP4O/DrQPEOk2WqaXqP7TerW15ZXsCTwXEL+LdaDRyRuCrqQSCpBBBoA7jxz4b8Jfs5ftB/CqT4I+GbTw1beM01+28TeF9BgFpYanZWemvcpeG1QCCOeGdYEE6oJGFwI2YgqoAMb4B/FD9q74if8ACuPifJ4e8W6noHjJTe6/aagfDFv4esdPuYXkgk06S1uH1QPC/kIVuVlaRTNuSJ9oQAf8OvjF8VtA8Y6PZ/tB+K/if4V8UTTSm58Oan4T0pvCWuXMtjeXA0/R9VsoZHjaIwoyfarwzOsWwo7uxQA1fDfiX45av+zHL+0/cfHe6e/1TwLqniz/AIR630bTH0mwaWwmuLSG2f7OLkSWzGAMZ5pg7RSBkG4bADO025+Iay/sz+LvHvxIk8Z3/jvW7e5uotS8O6Qlvppk8P39y32Ax2ont2LCMM5mZyEwCquykA5z4ffFz9oO2+APw0/aO8Q/GK/8S3fiDxbp+i6h4WbQtNgsbuyu9UbTtsRht1uRdLvSZXWYITHtMRBOQDm9M0LxR4b+BP7W3jSP4ma1qUWi+K/GedD1TSNFvNMvrhLOFluLmKSxLSNkqdgdYTsXMZBbcAexWviX4s/EfWvita+Fvi7L8PrH4XWen6do1hZaXprwXN02kRXz3Woi6t5X+zFriKNEt3g/dwyHduYFADG8EfFf4xfH74oeAdI034lal8PtC8S/BvS/HuoWej6Vp89x/aFxclGEM19BOEjwy/eR8qq42klqAO++B/iH4wfG74B/DXxk3xLt9B1211sv4ku4NCgnXX7GxvLm2ntjG5C2rXIiR2li5jbdsUA4AB7/AEAFABQAUAFABQAUAFABQAUAFABQAUAFABQAUAFABQAUAFABQAUAFABQAUAFABQAUAFABQAUAFAHlX7WP/JrHxk/7J/4h/8ATdPQB6rQAUAebfGLwh/wlf8AZH7rf9l+0dum7y//AImgC98BtdPij4G/DvxKzbm1XwppN6xPXMlpE5z75NAHm/wz+FXgf4u/CK50Lx3p17dW2mfFLxprFk9lql3p09tew+KdW8qaOe1ljlRl3Nghhzz1AoA9H8C/A/4a/DrX73xb4d0e/uPEGoWq2M+ta1rN9rOom1Vtwtlu76aaZId/zeUrhN3zbc80AZGi/sx/Bfw7rFrq2j+G9St4bG9udRtNH/4SHUn0S2uLgSiZ4tKa4NjHk3EzYWAANIWADc0AO8Gfs0/CHwFqmi6voela9czeGoTBokWs+K9W1e30tfL8rNrBe3MsVuwizGHjVWCMyAhWIIBWsv2VfgZp6XtrZ+FNQi069g1K3/sgeIdTOl2qX6yJd/ZLA3H2azMizzLugjjKiVwpXccgHWt8KfAL2/gu1bQcxfD2SObw2v2qb/QXS0ktFOd+ZcQSyJ+83fez94AgA8f/AGb/ANkDw58KvAfgy0+IYuNf8VeFbi4voc+JdUvtHtbx5ZzHcWtjcyC2hlWKYqJEt0ZSzkHLEkA77Xf2a/g94ivvFN7qehasI/G8VxH4hsLXxJqdrp2pGe2W2lllsobhbYzNCiKZvLEmUVt24A0AO8Yfs3fB/wAdaleatr3h7UUn1TT4dK1VdN1/UdNi1aziV1jgvorWeOO9RUkkQLcLINjsv3WIIB0tj8MvAul+M4fiDpvh2C01y20KPwzDPBI6RxaYkvmpbpAG8pVV+QQm4DjOOKAMEfs9fB8eF/CngweEP+JP4I8QR+KtBtv7Quv9D1RJpZln3+ZvkxJcStskLJ82NuAAAD0agAoAKACgAoAKACgAoAKACgAoAKACgAoAKACgAoAKACgAoAKACgAoAKACgAoAKACgAoAKACgAoA8q/ax/5NY+Mn/ZP/EP/punoA9VoAKAPlH9uz9qP/hmw+CAL3yD4i/tLoevkfZv/j1AHrH7K/y/s9eBoR9yDTBBGP7saOyIv0CqB+FAHzL8RfiB4l0r4SWHw08Ba/4s0nxH4h+IPxN1iO48MaZfaheiLT9f1Z4UaKxR5xDJfzafHI2AhiMqMw3UAdbrP7W3xY8Uya/4m+EkfgKHwt4d+FWmfE2WPWra6ubu5M/2t5rASRTxrEQlqy+aY2McilWjbf8AuwBs37W/xhmbxx8RbHSPCEfgHwP4i8N6bLpU9jcnW7201W30932zC5EMU0TX42gxOsvKfuym9wDzrwz+1H4q+F1zfeJvFLar4qtdHPxU1UxXOuX3mumm6tClraqpmNv5YWQIGkhkaJR+62jcrgHv3jn4nftA/Czw/p1h498TfDJNb13Wra003UtL8L63qHnQG1kkubeHRLWWW7uriOSIlXWdIzCzO4iaPZKAfOOq/tM/G7xhaX/xGu9bsLK20j4SfEC41DQ7a21jTLe9vNL1iK0juVRbyG5spSPIIJ/fwqLmPcGmDQgHsup/tQfFPTrPX/HOjaV4X/4Qb4ea14c8M63p15Ddy6zqUt9FZNPdW1wZ9sKx/wBpW4SOSKYzeVKfNUsoUAsfDz9o/wCNeteNfCNx4sg8EHwj4w+IPifwLb2mnabdx6lbDThfm3unnkuWiYubAo8YiGMh1bny1ANP9oP48fGnwH408faR8OV8Eppfw++GMXxDuRrem3dzcXzC41BZbRGhuYliDR2SlZCr7WyCrh8xgGFf/tSfGLwmfFXhvxNpng3UfEUlj4NuPC81jaXVrY203iG9lskS/wDMnkaRLaVA5dDD5ygjEJYFQDnfHvxo+P198UfCXwlh8ReG9P8AGPhv4o2+h3eqWNteW+iarp954furyJp7H7UZGaNWybY3JDSwxEOu4FQDj/jF+058TtY8NeI9HuZY9G8SaD4O+JWnX2q6BqOo2UP9oaPLbRR3VnEtzsUMJAwMyyyxOGWOQDcXAPQ7T9rX4pf8JS2meGPBGo69oXhXUtE8O6pYW3gzXNU1LVTNbW0l7fR6pbqbC18lbuNhbz7nkEEpZ4vNjwAaX7XnxK8Y/Cz4v+CPGC63PP4S8P8AgvxZ4quvDtnPf2cmo3em/YZFEs1tdJHIrCZEVZoJYo1NwzxzGRPJAMr4hftPftE/CvUG+HfiKH4car4u1BPCl9pup2GmXsWmR2+q6mdPnhmgN28jPFIpZJVmCyKc7FKkEA9U+Pur+NLe3+Evw2uPF02knx34pg0PxLr+irJpxaKPTrq6khtj5kktobmW2WNGWVpI1dgsm7D0AeTa18ctT/Z31X4g+ENE0X4lyajMnh1/D2j+NrtvEUVrNqN/Ppwv4bm2vb3Ubm2doUl+wkLNut3EYU3OIwC3B+0/+0Fqeu+E/h3ZeHtI0rWPEHjWfw9H4l1/wHrel6fqGnDS5b1Lu2068nguUlR4nhkjaV0LRhlcCQbACdv2h/2kNR1vTn0iT4bW2ka/8WNe+GFjFc6Lfy3NotnJf+Tfyut4qzHy7Fg0CrHubBEqB9sYBBL+1j8U7zwN4ea31TwZpni57nxTaatDD4P1zxCbt9Iv3s0ktNP06Qzw27lFaWeeXbEXRVEpYlQDBuf2xvj9rXgfU/iH4U0r4fWOn+GvhHoXxK1Oz1HT725mu7i7+1NNaQyR3MaxJttWKSMshU4BWQNuQA9l+H3x38ceMfjTdfCa607Q4G0a81m81RhDKso0dYdPm0pkHmMollXU0DscoxtLgKEIwADrfjR8RfFfhXVvAvgHwCmkw+JPiFrc2l2eo6xbSXNjp0VvZT3txNJbxSxSTsYrZo0jEsY3yBmfCFWAPJ/HXx7/AGiPDp8UaTY6V8PLbWPhT4Eh8Y+Lxcx3k9vrbvJdbYNOYSxNZo0OnzyeZKLnY88UZB8tpHAMHxf+1T8dM+OfF/gWw8Cx+GPCGu+ENKt9O1fTr1r+8j1y10x9z3EdwqQtDLqQP+pfcgxhSm6QAtXf7SPx+tvEdr8K4m+H0viv/haZ8BXGsPo95HpzWL6GNTju0tPtpkEy7tpiM5V9m0MpfcoBXv8A9rT4oy6LDoltqHg7TPGGkar4m0fWFh8Ia54iGoy6VOsKT2Wn6c5ngtnLr5s1xLthYqi+cSSoBg3P7Y3x+1rwPqfxD8KaV8PrHT/DXwj0L4lanZ6jp97czXdxd/ammtIZI7mNYk22rFJGWQqcArIG3IAey/D747+OPGPxpuvhNdadocDaNeazeaowhlWUaOsOnzaUyDzGUSyrqaB2OUY2lwFCEYAB75QAUAFABQAUAFABQAUAFABQAUAFABQAUAeVftY/8msfGT/sn/iH/wBN09AHqtABQB8Pftz+DdO8d/FPRrDWrcXsGmeH4poIJACkLzXNwHcYGcsIYwckj92uAOcgH0Z+yxz+z74Jbs+nlx9DK5H6GgDn/wBmnwH4U8jWPif/AGWT4lPijx1oIvTcSkLY/wDCYapP5Qi3eWMyYYsF3HCgkhQAAY9p+wp8FIfHOpa/cWF3J4cutDtdEt/DkWpahBDHGl9eXlws8iXI+1280t2M2sytCoiUBSuFUA29F/ZH+G9v8T/FnxQ8TrPrd34h8RWXiCzsftF1bWVm9pZ28Fuktqk/2e8aJ4GmjklizG0nygFdxAOksv2Z/gdY3jXsXgG2leSLXIZY7m7uLiGWPWJRLqSPFJIyOszqCVZSFGQoUEigDNt/2S/gVa2qRW/hzXI72O/i1GPWV8Wav/bMcsdq9rGqan9q+2LEsEssYhEwiCySYT52yAQL+x3+zpFo0Xh228ATWumQ2Ws6YLW11zUYI3s9VKtfW7hJx5kUjqsgjbKxyKHjCON1AG1qf7NfwV1fxbY+NtQ8GtJqdg1hIqLqd4lncTWKlbOe5tFlFvdTwqQI5po3kUIgDAIm0A0tO+B3wt0n+xP7P8L+V/wjniC/8U6Z/ptw3kape/aPtM/Mh3b/ALXcfI2UXzPlUbVwAWfE/wAH/h14xv8AxJqfiTw79sufF3hr/hD9Zf7XPH9q0jdcN9nwjgJzd3Hzptk+f73yrgAo6z8BPhJ4hTXI9b8HQ3i+I9EsfDuoiS6nPmWNm8j2qp8/7qSKSZ3SaPbKr7WD7kQqAYNx+yb8B7vRbTQ7jwnqTrZa83ieK+/4STVBqZ1Zomh+2Pfi4+1STCNiqs8pKALtxtXABLdfsqfAO90S18O3PgFXsbTRtV0BE/tK8DvZ6kyvfiSQS75ZJnRWeZ2aUtlt4LEkAt6v+zX8Fte8S2nivVPB8kt5aNYSGBdVvY7G6lshi0murNJRbXc0QChJZ45HAjjG7CIFAOn8TfDTwJ4z13T/ABH4r8NWuq3umabqOkW/2otJCbK/EQvIJICfKlSUW8QIkVuFIGAzZAOJ0j9k/wCAuiac+m23g27uEkvdKv2n1DXtRvrrzNNcPYILi4neYQwsoKQh/KGT8nzHIB3vjrwB4O+Jfh2bwp440KDVdNmdZRG7MkkMyHMc0MqESQzIfmSWNldGAKsCM0AchY/s0/BWy0XxJokvg+XUh4uWNNav9X1a91LVLtYwnkg6hdTSXa+SY0eHbKPJdQ8ex/moAXw/+zZ8GfDGoaXrOl+FLh9U0fWZvENvqN7rF9e3smoy2zWrzz3E8zy3J8hzGBMzhVxtAwMAGpb/AAR+GFr9g+z+GNv9l+K7zxvaf6bcHy9auvtHn3XMnO77ZcfuzmMeZwo2rgAwdQ/ZZ+BupRwRS+EbyAQyaq7Gz17UbQ3Canci6v4Lgwzqbi3mmAdreXfDxgIBxQBLp/7MPwO0vwzqvg+y8FMmka34Yt/Bt9btql6/m6NB5/k2odpi6BftMwDqQ+GA3YVcAGj4H+Edv4T+JPjH4mXd/ZXmoeJ4NO0y1W3077P9i02ySQQwM5kdppC80rPKSoYeWuweWCQDc8ffDjwh8TdJttG8YafczxWN5HqNlPZ6hc2F3Z3SBlWa3uraSOeB9ryIWjdSUkdTlWYEA4bVf2Sf2e9Y0rRdDu/h6sVhoenHSYoLTVL21W8sjMJ2t77yZl/tCNpg0rLd+aGkklc5aWQsAdHqvwN+FmtR+JIdR8KrJH4u1PS9Y1hVvLiMXN3p32b7HIAsg8sR/Yrb5U2q3l/MG3NkA434mfsnfD74i+JNH8QCW70jyPGA8Z60LS7u459TvE0x7CJo7iKdJLN0XyHDwkYMA4DMWoA1bn9lb4FXOl6Po48HXVtbaJa3tjD9j1zULWW5tryVJbuG8linV76OeWNXlS5aVZGyWBJOQCbT/wBmH4HaX4Z1XwfZeCmTSNb8MW/g2+t21S9fzdGg8/ybUO0xdAv2mYB1IfDAbsKuADR8D/CO38J/Enxj8TLu/srzUPE8GnaZarb6d9n+xabZJIIYGcyO00heaVnlJUMPLXYPLBIB6FQAUAFABQAUAFABQAUAFABQAUAFABQAUAeVftY/8msfGT/sn/iH/wBN09AHqtABQB8q/tBRW03xvuVvDhF8KaUU+pvNSz/IUAeqfsp/N+zb8NZu0/huyuAfUSRBwf8Ax6gBf2af+Sdav/2UDx3/AOpVqlAHqtABQAUAFABQAUAFABQAUAFABQAUAFABQAUAFABQAUAFABQAUAFABQAUAFABQAUAFABQAUAFABQAUAFABQAUAFABQAUAFABQAUAeVftY/wDJrHxk/wCyf+If/TdPQB6rQAUAfG/7XusQaB8XLO6uJ0hW78OWkalzgMY7q7JA+nmD86APoP8AZx006N+zz8L9IIwbLwZotuR7pYwr/SgDj/BWiftJfDWx1jw1oXw8+Gut6bP4o8Ra3Z31347v7GeSDUdXu7+NZIF0eZY3RboIQJXGUJB5oA6D/hI/2p/+iN/Cr/w5eo//ACioAP8AhI/2p/8Aojfwq/8ADl6j/wDKKgA/4SP9qf8A6I38Kv8Aw5eo/wDyioAP+Ej/AGp/+iN/Cr/w5eo//KKgA/4SP9qf/ojfwq/8OXqP/wAoqAD/AISP9qf/AKI38Kv/AA5eo/8AyioAP+Ej/an/AOiN/Cr/AMOXqP8A8oqAD/hI/wBqf/ojfwq/8OXqP/yioAP+Ej/an/6I38Kv/Dl6j/8AKKgA/wCEj/an/wCiN/Cr/wAOXqP/AMoqAD/hI/2p/wDojfwq/wDDl6j/APKKgA/4SP8Aan/6I38Kv/Dl6j/8oqAD/hI/2p/+iN/Cr/w5eo//ACioAP8AhI/2p/8Aojfwq/8ADl6j/wDKKgA/4SP9qf8A6I38Kv8Aw5eo/wDyioAP+Ej/AGp/+iN/Cr/w5eo//KKgA/4SP9qf/ojfwq/8OXqP/wAoqAD/AISP9qf/AKI38Kv/AA5eo/8AyioAP+Ej/an/AOiN/Cr/AMOXqP8A8oqAD/hI/wBqf/ojfwq/8OXqP/yioAP+Ej/an/6I38Kv/Dl6j/8AKKgA/wCEj/an/wCiN/Cr/wAOXqP/AMoqAD/hI/2p/wDojfwq/wDDl6j/APKKgA/4SP8Aan/6I38Kv/Dl6j/8oqAD/hI/2p/+iN/Cr/w5eo//ACioAP8AhI/2p/8Aojfwq/8ADl6j/wDKKgA/4SP9qf8A6I38Kv8Aw5eo/wDyioAP+Ej/AGp/+iN/Cr/w5eo//KKgA/4SP9qf/ojfwq/8OXqP/wAoqAD/AISP9qf/AKI38Kv/AA5eo/8AyioAP+Ej/an/AOiN/Cr/AMOXqP8A8oqAD/hI/wBqf/ojfwq/8OXqP/yioAP+Ej/an/6I38Kv/Dl6j/8AKKgA/wCEj/an/wCiN/Cr/wAOXqP/AMoqAD/hI/2p/wDojfwq/wDDl6j/APKKgA/4SP8Aan/6I38Kv/Dl6j/8oqAD/hI/2p/+iN/Cr/w5eo//ACioAP8AhI/2p/8Aojfwq/8ADl6j/wDKKgA/4SP9qf8A6I38Kv8Aw5eo/wDyioAP+Ej/AGp/+iN/Cr/w5eo//KKgA/4SP9qf/ojfwq/8OXqP/wAoqAD/AISP9qf/AKI38Kv/AA5eo/8AyioA5T4saR+1P8UPhZ4y+Gf/AAq/4VaZ/wAJb4f1HQvtv/CxNRm+y/araSHzfL/sNd+3zN23cucYyM5oA+gKACgD85/+CuHh7xlqF78LtQ8FS+VM0Wsw3h2k7lU2ZiHBHQvJ+dAH2t+ztqX9sfs/fDLV9277d4O0W5z677KJv60AafxL+K/gf4RaTp2s+O9RvraDV9Th0awjsdJu9RuLq9lV2jhjgtIpJWZhG+ML2x1IoAd8O/ir4E+Kthf3/gjWJbo6VePp+o2l3Y3Fhe2NyoBMVxa3Mcc8LYIYB0XKkEZBBoA62gAoA5n4m/EDRvhT8PPEnxL8RW17caX4X0y41a8iskR7h4YULssauyqWIBwCwGe4oA6Cyuo76zgvYVYR3ESyqGHIDAEZ9+aAJqACgAoAKACgAoAKACgAoAKACgAoAKACgAoAKACgAoAKACgAoAKACgAoAKACgAoAKACgAoAKACgAoAKACgAoAKACgAoAKAPi3/go7rH9k/8ACvPn2+b/AGt+n2T/ABoA98/ZTBi/Zw+HdgWJOm6BbaZz1/0ZfIx/5DoA4T9tqHW7jT/gzD4b1CxsdUf4u6Atpc31m93bwy+VdbWkhSWJpFB6qJEJ/vCgDyn9oP4L+Jvh/DY+NvG/xE0jU7b4h/EDT7r4laxqPhqQ+G4LK3sprfS4brTY7xGGnRzC1WVprtlLlZJWZAY6AOfOjeB9E8F2FvYfFzwd40+C8vxa06bxnaeDNGaw8K6HavpzMbZs3V1D/Z73psJ7qPzfJRpmLqivIKAMb4znwCPhJ+0qfgtNpkPwdEPgv7HJoUqR6Ems/b0/tBtNe3IgVRB9hM5iIAmySd++gCb43WXwhWy+KU/7Kc3hh/BcXwS8QR+Np/CcsU2lXF7vX+zBNLb7opb8D7cxZ2M3lFi5w6bgCH4m6J4e1z4hfFSD46/GL4Z/D6/it9Ml8Ian4z8NzXWqWWkLp0bQXfh68/tK28uWO7S7Z0t4nkE6qZC+9EAB+iWhLdroenLqF/JfXQtIRPdSW32Zp5Ng3SGHjyyxySn8OcdqAL1ABQAUAFABQAUAFABQAUAFABQAUAFABQAUAFABQAUAFABQAUAFABQAUAFABQAUAFABQAUAFABQAUAFABQAUAFABQAUAfEX/BS3w5c6/wD8K5+zs48j+2M7f9r7H/hQB9D/ALL/APyRbSSv+qOo6yYP+uP9qXXl/wDjm2gCr8VviTr3hTxOml6X8Y/hB4ZiNrHKbHxWzi93EsN423cQ8sgDHydQ3JoA43/hd/jD/o5T9m7/AL+S/wDyxoAP+F3+MP8Ao5T9m7/v5L/8saAOO+L2u6h8afh7qnw18U/tQfs/Wumas1s80un3DJOpguI502s986jLxKDlTwTjB5AB2P8Awu/xh/0cp+zd/wB/Jf8A5Y0AH/C7/GH/AEcp+zd/38l/+WNAB/wu/wAYf9HKfs3f9/Jf/ljQAf8AC7/GH/Ryn7N3/fyX/wCWNAB/wu/xh/0cp+zd/wB/Jf8A5Y0AH/C7/GH/AEcp+zd/38l/+WNAB/wu/wAYf9HKfs3f9/Jf/ljQAf8AC7/GH/Ryn7N3/fyX/wCWNAHQeAfiv4k1/wAX6bo+ofHb4G63BcuyvYaA0h1CfCMQsIN64zkAn5G+UHigD3KgAoAKACgAoAKACgAoAKACgAoAKACgAoAKACgAoAKACgAoAKACgAoAKACgAoAKACgAoAKACgAoAKAPkT9v74g+C/An/CB/8JfLs+3f2p9n+YDOz7Lu6/760Aey/sq/P+zn8Pbo/fvNCt72Qdw8w81gffc5oA9E1TQ/DuoMb7WtH065aKPBmureNyiDJ+8w4AyT6cmgDB8KJ8IfHmhweJ/Ay+D/ABFo9yzrBqGki1u7aUoxVwssW5GIYEHB4IINAGv/AMIZ4P8A+hT0b/wAi/8AiaAKOu6T8M/C+j3fiHxLpvhjSdK0+Jp7u+vobe3t7eIdXkkcBUUdySBQBat/Cfge7gjurXw1oc0MyCSOSOzhZXUjIYEDBBHIIoAk/wCEM8H/APQp6N/4ARf/ABNAB/whng//AKFPRv8AwAi/+JoAP+EM8H/9Cno3/gBF/wDE0AH/AAhng/8A6FPRv/ACL/4mgA/4Qzwf/wBCno3/AIARf/E0AH/CGeD/APoU9G/8AIv/AImgA/4Qzwf/ANCno3/gBF/8TQBw3h/4vfsvXni2Dwz4V+J/wtn8TvcPaQafp+t6c1+ZxlWiWJH8zfwwKgZ6igDsfB3j/wAJeP11pvCWrfbx4e1m60DUv3EsXkX9sQJof3iru2lh8y5U54JoA6GgAoA57RPH/hLxF4s8SeBtG1b7RrfhFrRdZtfIlT7KbqLzoPnZQj7o/m+Rmx0ODxQB0NABQAUAcJ4v+PPwN+Hust4c8ffGfwL4a1ZI1maw1jxFZ2dwI2+6xjlkVsHscYNAGrZ/ErwPqHjaP4d2GvxXOvzaGniWK2ijkdJNMebyUuFmC+UwLjAAfdjnGOaAOmoA57WfH/hLw/4v8OeA9X1b7Prvi1bxtHtPIlf7SLSNZLj51Uom1HU/Oy5zgZPFAHQ0AFABQAUAFABQAUAFABQAUAFABQAUAFABQAUAFABQAUAFABQAUAfEX7cfwd0n4/8AxQ0bwrrrQrB4S0CLULczdC9/cTo+PfFhHn8KAPof9lr938BvCtl/0D47rT8en2e7mhx+Hl0Acx+2t4u8RaT8G2+HvgW1vrzxb8Tr+LwfpNtp7QfailwrNeyR+c6RgpZx3LB3dVVthLL1oA8c+Gmu638H/EHxn+CWgaFN8EYPEfh6Xxr8PJPF1xpklppdyLdLO9d5Le5uYfLS5W1nCMzHEkrMhGA4Ba8Oav4w+HGqa/8AD/xLc+MPhl8RLrwVr/8Awj+veI/ifP4v8J3otxZKmrzfbpGlspY55Bt8y0hiKPKD5pKxKAcl428TeLvhH4G+I/hTxRp3xU8E/ECL4beJ7rRb8fFS98VaRq0NnHZk6nHJPMLqwulkc+WTb267ZJRudiqIAdj4n1LUfHcH7RfiDxp8R/F2j3Hwv0S1i8O2Gl+Lr7RorCI6El6t/L9iuIhctPcSycz7wBbqgAw4IAz4bW/iD4tfFz4ZeF/F/wASfHw0aT4B6H4ivbLTPFd/pov9Se48trmeW2lSZpCGJLBwWIG8sBigDkfCPxB+NnxF0D4B/DufxFc6tDrul+KpLiW+8bX/AIYudfu9LvTbW0Emp6fby3Lyx2oknaNdnnGNpJHbYVcA2Lu8/aHTxR8MfgH4j8X6LrqXJ8VTYsfibqulyajJZTRfZNNuNctLL7ZPdWttNM0iCKEzeR5krMUYOAeweB/D+s23w38HeH/jd8fY9J1bw/8AEARaXc6D42Mr6q0c832PQb+8uIYn1GQo3lSxGNJJjArNl9zEA+i6ACgDivjbD4Xuvg544sfG/iKXQPD974d1C01TVYs77C1lt3jknXAJyisWBx2oA+btN8R/En4F6J8K/DPjnTfg78UPhNqOq+FvDXgvV/D1tPY6nHcSIBb6ilm/2q2uAip5ytbzRsFVpFAHyqAebXek6n4W+Ef7Rvxu8NeOvGOleJPC/wAW9Yn0lLHX7q20+Fo9RtSwlsY3W3uhIHZHFykuV4G0UAbH7WnxD8VaVD8aPif8LtQ8S2E3wsu9JiutZ1D4m3+l2lnqYjtJVtbLQYo5LS8gdZYFc3gQTSXEypvVQaAD9rT4h+KtKh+NHxP+F2oeJbCb4WXekxXWs6h8Tb/S7Sz1MR2kq2tloMUclpeQOssCubwIJpLiZU3qoNAHTXngXQvEv7QH7U/iLxF8QvFvha08P6XoNyt3ovia70aKzYaIXN5K1tJH5piEeQsxeIDdlDkmgDk9e8f/ABC+Knw80/UNR/4Sa28b6P8ABiw8WeKr5viZqHgzTNJNxFcPFeQ22nxv9qu38qaWQTRrbxLFDGWUsyAA6j4baj4p+Pvxc+GcHjz4h+NINO1j4B6H4v1LTtC8RXeiwXmq3Fxh7h/sLxMrfvD/AKtkBwoIKgLQB7d+xz4n8SeL/wBnDwhrHi3XbzWtUQX9hJf3rh7i4jtb+4tomlfA3yeXCm5z8zNlmJJJIB4zpsHjb4Zab8UfiV8BfGvwi+Ivw6vPFniXxF480rxIlzp2pWE6RBruw+3xGaI7NhwtzarsiKDcyMrAAq+FdG8M/HH9pvwRrENv4l8G6FqHwF0rVrfRNC1e50OS2jk1BjFaPLZtDMscQcAJGyISi5BUAUAZvgPxn4s+J3w4+Cnga5vvF3izxvqFh4mmLP8AES/8JWc+n6dfi0+0397p6NdXdyALZEjRH3eZPLLjAYgHK/DS81r47L+yPJ438ca7c3FwfiDY3GraTr0qXd5bWMpt4R/aMIjmffFbxhrhDHLIMsWBdiQDb1Tx78V9P0JPhRoni7U7rSJfjzqXghb7WfFt7YXX9mrafa7TTH1pIri9iMtyywJNh5mUpCJFDb1ALvjO8/aH+Htpofwq1Lxfoo0zxX8SrTTUto/ibqtxfaZZzadJcR6Tc6+9l9vgFzdxL5LiJptkwhEoVlZQB/jfTfjZ4S0bw18PPEfxTudIttZ+M2g6db2/hzx9f6zq+laVeWUzT2F1qV1BDcSI8itLGJUZlWRRvYJGVAPa/gIdT8OfHH4z/C2HxN4h1Pw34ePh2/0mDXNZutWns5Lyzl+0Kl1dySXDRs1ujhHkZVYvtChiKAPzq/4KZzftPfs4/HF9d8H/AB/+KNl4G8cCTUdJig8XaikNlcgj7TZqBNhVVmDooAVY5UUfdNAH27/wTZ8CfGDRPgPB8RPjh8R/GPibxB46MepWttr+uXV8NO00Kfs6okzsEeQM0rMuMq8QPKUAfWtABQAUAFABQAUAFABQAUAFABQAUAFABQAUAFAHxv8Ate+If+EU+Llnf+Zs+3+HLSHOevlXV2f/AGrQB7n+y18/wF8KXf8Az/RXN/n18+6llz/4/QB6HfeG/Dup6xpniLUtA0671XRfO/sy+ntY5Liy85Ak3kyMC0e9QFbaRuAwcigCr4j8C+CPGMkM3i7wdoeuSW9rd2UL6lp0NyY7e6j8u6hUyKcJNGAkijh1GGBHFAGJ4c+BnwT8H6drGkeEfg94I0Sw8RWpstYtdO8PWltDqNuVZTDcJHGFmTbI42uCMOwxyaAGaB8CPgf4U0zWNF8LfBrwNo+n+IbcWmr2mn+HbO3h1GABh5VwiRhZkw7ja4I+ZvU0AeZ/Gz9lfUPjH4o1DU7vWvhymm3mmQ6TaPqvw3t9S1vRIFDiQ6dqRuYzA5MjOnmQyrG+GVTyCAew+Ffhz4L8GQaQmheHrGO60TRLbw5aag9ujXi6dAB5duZ8bzGCobbnbuycZoAg1X4R/CjXfCkPgPW/hj4T1DwzbTm6h0a70W2msY5izsZFt2Qxhy0kjbgucux6k0AQ3PwX+Dt74KtPhtefCbwbP4RsJjcWugS6DatptvKWdy8dsU8pGLSSNkKDl2PUmgCzZ/Cr4X6doWi+FtP+G/ha10Xw3frqmjadDo9ulrpt6ru63NtEE2Qyh5JGEiAMGdjnJNAHU0AFABQBwnhD4DfA34e6yviPwD8GPAvhrVkjaFb/AEfw7Z2dwI2+8okijVsHuM4NAG3L8PfAM+kat4fn8D+H5NL167kv9VsX0yE29/cyMGeaeMrtlkZlUl2BJKgk8UAZPiT4HfBXxlr8virxf8H/AATrmtzwG1l1LUvD9pc3UkJjMZjaWSMuUMbMm0nG0kdDigA8SfA74K+Mtfl8VeL/AIP+Cdc1ueA2supal4ftLm6khMZjMbSyRlyhjZk2k42kjocUAR+I/gP8DvGHiRvGXi34M+Bdb192iZtV1Hw7Z3N4TGAIyZpIy+VCqF54CjHSgC94s+Enwq8e6vYeIfHPwy8J+ItU0oAWF9q2i213cWoDbx5UkqM0eG+YbSOeetAGjpHgfwVoF3Z6hoXg/RNNutP0uLQ7Se00+KGS302M5js42VQUgUgFYhhARwKALeheH9B8L6XFofhnRLDSNOgZ2is7G2S3gjLuzuVRAFBZ2ZjgcliTyTQBymvfAb4G+KfFD+OPE/wY8C6v4jkkimfWL/w7Z3F60kSqsTGd4zISiogU5yAqgYwKAOq/4R3w+PEB8WjQtP8A7cNmNOOp/ZU+1m0D+YIPOxv8veS2zO3cc4zQBzWt/A/4LeJtD0/wx4k+EHgnVdH0mWaew0++8P2k9taSSsWleKJ4ykbOxLMVALEknNAGtp3w88AaRLpU2k+BvD9lJoT3kulvb6ZBG1g92xa6aAqo8ozMzNIVxvJJbOaAG33w5+Hup6NrHhzUvAnh270nxFcte6xYT6XBJb6jcMVLS3EbKVmc+XHlnBJ2LzwKAM/Tfgv8HdG8H6h8PdI+E3g2x8K6tMbi/wBDttBtYtPu5SEBeW3VBHI2Io+WUn92n90YAF0H4N/CDwtpdtofhj4VeD9I06y1RdctrOw0O1t4IdSVAi3iIiBVnCAKJQN4AAzigDobTw/oOn6tqGv2GiWFtqerLCuoXsNsiT3YhBWISyAbpAgZgu4naGOMZoA8/wD2hf2e/Av7SPg3T/BfjuyimtdO1zTtZido9zAW9wjTRDBBAmg86AnPAl3YJUUAemxRRQRJDDGsccahURRhVUcAADoKAH0AFABQAUAFABQAUAFABQAUAFABQAUAFABQAUAfmr/wV98UXngfWvhfqtnHKx1S11e3fywTxA9qwzj/AK7mgD7V/ZS/5Np+GDf3/CumufctApJ/WgDovjL8S9L+Dnws8T/E3WEMsHh7TpbqOAAlrmfG2CBcAndJK0cY93FAHm/wS/aB8R3fgfx7L+0lF4f8LeK/hZdyDxUumLKLKKxa1S7gu41Z5XKNC5HDuS8T47CgC7J+1Romk+Ebrx342+E3xF8JaGulw6np11qen2cp1Xz5Yore1gjtLqaRLqV54VSCdYXO45A2SbQC7qv7SFt4a0wz+M/g/wDEHw9q11qthomjaLdwadNc63e3nmGKK0mtryW0JCwytIZZ4xEiF5CqlSQCreftWeC9F8NeM9a8VeD/ABZoOq+AbnS4Nd8PXkNm+oQJqMkcdnOjQXEltLFIZD8yTtjypVIDoVoA3/HHx+8HeAfFuueDdY03WZr3w/4HvPH9zJbQxNE+n20pjkiQtIpM5I4UgJjq46UAc94N/ao0LxhqnhjTW+Fnj/Qx460m71bwnPq1rYxJrYt4UmeCNUu3kglMT71+1LAjBWIbpkA5z4A/tQ/EP4lfBC3+J3iz4B+LZbxxME/sBNOkg1OQai1okVrE2oPMjKMNI9wIowI5W37QuQDJ+Ov7U+tWHwP+KWp+EdF8S+AfH3w7n0MXmn61ZWV1cw299dW4jnj+zyXVtOksRuEAV2dWjcFVIUkAufGL9qjUNL+GXxKsNM8J+Lfh1490bwDqHi/w6PEVnYSG8ghVlNxCIZriLdFIYd8M4SQeahMZBbAB1fiH9qTw54TXWVbwT4x8S2PgqytLjxlrmi2lrJZaF5sCzt5yyTxzTNHAyzyJaxTMkbKSASFoA6Hxx8RfGl7d6p4G+D/hqe48RyeEz4m0LxHqulvceFbqXzwiWEl1DNG3nyD5gFPyRuJfnC+WwB5n4e/a71L4pXWh2Hwp8ITS32i6fda38S9Mms5L2/8ADi2xmibRVhR4s6nPdQSxwhyB5cLymNlZAQDsD+1JoOlt4qs/HXwy8c+DtU8LeD7nxydN1aLT5ZtR0q33id7Z7O7nh8xGVFMcskTZmjOCCxUAytL/AGv9N1nV9D8P6f8AAj4qyar4s0g694btGstMjbV9PXYZJ1dr4R2oRZI2K3bW7fvEVQzsqEA39D/aPtPGfgfwl48+G/wk8f8Ai+18Ww3kq22nW+n28umNayiGaK8e8u4IY5BLvQKsj7jHIV3Ku6gDIf8AbA8CXWk/Di/8MeB/HHiO9+KKaiNG0rTtPt1u4LiwKrd291588ccLxuXRnLmLMTnzNu1mAPQvhR8VtE+Lmhajq2laRq+j3eiaxeaBq+latFEl3p9/bOBJE5hkkhfKsjq8UjoyyKQ2cgAHj/8Aw0tceB/i98ZdB8b3uoazY6JrvhrRPB3h7S7OB7+7ur7S453trcfIZWZzJIWlk2xorEsiKcAHY+O/2k4/htHfav4w+C3xGsvDWjGw/tjxH5GmvY6cLkQlnZRe/aJ0gM4Er20MygpIFL7TQBieGPjZ44tPF/xZsLvwn4n8dx6F49tfDuh6XoFpYrNZ20mi2l2xkknlt4liEjzEyTS53SIgJyq0AV/G37WNvY/BvXviR4d8F+J9OvPDXiBvDWv21/pdleTeHryOeJG+1W66lAlwjrNEUa1uZeJ425CuoAPR/h18Q7nxl4r+I/h83MU58F6/Ho6J/ZptNhext7oKZftE32ji5X955cGOV8s7d7AHwZ8Q/wDgsj4m+FvjjXPh34y/ZONnrXh6+lsL2L/hNiVEkbEEqTp43IeqsOGUgjgigD7T/ZU+OXij9o34P2Hxc8R/DL/hB4NZnlOl2Lasb+S4tEO0XDMYIdm5xIFXacqquDhhQB7BQAUAFABQAUAFABQAUAFABQAUAFABQAUAFABQAUAFABQAUAFAH52f8FdYIpv+FUebEj7f7dxuGcf8eFAH17+yn8v7Nvw2tT9+y8N2VjJ/10gjET/+PIaAK/7QnwZ1n46P4K8HXV/DbeB7LXk1rxSkOo3Npf3aW0bPZ29u8ABUG6MUjv5kbL5KlCSeADzXxz+xT/aXinxPF4I8X6nZ+FviV4IvvCfjEa54i1PWL0XK/Npl/AbyWVpWhLzo0byxqEc7eWagDc8Z/Db9pv4tfD6Hw141l+HHh7XfDzaTrujappmoXupR3/iDT7uC5ilnhktrcWtq7QOrRqZ2AmBDHysSAF/xv8P/ANoD4kf8I74u1TTfh/4f8R+AfE9n4g8P6Zaa1e39rfxi3uLa9gu717OFofNhumEbR2shiaMMfMDFFAOZ8b/s0fFL4r6D8XNf8X6t4Y0Lxf4903RNN0Ow0+6nv9P0yLSJ2u4FmunggkmM91JIZGEA8uMqFEhUlgBfEnwL+PPxL8feOfHfjK28A6CPEPwo1T4faZp+ma3e6h5V1cS+Yk808lnBmMktnbHuXAwHzkAHX2HwM8W2usfs+ahJqOkGP4T6XdWOtBZpd1xJJpAs1Nt+7+ceYMnfsO3nBPy0Aef2f7OPx00z9ne//ZuspvB50iw1GSew1MeIr6CTxBp76ybuXTr+GKzDWcU9rJJbyvDPMTlhtKOQADmNQ/Yu+It54W+N1j4c8I/CbwI/xLtPCcejaB4duZ49NsZdKvJprgzzJYxbjKrqwkS3ByxRl+TzJADtPiz+zx8ZPj4nizXvG9v4J8Oas/w91jwX4Y03TtavNRt1utSKGe8urt7O3ZVCwQRrEkD4BlcsxKqoBm6/+yNqmm+OPGninSfgp8DfiavjH7JqEE3j2IxXei6hHZpbSxrINPumurRzBDKse6AoxmAzv3AA+iNNs/iTp3ju10+OLwfH8OrXw2kKpbQ3EOqLrCzAAJHkwJZC3HC5MgfAyVoA8uX4AfEOzg/aIk8N+MLHw7qvxYuftPhzVdPllW401xpUNqskrBFMbiaN2DRszAMGVg/QA8r0r9i/xrDqfirUdG+HXwg+HVvrXwf1z4dRWHhi9urj7TqV21uYb67uXsoXkTETK25ZJV2ht8xkIjAPYtD+Bni3TPiZ8HfGc+o6Q1l8PvAt/wCGNTjSaUyzXU6WKo8AMYDRg2smSxVuVwpycAHmMH7JnxJ0/wANfDzRdb8P/Dv4jaV4TuPFNxqHhHxJqt1b6NPdajqUlzaX64sp1mnhgkli2zQFU8+UxsD8xANX4KfsoeP/AIaH4Fpq2qeFHj+F9x41k1RNL8+GGVNXuZZLVbSJo/lVFdQ6Mw2YwrSYyQD2D4JfDPXvhtc/EWbXLuwnXxd451HxNY/ZJHYx2s8VuiJLuRcSAwtkLuXBGGPOADyHxT+yX45n+O3j79pHwT4n0rTPHE19pV54LluLq5ks3t4tNitL/T9St9mwQ3PlAeZEGlQpDIrZj8tgDj/jz+x98XfjRF8S21Xwj8JdY1rx5a2Q0bxH4h1a8u7zwekVrEr6dYxmwK+R9oW4ZZ4nt3JumlkikZfLYA6/x/8AsvfEjX9e8V6tajwh4h0TxB8SLTxfdeE9Z1K6tdO1zTodGgs1tb947eU5juoUuFiMc0LmKPeCRhQDyv4hfDu2+Bn7N/xU+EmvXnw80bxX8VPHNrr/AIT8E+FLrDGCafSoFtLS1aOKSdo3t5AXiiCsB5hWPc0aAH1r8Kvhrrvgbxv8VfEurXdhNa+OfFEOt6clvI7SRQJplnalZgyqFfzLaQ4UsNpU5ySAAfKP7dX/AAT+g/aG+Pvw0+Ifh1Gs4Nc1FNG8bSwxncLOCCSZLokAgN5UDWwZuNz2y+tAH3XomjaV4c0aw8PaFYQ2Om6XaxWVnawrtjggjQJHGo7KqqAB6CgC7QAUAFABQAUAFABQAUAFABQAUAFABQAUAFABQAUAFABQAUAFAHwD/wAFWtGudX/4Vd9nH+q/tvPHr9h/woA+qP2Yv3fwihsh93T/ABD4l05P9y31y+hX/wAdjFAHq1ABQAUAFABQAUAFABQAUAFABQAUAFABQAUAFABQAUAFABQAUAFABQAUAFABQAUAFABQAUAFABQAUAFABQAUAFABQAUAFABQAUAFABQAUAFAHx7/AMFCLrw1bf8ACA/8JDqEVru/tXyd/wDF/wAeu7H6fnQB7Z+zL/ySyc/3vF3i5vz8RagaAOo+JXxV8D/CLR7HXfHeo3trbanqUGj2SWWl3eoz3N7Nu8qGOC1ikldm2tgBTzx1IoATwP8AFLwz8Qp7u20HTPF1q9mivIdc8H6voqsGJA8tr+2hWQ8chCxHGcZFAF7x/wCP/CXwu8Iah488dat/ZmhaUsbXd35Es3lh5FjX5IlZzl3UcKeuemTQBfn8QWFtr9p4akg1I3d5by3MckemXL2qpGVDCS6WMwRudw2o7q7DJUEA4ANKgAoA57W/H/hLw74s8N+BtZ1b7Prfi5rtdGtfIlf7UbWLzp/nVSibY/m+dlz0GTxQB0NABQBX1DULDSbC51XVb63srKyhe4ubm4lWOKGJFLO7uxAVVAJJJwACTQBwnw1+P3wq+Lmoy6R4H1+9nvo9Nt9ajttQ0a+0yS506dmWG8t1vIYjc27MhAmi3pkr83zLkA6Pxr440XwBpUWs67ZeILq3muFtlTRPD2oazOHKswLQ2MM0qphDlyoQEqCQWUEA8/8ACf7V3wd8dW8954Q/4TvVra2a6jluLb4c+ImhWW23edD5n2Hb5qlGXy87y42BSxC0AeuW86XMEdzGsgSVA6iSNo2AIyMqwDKfUEAjvQBJQAUAFABQAUAFABQAUAFABQAUAFABQAUAFABQAUAFABQAUAFABQAUAFABQAUAFABQAUAFABQAUAfAf/BST4Uaj8dvG/g7wnptxcRnwppU+oyeTKyEi+m8sZwef+PA4/GgD6m/Ze+f4KaPd/8AP9favfZ9fP1O6lz/AOP0Aec/t7XdjYeC/hfe6p4w/wCETtIPir4dkn13zbaP+zUDTE3G+5R4F2D5syoyDHzAjigDA8f+IfhN4y+D3i7RX/b7t/Eul3U2kWuo6hez6HqNhpsUl/EvlXqaPBaOtpd82sxmmSMxysCygtkA8E8Vad4R8Yfs2/HLw5oHwZ+D99daLo2japeeKPhIpufDV+9vqFxJsW3MQS3vrezd5JfKedzHON8igRxgA7n43f8ACjvtuo/8M+/8IL/wi/8AwpD4m7v+EN+x/YPtXlaZ5mfsn7vzMbN38WNue1AFvwf8Cfg0vxi+AOgS/DPQJ9M8V/C7UNS8QWU9qJLfW7yBNOaG4v42yl7KjXE7K9wJCGfePmVWUA5Dw5qngE/CL4H+AviJZ/C6z0+3bxpDY+KvitZnU9F062stXe3i06C1eeCKS6eNYNjSTJ5UNrIEDlyoAMr4e6P8M9V8CfspeNvjxpXha88IaXqPjnwzqOreLNPjj0+3t4Jb+PTLSf7eW8iNRbbYYZm+QoEHzAZANf4n6J4A1z4ifFWD4mfGL4SfD60it9Ml+H2p+I/Db3V1ZeHl06NrO78MXkepWyRmO4S5bZaxOwlVC5cPGgALfx7f4e6Z4+8YeIvFXiD4MfGXWmtoNP1XwV45tbjR/GkLppMIt7Pw9IBLLEbiab7RGkNqn765k2zb8ugB9o/GvUtbf4B+NdU0LwBN4k1SbwtfSW/hm5jLyXsj2rf6JIkTbnJztZI23NyqHJFAHwx8N/iDp/wq8S/DjWvAfxs0jxp4RvrLw/Y+I/HEkrX9z4J0WJSX0TVQEkisLW5uJkEE0vkXCNHKs7yJbmaMA/SW0u7W/tYb6xuYri2uI1lhmicOkiMMqysOCCCCCOCDQB8HeFv+Ucnx9/6/PiD/AOll1QBzvxU+H3gnxFD+2F4313wzY3+v+FfDeg3ug6jcR759JuY/DkEqz2jnm3l3xxkyR7WOxQSQoAAOi8XeCdU+Hvi/Xbb9nDQDoXifxL+zxqWo+ToqlLjUtWhu7YQ3bsMvcX2LmcLPIXmZpOWJOSAb37Juh/Cm3+KXhrW/hb8cfhXdXNx4Snj1Pwt4H8JS6bfX9uPs7Jca2G1K7aO6t5HC750SffcTIXJZloA+2KACgAoAKACgAoAKACgAoAKACgAoAKACgAoAKACgAoAKACgAoAKACgAoAKACgAoAKACgAoA+ZfjGu749aoPTwhon/pbqtAHon7LnyfAzw7ad7GTULE/WC+niP/oFAHeeNNS/sfwlrGq/8JFY6B9kspZf7UvYPOgs8KT5rx703heu3cM9KAPm/wD4Xpj/AJvc+Gf4+EP/ALuoAP8Ahe2P+b3vhZ/wLwj/APfCgA/4Xxj/AJvg+Ev/AALwn/8AfGgA/wCF9f8AV8fwf/Hwp/8AfOgBP+F+Y/5vl+DH/AvC3/30oAX/AIX9j/m+f4I/j4Y/++1ACf8AC/8AH/N9PwK/Hwz/APfegA/4aBx/zfZ8Ax9fDf8A9+aAD/hoPH/N937Pv/AvDv8A9+qAD/hoXH/N+H7O3/AvD3/38oAP+Gh8f835fs3/APAtA/8Av7QAf8NE4/5v1/Zo/HQf/v8A0AH/AA0Xj/m/f9mL8dD/APwgoAP+GjMf838/st/jov8A+EVAHuvwg8Wf8Jp4Mi1z/hZ3grx9uuJY/wC2fCFv5OnPtP8Aqwv2u6+dejfvj9FoA7agAoAKACgAoAKACgAoAKACgAoAKACgAoAKACgAoAKACgAoAKACgAoAKACgAoAKACgAoAKAPlL9ofVhofxunuicfavCulR/98Xeon/2egD1f9mH5/g/a3S/6u813xFeQj0im1q9ljH/AHw60AerUAFABQAUAFABQAUAFABQAUAFABQAUAFABQAUAFABQAUAFABQAUAFABQAUAFABQAUAFABQAUAFABQAUAFABQAUAFABQAUAFABQAUAFABQAUAfFX7a0ksXxT0poG2s3h+AMR3AubnH8zQB7/8Asp/P+zb8Nbs/fvvDVjfyf9dJ4hM//j0hoA5n9sX4jeLfhv4N8E3fhLxXrPh067490fQtSvdF0iLU78WFwZRMtvbyW9x5kpCgqFhdiQAAc4IBhN8dNP8AhN8P/FnxF1Lx58XfHCaWljBFa+O/By+FrSGe5uVt4XN2+kWKpD5kqGeVjL5USs4QnCuAYfxr/aK+Odn+zL4z+K3gjSPAFkbGHTZ9D8T+GfGieIdOu0lvmt7pY2k09A0sRjRGVozGROSsm+NkAB0nj749/Ef4aeJlk8e+FLS0ubDwB4r8XvouheJUvdNu10sWjRrJPPpcNysr+e6goVRAMskxYbACLRv2nvjLrXibwf4Pi/Z/0C31P4heHZPE/h8z+OyLeKzi8pplv3WwLwShbiAKtul0GZ8FlVWkUAsJ+1lquofB/wAF/F218J+CPDth4jlvrLVJPHPj6PQbLS7+1neA2iXH2WZrl3khuSmIkykBZtpIWgDil/as+LfxM1/9nvxD8GvDvh9dH+I8PiRdU0fVNfEcNxeafFIksX2yGyuGEMUsLvFPEAZhtDxxg8AGr8Tf28tC+G/iLxToFzp/gNpvAENqfElpqPxAt9O1K4uXgWe4g0e0lt92oGKN1AaRrUSyHy1+YNgA1fit+0J428W+FfivpnwM8J2F9p3gzwy0mo+J9Q8RXGkPDc3WmG8QWEcVnO8ssNvJBI3mNb4eVFByGKgHqvwO1XXtV/Z7+H+tzXDarrV54M0q6eXULtwbu6exiYtNMVd8u5yz7XbknDHggHzl8MP2iPj9qf7M/hT4mfEi30//AIm3iaw0hNa0TXIF1G7a48QiwKTWk2km2hiWNiCY2aR1jGDE7l0AOp1j9srx5plh4m8W23wGtb3wp4X8fz/D2a5TxdHHqN3eLeizinhtpLYQ+U0kkIbzbiMoXfhlTewBra5+2FN8O9K+JafF7wDp2ha78O5dEiW307xGLvT9TOrArZFb25t7XyFEqyLK0kQWNUL5ccUAXvhb+1cfijc+OvCnhzRPBniLxh4T0RNc02z8HeOIda0vWUkWVYoBqBghFtN58Pluk0Q2rLFIC6k7QD3Dwvf63qvhnSNU8S+H/wCwtXvLC3uNQ0r7Wl19guXjVpbfzkAWXy3LJvUYbbkcGgCPxXa+LrzQ57fwNrekaRrDMnkXeraVLqNsgDDeGgiuLd2JXIBEq4JBO7GCAePfs9eJ/id8cP2RPBfiq8+IUmkeM/E+jQ3Nx4hh0u1leKQzfvHS3ZRBuMasq5QqpIYq2NpAK/wg8ZeO0/aJ8cfCGb4lah8RfC/hrQbC9vNY1OysIbvSNZmlkH9nM9jBbwy7oEWbHlb0yAzfMBQBT/aJ8Z/Evw1+0N8CdI+HNrNqkmtL4nS50WXW303T73y7S3KSXbqkmUi3O4xDKwP3VycgA9J+CXxXvPivomvy6z4XTw/rnhTxHf8AhjV7KC/+22wurYqfMt7gxxNLE8ckTgvFGwLMpUbckA9EoAKACgAoAKACgAoAKACgAoAKACgAoAKACgAoAKACgAoAKACgAoAKACgAoAKAPjX9sGwn1T4tWUFqm9oPDlo7j0DXN2B/6CaAPdf2UP8Ak2L4TkdD4M0cg+oNpHg0AT/Hv4Q6z8X9F8L23h7xdZeHdU8J+K9O8V2dze6S+owSTWZcrFJCk8DFWLjJEgOB75AA2Twp+0dd6Le21z8afBFrqvn2k+nXmm+AbiOFBHMrTxXMM+qTGaOWINH+7eB0Lbg/GKAPLR+w7o+p+GPifpmueIvD2k6l8StKtNLlPgrwoug6Xam1mkuLe7ex+0Tm5uftErs8skuWjCxjYMlgDo/G/wCzd45+KM9xqvxB+KOhSapP4I8T+CRJo3haazt1i1ZbYLP5Ut9OxaE2zEr5gEm8DMe3LAHR6T8A/wCy/Hnwx8b/APCWeb/wrjwjeeFfsv2Db9v89bRfP3+YfK2/ZPuYfPmfeG3kA4jQP2TPFPgZ/Aes+Bfijoqa/wCBk8TW8M+u+FH1Gzlh1nUPtkhjt0vYXt50wsXmpNl03Blw20AB4a/ZF1/wP4S+GVp4T+LFs/iz4Y6x4h1Oz1nWPDv2m1v4tYlu3uIrizguYCGH2lNrxzIN0Wdm1ygAOhb4H/Fzw14i8WeJPhV8ZdA8Py+PBbX2uW2p+D5dSt4dYjtVtpL+wRb+EweakUBaKY3C5hQ55YMAUvGf7NXjbULz4iQ/Dz4u2PhzSPirZxx+JIL/AMMLqFyt2LMWct1Zyx3MEULywJDvWSGUb0LLt3EUAeufDbwh/wAK9+HfhbwD/aP2/wD4RrRbHR/tfk+V9o+zwJF5mzc2zdszt3HGcZPWgDxHS/2TvFOmfDq1+DUfxT0lvBWi+JrTxFokX/CMyjU7cQa4uqC3uLr7b5U4wGhDrBEQCrkMQVYAvah+yd9v+HninwF/wn2z/hJfiYfiJ9r/ALKz9nzqkN/9j2ed8/8AqfL83cPvbtnG0gF/x/8Ast2fj7X/AIi+IpvHN7pd74zj8Nz6Tc2Voon0HUtFlmmtbtGdis/72VGKFVG1GXJ3ZUA6zTPCXx3l03xPF4n+M/h9tQ1LSTY6DPofg02UGkXhWX/TZIrm8umunDPCRGZEjxEQVJckAHaeF7DW9K8M6RpfiXxB/bur2dhb2+oar9kS1+33KRqstx5KErF5jhn2KcLuwOBQBH4rtfF15oc9v4G1vSNI1hmTyLvVtKl1G2QBhvDQRXFu7ErkAiVcEgndjBAPFvh/+zz8XPh3+zO37P8A4e+O+m6fqenWEWmaB4q0/wAJNFcWEAcGRpYJb2VZpWUuodWi2bgwUlRQB0fwG+D/AI4+DWnR+Fp/E/gW68NxrNM1to3hK+sL64vZGDPdXF3c6pdtO7fMXZ0LsSDvGMEA3PGfwm/4S74u/Dn4qf2/9k/4QBNZT7B9l8z7b9vt44c+ZvHl7PL3fdbdnHy4zQBL8KPhZ/wrCfxxP/bv9pf8Jl4uvfFOPsvk/ZPtEcKeR99vM2+Tnf8ALnd90Y5AO9oAKACgAoAKACgAoAKACgAoAKACgAoAKACgAoAKACgAoAKACgAoAKACgAoAKAPnrxzoMHif9ojxHZXLIq2Pgvw7Ku8gAmW+1oHGf+uQ/SgD0j4AaV/YXwI+G+h7dv8AZ3hHR7THp5dnEuP0oA72gAoAKACgAoAKACgAoAKACgAoAKACgAoAKACgAoAKACgAoAKACgAoAKACgAoAKACgAoAKACgAoAKACgAoAKACgAoAKACgAoAKACgAoAKACgD44/a68ff8Ku+LtprfneT/AG54bs7XOcbvs11eNj8PtX60AfR/wLvotT+CXw+1KBUWO78K6TOioAFCtaRMAAOg5oA7igAoAKACgAoAKACgAoAKACgAoAKACgAoAKACgAoAKACgAoAKACgAoAKACgAoAKACgAoAKACgAoAKACgAoAKACgAoAKACgAoAKACgAoAKACgD88P+CoNgl74z8DERrvTS7vc2OSDKuBn06/maAPsn9m3TJ9F/Z2+Fuj3TMZrHwXoltIW67ksYVP6igDhv2xLzVo9D+GGjab4i13R4PEHxP8P6NqUmjavc6bcT2U7SrLD59tJHKqsMZ2sOgPUCgDE8UXN9+zZ8bfhzYeHfGnivVfB/xAOr6frOha/rt3rklrLZ6fLexX9nNeSSXMZAgeOVPOMJWRWEauNxAOd+FP7VXxn+JV/4J1i38HzPofxA83bZw/DXxFCfDME8Ektjez6tOUsdRhG2FZRF5APnhondVywBnfs8/Ej426D+xzH8W/HXxr8EyW8Md4YNQ8TaJqM01s66xJC7XM4v3kvWKB44LaKOJ2doIg5/iAK15+1D451/T/F/hPxBBHeX/hHxh4Egg1K30LxB4Na6stZ1BIGWSxuLhbtHjaK4wxmaGZWjDRlQ6sAewfsaf8kn1v8A7KB4y/8AT9e0Ae7UAFABQAUAFABQAUAFABQAUAFABQAUAFABQAUAFABQAUAFABQAUAFABQAUAFABQAUAFABQAUAFABQAUAFABQAUAFABQAUAfBP/AAUWtxdePvCiEZ8vR5D+czf4UAfcPhS2tbPwvo9nY/8AHtBYW8cP+4sahf0AoA8//aO+GsnxK8FaWljF4ok1bwz4gsPEekjw5dadb3gvLdj5b7tQR7cou9mKupztA9iAeYeFfDPxD0bxqvxH8afBX4q/ELxNbWM2madf+I/EnhgpplrMVM8dta2kltbRtLsQSS+UZWVQhfYNtAFHwB4M+Jnwzn0bTvDHw3+O8XhDw9dTXOmeD/8AhJ/CR02BH83bbmbzVvpLeNpiUikumUbI1IKIFoAxo/hH4mtfB138O7P4QfHq18Lrqi63oel2+ueCwvhy/XUv7QjnsZjP55KT52rcSTIEYqVIAwAInwk1u51HxFrvij4L/tDeI9Y8Vah4a1LU9Qvtd8FLI8uhXb3NkqRwXkUMSEuEkVI1DKoYbZGeRwD6F+AfhSDwf4FuNOg8JeKfDn23XNV1eSw8SXOnz3iS3t5LdSkNYSyw+XvmcIN5YKAG55IB6PQAUAFABQAUAFABQAUAFABQAUAFABQAUAFABQAUAFABQAUAFABQAUAFABQAUAFABQAUAFABQAUAFABQAUAFABQAUAFABQB+f/8AwUo8T6P4N8c+DtQ1+byoNR0meG3P954ZsyD8BNH+dAH2z8L7xtQ+GnhK/fO650KwmOfVrdD/AFoAv+LPCei+NtEm8O+IEvHsbhkaRbS/uLOQlWDL+9gdHAyBwGwe9AHBf8Mx/CMfdtvFi/7vjfXF/ld0AH/DMnwpH3X8br/u/EDX1/le0AH/AAzN8Lx92++IS/7vxJ8Rr/K+oAP+GaPhqPu618TF/wB34o+J1/lqFAHdeEPCGk+CNGTQdFutauLZJHkD6vrd7qtxljkg3F5LLKR6KXwOwFAG3QAUAFABQAUAFABQAUAFABQAUAFABQAUAFABQAUAFABQAUAFABQAUAFABQAUAFABQAUAFABQAUAFABQAUAFABQAUAFABQB8Sf8FKfgnZ/GL/AIVz9rjjb+yP7X27/wDpr9jz/wCi6APrD4TJ5fwr8Gx/3fD+nD8raOgC94y8eeBvh1pA8QfEHxnoXhjS2mW3F9rOow2VuZWBKp5krKu4hWIGcnB9KAK/gf4m/Db4m2lzf/Db4g+GvFltZSCG5m0PVre/jgkIyFdoXYKSOcHnFAHS0AZ2geIvD/ivSYNf8La7p+s6ZclxDe6fdJcQSlHKPtkQlW2urKcHgqQeRQBo0AFABQAUAcV4b+N3wX8ZeJJPBvhD4u+Ctc1+HzfM0rTdftLm8TyziTMMchcbTw2Rx3oAoeIv2jP2e/B+tXfhrxb8d/h5omr2DiO60/UfFFjbXMDEAhZIpJQyHBBwQOCKAOp8TeMvDfg46QviLUDbPruqQaNpyLBJM1xeShikYWNWI+VHYscKqozMQoJoAuLr+hPrsnhddasDrMVol/JpwuUN0lqzsizmLO8Rl0dQ+NpZWGcg0Acz/wALu+C//CZ/8K5/4W74K/4Sz7R9k/sH+37T+0fPxnyvs3mebvxzt25xQBteJvGXhvwcdIXxFqBtn13VING05Fgkma4vJQxSMLGrEfKjsWOFVUZmIUE0AYvhv43fBfxl4kk8G+EPi74K1zX4fN8zStN1+0ubxPLOJMwxyFxtPDZHHegCzqXxb+FWjeMbb4d6v8TfCdj4rvTGLbQrnWraLUJy/wBzZbM4kbdg4wvPagCt4k+N3wX8G+JI/Bvi/wCLvgrQ9fm8ry9K1LX7S2vH8w4jxDJIHO48Lgc9qAJvHHxg+EnwxntLX4lfFLwj4Tmv0aS1j1zW7awadVIDNGJnUuASASM4yKAOn0/ULDVrC21XSr63vbK9hS4trm3lWSKaJ1DI6OpIZWBBBBwQQRQBYoAKACgAoAKAOK8N/G74L+MvEkng3wh8XfBWua/D5vmaVpuv2lzeJ5ZxJmGOQuNp4bI470AH/C7vgv8A8Jn/AMK5/wCFu+Cv+Es+0fZP7B/t+0/tHz8Z8r7N5nm78c7ducUAbXibxl4b8HHSF8RagbZ9d1SDRtORYJJmuLyUMUjCxqxHyo7FjhVVGZiFBNAFxdf0J9dk8LrrVgdZitEv5NOFyhuktWdkWcxZ3iMujqHxtLKwzkGgDO1/x74R8La3pPh3X9Zjs7/W4ryezR43KtDaxiS4leQKUijRWXLyFVyyrncwBAM/wP8AGP4RfE26ubH4bfFTwf4subKMS3MOh65a37wITgM6wuxUE8AnjNAElj8W/hVqfjOf4cab8TfCd34ttS4n0GDWraTUYii7n3WyuZV2jk5XgcmgCt/wu74L/wDCZ/8ACuf+Fu+Cv+Es+0fZP7B/t+0/tHz8Z8r7N5nm78c7ducUAdD4l8UeGfBeiXPiXxj4i0zQtIs9n2nUNTu47W2h3uETfLIQq5dlUZPJYAckUAalABQAUAFABQAUAFABQAUAFABQAUAFAHiP7Sun/bv+Ec+XOz7Z+vk/4UAereD7H+zPCOiabjH2TTraDHptiUf0oA8U/bD/ANR8F/8AssXhf/0ZLQBlfGG60Cx/bC+Dt74QaBfFtrp2vT+MDYKGnHhVbNtn28RAyNF9u+zfZw4IMu/YMh6APIPhZ4s8WTfFb4DX2maj4q0/wZ8ZLTxDAqa18V9R13VdZ01NMkuobqexdPs+mXCtFbvusZ90RnMRIyRQBg/D2HVfhF/wT80/4heAvEWv6XrOqau3h/Vb/UPFupfYtHsZfEklrdXCxytPBYOke4NcxWxkjJeTDMCCAe++APBfxF8J3XxI8O/Ez4iWXhHwfq3hUXKQQfFHUvEOr+H5Ns8VxqkOoapbQzWkJj2sN5kSOW3Lrty4IB734Ct9Ms/A3h200XxTdeJtOg0m0jtNbur5b2bU4RCoS6kuF+Wd5VAcyDhyxYdaAN2gAoA+Wbu20f8AaH+Jnw+0X4QaBY2fwy+EPiH+3rnxVZW6Q2l3f28c0KaXpRVdssQeRvtEqfuxs8tWL7gADK8f3/jT9mPSfi1+0P8AD34jeBfFnh/VfFkOrap4ZudJlF692ptbCfTrfUYr0olziEhEa0dvNIQrzkAHqImk+I/7UrQBt2i/B7R1dl5Ak1/VYyAfQmDT1PpxqXfsAcn4J8H+EfB37enjKHwj4W0jQ49V+F+lapfrptjFbC7vZdZ1HzLiURqPMlfau52yx2jJOKAM/wCN1to/x9vZ/wBmf4PaBYyWcfiS11Xx54ntLdI7TQJYLuO7lijlVdsurSsoBUbmjEjPKVyuQDvBNJ8R/wBqVoA27Rfg9o6uy8gSa/qsZAPoTBp6n041Lv2AODu7bR/2h/iZ8PtF+EGgWNn8MvhD4h/t658VWVukNpd39vHNCml6UVXbLEHkb7RKn7sbPLVi+4AA8k8ZtpTfsl/tRi+EP/CTL8UdfEGQgu/7S/tGA6PjPJfYbLysc7du2gD279onWrXxhpXif9m/4XeE9E174kfEDTEsvE80dspstCtZ4PJGo6nKBkMsQP2eJiZZCibV2KSAD0Sbwivh3Q7Lwj8NfGfhPS/HHh3w7p+ny6xr+kDVL0aRGHSN5oorm2l2PJFKysZPL3pL8rEHABzX7D8/hmf9lnwG3g/RbvStIjt7yG3t7m/S9c7L2dHlE6RQpIkjq0iFIo12Ou1FGAAD3SgAoAKACgAoA+Wbu20f9of4mfD7RfhBoFjZ/DL4Q+If7eufFVlbpDaXd/bxzQppelFV2yxB5G+0Sp+7Gzy1YvuAAD43W2j/AB9vZ/2Z/g9oFjJZx+JLXVfHnie0t0jtNAlgu47uWKOVV2y6tKygFRuaMSM8pXK5AO8E0nxH/alaANu0X4PaOrsvIEmv6rGQD6Ewaep9ONS79gDk/BPg/wAI+Dv29PGUPhHwtpGhx6r8L9K1S/XTbGK2F3ey6zqPmXEojUeZK+1dztljtGScUAbvg6bRPiL8Vfip8U/Fzae/hHwtbS/DyxGobRafZoAJ9anlEnyeW87R27knbjTjkAZJAMLwLbTfHz4+eGfjn4Z0A6L8OPh5o2oaV4b1R7f7PN4olvViVpYYyoYadFHFmJjt812DoCgBIB4h4Iayb9jz9mg6eLT/AITH/hZ2iAZCif8AtUapMNV8zHz7vK+2+djnbvzxQB6/8brbR/j7ez/sz/B7QLGSzj8SWuq+PPE9pbpHaaBLBdx3csUcqrtl1aVlAKjc0YkZ5SuVyAeO/t72XxS8XeBfifrfxP8Ag94ofwt4UjWHwS9jqWkSaPETJEr61eK16t1JdOHkhij+zEW6MxG5pWZAD740DU73WdGtNU1Hw9qGhXNzGHl07UHt3uLY/wByRreWWIn/AHJGHvQBoUAFABQAUAFABQAUAFABQAUAFABQB8Ff8FQvit40+H138OLHwNZXF3PdR6tLepC2DGgNoIifqfNx/umgD7g8KavH4g8LaNr0O3y9S0+3vF29MSRq4x+dAFfxl4D8DfEXSB4f+IPgzQvE+lrMtwLHWdOhvbcSqCFfy5VZdwDMAcZGT60AV/A/wy+G3wytLmw+G3w+8NeE7a9kE1zDoek29hHPIBgM6wooYgcZPOKAM7w58Dvgr4P1v/hJfCXwf8E6Jq4na6/tDTvD9pbXPnFJIzJ5scYbeUnmUtnO2WQdGOQCxZfCH4Tabq2u6/p3wv8ACVrqniiKaDXL2DRLZJ9UjlOZUupAm6dXPLByQx65oAg8M/BL4M+C9M1nRfB3wj8F6Fp3iOAWusWmmaBaWsOpQhXUR3CRxhZk2yyja4IxI4/iOQDq9L0vTND0y00XRdOtdP07T4I7W0tLWFYobeGNQqRxooCoiqAAoAAAAFAFqgAoA8z0/wDZi/Zr0nU7bWtK/Z6+GdlqFlOl1bXdv4SsI5oZkYMkiOsQZXVgCGByCARQBqf8KL+CX/CYf8LD/wCFO+B/+Eq+1fbv7c/4R60/tD7T/wA9vtHl+Z5n+1uz70AXfh98OdF+HMGuppV7f3tx4k1288Q6jd30iPNNdXBHHyKqhI40iiQY4jiQEsQWIBm2PwB+BOmeKh46034K+A7TxKLp74azB4bs474XLkl5vPWMSeYxZiW3ZJJyeaAKWsfszfs3+IdWvNe1/wDZ9+G2p6nqM8l1eXt54UsJp7mZ2LPJJI8RZ3ZiSWJJJJJoA3fh18NNB+Gdprdtolze3UniHW7vX7+4vHRpJLicqNo8tEVY440ihjULxHEgJYgsQDA0/wDZi/Zr0nU7bWtK/Z6+GdlqFlOl1bXdv4SsI5oZkYMkiOsQZXVgCGByCARQBv6h8IvhPq/jK3+I2q/DDwle+LLVo2g1640W2k1GJoxhClyyGVSo4GG47UAZvir9nz4CeOtduPFHjf4IeAPEOs3gQXGo6r4asru6mCIETfLLGzttVVUZPAUAcCgBdd/Z/wDgN4ptdLsfE3wS8A6vb6HaLp+lw3/huyuEsbVfuwQK8ZEUY7IuFHpQB3NpaWthaw2NjbRW9tbxrFDDEgRI0UYVVUcAAAAAcACgCWgAoAKACgAoA8z0/wDZi/Zr0nU7bWtK/Z6+GdlqFlOl1bXdv4SsI5oZkYMkiOsQZXVgCGByCARQA7WP2Zv2b/EOrXmva/8As+/DbU9T1GeS6vL288KWE09zM7FnkkkeIs7sxJLEkkkk0Abvw6+Gmg/DO01u20S5vbqTxDrd3r9/cXjo0klxOVG0eWiKsccaRQxqF4jiQEsQWIBm2v7P/wACtP8AEzeN9L+DPgWw8TG5kvV1y28N2SX6XTklpxP5W/zCWYlickk5zk0AXfAvwn8IeBPhlbfCaC2k1nQo7W4tbtdYWO5fUvtDu9y90NgjkaZ5ZWkGwKxkb5QDigDP8Nfs7fs/eC9ctfE/g74F/D3QtYsWZrXUNM8MWVrcwFlKsUljiDqSrMDgjgkd6ANXT/hF8J9I8ZXHxG0r4YeErLxZdNI0+vW+i20eoytIMOXuVQSsWHBy3PegDC1j9mb9m/xDq15r2v8A7Pvw21PU9Rnkury9vPClhNPczOxZ5JJHiLO7MSSxJJJJNAHb634Z8N+JtDn8MeJPD+m6to11GsU+nX1pHPbSoCCFaJwUYAgEAjHAoA06ACgAoAKACgAoAKACgAoAKACgAoAKAPgn/gop440r4a+P/Cus63BBNDrWjyWsCzqGVWtp2ZyuehIuUz9BQB9U/sw38+p/s3/Cy9uzm4k8G6MJ/wDrqLOIP/48GoA9NoAKACgAoAKACgAoAKACgAoAKACgAoAKACgAoAKACgAoAKACgAoAKACgAoAKACgAoAKACgAoAKACgAoAKACgAoAKACgAoAKACgAoAKACgAoA+Ef+Cofwhg+Kv/Cs/OtfO/sv+2ccZx5n2L/43QB9MfstfL8BPCVsPuWkNxZxn1jhuZY0I9iqCgDX+Mfxi0r4NaVoF/qHhfXvENz4m1+18NaZp+ii18+a9uFkaME3U8MSr+6YFmkGCR2yQAZHhT9pb4Za5DrsXi29f4e6r4Y1SPR9Y0nxfc2llcWlzLCZ4F8xJpLeUSwq0qNFK4ZVY9VYAA2L39oD4Dab4b07xlqPxt8A2ugaxLLDp2qzeJLJLO8kiOJEhmMmyRkIwwUkg9cUAbfiP4j/AA88HeGoPGfi7x54d0Tw/deV5GralqkFtZy+YN0e2aRgjbhyuDyORmgDMtPjh8FdQ8NJ4zsPi/4JufD8l6dNTVofEFo9m12E8w24mEmwy7AW2Z3bRnGKAK17+0H8BNN8O6b4v1H43+ALXQtZkmi03VJ/EtklpevEdsqwzGTZIUPDBSSp4OKANLxt8XfhR8NY9Pm+I3xP8JeFY9WWRtPbW9atrEXYTbvMRmdfMC+ZHnbnG9c9RQBB4o+Nfwb8Eado+seNPi14M0Cw8QwG50i61TXrW1h1GEKjGS3eSQLMoWWM7kJGJEP8QyAcV8Tv2sPhz8Mb6OKbSde8SadFoFv4s1TV9AS1ubLStFnn8mG/md50aWJ2WVgLZZnKRO23AGQDvtK+I+i638Rdd+G2lWV/cXnhqytbvVb5UjFnbS3O4w2pYvvacxr5pVUKqjIWYF0DAGv/AMJR4Z/4Sb/hCv8AhItM/wCEh+wf2p/ZP2uP7b9i8zy/tPkZ3+V5nyeZjbu4znigCxrGpJo2k3uryWl3dJY20ly0FnA088oRSxSONfmdzjCqOSSAOtAHmPhn9oe11Xxt4b8A+MfhV458Bap4xtLu70D/AISGPT3S/NtGks8X+g3dw0EqxyB9s4jyFYDLKVoAy9B/ay8Fa/qegPD4L8Y2vhTxXrT+HtB8Y3FrajSdRvg0iIiKtwbtEkeKRI5JbdI3YDDYZSQC94f/AGnfBXiL4nx/DO28NeJ4FvNZ1Xw5p2vz29v/AGXqGq6bGZL20iKzNcK8axz/ADSQpGxglCuxA3AHa/DT4j6L8VfDbeL/AA1ZX8ejyXt1aWF1dJGq6jFBK0RuoArsfIdkbYzhGZRu27WUsAdXQAUAFABQAUAFABQAUAFABQAUAFABQAUAFABQAUAFABQAUAFABQAUAFABQAUAFABQAUAFAHGfEbwFp/jf+z/t7Rj7F5uzeP7+zP8A6CKAOc/ZV+f9nP4e3f8Az/aHb32fXzwZc/8Aj9AHKftheDfFfjbTvhPp3hEa9BcWnxQ0S9udR0WzS5n0u2SO5D3ZEsUsSqhZctLG0YJG4HNAHD/GP9mjT9CHgGbS9O8R/EDVvEHxh0DXvGOsavbpfXN1bwQ3May3KQQpbw20CGONQkUcaLtyMkkgHZ+K7i4+G37V138VvFnhHxNqvh3WPANroOk6rofh++1l9NuodQmmurV7eximmjE6y2sglKBG+y7SwKoCAeQfDDwR4x+EUvwJ8d+Pfhv4mj8L6EnjfyNF0vRbjVrvwlJqt59o0xZbayWWZgtiJrUlI2EBk8skB6AOY8N6DffFXRZbyx8B6xqWnSftXtrF9ZXmjyNJbaetuC011Aykwou5d3mhShIVwrAgAHq3xi8I+I9K/ac1fxz4h174m6T4V8R+CLPRNP1PwX4St/EaxvDdTtd6fdW76bfzRLKJ4ZVdUjifynV2ZkjAAOPHhaD4Wf8ACI6x8KfEPx58G63pPgnQdOt5NZ+Fs3i221jRIJ7uaLTbqKzg82zuULlJIlns2RXiG3I3IAXNUj8b+G77wp48Wy8d/CX4m2/gfw9Y6tpfhr4YT+L/AApeWdvJcyHSoUs4nktCkjOrRpd2+xJIsNJgSgA6nxr8C4fGPwQ0z4i/Evwj4l8NeJE8AWXh/wATeAfACwta6xbQOJotGWMQTyQxCZpI1Nu8ZijnkDTFF3gA8v8AiL8Pfj38PJJobG5+I934w8QeGItf0288I/2j/Ztx4/udSzef2j9k/cC1jt1sIIxe/wCji2hkA+YNQB9jf2j4Z/4Xl/ZP/CrNT/4SH/hE/tH/AAm39hx/YvsX2zb/AGV/aGd/m+Z+/wDs2Nu35+tAHVeItXfw/wCH9T16PSNQ1VtNs5rtbDTolku7sxoW8mFGZQ0j42qCwBYgEjrQB826FMfF/wC054N8b/C3wj8QY9Na11d/Gt94z0HVbWGzhlgX7LBp51mNXtma5Cl4tO2ROi5mDbIdoB5l4I8MeNrv4H/BX9l24+HfjKx8V+BvG2kS69fTaBdw6ZaWOlag1y97DqTxi0lEscUYjWKV3zMAV4bAB3vxi/Zljt/FWlp8O9c8dtfeL/E2p3cMEflNo/hX+0omXW9VWVLcSJPJbvcxwxzXDKJ70tEg2koAYvwe0L4oeFv2gNI8M2Vh8R7Gw0jxL4ksNUtbr+0v+EVg8HxWhTQY7LzP9A8xStgB9n/0jIufN/ioA+zaACgAoAKACgAoAKACgAoAKACgAoAKACgAoAKACgAoAKACgAoAKACgAoAKACgAoAKACgAoA57xbqAsfsmW27/M/Tb/AI0AcV+yx+7+AHg2x/6BtnJpmPT7NPJBj8PLxQB6tQAUAFAHHfEH4S+CvifLpNz4ri1lLrQpZZtOu9I8QahpFzbtKmyTE1lNFIQy8FSxGO1AGl4H8CeE/hv4eh8LeDNIXT9OhkknKmWSaWaaRy8s000rNJNK7sWeSRmdmJLEk5oA36ACgAoAKACgAoAKACgAoAKACgAoAKACgAoAKACgAoAKACgAoAKACgAoAKACgAoAKACgAoAKACgAoAKACgAoAKACgAoAKACgD5I/b4+Mn/CpP+EF/wBL8n+1f7T/AIsZ8r7L/wDHKAPYf2XP3nwM8O3w6alLqGpr/u3N9cTjHtiQUAerUAFABQAUAFABQAUAFABQAUAFABQAUAFABQAUAFABQAUAFABQAUAFABQAUAFABQAUAFABQAUAFABQAUAFABQAUAFABQAUAFABQAUAFABQAUAfm5/wWL8J3Pij/hUf2dpR9m/t/OxiPvf2f1x/u0AfZv7KP/JsXwoY/fbwbo7Sn1kNpGXP4sWNAE/x9+LWr/CzQNBsvCGhWus+L/G2vW3hfw5aXk7Q2a3kyySNcXTorSLbwwwzSvsUs2wINpfcoAy0n/aC8HXNzrvjjWvBnjTw7Z6Xe3VzZ+GvC97pmrieJA8K20ct9dx3Rk2yJ5ZMJDMhDNypAOU8S/tS3ml6J4204/B/xj4d8a+HfBdz4y0zR9fTTnXUbSMtG0qyWl9JEFil8vzY3lil2yLsVieABfBf7UN/d/CTwd438e/CbxVp2veMIdKttG0m0/s6WTxDf3dt57fYFS+kEUKokkpa8kg2RrlyCDQBqP8AtVeCbbQbq61Lwn4rsfE9r4mt/Bx8Gz29qdZfV7iMTW8C7LhrUpJbnz1n+0eQI1ctIpRwoBWh/a28F2Nh8RLrxz4I8YeDbn4ZR6Y+sWGqQ2VzcTPqAP2OK2Fhc3CSyStsQLuB3SIPXABfH7TGgabL4o0zxx8PvGHg/W/C/ha58ZvpGqpYTXF/pNuWWaa2ks7qe3dldVRo3lRwZIyQFcMQCn4f/aq0LWIvBOrav8K/H3hrw/8AELUbXS9A1zWINPjtri4ubeWa3DxRXcl1CJPJ8tWkhUF5IuzbqANa9/aL0BdC+IfiDw54B8b+KoPhzrcfh67h0DTI7y51O+/ceellCJRJKIDcKJWcIAY5dpcITQB6xQB5h8ffi1q/ws0DQbLwhoVrrPi/xtr1t4X8OWl5O0Nmt5MskjXF06K0i28MMM0r7FLNsCDaX3KAMtJ/2gvB1zc67441rwZ408O2el3t1c2fhrwve6Zq4niQPCttHLfXcd0ZNsieWTCQzIQzcqQDlPEv7Ut5peieNtOPwf8AGPh3xr4d8F3PjLTNH19NOddRtIy0bSrJaX0kQWKXy/NjeWKXbIuxWJ4AF8F/tQ3938JPB3jfx78JvFWna94wh0q20bSbT+zpZPEN/d23nt9gVL6QRQqiSSlrySDZGuXIINAGo/7VXgm20G6utS8J+K7HxPa+JrfwcfBs9vanWX1e4jE1vAuy4a1KSW589Z/tHkCNXLSKUcKAVof2tvBdjYfES68c+CPGHg25+GUemPrFhqkNlc3Ez6gD9jithYXNwkskrbEC7gd0iD1wAXx+0xoGmy+KNM8cfD7xh4P1vwv4WufGb6RqqWE1xf6TbllmmtpLO6nt3ZXVUaN5UcGSMkBXDEAw9O/agm8TXvw3vrPwL4p8J6B4+1NbawvfEWk2bjU4G0+6vN0Yi1ITWQVLbJkngbO5AsZDGRADW8LftT+DfE+qeG9/g/xZo/hnxrPPa+F/FuqQWkWk6zLGkkirHtuGuYfNihlkhNxBCJFT5SSyBgC98PP2hI/iXc6Be+HvhB8QE8KeKXl/sfxbcW9h/ZtzAsUssVy0aXbXlvDMkJ8tp7aP5pIlYIzqpAPKP2i/+CkXwd/Zg+JM/wAMPiV8PfiO2oJaw3tvd6fp9jJaXlvIOJYWku0cqGDxnKL88bjtkgHQfstft2/DH9rnxBrOhfDLwJ48so9AtEur/UdZsbOG0iMj7Yod0VzI3mPiRlG3GInORgZAPpGgDyH4d/GLW9Q+KvxV+FnxHXRtOufBE1prGk3cAe3ju/D13CWink8123PDLDcRSyKVTKr8q55AOE+Gf7XeueLvDkOqS/CjxJ4o1bWba78VadovhWxgjudP8LPcyRaZc3jX93CjT3UcTSpHCxd1yViAUkgHT/8ADW/gzWPEfh7wt8N/AvjPx9feKPCsHjLTjoNvZpCdOklaLMst7c26QyK6EMkhUgkKMuCoANTSf2iofEmszW/hT4QfEDXdAtfEA8NXHiaxg05tPivFuVtbg+U14t48ME7OksyW7RgRSyKzRr5hAMLw9+1Fp82j6VbvouteL/FHiLxJ4i0XR9F0LSbewuZ49JupYrqU/ar9oEjiEaAzSXEfmGSPbGjOIwAWNW/a98AaP4NtPFU/hHxnNfTeM/8AhX914ettPhl1Sx1za7C2lRZvKYFVRhJFLIjLLGysVJYAHQeGfj/pniKx8fRzfDrxrpfiT4cwLc6t4WuLS1uNUnjktTc2/wBl+yXE1vcGZVdEVJt3mIVYKcZAK/i/4+P4QX4TavqPgPU7PQvidqlpo1zLqUn2S/0C8vLYyWUNxabWy7yjyJB5i+W5H384oA19Y+Lv2P44aL8EtG8OnU7y78O3nifV7oXgi/syzjlSC2xGVIlaeYyIo3ptEMjZOMUAZ/wd+N9/8VfFvxA8Jar8NtW8G3fgPULCwlttVvrS4upjc2Ud0GdbSSWGPCyjASaTIwTsbKKAafxo+K7fCjRNEl07w6de13xVrtp4a0LTTdi0iuL64DsPOnKv5USRxSyO4R2CxnajHAoApfCn4u65438TeNPh54y8G2fhzxf4HksmvbWy1c6jY3FreRNJa3ENw0EMhVjFMjK8KlWib7wIJAPhr4h/8FkfE3wt8ca58O/GX7Jxs9a8PX0thexf8JsSokjYglSdPG5D1VhwykEcEUAfaf7Knxy8UftG/B+w+LniP4Zf8IPBrM8p0uxbVjfyXFoh2i4ZjBDs3OJAq7TlVVwcMKAPYKACgAoAKACgAoAKACgAoA+BP+CqfxC0LwM3wxTWNNlvWvBrRQRqWKBfsWScA4zu/Q0AfUv7KnH7N3w3QdE8OWaL/urGAP0AoAn+Pvwl1f4p6BoN74Q1210bxf4J1628UeHLu8gaaza8hWSNre6RGWRreaGaaJ9jBl3hxuKbWAOY8aeHP2sfiZ4d1/w4dZ8EfDCG70O/tLS58P6xeaxfzX81vJHC/wBqktLT7HHEzrJuijklLKu149pDgHmngD9jfXdO8d6lrlx8PvhZ8NtC1T4X6p8Prmz8F3E97cT3V1NasL+aaa0tjMdkUi4k3SAqCZJfNPlgF/V/2aPij42+Efwz8H+PPB/wu1DVfhDPpf8AZ9hfajPqujeJraGyayu47yOewU2TPG/mRMqXXlyKh+bbkgGR8Qfh3b/CDwp4b+Jeo+FfgX8Gr3wr8QbHVNJsNJuZ7bRNQjlspLKWLUdQjsYRDJItzcFJzaMsXlRAlg7lQDn/AAN4G8ZftM6l8f8AxXp+s+FLGbXdV8H3fhfXNDvJdY0JtS0UC4VY7to4ftsQkSKOV0jUKXkRQWjyQD1jxf8ABH4xfF3WPFPi/wAfQ+D/AA9fSfDnWvA/hzSdK1i61K3FzqW0zXlzdSWdu6r+4tkWJYXwBI24kqoAK37SHgex8M/sHal4S8YaslrqfhDwnpq2N9YgyMuu2SwfYTblgGLPeRwxrkKSJMHGTQB1Xw/+GHxX+D/7M2neCvhrdeGLv4lpCuoXt54m886fd6rdXQuNRlna2/etky3GwgnkRg/KDQB7hQB5h8ffhLq/xT0DQb3whrtro3i/wTr1t4o8OXd5A01m15CskbW90iMsjW80M00T7GDLvDjcU2sAcx408OftY/Ezw7r/AIcOs+CPhhDd6Hf2lpc+H9YvNYv5r+a3kjhf7VJaWn2OOJnWTdFHJKWVdrx7SHAPNPAH7G+u6d471LXLj4ffCz4baFqnwv1T4fXNn4LuJ724nurqa1YX8001pbGY7IpFxJukBUEyS+afLAL+r/s0fFHxt8I/hn4P8eeD/hdqGq/CGfS/7PsL7UZ9V0bxNbQ2TWV3HeRz2CmyZ438yJlS68uRUPzbckAyPiD8O7f4QeFPDfxL1Hwr8C/g1e+FfiDY6ppNhpNzPbaJqEctlJZSxajqEdjCIZJFubgpObRli8qIEsHcqAc/4G8DeMv2mdS+P/ivT9Z8KWM2u6r4Pu/C+uaHeS6xoTalooFwqx3bRw/bYhIkUcrpGoUvIigtHkgHrHi/4I/GL4u6x4p8X+PofB/h6+k+HOteB/Dmk6VrF1qVuLnUtpmvLm6ks7d1X9xbIsSwvgCRtxJVQAa+s/s/eI9b8MfAnw5d6hpfl/DWSIa8VnlH2iIaFdae4tj5fzHzLhWG/Z8oJ64UgHEfBL9lPXfhHL4S0CP4JfAGVvCkj26/EKPTj/b91bRRyrazGzWyQJdt/o6yyfbmyRM4yWCgAf8ADH9mPx74a+KXh74g2fgb4e/CZ4JY7rxb/wAK98UanNZeKGjtJoEtpNIktbeyhiMlw83mt50yFFCtuZpAAcz/AMFT/wBmWL43fAO4+IOg2St4q+HEU+qwMo+a504KGu4TjqQqCVevMbADLmgD1D9hj9mm1/Zf+AOjeDby1iXxPqoGreJJlwS19Io/chucrEoWMYOCVZhjeaAPoSgD5s/at/Zq+IHxh1vSfEnwm8VaV4b1O/0i98FeLbm9eVWu/DV46PMkOxHBnjZHMYOwfvny44oAq/EX9k6xn+KsXxD8M/B74T+P9In8L2XhuXw744jEK6YbF3+yz2Vz9ivCqmKaSKSHy13bIW3nbtoA6b4Z/AzxV4T+Mei/Eq/0/wAFaNptp8M7fwlPo3hqKSC1tNQF+11ItrEY1UWqhyqsSrMRkxrnAAOE1f8AZh+IuufFGLx9pXgv4dfD3xD/AG7597498GeJdUs9R1LSk1EXflXWkJbJa3UtxHFFFN9puJ0BZ3AfaiUAXvC37N3xZ+HGqeGvH/hK78J6p4k0DXPGj3OlX2oXNpZahpOuakbyNfta20rwTwtHbMcQOrfvU3YKuABz/sxfEfVTpfinXNZ8OL4lv/jHY/EvXoIJ52tLSxtrX7JFY2sphDXEiQxQfvHjhDuZCQg2igD0LT/hn8RPDPxK+M3xL8M3fhyS+8a6RpMPhmK/knMUV9ZWlxGPtqogKwmWWPPlszFA33TjIBP8XvhV4j+Nf7OepfDnxjcaba+MNS0S3la60lnW0tdegVJoprdpQZBCl3GrLu+fYMHBJoA5v9lnwX8V7CHxr8Yfjt4Yj0X4g+Pb62+1aTbXkFwtnp9hbCC0gV4naPLObmbhyM3HOCDQBS+A1p8TrP47/FzxX4t+CPivwxo3xB1DS9R0291DUNGmWBbTSre0eOdLS/mkV2khcrsV124LMp4oAPitofxo+J/hPwf4yPwmGl+Ivhz8SYfEMHhsa9a3EusaZbi4tTJFPlIY5ZYLppkjlZQrIFZhnNAG58F/B/je8+MHxK+N/jjwbd+E/wDhKrbRtF0fR7+8tbi9is7COdnmnNpLLApkmun2qsrkLGCSpbbQB86/t0/8E/of2hvj78NPiH4cRrODXNRTRvG0sEZ3CyggkmS6LAEBvKga2DNxue2X1oA+69E0bSvDmjWHh7QrCGx03S7WKys7WFdscEEaBI41HZVVQAPQUAXaACgAoAKACgAoAKACgAoA+L/2yfDvgnxZ8WdPsPiNfxWWn6f4dtZtNeVciSaW5uhcAfRYrfP+8KAPev2Uef2ZvhZJ3l8I6VKfq1sjH+dAHq1ABQAUAFABQAUAFABQAUAFABQAUAFABQAUAFABQAUAFABQAjKrKVZQQRggjgigBaACgAoAKACgAoAKACgAoAKACgAoAKACgAoAKACgAoAKACgAoAKACgAoAKAPi7/got+z7q3xtn8A3WiaxJpsukpqkc7xziIyrIbUoDzztKPj03H1oA97/ZZ/d/ALwhp//QLtptLx6fZbiWDH4eVigD1agAoAKACgAoAKACgAoAKACgAoAKACgAoAKACgAoAKACgAoAKACgAoAKACgAoAKACgAoAKACgAoAKACgAoAKACgAoAKACgAoAKACgAoAKACgD4P/4KSr8V/EviTwP4X+EN75F3pFje3+qjYz5juZI0t+ARjm0uP8igD6h/Zjsbqz+APga41CIxXur6RFrl5GeqXN8TdzKfcSTuPwoA4D9t3xFdeHvC3wzC674s0zTdU+JWjadq48MXWow391YSRXJlgT+ziLp921fkiyxIGBkCgDzDT/ij8ffhfbXQ8D2GrTeE/GfxR0jwr4F/4WkuoyajDZ3NrN9tlkFw634hF1FmAXP7wxkjAUoQAdL4w+OHxN+EPjj4hWWuronizxRp/hzwnDpP2M6lpem3Wpavq93YwBrOa9uobeNCIGeSMCRwsmXOUVADp/F/xu+MXwi1jxT4Q8fTeD/EN9H8Oda8ceHNW0rR7rTbc3Om7RNZ3NrJeXDsv7+2dZVmTIMi7QQrEAwYfiL8dtVj+BHiPxnrPg1JfiVqkZtLPRbPV7WPS/N0O+ux57LqKpqK7o4P3csSIAHwC2yRADkPgr8VP2kfBv7GNr8dtX8X6F45tNEe61C+0+80S+fVptNg1iVb9jfvqDh3S1SZ4swYQRopDgZIB7b4O+NHjX4w+JfihD8IT4XufDvhTS7TTvDeqX0Vw8Gp+Ip7Q3TGWWNxttIkmsUdEjMhLyEOMBaAPXfC/wDwk3/CM6R/wmv9mf8ACQ/YLf8Atb+y/M+xfbfLXz/s/mfP5Xmbtm/5tuM85oA1KACgD5+/bC8ZeK/BOnfCfUfCJ16e4u/ihollc6dot4ltPqls8dyXtCZZYomVyq5WWRYyQNxGKAPHfjV8cviVa/En4k3934Q8a+D7PQPgTqmuW2ga1rscMVxeRagu26U6NqDmNtuY/MWaKYAEAgYJAPRda+N/xj1m2+KV/wDC298G6Ronwf0uFLiXXdJvNYn1nUV0tb+eNWjvrc26RpLBHvfzmd2kPG0bgDifDXiP4tfEj9p7wR4w8Gal4R0PWvEvwD0nV9UudU0u5v7WAT37SukFrHcwu2ZHABa4G1Qc7zQB9F/s5fFDV/jL8F/DfxE8Q6XZ6fquox3EF/BZOzW4uba5ltpXi3/MI3eFnVWJKqwUsxG4gHzx8XP+Cq/wI+CXxH174WePPhr8UbbW/D121rcCLTNPaKUYDRzRk3oJjkRlkQkAlXUkDpQB6/8Ass/tceBv2uND1vxN8O/BnjLSdJ0S6jsXvdetLWCK5uGXe0UPk3EpZkUoWyFwJUxnJwAe40AFABQAUAFABQAUAFABQAUAFABQAUAFABQAUAFABQAUAFABQAUAFABQAUAFABQAUAFAHyj+0T4/i+Fnxum1yd0Qa74V0u0Uvjn7Ld6ixxn/AK+hQB9NeFhZr4Z0hdOiWK1FhbiCNeiR+Wu0D2AxQBhfEf4W+H/ig/hR9fvNQtz4P8S2fimx+xyInmXdssgjSXejZjPmtkLtbgYYdwA+I/wt8P8AxQfwo+v3moW58H+JbPxTY/Y5ETzLu2WQRpLvRsxnzWyF2twMMO4Bznjv9m74d/EfVvGWreKpNXmbxvoemaHfRQ3YhW2TT7ma5tbi3ZFEkc6TT7w5YjMceFGDuAKI/Zn0DUpfFGp+OPiD4w8Ya34o8LXPgx9X1V7CG4sNJuCzTQ20dnawW6MzsrtI8TuTHGCSqBQAb7/A/wAJvZ/DGxOoat5fwonin0YiWLNw0eny2Ki5/d/OPKndjs2fOAemVIBieFvgjafB/wAHeJdD8I6n4l8VeG5bPVJdN8B30mmrYo9zLLcPa285t45wHeV41+0XEiKsmDgKCADI/Zv/AGdIfhF+yvpHwPkvb/QdUvdEmTWb/R7ryry11G8jJnlt5/nxJCz7YpPmwIYzzigD2HwvoX/CL+GdI8Nf2xqerf2TYW9j/aGqXHn3t35Uap51xLgeZK+3c7YGWJOBmgDUoAKAOO+I/wALfD/xQfwo+v3moW58H+JbPxTY/Y5ETzLu2WQRpLvRsxnzWyF2twMMO4BzPxO/Zt8DfFjXfEPiDxFquu21x4l8D3XgC7WynhRE0+4n855Yw8TEThuAxJTHVD1oA8Y+OPwc+JF54i+ImkfC3wZ8TrSDx3oVnpt1faL4i8PR6JrFytm1qJdQS+Bv7PZF5MUj2I3SRRqVG9QSAez/AAw/Z/0T4f6v4V8YT6vfXXiHw98PtO+H8gR0FnLbWzLJ5wQpvEhkB53424G3PNAHU/Cj4Z6D8HvAmn/D3wzd39zp2my3U0Ut9Ijzsbi5luH3FERSA8zAYUcAZyckgHw3/wAFW/2OtU+MFv4U+MHw20uObxRDqFj4W1KEEJ9qgu7lYLSQnplLiZUJPOyUEkLHQB9mfs8/BTw5+zz8HvDfwm8NKjw6LaBbq5C7WvLt/mnnbv8APIWIBJ2rtUcKKAPRqACgAoAKACgAoAKACgAoAKACgAoAKACgAoAKACgAoAKACgAoAKACgAoAKACgAoAKACgD80P+Cwus3Xh7Wfhbd2Vw0D3lrq8bsp+8I3tSo/DzG/OgDY+Bf/BUuTxL4b0TQJfgd5L2Njb2bXH/AAk27zDHGqF9v2QYzjOMnGepoA91v/22/sOnz33/AArLf5LhNn9tYzmNHznyP9vH4UAeJePP+CuH/CEJK3/DP323y/8Aqa/Lz/5JmgDJ0f8A4K1+JvE2nDU9N+Cml2CeZChjn1qS4OHkVPvCFOm7PTtQBY8Lf8FfLnW/Esnhe7/Z+iSWFgpuY/FJCtn0Q2hx/wB9GgD0yz/4KN/atLs9S/4U5t+128c+z/hIc7dyhsZ+zc4z1oA57xN/wVI/4R2Hzv8AhRn2jjOP+En2f+2hoA83t/8AgtBd6nrg0Cy/ZzhtpGGRPL4sMqjnH3BZr6/3qAPYdA/bY+K/i/Sjq+l6D4S02NTGTDcWdzckhnVSNy3EeDz1xQByeif8FT9Wb4hf8K41n4K2lxcLjOoW2vNAh5x/qWgcj/v5QB9X+E/jr/wlAQ/8It9m34/5ft+P/IYoAt/FL4zf8K10VNY/4Rv+0d8Zk8v7Z5OPbOxv5UAfEHj3/gsm3grXX0Vf2cxebM/vT4u8vOPb7Ef50AYEX/Bba5uJI4Y/2aokaWRIwzeLywUswGcfYhnGemRQB9CfC79rb4v/ABp8n/hHLHwf4a8/G37dpl1qW3PrsurfP6UAbPxO/aF+OHwZEp8R3ngbxJ5H3vsXh+803dj0338+P1oA+fP+HwGtNqM+kP8AASwMlvIEMv8AwkL7WIwc7Ps/HP8AtGgDpdG/4Kb+N/EWrWulWXwv0OzN1BLMJJb2abbsaMYwAmc+Z6jp78AHp1t+1B8atS0qTWLT/hCbeOLYzQyaLdyFgWAIDC9XB564P0oA5f4T/wDBSfUfHvxIufhlqvwgtoLmzlWJ9Rt9bYRyZ7iBoCV+nmGgD6u1P4k/2dAs39i+ZuUNj7TjqP8AdoA43Uv2jv7PZl/4Q3zNv/URx/7SoA47xL+2h/wjtlJef8K2+0eX/D/bGzP4+QaAPnfxz/wWHbwbdC0X9ncXZZwgY+LdmMnGcfYj/OgDT8Kf8FRPF/jjZ/Znwm0fS/Mxjz9Slusf98pHmgB2q/8ABTrxv4c0q11PUvhdod/9ot45ykF7Nb43KGxlg/r1xQBgeFv+Cveu+NtTk0fTfgTYaZLE/lmafxA9ypPrsW3jI69N1AHtun/tSfGjVrKPV7dPBVvbvDJKYH0a7kf5Sgx5gvFH8f8Ad7UAeb+Of+CmHjj4dRSyap8MtC1fyPmYW95NabgOSBuEuCRkA8464PSgD0n9nz/goD/wvf7N/wAWl/sP7Rj/AJj32nbn/t2TNAGt+0b+3H/wz/HcSf8ACr/7e8hScf239l3f+S74oA+b7f8A4LLakk1o93+z1bSw6hOsUSR+KGRogY1fLMbVg/3scBaAPdrT/goP9q8LDxL/AMKj25gkm8j+38/dKDG77N33+nagDyHR/wDgrN4j8Y6ne6ZoPwU03SWsbqK2aS81uS8Em+RFyAsMW37/AEyelAEfiv8A4K3eIfA+/wDtP4Iadqnl5z5Guva5/wC+oJMUAehfBT/gpl/wuFLZ/wDhSn9kfaAp/wCRk+0bc/8AbqmaAPprUvjB/Z+ix6v/AMI75nmLu8v7XjHAPXZ7+lAHz/8AFf8A4KH/APCsdNuNQ/4VB/aXkfwf8JB5O78fszYoA4TwB/wUm8ffFnR/7c8OfDnw/wCHogYyYL24m1FirOqkb0MHPPXb+FAFjwB/wVE1DxP8QZ/hzqnwWt1uLZlVtQt9fZEfJI4ha3Yjp/z0NAHsfif9s3/hHNPivv8AhW/2jzYUm2f2xsxuUHGfIPrQB4V4x/4K2f8ACJtIP+Gf/tXl5/5mvZn/AMkzQBwI/wCC3Fy6faV/ZpiWMK7FD4wJY7So+99i9/SgDpfD/wDwWO/t2GGX/hnPyPNnhhx/wl+7HmSKmf8AjyHTdn8KAPorwH+2n/wm/l/8W1+xeZj/AJjPmY/8gCgD1SL4web/AMy7j/t7/wDsKAPJvjz+2z/wpHSJ9V/4Vn/bXkf8s/7a+zZ+RW6+Q/8Aex0oA/MP9vv9rLWf2odE+Gfiq58H2nhu3shq4gtYrtrl/wB59jJ3yFUDY2DGEXv+AB//2Q==;" vertex="1" parent="1">
          <mxGeometry x="430" y="10" width="381" height="421" as="geometry" />
        </mxCell>
        <mxCell id="52jPrDx0_dcCrGvd4Qb2-3" value="" style="shape=image;verticalLabelPosition=bottom;labelBackgroundColor=default;verticalAlign=top;aspect=fixed;imageAspect=0;image=data:image/jpeg,/9j/4AAQSkZJRgABAQAAAQABAAD/2wBDAAMCAgICAgMCAgIDAwMDBAYEBAQEBAgGBgUGCQgKCgkICQkKDA8MCgsOCwkJDRENDg8QEBEQCgwSExIQEw8QEBD/2wBDAQMDAwQDBAgEBAgQCwkLEBAQEBAQEBAQEBAQEBAQEBAQEBAQEBAQEBAQEBAQEBAQEBAQEBAQEBAQEBAQEBAQEBD/wAARCAGlAX0DAREAAhEBAxEB/8QAHwAAAQUBAQEBAQEAAAAAAAAAAAECAwQFBgcICQoL/8QAtRAAAgEDAwIEAwUFBAQAAAF9AQIDAAQRBRIhMUEGE1FhByJxFDKBkaEII0KxwRVS0fAkM2JyggkKFhcYGRolJicoKSo0NTY3ODk6Q0RFRkdISUpTVFVWV1hZWmNkZWZnaGlqc3R1dnd4eXqDhIWGh4iJipKTlJWWl5iZmqKjpKWmp6ipqrKztLW2t7i5usLDxMXGx8jJytLT1NXW19jZ2uHi4+Tl5ufo6erx8vP09fb3+Pn6/8QAHwEAAwEBAQEBAQEBAQAAAAAAAAECAwQFBgcICQoL/8QAtREAAgECBAQDBAcFBAQAAQJ3AAECAxEEBSExBhJBUQdhcRMiMoEIFEKRobHBCSMzUvAVYnLRChYkNOEl8RcYGRomJygpKjU2Nzg5OkNERUZHSElKU1RVVldYWVpjZGVmZ2hpanN0dXZ3eHl6goOEhYaHiImKkpOUlZaXmJmaoqOkpaanqKmqsrO0tba3uLm6wsPExcbHyMnK0tPU1dbX2Nna4uPk5ebn6Onq8vP09fb3+Pn6/9oADAMBAAIRAxEAPwD6z/Zk/Zk/Zt1/9m34Ua7rv7Pnw11HUtR8D6Fd3l5d+E7Cae5nksIWklkkaIs7sxLFiSSSSaAPS/8Ahk79lj/o2n4Vf+Ebp3/xmgA/4ZO/ZY/6Np+FX/hG6d/8ZoAP+GTv2WP+jafhV/4Runf/ABmgA/4ZO/ZY/wCjafhV/wCEbp3/AMZoAP8Ahk79lj/o2n4Vf+Ebp3/xmgA/4ZO/ZY/6Np+FX/hG6d/8ZoAP+GTv2WP+jafhV/4Runf/ABmgA/4ZO/ZY/wCjafhV/wCEbp3/AMZoAP8Ahk79lj/o2n4Vf+Ebp3/xmgA/4ZO/ZY/6Np+FX/hG6d/8ZoAP+GTv2WP+jafhV/4Runf/ABmgA/4ZO/ZY/wCjafhV/wCEbp3/AMZoAP8Ahk79lj/o2n4Vf+Ebp3/xmgA/4ZO/ZY/6Np+FX/hG6d/8ZoAP+GTv2WP+jafhV/4Runf/ABmgA/4ZO/ZY/wCjafhV/wCEbp3/AMZoAP8Ahk79lj/o2n4Vf+Ebp3/xmgA/4ZO/ZY/6Np+FX/hG6d/8ZoAP+GTv2WP+jafhV/4Runf/ABmgA/4ZO/ZY/wCjafhV/wCEbp3/AMZoAP8Ahk79lj/o2n4Vf+Ebp3/xmgA/4ZO/ZY/6Np+FX/hG6d/8ZoAP+GTv2WP+jafhV/4Runf/ABmgA/4ZO/ZY/wCjafhV/wCEbp3/AMZoAP8Ahk79lj/o2n4Vf+Ebp3/xmgA/4ZO/ZY/6Np+FX/hG6d/8ZoAP+GTv2WP+jafhV/4Runf/ABmgA/4ZO/ZY/wCjafhV/wCEbp3/AMZoAP8Ahk79lj/o2n4Vf+Ebp3/xmgA/4ZO/ZY/6Np+FX/hG6d/8ZoAP+GTv2WP+jafhV/4Runf/ABmgA/4ZO/ZY/wCjafhV/wCEbp3/AMZoAP8Ahk79lj/o2n4Vf+Ebp3/xmgA/4ZO/ZY/6Np+FX/hG6d/8ZoAP+GTv2WP+jafhV/4Runf/ABmgA/4ZO/ZY/wCjafhV/wCEbp3/AMZoAP8Ahk79lj/o2n4Vf+Ebp3/xmgA/4ZO/ZY/6Np+FX/hG6d/8ZoAP+GTv2WP+jafhV/4Runf/ABmgA/4ZO/ZY/wCjafhV/wCEbp3/AMZoAP8Ahk79lj/o2n4Vf+Ebp3/xmgA/4ZO/ZY/6Np+FX/hG6d/8ZoAP+GTv2WP+jafhV/4Runf/ABmgA/4ZO/ZY/wCjafhV/wCEbp3/AMZoAP8Ahk79lj/o2n4Vf+Ebp3/xmgA/4ZO/ZY/6Np+FX/hG6d/8ZoA/NX/gsp8J/hZ8L/8AhUH/AArP4aeFPCX9p/8ACQfbf7C0a2sPtXl/2f5fm+Si79vmPt3ZxvbHU0AfpV+yd/yax8G/+yf+Hv8A03QUAeq0AFABQAUAFABQAUAFABQAUAFABQAUAFABQAUAFABQAUAFABQAUAFABQAUAFABQAUAFABQAUAFABQAUAFABQAUAFABQAUAFABQAUAFABQAUAflX/wXO/5on/3Mn/uNoA+//wBk7/k1j4N/9k/8Pf8ApugoA9VoAKACgAoAKACgAoAKAOc+JF1dWPw78UXtlcy29xb6LfSwzROUeN1gcqysOQQQCCOQaAPz70bxL8CLf9mLRviHd/t/eOLH4kt4Ls9VmtI/i1NqVxHrbWSSPAdLeZzIfPJRoCmRkr8pGQAeseG/jH+0WfjP8O9Ok8EXmv8AifxD8FbLWNY8P3GtHSdJsdSN4vn3U/ySiKTJEYCQu+W28KpIAPWdA/aX1/xP8NJvEuhfBTxDfeMbPxZN4Jv/AAvbXCypY6nDIVlkmvVXy0s1QCQ3OzGGUBdzAUAUoP2qNY8J6l468P8Axw+Fb+E9W8E+DpPHe3R9Y/tm11HSo2kSQxTGGBlmV4tpjdB94NnbzQBq/C/49fELxlq2gL4t+C6aR4d8VadNqOmeIdE8RJrdlbiONZPKv3SCJbV2RjtIaRGZSobOKAOHf9t6YeFR8ZE+FkTfCP7TtbX/APhJYBq32LzzD/aA0ry8m3zh8GcTeWd3ldqAPqSOSOaNZYnV0cBlZTkMD0IPcUAOoAKACgD5h/4KAah8R7b4aeA9G+FXj3UfB3iHxJ8SvD2gwapZXEkXl/apJIwJQhBki3FS0ZyrBcEGgDnPH/7Q3iXx5+yJq/iGOe/8HfEXwt4p8OeHPFmn2V09vcabqI12whuUR0IYwTxSMyMCVeKbGT81AHpfjL9pDxDF8Q/EXw3+Evw50zxbf+DY7Y6/c6r4ph0S3hnuIjNHa27NFK08/l7GIKpGvmKDIDkAAb8N/wBrTw18S/FngnSNN8Oz2Gj+OfDWq6vZaje3SrLb6jpl0kF9pssIUqHiDl/MEpBCNgYwxAOT8B/t0aZ8QvglcfFjRfh1cJqb+NbHwXpnh+fUSkl9Lez2wtLjzTDlEktrtLnGxhtUgMfvUAdx+2d4g17wt+zV4w17wxrd/pGp2v8AZ/kXthcvbzxbr+3VtsiEMuVZlODyCR0NACeIvj546v8A4h+JPh78Ffg8njeXwT9mTxHfXviGPSLeG5nhE0dpbFoZftE/lMrMG8uNd6AyAk4AMeP9r3T/ABb4c8Av8I/AN94l8W/EP7ebPw9qF6mmf2WunuI9QbUJ9svkCGUiPCpIzuyhAQcgA4Xx/wDtPeI/Enwz+NeieLvhv4m8B6x8MbjQbW7/ALF8VpDd3LXk8bCS1vEt2CRbdpDFCZEdlZYzkAA9G1z9oX4lXXxX8b/CT4W/AxPFOoeBodPur29vfE0emWssV3b+bGisYJG88kSKExswm55I9wBAPRPgv8U9H+Nnwt8OfFPQtPvLC08QWn2gWd4m2e2kVmjliceqSI6574z3oA8mtf2rvF+v6n4k1LwL8EJ/FHhDwl4ln8M6rcadrqya6ssFyLeeePSFgLNEr7mAaZJGRCwTGKAN7xR+0D44ufiH4n+HPwU+Do8dXfgaK1bxHd3fiCPSLeCe4i86KztmaGU3Fx5W1yCI413oGkBOAAY9x+1F461jxn4Z+H3w/wDgFqd3r3iPwbF4zktPEmqHQ30uD7QYJre6VoJWSZX8sKoDby5+6ql6AKuuftc6+03i3V/h98JrXxN4V8CX93putajJ4qt7C8ubi0A+2Lp1o8TfahEd6ZkkgDshCbuDQBq67+1dY6rq3hvw18FPDNh4z1bxH4Zt/GKvqWupothZ6VcMFgeadopX82Q7wsSRMw8ti2wYJAMe9/bRtIPh7YeKLH4Yalf+JD47h+Heq+GYNSgae01aRGZBFOAYp4nJhKSZRSku4lSrLQB23w0+N/izxF8UdX+DfxO+GKeD/E9jokHiSzNlrQ1WyvtPkneAss/kwlJUlUK0bJ/ECCQQSAev0AFABQAUAFABQAUAFABQB+Vf/Bc7/mif/cyf+42gD7//AGTv+TWPg3/2T/w9/wCm6CgD1WgAoAKACgAoAKACgAoAwfHumX2teBfEejaZB515f6TeW1vHuC75XhZVXLEAZJAySBQBwX7O3we0fwB8F/hro/iPwDomneLNA8K6RZak62ls88N/DZxRz/vowQzCRXBdWIPUEg5oAT/hBPFf/DWn/Czf7K/4pr/hXX9hfbvPj/4/v7T87yvL3eZ/q/m3bdvbOeKAPD/FHwU+P0HhPxTY6FoGrzadq/xm1LxPq+iaN4lh0rUNd8OTRjy1gvFlXySZVjZo2lhZlRlLLnkArfDT4EfFrwj8ZvF/xF8D/AnQ/BWnaz8NZ9F0az13XE1bzdXW7WVF1ZkmeVvNDbf3UkyLHFy4ZgpAD4a/s6+KE+MPhbxb4T/Z3f4FWUEN6PHTaf4ltptO15JbR4ktrawtZpIyBNIJBNLHCyhB8rHAABz3gf8AZc8V+APAWnfB5v2Jfg54r8SaVOLCD4ja3pukzaXdWAmOy7u7fjUHuRDgNGFIZxnzcHFAH3lBClvDHBFGiJGoRVRdqqAMAAdh7UASUAFABQB4j+1P8OfGfxHsfhdD4M0b+0X8OfFLwz4j1MfaIofI060uS9xN+8Zd21TnYuXP8KmgDy39sj9mP4k+NfEth8QfgTawTXniS90TTfHmktcRwLqVhY6jb3lteqZHVPPtzbmPP3milKjO0AgDPGv7O934c+OfxC+IWofsq+EPjlonj97LUbB72LSBqOiX0VstvLBI2ohQbV/KjcNEzMhLjy2zmgCp8av2fPjfefs4+B2+E/w+8C+H/in4Vv72eLRvCEcWl6TaQalbXVpdRxGVlXKJdRyu2R5kkDFV+YAAGnpH7LfjHw5+1d4Yu9I0qH/hT2haNpeueYZ4V/4qPTtOm0i2i8kN5hxaSQyB9uwGFRuyNpAPX/2sfAniv4mfs/8AinwT4J0r+0ta1L7D9ltfPjh8zy72CV/nlZUGERjyR0wOcCgDirfw/wDGb4F/Fr4ka74C+ET/ABD8NfEnUbbxBbmz12zsLjStRW1itp4rkXToGgfyUkWSLe65ZfLbAJAPOvC/wR+JfwG1z4V+PbRND8ZfEOODxU3iXwrZ6tBYz6hBql9HfXEml/amRH+yTvErbyodJASyEqpAOYuvDvxc+N037WOh/wDCC29j4p1a98GQ2uhw6pBMbdIY4pfKmuSyweeIQJHVXKqXChn4LAH1D8NvAnivQP2gPjJ421fSvI0XxX/wj39kXXnxt9p+y2TxT/IrF02uQPnC56jI5oAP2TvAniv4Z/s/+FvBPjbSv7N1rTft32q18+Oby/MvZ5U+eJmQ5R1PBPXB5yKAPnX40fAD4nfEfW/Edza/sy6NpPxLm1WUeG/iv4W8SRaRBbWplH2e6vUWcXkk6Q8SReVMjsvylQRtAPUoPD/x0+B3xQ+IniDwX8M2+Jei/Eaax1i3e01ay02bTNVisorScXS3LoDbyCCGRWh3unzr5Z4JAL3ws+GXxq0j44eH/HnxUvrbXbqL4WpoWs67aiCGGbWDqf2h4Y4E2sEVDhX8sKQoyQxIoA8hT9mfXPh1qfj7Rf8AhjX4cfF+58Q+ItS13wz4s1aDSB9mS9kMwt9U+1AXJEMruA0Al3oAAIzQBu+Nv2Y9R0X4m+HfiZf/ALOHw8+LGjt4HsfC2r+FrPTNOtk0i9tZGeO50qLUSIUtmE0sZiMquFVDlsbaANO3+B3xCm8G+BPsHwN8AeAprP4t6Z4quvD/AIQhtrVNP0eAOnm3kilYrq6C43tCMEFVVTtJIB6x/wAIJ4r/AOGtP+Fm/wBlf8U1/wAK6/sL7d58f/H9/afneV5e7zP9X827bt7ZzxQB65QAUAFABQAUAFABQAUAFAH5V/8ABc7/AJon/wBzJ/7jaAPv/wDZO/5NY+Df/ZP/AA9/6boKAPVaACgAoAKACgAoAKACgAoAKACgAoAKACgAoAKACgAoAKACgAoAKACgAoAKACgDi/iX8HPhz8XrfTYfH3h972XR53uNOvLW+ubC8spHXa5hubaSOaPcvDBXAYAZzgUAW/h38MPAnwo0OTw74A8PRaVZ3Fy97ckSyTTXVw4AaaeaVmlmkIVQXkZmIUDPAoA6mgAoAKACgAoAKACgAoAKACgAoAKACgAoAKACgAoAKAPyr/4Lnf8ANE/+5k/9xtAH07+y58aPi3o/7N/w1tdS/ZN8fXumad4L0WCy1HRta0G6GoW6WUKxzrDLfwyoHUB9hXcu7BGQaAOvi/a+1ya7ksk/Y5/aIEkbbSz+HNOWMn2c34Uj3BIoA6Kx+P8A471Nf9C/ZG+MasVLKLp/DtsOPUyasMdfrQBnaj8cv2h4pANJ/Ym8Z3MeRlrjxf4chOO5wt6/PtmgC3dftBfEfR9OW8179j/4upJ/FHplz4e1DH08rU95/wC+RQBkWv7WviC7x5X7Hf7Qa5/566Dpkf8A6HqAoA27P9oD4garBI+l/sifGDzEGVW+m8O2YJ+smqg/kDQBit8d/wBpwaksSfsNeKTYH7058c+HhMPpF9q2n/vsUAaGsftJ+NvDyxDV/wBkD42PLJtBXToNC1BVJ/2oNTbj3IHvigCPW/jz8dX0+O88EfsWfEDUpJF3CPWPEfh7S8H0IF/M4/FQfagCn4Y+O/7Tt3s/4TP9hnxRpefv/wBmeOfD1/j6eZdQZ/SgC7qH7TnizTJXhuf2Qfjo7IcE29hos6/gY9TYH8DQBnQ/td67PdLZp+x1+0MJG6F/D2mon4u1+FH50Ab8/wAc/ixPbxXGifsffE6cORuW91fw1aMo7/KdUZs+xAoAra3+0j408OQiTVf2QvjZI23LLp0Ghahj6fZ9Tcn8qAKOiftWeJPEG37B+x78fot3T7bo2k2f5+fqKY/GgDZvPjZ8YVydN/Y8+I86kZXz9e8Mwn8QNUbFAGS/x0/aOEuI/wBiLxgY/wC8fGfh0N+X2w/zoAv23xu+OLj/AEz9jTx9F/1y8TeGpP56itAF1PjR8WT/AKz9kL4lr/u634XP/uVFAFXUv2hvHOjxhtQ/ZF+MzNtBYWY8P3YB9B5WqsT+VAHOD9sTWWlaEfscftF7lOCT4YsAv4N9uwfwNAF+D9qrxLc48v8AY++Poz/z00fSU/8AQtRFAF5P2kfGLrvH7InxuAyBzbaEDycdDqme/wCFADJ/2l/F1v8A6z9kL45HH9yz0N//AEHUzQBVP7VPiYdf2Pvj5+GkaQf/AHI0AOh/al8TzttT9j/49A/7el6On/oWpCgDQh/aJ8aTjKfsjfGof78egJ/6FqooAnPx88dBN/8AwyR8Y8D/AG/Dmfy/tbNAGJqf7VfiTSM/av2Pfj7Jt6/ZdH0m5/8ARWotmgC1oH7THjDxPFv0n9kD44xEqSo1Kz0TTsnHQ/adTQj8qAJ7L43fHOS7dNS/Yy8ewWob5JIPE3hqWQr6lDqKgH23H60AR3/7Sni/Trj7Ncfsh/HB39YLTQ50/wC+o9UZf1oAYP2mvFhAb/hkH46YLKv/AB46J1JAH/MT6c8noBycAUAatr8dvHt3jyv2Svi+uf8AnrP4aj/9D1cUAZ+s/tI+MdBBN/8Ash/G6Tb1+xW2hXn5eRqj5oA5/T/2ytW1K5a0t/2Nv2j0dG2k3HhSygTPs8l8qke4NAHX23x0+Il/bi4sv2R/i1tPa5vPDVu3/fL6sG/SgBG+NPxcDAJ+yB8SSueSdc8MA4/8GtAFbVP2h/G2jgm8/ZF+ND4HP2RPD91+Xlaq2aAKdh+074r1LH2f9kH46pn/AJ+NP0WD/wBGamtAG2vxr+I80Qkt/wBkr4rEnoJdQ8Lx/wA9Yz+lAFSb41/GZT/o/wCx18RHH+34h8Mp/LUzQBUf44fHwH93+xb45YZ/i8VeGx/7fmgDQs/jT8W3GdQ/ZB+JUPr5Ot+GJf56qtAEjfHLx+vX9kv4u/hc+GT/AO5egAHxy8fnbj9kv4u/MMjN14Z9cc/8Tjjp3oA+B/8AgqxoPxe+PY+Fx0b4EeLfDf8AYf8Abfmf27qGijz/ADvsOPL+y38/3fKO7ft+8uN3OAD9AP2T/wDk1z4QD+74E0FfysIRQB6rQAUAFABQAUAFABQAUAFABQAUAFABQAUAFABQAUAFABQAUAFABQAUAFABQAUAFABQAUAFABQAUAFABQAUAFABQAUAFABQAUAFABQAUAFABQB4F+1VoQ1r/hF8qD5P239fI/woA679lu3Np+zL8I7U9YvAmgIfqNPhFAHnf7eLanZfCrw9rGieKPE2hXqeM9B04z6H4gvtLeS2u7+GGeNzayx+YGjYgbslc5XaeaAM3xJ8X/j7B40+M/hD4cXfgOw0L4NaLp95aSa/p2o6ne6m0ul/avIlkW8i25ZGBuCZG5GY3OWIB9B/DnxevxB+Hvhfx6lgbFfEujWWri1MvmGAXECS+XvwN23fjOBnGcCgD5e8D/tP/H6f4PeBf2ifHVt8P5PCfiTxHaaHqOiaVpd7Ff29tc37WEd5HdyXToWWcxO1uYDlNwEoOCADf0j9on4vnRPjJ8WfETeDLfwN8Ite8Sab/ZVppN3JqusQ6bGzoPtLXQitnYmNS3kyq3zHEfGADfsPi78aPAXiX4bQ/GyXwVdaN8SI7q3l/sLTbqzl8PahHp73yxPLLdTi+iMcFzGZVjgIZEbbhyqAHHWX7Rnx8vPB/wAI/jHOfAln4W+LHi/SNIg8OnQ7uXUbDTNQlk8mVtQF8IpJ/IRHIFqqq0hX5gmWALlp+0l8XrXw78ZPi94jHg2LwP8ACPxD4g0kaRaaVdvqusRWCnyv9Ka6EVq5ZogW8mYN8x2pwKAI/Cv7S3x4huNQXWfhbqnjZh4P1DXbe30j4deIvDAtNXtY1kXS3n1VXS6FxuZI5olV90JzAfMUKASfDP8Aad8b+JbDxdeWnjPwF8Rde8JeG9Tvb3wDo3hnVPDHiaLV7Zbdo7YWmoXE80lu5leJpvITEhiCiQsyKAdB+zl8etf+Kvi278P6t8Xfhxr11pdhcLrXhyx8Lap4b8QaRqEb2v37PUbqWaW1AnkRpjFEBIIgNxZwgB8mfthf8FGP2vP2WPjjrHwyuPA3wzu9IIGoaBf3Gk6hvvNOkJ8tmK3oBdSGjchVBeNyAARQB9PfsC/Hr4+/tK/C6++LPxl8O+E9F0u+vDa+HYdFsbqB7mOLKz3DtNcShkMn7tQoUhopc5BWgD6foAKACgAoAKACgDyP4nfEb4gR/FTwp8FPhYNBstZ1zStR8RajrOuWUt9bafp1o8EOEtYp7d55ZJ7qFR++QIodiG4FAHFTfEf9pu6+OGm/Aa11T4YWF8ngk+KNV1uTQ9Qu4jJ/aU1sggtReREK8awsUaYmNi+HlAGQDj9O/a8+K3iDW5Nf8MeCrzV/Ddv4wk8OjQrH4ceIrm8vLCC9Nlc6hHrSA6cjLIk0/wBnZWURxGNplkJ2gF7xJ+1X428J/FfTdBHiPwn4o0K7+I1v4GvbHRvBmthdOW6m8iEP4gMj6c15C0tuZ7bylIPmxAqy5oAxvhf8W/jD8O/CX7QHxb+IPjzTPFHhj4feNPE2/RjpF2L6X7PBC0UFpdyX0kdpb7mUCLyJNuXIb5uADS039rf4n+DbPWfEXxQ8HXms6FpvgzUfElzdWHw68Q+GItK1CzjWT+zpZ9WBjulnDMkU8flsHiO6ECQFQCDUj8ZLz9pj9mfXPi1rnhCaXU7fxLcx6ZoOiXNqdOmfRw0kT3Mt5MLoKWCh1ihztLbRu2qAdd+29/b/APZXwcHhUaf/AGwfi3oIsTqG/wCzLMYrrY0oT5igOCQuCQMArnIAMfxp+0b8bvhi3xJ8O+IdO8J+JNb+GljonjKW60rSLqzh1TwzcTOl/Gtu93M1tdwLbXTrIZZUYBMxjmgD034S/Gi/+MPxL8cw+Fjpdz8PPCkOmadY6pDFI82p6rPB9quSsu8IsMUE1omzyyxd3JcABaAPXqACgD4x+Ot18Q7Lxb8TviFc+JPHd74Z0G3hfQ/E3w+8WRvB4HmsoI5Z49V0BrqCK/KytJcSh1unlgdYikahRQBW0j45/Gbwx44+IPjGy8VaB4g8DxfE7wp4fltL21vZLk22qWWkxO+nk3Ijs40a6EyxMku9pJMlCNzgHQ2X7Wfjj/hdnh7wzJqHhXVvCHiDxTrXh9hYeF9YgFjFZ2t1LG/9uXDLp11OGtGWaGFcRtvCyOEaSgDzLxz+118XPEHgHxvoreItFeHVfhP4j8V6Vrfhnwzr2hGwurTyVjNnf35VdSiKXIZbm3SLlQ2FDKCAel337Snxg+HkGqeDfiDqvw+/4SBvCugeI9F1eDTdSeyh+3Xps5LSe2ilnur64DqfJ+z7DcsQCkAyygGT4d/at+O/iq/0/wAEaNH4Oj127+J8ngg6tqnhHV9Mh+wf2GdSFy2lXNyl1DOuNvlvLtcAYKhhIAD1Twf8WfHXxA/Zh8T+MNR8UeE/BvjTT28RaANcnXyNGs9Ssry5sobsrcNIUhLxRuVkL4LEEOBhgD5x8deI/iF8Jfh94w0a/wBW+Lfw98UXPwr8QXJsfEPiyTxNa6xf2EaFdS0rVftsk9jPF5hZ0MVuJUnQ+UrQqQAerXH7Rnxf8Cw+NfCPj3Wfh+muaLovhXVNF1RNK1NrUf2rcz27281tFLNdX1wjW5ES24Rrh3QFYAWZADh1/aC+OvxL8TeDvDuk6/pmk65pPxen8Lm9bw9q+i2Wo2J8Nz3ite6RdTrdfIZN4geVVd4oiGQEPQBur+2H8WNV0jwv4V03SdHtPGd2/ik61qdt4M1vxDpwGj6m2nokGn6a73aCeVonM0smyFVdf3rOgoAPEP7Z/wAY7/7PD4N+D+q6TrWj+D9P8S634a1PwRr2rX19qF08oGlRSWMeNNwtpOFubxG8wzREQqqSGgDV1D9qD41J4p8R6/a6V4Us/A/hvx/4X8IS6Xf6ReJrstvq0WnmR3k+0iKCaFtQX5DEwbaynYV3OAfXFABQB8k/t7+P/wDhBv8AhBf3/l/bf7T74zs+y/8AxdAHun7O67P2f/hkgGNvg7RR/wCSUVAFb47fAzTPj34d03wxrfjjxN4estN1O21cf2H9hDz3NvIssBc3VtPwkiBgF2g9G3DigAsvgJ4Xtb/4jarPr2u3t78UNOs9N1yeeS3BC29kbNZIRHCqo7IxZshl3/dVV+WgDsfBPhPTvAXgzQPA2jzXM1h4d0u10m1kuWVpnht4liRnKhVLFUBJCgZzgDpQB83fszfsp+JdC+E3w80n41+LvFkk3hHUn1uHwZLcaZ/ZVlfxXc8lrKZLS3E8+wusypJcyIJNrFcooUA9o8M/AvwL4c8N+O/CEkd5q+kfEbWNW1jXLXUZVZZG1FQtzAnlqhWErkAHLAE5Y0AYngr9m7RPCniPwt4j1n4ieNPGDeBLKax8K2uvT2Rh0dJYVgd0NtbQyXEvkL5QluXmcK0nO53ZgD5/8P8A7PPxR1XWfhr4NtPC3xJ8JeDfh/41i8SQ6b4g8QeH77QtPs7WeaSGCweyB1O4Zt6JGt4dkUbPklkjyAfTHh/4C+ANE8L+PPBd1Bd6zovxH1nVdZ1y01GVWV31AAXEKGNUKxYGF5LjP3icEAGHpH7Ot/pmiP4cuf2hvi1f6bFoM+gabFJqljbSaarpGiXUc9rZxTTXMSxAJJcvNyzlg7MTQA2b9mq11bUrrxD4x+MfxE8R6+NEvdD0bWbi50+xu9Aiu9n2iax/s+zt41nYxQHzJUkI8lVHyl1YA1/C3wNt9H8d2fxJ8X/Ejxb481/SbC403SLjX106JNLhuGRrnyYrC0tkLS+TCGeRXYCNQpUFgwB5P+3t+xzY/tZ+DfDNvpziz8R6BrlmI71Qu4aZcTxx3wO4gNsiJnUZyTDtXlzQB9GeDvCOgeAfCej+CfCunpY6PoVlDp9jbr0jhiQKoJ7nA5J5JyTyaANmgAoAKACgAoAKAPPviV8GdI+IuveHPGVt4p8QeE/FPhU3SaZrmhPbfaEt7lAlxbSR3UM9vLE+2NsSRMVaJGQqQSQCv4P+Beh+EvH1t8TZfF3ijXvEMHhk+F5brV7uGY3MBvXvGmkCRJiUyyMAE2xKgVEjUKMAGTZ/s32Gha5qV54L+K/j7wtoWs6//wAJJqHhrSrqxXT57x5Y5bgLJLaveQRzvHukjguI1JklKhN7ZAMR/wBj7wi93p1v/wALL8fJ4b0bxnH480zwwl1Yrp1nqq35vjtYWn2l4WmeXMMk7oPNYqFdY3QA6CL9m3wlFq/jU/8ACS+IJPCnxDuLy88R+DpBZPpN7c3VqlvcS7zb/bIy6xq5WO5VQ+WCjJBAGeH/ANnS00/SX8K+Lfi38QPG/hZvD9z4ZHh/XruxFmbKeNIm8x7S1guLiQQoYxJPLIwEjtkud9AFHwx+y5peheN/BPjvWvi58Q/FV38PLa5svD9trN1YfZ7eCe2Nu6utvaRNM2zb+8kZpCVGXILAgHWfGP4O6V8ZdK0Cw1DxRr3h658M6/a+JdM1DRTa+fDe26yLGSLqCaJl/esSrRnJA7ZBAMvR/g/p/gDRvHniNn1/4l+KPFlgF1OTW7izjudYjtrd47bT1EUUFpBFh5FAEaLunkdySzNQBR/ZH+CMP7Pf7PvhH4aSWcVvqltZrd6yI23g6jP+8nG/Lb1Rj5anJ+SNKAPYaACgDzPxp+zf8HfiDr9/4k8U+Gr2a41hbZdXtrbXL+zsNYFvgRfb7KCdLa9IUKmbiOQmNEjOUVVABfvfgV8KdQj1mG68KK0ev69p/ifUFW8uEE2pWP2f7LMAsg2BPsdt8iYQ+X8ync2QDCtv2VfgTa+JbLxZH4Ou3vtM1O81jT45dd1GWzsLq7MpuzbWjzm3gSYzymWKONY5Cw3q2FwAZtt+xn+zrbWsll/whWpXEL+H7nwoBd+J9WuTFo06Kj6fEZbljFbgIuyJCqxnJjCEkkA0bP8AZT+BVjoeoeH4PCN8YNSk06WS5l1/Upb6A2EgksVtrx7g3Fqlu43RJBIixkttA3HIBZ8L/syfBPwdqttrmg+ErmPULXXD4mW5uNav7qR9VNo9o93I00zGWV4JHV2fdvJ3tucBqAOq0L4YeAfDvhTU/A2m+GLRvD+tXGo3Oo6dd7ruC7e/lkluxIsxfckrzSkofkwxUALxQBxVn+yh8C7XTNX0m58MatqsGtaFJ4ZuH1nxPquqTRaU4w9pbzXVzJJaxNxuWBo87UznYuADa8Ufs/8Awl8ZXeoaj4g8Lyy3up2ulWk13Bqd3bTxpptw9xYtDLDKrwSQzSO6yxFJMnliABQBQ8L/ALMnwT8Harba5oPhK5j1C11w+JlubjWr+6kfVTaPaPdyNNMxlleCR1dn3byd7bnAagB2qfs0fBjVtEttAl8MXtpBZ6lqeq28+m67qFheRT6jI8l8Fu7edJxFO8jM8PmeU2Eyn7tNoBD4i/Za+A/ifTdJ0bUfAgt9P0XSl0GC00zUrzToZ9MVg62V0lrLGt5bhgWEVwJEBeQgZkfcAa9z8BvhNdwavazeEYxDruu6d4lv447u4jWTUbEW4tJgFcBBGLO2AjTah8v5lOWyAd/QAUAfn1/wVisJL7/hVnlsw2f25nacdfsP+FAH2L+z2wb4BfDRh0Pg/RiP/AKKgD0CgAoAKACgAoAKACgAoAKACgAoAKACgAoAKACgAoAKACgDjvFHxS8P+EviF4J+GupWeoSan49bUU02WCNDBEbK38+XzmLhlynC7VbJ64HNAFnxz8Uvhj8MYbS4+JXxG8L+E4tQZ0tH1zV7ewW4ZACwjMzqHIDLkDOMj1oAZr/xY+FnhTwrpvjrxT8S/CmjeG9Z8n+ztY1DWba3sbzzYzLF5M7uI5N8as67WO5QWGQM0AcL4t/a+/Z58Ga74I0nV/ih4bNl49ivp9N1uLW7H+y4obVTukmuGmAVHdWiRlDBpFZOCDQB6o3iLw+nh8+LX13T10NbP+0TqZukFoLTZ5nn+dnZ5ez5t+du3nOKAIf+Ew8JfadFsv8AhKNI+0eJI3m0aH7bFv1KNIxI7Wy7szBYyHJTICkE8c0Ac/oXxy+CfinxBaeEvDPxh8Eavrl/G0tpplh4gtLi7uEVWZmjhSQu4Co7EgEAKx6A0AcX+0T+1f8AC79n7wvrV3e+KvC2p+LtLjtpIfCMviO3s9SuxNLGg2xHfKPkcuMRnIU9uQAdzq3xo+DugeMIPh7rvxZ8G6d4qupoLeDQ7vXrWHUJZZiBCi27OJGaQsu0BctuGM5oA5fSP2pvghq3xe8R/BB/Hej6f4p8O3NlZfZr7VLOL+0rm5RmEFmnnGSaSMrskTYCrMowc0Adho/xX+FviHxdfeANA+JPhXU/FGmCQ32iWes281/aiNgsnm26OZE2syg7lGCQD1oAq6V8a/g3rvjGb4d6J8WvBmoeKreee2l0K0161m1COaDd50bWyyGQNHsfepXK7WzjBoAr/Ej44fDf4UXMNl4y1TUxdzWU+p/ZtK0K/wBWnisoSoluZY7KGV4YVLqDLIFTJxnINAGb4o/aU+C3hCy0vUtV8Xy3Fpq+i/8ACSwT6VpV7qccWkYUjULhrSGQWtqQ2RPNsjIV8N8jYAN/XPi38N/DUuvx6/4tsrBPC2j22v6xPPuWCzsbhplhlaXHlnebabCBi52g7cMuQDntf/aV+DnhvQtC8SXviHU7uy8SaH/wkunjSvDupalOdK2Rv9tlgtbeSW3hAljy8yoAWwTkEAA0dd+Pfwh8NaNYeIdY8cWUWmap4em8VWV1HHLNHcaXEbcG4Ro1YHc15bLGn35WlVY1dsigDLj/AGm/g1PoFt4htdf1a5F1q1xoUemW3hrU5tYGoQIZJ7dtMS3N6jxxjzG3QjajK5wrKSAQ337VPwMsfCOkeOV8W31/pGuWV7qVo2l6BqWoXC2lm4ju55ra3t3mt44JGEcrTIgjchGIbigD1DTdS07WdOtdY0e/tr6wvoEubW6tpVlhnhdQySI6kqyspBDAkEEEUAc/F8T/AADP8SZPhBB4ntJfGMGkHXZtJj3PLDYiVIvNkIG1MvKgCsQzA5AIBIAOd+IH7Rvwf+F+sXOieNfEt5aTafDbXOpT2+iX95aaXFcOUhe9ureF4LNXKtgzvGMAt93mgCbWP2g/hFoHxEh+Feq+KpIfEUt1aWLRrpt3JaQXd0jPa2014sRtoJ5lXMcMkqyPuTap3rkA9FoAKACgAoA/PH/grZ45svB7/CuO50+a8a6GuMBEpYoF+w8nA4zn9DQB9mfs7xTW/wCz/wDDKC4UrLH4O0VHU9mFlECPzoA9CoAKACgAoAKACgAoAKACgAoAKACgAoAKACgAoAKACgAoA+df2iZ73w/8f/gP4/m8M+KNS0Lw9P4lGq3Oh+Hb/V2s/tGnLFCZIrKGWQB3O0Hbjr2BoAyfir8Vda8VeMfBOpeErT4l+FfCMcOsQ6p4p0r4Vahd+IILtVtTDYx219p0slvazLI0j3AtZFke1SMOhVzQB4t8PPAviTwv8EfhVLqk3xl+GnxC8PweNLfRtZsPhz/wkcVhDc66Wa31DTre1n8t5YUgeN4lgRkD7JSuFIB3sdx8TV1z4EfGn4h/Cy802x8P+IvGZ1VPC/hO+M/2bUYbg2WoTaPB9ou7Z7kgPMjGV45Z8ylSzBQD6S+LGkah8Rfgd4y0LwvayyX3ifwpqNpp0F1E1pI0tzZyLEkiTBWiO51BDhSpyGAINAHzZ4L1fXPG/wAUf2W47D4Z/EGwi8DaDqdv4ku9X8Jahptrpt1JoiQrA0tzDGrnzI2UPHujJwA5LAEA81+BVta/EX9lP4O/Cf4d+CPEaeJ7Xx1Y+IbvWV8KXtpp2mpa6vLcXOof2hLDHazv9njaELFK8jtKExgOVANj4o6X4t0L9nX40/BB/hX491jx94o8d6lrS3Ok+E766s9XtrjVIbmC9F5HG1sAtmsMRh83zUMHl7PlGQCT9sKH4teMtH+Ongyz0L4iWs9wtinhfw/4R8AJe2HieOO2t5Wv77VXspt06uroIknt3RLOJIxLI67gD2jSIdb8E/tP/GL+09F8S2sfxL07w2nhnWLDw/fX9j50Frc28vn3NtC8VoY5NjHz2jG11YEjOADyT4A/Dd9K0n4Q+DfHs/x8HjD4e3k+NBj8JWdto1jfpbXUV3ONbj02GOW1uFaZgf7Qd5TcxBy8m7ABs/AOLxt4T8VfDrwJ8NofGvib4eWJhYaJ8RfhbPod/wCB7WPT7mN5rfWTBbQT3BkuEgaMRXEjpJLiUL5kjAHsP7SfxZ8X+Fm0/wCG3gnw/wCLrW88T2spu/GOmeENU1u28PW2djPHHY28plvWBbyY32xqR5khKqsUwB86eOvhfc+Ajq118KdK+Nlraaj8M9D0b4Yt4XsdVspI9X01rqNItYiRIzF81xbSf8TBEt2SW8bG8GgD2XQ/hjqfjXwd8YfF/wAVPAFrqPiXVNUmGkwXWlmXa+lactnbXVnHKm9S1yt5NDIoDFblSpwwJAMGb4i/EL4dfs+fB/4OaH4O8caNrmr+AtKtdW8S23gvVtWTwskdlDFKPIs7eV21DO9YoZNiRspklJCrFMAcX4v+Ed9qfhDWtT+GfgDxa/hr4ZaT4C0jwzpl5o1zaX+sabpmow6pqe22uYo5ZZWjEAKiPfJNaFApclaAOni+J3jzwDrfxR+K/hP4S+Nbk/FXxXZ2fhsX/g7WJBYQWOk21rLq2o2VtbteRQGWJhFCY0mnCIP3SMZYwDTePwj4V/Z7b4baY3x2Fv4nttXm1bxho/w8ujrOoalPO814k1nNZPcQPcvdTtHI1ssSopVbiNghIB7f+zxp/irSPgT4A0fxv4ctNA1vT/DtjaXel2hbyrIxwqiwjc7kFVVQRvbBBG49aAODi+HNl4d/bFj8U6D4AjsNB1L4eay+rX9jpGy2u9Un1Sxd/OeNNslzJHESdxMjrH3AoA4744eONP8AFOmWX7OegeA/H/hT4a6loNmNa1nSfhxrk2dHliAGi6fb2tk4tpWh2xzNMqfZ42MaxtKSYADhPHvhvxfP8YNZ1LR/ht4tN/deO/Cer6D4es/Dd6PDetWNnFarFqmoX+0CyurZElAhM1uimztlktrjOWAPuugAoAKACgD4f/bq0Twp4k+Juh2fji6jtrOy0GOWwZxkPLJcTCYD6COD/voUAfZXhHSV0DwpouhKABpunW1oAOgEcar/AEoA81sP2gdf1+TUpvCH7OfxK8Qabp2sanog1K0u/D0MFzPYXs1ncNGtzqsUwTzreUAvGpIAOOaALf8AwuT4i/8ARp3xV/8ABl4V/wDlzQAf8Lk+Iv8A0ad8Vf8AwZeFf/lzQAf8Lk+Iv/Rp3xV/8GXhX/5c0AH/AAuT4i/9GnfFX/wZeFf/AJc0AH/C5PiL/wBGnfFX/wAGXhX/AOXNAB/wuT4i/wDRp3xV/wDBl4V/+XNAB/wuT4i/9GnfFX/wZeFf/lzQAf8AC5PiL/0ad8Vf/Bl4V/8AlzQAf8Lk+Iv/AEad8Vf/AAZeFf8A5c0AH/C5PiL/ANGnfFX/AMGXhX/5c0AH/C5PiL/0ad8Vf/Bl4V/+XNAB/wALk+Iv/Rp3xV/8GXhX/wCXNAB/wuT4i/8ARp3xV/8ABl4V/wDlzQAf8Lk+Iv8A0ad8Vf8AwZeFf/lzQAf8Lk+Iv/Rp3xV/8GXhX/5c0AH/AAuT4i/9GnfFX/wZeFf/AJc0AH/C5PiL/wBGnfFX/wAGXhX/AOXNAB/wuT4i/wDRp3xV/wDBl4V/+XNAB/wuT4i/9GnfFX/wZeFf/lzQAf8AC5PiL/0ad8Vf/Bl4V/8AlzQAf8Lk+Iv/AEad8Vf/AAZeFf8A5c0AH/C5PiL/ANGnfFX/AMGXhX/5c0AH/C5PiL/0ad8Vf/Bl4V/+XNAB/wALk+Iv/Rp3xV/8GXhX/wCXNAHPeAPEusfC7whp/gPwL+xx8VdM0LSlkW0tP7Z8NTeWHkaRvnl1tnOXdjyx646YFAHQ/wDC5PiL/wBGnfFX/wAGXhX/AOXNAB/wuT4i/wDRp3xV/wDBl4V/+XNAB/wuT4i/9GnfFX/wZeFf/lzQAf8AC5PiL/0ad8Vf/Bl4V/8AlzQAf8Lk+Iv/AEad8Vf/AAZeFf8A5c0AH/C5PiL/ANGnfFX/AMGXhX/5c0AH/C5PiL/0ad8Vf/Bl4V/+XNAB/wALk+Iv/Rp3xV/8GXhX/wCXNAB/wuT4i/8ARp3xV/8ABl4V/wDlzQAf8Lk+Iv8A0ad8Vf8AwZeFf/lzQAf8Lk+Iv/Rp3xV/8GXhX/5c0AH/AAuT4i/9GnfFX/wZeFf/AJc0AH/C5PiL/wBGnfFX/wAGXhX/AOXNAB/wuT4i/wDRp3xV/wDBl4V/+XNAB/wuT4i/9GnfFX/wZeFf/lzQAf8AC5PiL/0ad8Vf/Bl4V/8AlzQAf8Lk+Iv/AEad8Vf/AAZeFf8A5c0AZPiz9o3xR4G8K6z418U/sufFWy0Xw/p9xqmo3P23wxJ5FrBG0ksmxNYZ22ojHCgscYAJ4oA9roAKAPgn/gqP8IvEvxLuPhrdeFtQuLKWxTV47l4SAZFY2hjBz6ESY/3jQB9zeHrr7boGm3uc/aLOGXP+8gP9aAPir4j6Lo3iP4O/DrQPEOk2WqaXqP7TerW15ZXsCTwXEL+LdaDRyRuCrqQSCpBBBoA7jxz4b8Jfs5ftB/CqT4I+GbTw1beM01+28TeF9BgFpYanZWemvcpeG1QCCOeGdYEE6oJGFwI2YgqoAMb4B/FD9q74if8ACuPifJ4e8W6noHjJTe6/aagfDFv4esdPuYXkgk06S1uH1QPC/kIVuVlaRTNuSJ9oQAf8OvjF8VtA8Y6PZ/tB+K/if4V8UTTSm58Oan4T0pvCWuXMtjeXA0/R9VsoZHjaIwoyfarwzOsWwo7uxQA1fDfiX45av+zHL+0/cfHe6e/1TwLqniz/AIR630bTH0mwaWwmuLSG2f7OLkSWzGAMZ5pg7RSBkG4bADO025+Iay/sz+LvHvxIk8Z3/jvW7e5uotS8O6Qlvppk8P39y32Ax2ont2LCMM5mZyEwCquykA5z4ffFz9oO2+APw0/aO8Q/GK/8S3fiDxbp+i6h4WbQtNgsbuyu9UbTtsRht1uRdLvSZXWYITHtMRBOQDm9M0LxR4b+BP7W3jSP4ma1qUWi+K/GedD1TSNFvNMvrhLOFluLmKSxLSNkqdgdYTsXMZBbcAexWviX4s/EfWvita+Fvi7L8PrH4XWen6do1hZaXprwXN02kRXz3Woi6t5X+zFriKNEt3g/dwyHduYFADG8EfFf4xfH74oeAdI034lal8PtC8S/BvS/HuoWej6Vp89x/aFxclGEM19BOEjwy/eR8qq42klqAO++B/iH4wfG74B/DXxk3xLt9B1211sv4ku4NCgnXX7GxvLm2ntjG5C2rXIiR2li5jbdsUA4AB7/AEAFABQAUAFABQAUAFABQAUAFABQAUAFABQAUAFABQAUAFABQAUAFABQAUAFABQAUAFABQAUAFAHlX7WP/JrHxk/7J/4h/8ATdPQB6rQAUAebfGLwh/wlf8AZH7rf9l+0dum7y//AImgC98BtdPij4G/DvxKzbm1XwppN6xPXMlpE5z75NAHm/wz+FXgf4u/CK50Lx3p17dW2mfFLxprFk9lql3p09tew+KdW8qaOe1ljlRl3Nghhzz1AoA9H8C/A/4a/DrX73xb4d0e/uPEGoWq2M+ta1rN9rOom1Vtwtlu76aaZId/zeUrhN3zbc80AZGi/sx/Bfw7rFrq2j+G9St4bG9udRtNH/4SHUn0S2uLgSiZ4tKa4NjHk3EzYWAANIWADc0AO8Gfs0/CHwFqmi6voela9czeGoTBokWs+K9W1e30tfL8rNrBe3MsVuwizGHjVWCMyAhWIIBWsv2VfgZp6XtrZ+FNQi069g1K3/sgeIdTOl2qX6yJd/ZLA3H2azMizzLugjjKiVwpXccgHWt8KfAL2/gu1bQcxfD2SObw2v2qb/QXS0ktFOd+ZcQSyJ+83fez94AgA8f/AGb/ANkDw58KvAfgy0+IYuNf8VeFbi4voc+JdUvtHtbx5ZzHcWtjcyC2hlWKYqJEt0ZSzkHLEkA77Xf2a/g94ivvFN7qehasI/G8VxH4hsLXxJqdrp2pGe2W2lllsobhbYzNCiKZvLEmUVt24A0AO8Yfs3fB/wAdaleatr3h7UUn1TT4dK1VdN1/UdNi1aziV1jgvorWeOO9RUkkQLcLINjsv3WIIB0tj8MvAul+M4fiDpvh2C01y20KPwzDPBI6RxaYkvmpbpAG8pVV+QQm4DjOOKAMEfs9fB8eF/CngweEP+JP4I8QR+KtBtv7Quv9D1RJpZln3+ZvkxJcStskLJ82NuAAAD0agAoAKACgAoAKACgAoAKACgAoAKACgAoAKACgAoAKACgAoAKACgAoAKACgAoAKACgAoAKACgAoA8q/ax/5NY+Mn/ZP/EP/punoA9VoAKAPlH9uz9qP/hmw+CAL3yD4i/tLoevkfZv/j1AHrH7K/y/s9eBoR9yDTBBGP7saOyIv0CqB+FAHzL8RfiB4l0r4SWHw08Ba/4s0nxH4h+IPxN1iO48MaZfaheiLT9f1Z4UaKxR5xDJfzafHI2AhiMqMw3UAdbrP7W3xY8Uya/4m+EkfgKHwt4d+FWmfE2WPWra6ubu5M/2t5rASRTxrEQlqy+aY2McilWjbf8AuwBs37W/xhmbxx8RbHSPCEfgHwP4i8N6bLpU9jcnW7201W30932zC5EMU0TX42gxOsvKfuym9wDzrwz+1H4q+F1zfeJvFLar4qtdHPxU1UxXOuX3mumm6tClraqpmNv5YWQIGkhkaJR+62jcrgHv3jn4nftA/Czw/p1h498TfDJNb13Wra003UtL8L63qHnQG1kkubeHRLWWW7uriOSIlXWdIzCzO4iaPZKAfOOq/tM/G7xhaX/xGu9bsLK20j4SfEC41DQ7a21jTLe9vNL1iK0juVRbyG5spSPIIJ/fwqLmPcGmDQgHsup/tQfFPTrPX/HOjaV4X/4Qb4ea14c8M63p15Ddy6zqUt9FZNPdW1wZ9sKx/wBpW4SOSKYzeVKfNUsoUAsfDz9o/wCNeteNfCNx4sg8EHwj4w+IPifwLb2mnabdx6lbDThfm3unnkuWiYubAo8YiGMh1bny1ANP9oP48fGnwH408faR8OV8Eppfw++GMXxDuRrem3dzcXzC41BZbRGhuYliDR2SlZCr7WyCrh8xgGFf/tSfGLwmfFXhvxNpng3UfEUlj4NuPC81jaXVrY203iG9lskS/wDMnkaRLaVA5dDD5ygjEJYFQDnfHvxo+P198UfCXwlh8ReG9P8AGPhv4o2+h3eqWNteW+iarp954furyJp7H7UZGaNWybY3JDSwxEOu4FQDj/jF+058TtY8NeI9HuZY9G8SaD4O+JWnX2q6BqOo2UP9oaPLbRR3VnEtzsUMJAwMyyyxOGWOQDcXAPQ7T9rX4pf8JS2meGPBGo69oXhXUtE8O6pYW3gzXNU1LVTNbW0l7fR6pbqbC18lbuNhbz7nkEEpZ4vNjwAaX7XnxK8Y/Cz4v+CPGC63PP4S8P8AgvxZ4quvDtnPf2cmo3em/YZFEs1tdJHIrCZEVZoJYo1NwzxzGRPJAMr4hftPftE/CvUG+HfiKH4car4u1BPCl9pup2GmXsWmR2+q6mdPnhmgN28jPFIpZJVmCyKc7FKkEA9U+Pur+NLe3+Evw2uPF02knx34pg0PxLr+irJpxaKPTrq6khtj5kktobmW2WNGWVpI1dgsm7D0AeTa18ctT/Z31X4g+ENE0X4lyajMnh1/D2j+NrtvEUVrNqN/Ppwv4bm2vb3Ubm2doUl+wkLNut3EYU3OIwC3B+0/+0Fqeu+E/h3ZeHtI0rWPEHjWfw9H4l1/wHrel6fqGnDS5b1Lu2068nguUlR4nhkjaV0LRhlcCQbACdv2h/2kNR1vTn0iT4bW2ka/8WNe+GFjFc6Lfy3NotnJf+Tfyut4qzHy7Fg0CrHubBEqB9sYBBL+1j8U7zwN4ea31TwZpni57nxTaatDD4P1zxCbt9Iv3s0ktNP06Qzw27lFaWeeXbEXRVEpYlQDBuf2xvj9rXgfU/iH4U0r4fWOn+GvhHoXxK1Oz1HT725mu7i7+1NNaQyR3MaxJttWKSMshU4BWQNuQA9l+H3x38ceMfjTdfCa607Q4G0a81m81RhDKso0dYdPm0pkHmMollXU0DscoxtLgKEIwADrfjR8RfFfhXVvAvgHwCmkw+JPiFrc2l2eo6xbSXNjp0VvZT3txNJbxSxSTsYrZo0jEsY3yBmfCFWAPJ/HXx7/AGiPDp8UaTY6V8PLbWPhT4Eh8Y+Lxcx3k9vrbvJdbYNOYSxNZo0OnzyeZKLnY88UZB8tpHAMHxf+1T8dM+OfF/gWw8Cx+GPCGu+ENKt9O1fTr1r+8j1y10x9z3EdwqQtDLqQP+pfcgxhSm6QAtXf7SPx+tvEdr8K4m+H0viv/haZ8BXGsPo95HpzWL6GNTju0tPtpkEy7tpiM5V9m0MpfcoBXv8A9rT4oy6LDoltqHg7TPGGkar4m0fWFh8Ia54iGoy6VOsKT2Wn6c5ngtnLr5s1xLthYqi+cSSoBg3P7Y3x+1rwPqfxD8KaV8PrHT/DXwj0L4lanZ6jp97czXdxd/ammtIZI7mNYk22rFJGWQqcArIG3IAey/D747+OPGPxpuvhNdadocDaNeazeaowhlWUaOsOnzaUyDzGUSyrqaB2OUY2lwFCEYAB75QAUAFABQAUAFABQAUAFABQAUAFABQAUAeVftY/8msfGT/sn/iH/wBN09AHqtABQB8Pftz+DdO8d/FPRrDWrcXsGmeH4poIJACkLzXNwHcYGcsIYwckj92uAOcgH0Z+yxz+z74Jbs+nlx9DK5H6GgDn/wBmnwH4U8jWPif/AGWT4lPijx1oIvTcSkLY/wDCYapP5Qi3eWMyYYsF3HCgkhQAAY9p+wp8FIfHOpa/cWF3J4cutDtdEt/DkWpahBDHGl9eXlws8iXI+1280t2M2sytCoiUBSuFUA29F/ZH+G9v8T/FnxQ8TrPrd34h8RWXiCzsftF1bWVm9pZ28Fuktqk/2e8aJ4GmjklizG0nygFdxAOksv2Z/gdY3jXsXgG2leSLXIZY7m7uLiGWPWJRLqSPFJIyOszqCVZSFGQoUEigDNt/2S/gVa2qRW/hzXI72O/i1GPWV8Wav/bMcsdq9rGqan9q+2LEsEssYhEwiCySYT52yAQL+x3+zpFo0Xh228ATWumQ2Ws6YLW11zUYI3s9VKtfW7hJx5kUjqsgjbKxyKHjCON1AG1qf7NfwV1fxbY+NtQ8GtJqdg1hIqLqd4lncTWKlbOe5tFlFvdTwqQI5po3kUIgDAIm0A0tO+B3wt0n+xP7P8L+V/wjniC/8U6Z/ptw3kape/aPtM/Mh3b/ALXcfI2UXzPlUbVwAWfE/wAH/h14xv8AxJqfiTw79sufF3hr/hD9Zf7XPH9q0jdcN9nwjgJzd3Hzptk+f73yrgAo6z8BPhJ4hTXI9b8HQ3i+I9EsfDuoiS6nPmWNm8j2qp8/7qSKSZ3SaPbKr7WD7kQqAYNx+yb8B7vRbTQ7jwnqTrZa83ieK+/4STVBqZ1Zomh+2Pfi4+1STCNiqs8pKALtxtXABLdfsqfAO90S18O3PgFXsbTRtV0BE/tK8DvZ6kyvfiSQS75ZJnRWeZ2aUtlt4LEkAt6v+zX8Fte8S2nivVPB8kt5aNYSGBdVvY7G6lshi0murNJRbXc0QChJZ45HAjjG7CIFAOn8TfDTwJ4z13T/ABH4r8NWuq3umabqOkW/2otJCbK/EQvIJICfKlSUW8QIkVuFIGAzZAOJ0j9k/wCAuiac+m23g27uEkvdKv2n1DXtRvrrzNNcPYILi4neYQwsoKQh/KGT8nzHIB3vjrwB4O+Jfh2bwp440KDVdNmdZRG7MkkMyHMc0MqESQzIfmSWNldGAKsCM0AchY/s0/BWy0XxJokvg+XUh4uWNNav9X1a91LVLtYwnkg6hdTSXa+SY0eHbKPJdQ8ex/moAXw/+zZ8GfDGoaXrOl+FLh9U0fWZvENvqN7rF9e3smoy2zWrzz3E8zy3J8hzGBMzhVxtAwMAGpb/AAR+GFr9g+z+GNv9l+K7zxvaf6bcHy9auvtHn3XMnO77ZcfuzmMeZwo2rgAwdQ/ZZ+BupRwRS+EbyAQyaq7Gz17UbQ3Canci6v4Lgwzqbi3mmAdreXfDxgIBxQBLp/7MPwO0vwzqvg+y8FMmka34Yt/Bt9btql6/m6NB5/k2odpi6BftMwDqQ+GA3YVcAGj4H+Edv4T+JPjH4mXd/ZXmoeJ4NO0y1W3077P9i02ySQQwM5kdppC80rPKSoYeWuweWCQDc8ffDjwh8TdJttG8YafczxWN5HqNlPZ6hc2F3Z3SBlWa3uraSOeB9ryIWjdSUkdTlWYEA4bVf2Sf2e9Y0rRdDu/h6sVhoenHSYoLTVL21W8sjMJ2t77yZl/tCNpg0rLd+aGkklc5aWQsAdHqvwN+FmtR+JIdR8KrJH4u1PS9Y1hVvLiMXN3p32b7HIAsg8sR/Yrb5U2q3l/MG3NkA434mfsnfD74i+JNH8QCW70jyPGA8Z60LS7u459TvE0x7CJo7iKdJLN0XyHDwkYMA4DMWoA1bn9lb4FXOl6Po48HXVtbaJa3tjD9j1zULWW5tryVJbuG8linV76OeWNXlS5aVZGyWBJOQCbT/wBmH4HaX4Z1XwfZeCmTSNb8MW/g2+t21S9fzdGg8/ybUO0xdAv2mYB1IfDAbsKuADR8D/CO38J/Enxj8TLu/srzUPE8GnaZarb6d9n+xabZJIIYGcyO00heaVnlJUMPLXYPLBIB6FQAUAFABQAUAFABQAUAFABQAUAFABQAUAeVftY/8msfGT/sn/iH/wBN09AHqtABQB8q/tBRW03xvuVvDhF8KaUU+pvNSz/IUAeqfsp/N+zb8NZu0/huyuAfUSRBwf8Ax6gBf2af+Sdav/2UDx3/AOpVqlAHqtABQAUAFABQAUAFABQAUAFABQAUAFABQAUAFABQAUAFABQAUAFABQAUAFABQAUAFABQAUAFABQAUAFABQAUAFABQAUAFABQAUAeVftY/wDJrHxk/wCyf+If/TdPQB6rQAUAfG/7XusQaB8XLO6uJ0hW78OWkalzgMY7q7JA+nmD86APoP8AZx006N+zz8L9IIwbLwZotuR7pYwr/SgDj/BWiftJfDWx1jw1oXw8+Gut6bP4o8Ra3Z31347v7GeSDUdXu7+NZIF0eZY3RboIQJXGUJB5oA6D/hI/2p/+iN/Cr/w5eo//ACioAP8AhI/2p/8Aojfwq/8ADl6j/wDKKgA/4SP9qf8A6I38Kv8Aw5eo/wDyioAP+Ej/AGp/+iN/Cr/w5eo//KKgA/4SP9qf/ojfwq/8OXqP/wAoqAD/AISP9qf/AKI38Kv/AA5eo/8AyioAP+Ej/an/AOiN/Cr/AMOXqP8A8oqAD/hI/wBqf/ojfwq/8OXqP/yioAP+Ej/an/6I38Kv/Dl6j/8AKKgA/wCEj/an/wCiN/Cr/wAOXqP/AMoqAD/hI/2p/wDojfwq/wDDl6j/APKKgA/4SP8Aan/6I38Kv/Dl6j/8oqAD/hI/2p/+iN/Cr/w5eo//ACioAP8AhI/2p/8Aojfwq/8ADl6j/wDKKgA/4SP9qf8A6I38Kv8Aw5eo/wDyioAP+Ej/AGp/+iN/Cr/w5eo//KKgA/4SP9qf/ojfwq/8OXqP/wAoqAD/AISP9qf/AKI38Kv/AA5eo/8AyioAP+Ej/an/AOiN/Cr/AMOXqP8A8oqAD/hI/wBqf/ojfwq/8OXqP/yioAP+Ej/an/6I38Kv/Dl6j/8AKKgA/wCEj/an/wCiN/Cr/wAOXqP/AMoqAD/hI/2p/wDojfwq/wDDl6j/APKKgA/4SP8Aan/6I38Kv/Dl6j/8oqAD/hI/2p/+iN/Cr/w5eo//ACioAP8AhI/2p/8Aojfwq/8ADl6j/wDKKgA/4SP9qf8A6I38Kv8Aw5eo/wDyioAP+Ej/AGp/+iN/Cr/w5eo//KKgA/4SP9qf/ojfwq/8OXqP/wAoqAD/AISP9qf/AKI38Kv/AA5eo/8AyioAP+Ej/an/AOiN/Cr/AMOXqP8A8oqAD/hI/wBqf/ojfwq/8OXqP/yioAP+Ej/an/6I38Kv/Dl6j/8AKKgA/wCEj/an/wCiN/Cr/wAOXqP/AMoqAD/hI/2p/wDojfwq/wDDl6j/APKKgA/4SP8Aan/6I38Kv/Dl6j/8oqAD/hI/2p/+iN/Cr/w5eo//ACioAP8AhI/2p/8Aojfwq/8ADl6j/wDKKgA/4SP9qf8A6I38Kv8Aw5eo/wDyioAP+Ej/AGp/+iN/Cr/w5eo//KKgA/4SP9qf/ojfwq/8OXqP/wAoqAD/AISP9qf/AKI38Kv/AA5eo/8AyioA5T4saR+1P8UPhZ4y+Gf/AAq/4VaZ/wAJb4f1HQvtv/CxNRm+y/araSHzfL/sNd+3zN23cucYyM5oA+gKACgD85/+CuHh7xlqF78LtQ8FS+VM0Wsw3h2k7lU2ZiHBHQvJ+dAH2t+ztqX9sfs/fDLV9277d4O0W5z677KJv60AafxL+K/gf4RaTp2s+O9RvraDV9Th0awjsdJu9RuLq9lV2jhjgtIpJWZhG+ML2x1IoAd8O/ir4E+Kthf3/gjWJbo6VePp+o2l3Y3Fhe2NyoBMVxa3Mcc8LYIYB0XKkEZBBoA62gAoA5n4m/EDRvhT8PPEnxL8RW17caX4X0y41a8iskR7h4YULssauyqWIBwCwGe4oA6Cyuo76zgvYVYR3ESyqGHIDAEZ9+aAJqACgAoAKACgAoAKACgAoAKACgAoAKACgAoAKACgAoAKACgAoAKACgAoAKACgAoAKACgAoAKACgAoAKACgAoAKACgAoAKAPi3/go7rH9k/8ACvPn2+b/AGt+n2T/ABoA98/ZTBi/Zw+HdgWJOm6BbaZz1/0ZfIx/5DoA4T9tqHW7jT/gzD4b1CxsdUf4u6Atpc31m93bwy+VdbWkhSWJpFB6qJEJ/vCgDyn9oP4L+Jvh/DY+NvG/xE0jU7b4h/EDT7r4laxqPhqQ+G4LK3sprfS4brTY7xGGnRzC1WVprtlLlZJWZAY6AOfOjeB9E8F2FvYfFzwd40+C8vxa06bxnaeDNGaw8K6HavpzMbZs3V1D/Z73psJ7qPzfJRpmLqivIKAMb4znwCPhJ+0qfgtNpkPwdEPgv7HJoUqR6Ems/b0/tBtNe3IgVRB9hM5iIAmySd++gCb43WXwhWy+KU/7Kc3hh/BcXwS8QR+Np/CcsU2lXF7vX+zBNLb7opb8D7cxZ2M3lFi5w6bgCH4m6J4e1z4hfFSD46/GL4Z/D6/it9Ml8Ian4z8NzXWqWWkLp0bQXfh68/tK28uWO7S7Z0t4nkE6qZC+9EAB+iWhLdroenLqF/JfXQtIRPdSW32Zp5Ng3SGHjyyxySn8OcdqAL1ABQAUAFABQAUAFABQAUAFABQAUAFABQAUAFABQAUAFABQAUAFABQAUAFABQAUAFABQAUAFABQAUAFABQAUAFABQAUAfEX/BS3w5c6/wD8K5+zs48j+2M7f9r7H/hQB9D/ALL/APyRbSSv+qOo6yYP+uP9qXXl/wDjm2gCr8VviTr3hTxOml6X8Y/hB4ZiNrHKbHxWzi93EsN423cQ8sgDHydQ3JoA43/hd/jD/o5T9m7/AL+S/wDyxoAP+F3+MP8Ao5T9m7/v5L/8saAOO+L2u6h8afh7qnw18U/tQfs/Wumas1s80un3DJOpguI502s986jLxKDlTwTjB5AB2P8Awu/xh/0cp+zd/wB/Jf8A5Y0AH/C7/GH/AEcp+zd/38l/+WNAB/wu/wAYf9HKfs3f9/Jf/ljQAf8AC7/GH/Ryn7N3/fyX/wCWNAB/wu/xh/0cp+zd/wB/Jf8A5Y0AH/C7/GH/AEcp+zd/38l/+WNAB/wu/wAYf9HKfs3f9/Jf/ljQAf8AC7/GH/Ryn7N3/fyX/wCWNAHQeAfiv4k1/wAX6bo+ofHb4G63BcuyvYaA0h1CfCMQsIN64zkAn5G+UHigD3KgAoAKACgAoAKACgAoAKACgAoAKACgAoAKACgAoAKACgAoAKACgAoAKACgAoAKACgAoAKACgAoAKAPkT9v74g+C/An/CB/8JfLs+3f2p9n+YDOz7Lu6/760Aey/sq/P+zn8Pbo/fvNCt72Qdw8w81gffc5oA9E1TQ/DuoMb7WtH065aKPBmureNyiDJ+8w4AyT6cmgDB8KJ8IfHmhweJ/Ay+D/ABFo9yzrBqGki1u7aUoxVwssW5GIYEHB4IINAGv/AMIZ4P8A+hT0b/wAi/8AiaAKOu6T8M/C+j3fiHxLpvhjSdK0+Jp7u+vobe3t7eIdXkkcBUUdySBQBat/Cfge7gjurXw1oc0MyCSOSOzhZXUjIYEDBBHIIoAk/wCEM8H/APQp6N/4ARf/ABNAB/whng//AKFPRv8AwAi/+JoAP+EM8H/9Cno3/gBF/wDE0AH/AAhng/8A6FPRv/ACL/4mgA/4Qzwf/wBCno3/AIARf/E0AH/CGeD/APoU9G/8AIv/AImgA/4Qzwf/ANCno3/gBF/8TQBw3h/4vfsvXni2Dwz4V+J/wtn8TvcPaQafp+t6c1+ZxlWiWJH8zfwwKgZ6igDsfB3j/wAJeP11pvCWrfbx4e1m60DUv3EsXkX9sQJof3iru2lh8y5U54JoA6GgAoA57RPH/hLxF4s8SeBtG1b7RrfhFrRdZtfIlT7KbqLzoPnZQj7o/m+Rmx0ODxQB0NABQAUAcJ4v+PPwN+Hust4c8ffGfwL4a1ZI1maw1jxFZ2dwI2+6xjlkVsHscYNAGrZ/ErwPqHjaP4d2GvxXOvzaGniWK2ijkdJNMebyUuFmC+UwLjAAfdjnGOaAOmoA57WfH/hLw/4v8OeA9X1b7Prvi1bxtHtPIlf7SLSNZLj51Uom1HU/Oy5zgZPFAHQ0AFABQAUAFABQAUAFABQAUAFABQAUAFABQAUAFABQAUAFABQAUAfEX7cfwd0n4/8AxQ0bwrrrQrB4S0CLULczdC9/cTo+PfFhHn8KAPof9lr938BvCtl/0D47rT8en2e7mhx+Hl0Acx+2t4u8RaT8G2+HvgW1vrzxb8Tr+LwfpNtp7QfailwrNeyR+c6RgpZx3LB3dVVthLL1oA8c+Gmu638H/EHxn+CWgaFN8EYPEfh6Xxr8PJPF1xpklppdyLdLO9d5Le5uYfLS5W1nCMzHEkrMhGA4Ba8Oav4w+HGqa/8AD/xLc+MPhl8RLrwVr/8Awj+veI/ifP4v8J3otxZKmrzfbpGlspY55Bt8y0hiKPKD5pKxKAcl428TeLvhH4G+I/hTxRp3xU8E/ECL4beJ7rRb8fFS98VaRq0NnHZk6nHJPMLqwulkc+WTb267ZJRudiqIAdj4n1LUfHcH7RfiDxp8R/F2j3Hwv0S1i8O2Gl+Lr7RorCI6El6t/L9iuIhctPcSycz7wBbqgAw4IAz4bW/iD4tfFz4ZeF/F/wASfHw0aT4B6H4ivbLTPFd/pov9Se48trmeW2lSZpCGJLBwWIG8sBigDkfCPxB+NnxF0D4B/DufxFc6tDrul+KpLiW+8bX/AIYudfu9LvTbW0Emp6fby3Lyx2oknaNdnnGNpJHbYVcA2Lu8/aHTxR8MfgH4j8X6LrqXJ8VTYsfibqulyajJZTRfZNNuNctLL7ZPdWttNM0iCKEzeR5krMUYOAeweB/D+s23w38HeH/jd8fY9J1bw/8AEARaXc6D42Mr6q0c832PQb+8uIYn1GQo3lSxGNJJjArNl9zEA+i6ACgDivjbD4Xuvg544sfG/iKXQPD974d1C01TVYs77C1lt3jknXAJyisWBx2oA+btN8R/En4F6J8K/DPjnTfg78UPhNqOq+FvDXgvV/D1tPY6nHcSIBb6ilm/2q2uAip5ytbzRsFVpFAHyqAebXek6n4W+Ef7Rvxu8NeOvGOleJPC/wAW9Yn0lLHX7q20+Fo9RtSwlsY3W3uhIHZHFykuV4G0UAbH7WnxD8VaVD8aPif8LtQ8S2E3wsu9JiutZ1D4m3+l2lnqYjtJVtbLQYo5LS8gdZYFc3gQTSXEypvVQaAD9rT4h+KtKh+NHxP+F2oeJbCb4WXekxXWs6h8Tb/S7Sz1MR2kq2tloMUclpeQOssCubwIJpLiZU3qoNAHTXngXQvEv7QH7U/iLxF8QvFvha08P6XoNyt3ovia70aKzYaIXN5K1tJH5piEeQsxeIDdlDkmgDk9e8f/ABC+Knw80/UNR/4Sa28b6P8ABiw8WeKr5viZqHgzTNJNxFcPFeQ22nxv9qu38qaWQTRrbxLFDGWUsyAA6j4baj4p+Pvxc+GcHjz4h+NINO1j4B6H4v1LTtC8RXeiwXmq3Fxh7h/sLxMrfvD/AKtkBwoIKgLQB7d+xz4n8SeL/wBnDwhrHi3XbzWtUQX9hJf3rh7i4jtb+4tomlfA3yeXCm5z8zNlmJJJIB4zpsHjb4Zab8UfiV8BfGvwi+Ivw6vPFniXxF480rxIlzp2pWE6RBruw+3xGaI7NhwtzarsiKDcyMrAAq+FdG8M/HH9pvwRrENv4l8G6FqHwF0rVrfRNC1e50OS2jk1BjFaPLZtDMscQcAJGyISi5BUAUAZvgPxn4s+J3w4+Cnga5vvF3izxvqFh4mmLP8AES/8JWc+n6dfi0+0397p6NdXdyALZEjRH3eZPLLjAYgHK/DS81r47L+yPJ438ca7c3FwfiDY3GraTr0qXd5bWMpt4R/aMIjmffFbxhrhDHLIMsWBdiQDb1Tx78V9P0JPhRoni7U7rSJfjzqXghb7WfFt7YXX9mrafa7TTH1pIri9iMtyywJNh5mUpCJFDb1ALvjO8/aH+Htpofwq1Lxfoo0zxX8SrTTUto/ibqtxfaZZzadJcR6Tc6+9l9vgFzdxL5LiJptkwhEoVlZQB/jfTfjZ4S0bw18PPEfxTudIttZ+M2g6db2/hzx9f6zq+laVeWUzT2F1qV1BDcSI8itLGJUZlWRRvYJGVAPa/gIdT8OfHH4z/C2HxN4h1Pw34ePh2/0mDXNZutWns5Lyzl+0Kl1dySXDRs1ujhHkZVYvtChiKAPzq/4KZzftPfs4/HF9d8H/AB/+KNl4G8cCTUdJig8XaikNlcgj7TZqBNhVVmDooAVY5UUfdNAH27/wTZ8CfGDRPgPB8RPjh8R/GPibxB46MepWttr+uXV8NO00Kfs6okzsEeQM0rMuMq8QPKUAfWtABQAUAFABQAUAFABQAUAFABQAUAFABQAUAFAHxv8Ate+If+EU+Llnf+Zs+3+HLSHOevlXV2f/AGrQB7n+y18/wF8KXf8Az/RXN/n18+6llz/4/QB6HfeG/Dup6xpniLUtA0671XRfO/sy+ntY5Liy85Ak3kyMC0e9QFbaRuAwcigCr4j8C+CPGMkM3i7wdoeuSW9rd2UL6lp0NyY7e6j8u6hUyKcJNGAkijh1GGBHFAGJ4c+BnwT8H6drGkeEfg94I0Sw8RWpstYtdO8PWltDqNuVZTDcJHGFmTbI42uCMOwxyaAGaB8CPgf4U0zWNF8LfBrwNo+n+IbcWmr2mn+HbO3h1GABh5VwiRhZkw7ja4I+ZvU0AeZ/Gz9lfUPjH4o1DU7vWvhymm3mmQ6TaPqvw3t9S1vRIFDiQ6dqRuYzA5MjOnmQyrG+GVTyCAew+Ffhz4L8GQaQmheHrGO60TRLbw5aag9ujXi6dAB5duZ8bzGCobbnbuycZoAg1X4R/CjXfCkPgPW/hj4T1DwzbTm6h0a70W2msY5izsZFt2Qxhy0kjbgucux6k0AQ3PwX+Dt74KtPhtefCbwbP4RsJjcWugS6DatptvKWdy8dsU8pGLSSNkKDl2PUmgCzZ/Cr4X6doWi+FtP+G/ha10Xw3frqmjadDo9ulrpt6ru63NtEE2Qyh5JGEiAMGdjnJNAHU0AFABQBwnhD4DfA34e6yviPwD8GPAvhrVkjaFb/AEfw7Z2dwI2+8okijVsHuM4NAG3L8PfAM+kat4fn8D+H5NL167kv9VsX0yE29/cyMGeaeMrtlkZlUl2BJKgk8UAZPiT4HfBXxlr8virxf8H/AATrmtzwG1l1LUvD9pc3UkJjMZjaWSMuUMbMm0nG0kdDigA8SfA74K+Mtfl8VeL/AIP+Cdc1ueA2supal4ftLm6khMZjMbSyRlyhjZk2k42kjocUAR+I/gP8DvGHiRvGXi34M+Bdb192iZtV1Hw7Z3N4TGAIyZpIy+VCqF54CjHSgC94s+Enwq8e6vYeIfHPwy8J+ItU0oAWF9q2i213cWoDbx5UkqM0eG+YbSOeetAGjpHgfwVoF3Z6hoXg/RNNutP0uLQ7Se00+KGS302M5js42VQUgUgFYhhARwKALeheH9B8L6XFofhnRLDSNOgZ2is7G2S3gjLuzuVRAFBZ2ZjgcliTyTQBymvfAb4G+KfFD+OPE/wY8C6v4jkkimfWL/w7Z3F60kSqsTGd4zISiogU5yAqgYwKAOq/4R3w+PEB8WjQtP8A7cNmNOOp/ZU+1m0D+YIPOxv8veS2zO3cc4zQBzWt/A/4LeJtD0/wx4k+EHgnVdH0mWaew0++8P2k9taSSsWleKJ4ykbOxLMVALEknNAGtp3w88AaRLpU2k+BvD9lJoT3kulvb6ZBG1g92xa6aAqo8ozMzNIVxvJJbOaAG33w5+Hup6NrHhzUvAnh270nxFcte6xYT6XBJb6jcMVLS3EbKVmc+XHlnBJ2LzwKAM/Tfgv8HdG8H6h8PdI+E3g2x8K6tMbi/wBDttBtYtPu5SEBeW3VBHI2Io+WUn92n90YAF0H4N/CDwtpdtofhj4VeD9I06y1RdctrOw0O1t4IdSVAi3iIiBVnCAKJQN4AAzigDobTw/oOn6tqGv2GiWFtqerLCuoXsNsiT3YhBWISyAbpAgZgu4naGOMZoA8/wD2hf2e/Av7SPg3T/BfjuyimtdO1zTtZido9zAW9wjTRDBBAmg86AnPAl3YJUUAemxRRQRJDDGsccahURRhVUcAADoKAH0AFABQAUAFABQAUAFABQAUAFABQAUAFABQAUAfmr/wV98UXngfWvhfqtnHKx1S11e3fywTxA9qwzj/AK7mgD7V/ZS/5Np+GDf3/CumufctApJ/WgDovjL8S9L+Dnws8T/E3WEMsHh7TpbqOAAlrmfG2CBcAndJK0cY93FAHm/wS/aB8R3fgfx7L+0lF4f8LeK/hZdyDxUumLKLKKxa1S7gu41Z5XKNC5HDuS8T47CgC7J+1Romk+Ebrx342+E3xF8JaGulw6np11qen2cp1Xz5Yore1gjtLqaRLqV54VSCdYXO45A2SbQC7qv7SFt4a0wz+M/g/wDEHw9q11qthomjaLdwadNc63e3nmGKK0mtryW0JCwytIZZ4xEiF5CqlSQCreftWeC9F8NeM9a8VeD/ABZoOq+AbnS4Nd8PXkNm+oQJqMkcdnOjQXEltLFIZD8yTtjypVIDoVoA3/HHx+8HeAfFuueDdY03WZr3w/4HvPH9zJbQxNE+n20pjkiQtIpM5I4UgJjq46UAc94N/ao0LxhqnhjTW+Fnj/Qx460m71bwnPq1rYxJrYt4UmeCNUu3kglMT71+1LAjBWIbpkA5z4A/tQ/EP4lfBC3+J3iz4B+LZbxxME/sBNOkg1OQai1okVrE2oPMjKMNI9wIowI5W37QuQDJ+Ov7U+tWHwP+KWp+EdF8S+AfH3w7n0MXmn61ZWV1cw299dW4jnj+zyXVtOksRuEAV2dWjcFVIUkAufGL9qjUNL+GXxKsNM8J+Lfh1490bwDqHi/w6PEVnYSG8ghVlNxCIZriLdFIYd8M4SQeahMZBbAB1fiH9qTw54TXWVbwT4x8S2PgqytLjxlrmi2lrJZaF5sCzt5yyTxzTNHAyzyJaxTMkbKSASFoA6Hxx8RfGl7d6p4G+D/hqe48RyeEz4m0LxHqulvceFbqXzwiWEl1DNG3nyD5gFPyRuJfnC+WwB5n4e/a71L4pXWh2Hwp8ITS32i6fda38S9Mms5L2/8ADi2xmibRVhR4s6nPdQSxwhyB5cLymNlZAQDsD+1JoOlt4qs/HXwy8c+DtU8LeD7nxydN1aLT5ZtR0q33id7Z7O7nh8xGVFMcskTZmjOCCxUAytL/AGv9N1nV9D8P6f8AAj4qyar4s0g694btGstMjbV9PXYZJ1dr4R2oRZI2K3bW7fvEVQzsqEA39D/aPtPGfgfwl48+G/wk8f8Ai+18Ww3kq22nW+n28umNayiGaK8e8u4IY5BLvQKsj7jHIV3Ku6gDIf8AbA8CXWk/Di/8MeB/HHiO9+KKaiNG0rTtPt1u4LiwKrd291588ccLxuXRnLmLMTnzNu1mAPQvhR8VtE+Lmhajq2laRq+j3eiaxeaBq+latFEl3p9/bOBJE5hkkhfKsjq8UjoyyKQ2cgAHj/8Aw0tceB/i98ZdB8b3uoazY6JrvhrRPB3h7S7OB7+7ur7S453trcfIZWZzJIWlk2xorEsiKcAHY+O/2k4/htHfav4w+C3xGsvDWjGw/tjxH5GmvY6cLkQlnZRe/aJ0gM4Er20MygpIFL7TQBieGPjZ44tPF/xZsLvwn4n8dx6F49tfDuh6XoFpYrNZ20mi2l2xkknlt4liEjzEyTS53SIgJyq0AV/G37WNvY/BvXviR4d8F+J9OvPDXiBvDWv21/pdleTeHryOeJG+1W66lAlwjrNEUa1uZeJ425CuoAPR/h18Q7nxl4r+I/h83MU58F6/Ho6J/ZptNhext7oKZftE32ji5X955cGOV8s7d7AHwZ8Q/wDgsj4m+FvjjXPh34y/ZONnrXh6+lsL2L/hNiVEkbEEqTp43IeqsOGUgjgigD7T/ZU+OXij9o34P2Hxc8R/DL/hB4NZnlOl2Lasb+S4tEO0XDMYIdm5xIFXacqquDhhQB7BQAUAFABQAUAFABQAUAFABQAUAFABQAUAFABQAUAFABQAUAFAH52f8FdYIpv+FUebEj7f7dxuGcf8eFAH17+yn8v7Nvw2tT9+y8N2VjJ/10gjET/+PIaAK/7QnwZ1n46P4K8HXV/DbeB7LXk1rxSkOo3Npf3aW0bPZ29u8ABUG6MUjv5kbL5KlCSeADzXxz+xT/aXinxPF4I8X6nZ+FviV4IvvCfjEa54i1PWL0XK/Npl/AbyWVpWhLzo0byxqEc7eWagDc8Z/Db9pv4tfD6Hw141l+HHh7XfDzaTrujappmoXupR3/iDT7uC5ilnhktrcWtq7QOrRqZ2AmBDHysSAF/xv8P/ANoD4kf8I74u1TTfh/4f8R+AfE9n4g8P6Zaa1e39rfxi3uLa9gu717OFofNhumEbR2shiaMMfMDFFAOZ8b/s0fFL4r6D8XNf8X6t4Y0Lxf4903RNN0Ow0+6nv9P0yLSJ2u4FmunggkmM91JIZGEA8uMqFEhUlgBfEnwL+PPxL8feOfHfjK28A6CPEPwo1T4faZp+ma3e6h5V1cS+Yk808lnBmMktnbHuXAwHzkAHX2HwM8W2usfs+ahJqOkGP4T6XdWOtBZpd1xJJpAs1Nt+7+ceYMnfsO3nBPy0Aef2f7OPx00z9ne//ZuspvB50iw1GSew1MeIr6CTxBp76ybuXTr+GKzDWcU9rJJbyvDPMTlhtKOQADmNQ/Yu+It54W+N1j4c8I/CbwI/xLtPCcejaB4duZ49NsZdKvJprgzzJYxbjKrqwkS3ByxRl+TzJADtPiz+zx8ZPj4nizXvG9v4J8Oas/w91jwX4Y03TtavNRt1utSKGe8urt7O3ZVCwQRrEkD4BlcsxKqoBm6/+yNqmm+OPGninSfgp8DfiavjH7JqEE3j2IxXei6hHZpbSxrINPumurRzBDKse6AoxmAzv3AA+iNNs/iTp3ju10+OLwfH8OrXw2kKpbQ3EOqLrCzAAJHkwJZC3HC5MgfAyVoA8uX4AfEOzg/aIk8N+MLHw7qvxYuftPhzVdPllW401xpUNqskrBFMbiaN2DRszAMGVg/QA8r0r9i/xrDqfirUdG+HXwg+HVvrXwf1z4dRWHhi9urj7TqV21uYb67uXsoXkTETK25ZJV2ht8xkIjAPYtD+Bni3TPiZ8HfGc+o6Q1l8PvAt/wCGNTjSaUyzXU6WKo8AMYDRg2smSxVuVwpycAHmMH7JnxJ0/wANfDzRdb8P/Dv4jaV4TuPFNxqHhHxJqt1b6NPdajqUlzaX64sp1mnhgkli2zQFU8+UxsD8xANX4KfsoeP/AIaH4Fpq2qeFHj+F9x41k1RNL8+GGVNXuZZLVbSJo/lVFdQ6Mw2YwrSYyQD2D4JfDPXvhtc/EWbXLuwnXxd451HxNY/ZJHYx2s8VuiJLuRcSAwtkLuXBGGPOADyHxT+yX45n+O3j79pHwT4n0rTPHE19pV54LluLq5ks3t4tNitL/T9St9mwQ3PlAeZEGlQpDIrZj8tgDj/jz+x98XfjRF8S21Xwj8JdY1rx5a2Q0bxH4h1a8u7zwekVrEr6dYxmwK+R9oW4ZZ4nt3JumlkikZfLYA6/x/8AsvfEjX9e8V6tajwh4h0TxB8SLTxfdeE9Z1K6tdO1zTodGgs1tb947eU5juoUuFiMc0LmKPeCRhQDyv4hfDu2+Bn7N/xU+EmvXnw80bxX8VPHNrr/AIT8E+FLrDGCafSoFtLS1aOKSdo3t5AXiiCsB5hWPc0aAH1r8Kvhrrvgbxv8VfEurXdhNa+OfFEOt6clvI7SRQJplnalZgyqFfzLaQ4UsNpU5ySAAfKP7dX/AAT+g/aG+Pvw0+Ifh1Gs4Nc1FNG8bSwxncLOCCSZLokAgN5UDWwZuNz2y+tAH3XomjaV4c0aw8PaFYQ2Om6XaxWVnawrtjggjQJHGo7KqqAB6CgC7QAUAFABQAUAFABQAUAFABQAUAFABQAUAFABQAUAFABQAUAFAHwD/wAFWtGudX/4Vd9nH+q/tvPHr9h/woA+qP2Yv3fwihsh93T/ABD4l05P9y31y+hX/wAdjFAHq1ABQAUAFABQAUAFABQAUAFABQAUAFABQAUAFABQAUAFABQAUAFABQAUAFABQAUAFABQAUAFABQAUAFABQAUAFABQAUAFABQAUAFABQAUAFAHx7/AMFCLrw1bf8ACA/8JDqEVru/tXyd/wDF/wAeu7H6fnQB7Z+zL/ySyc/3vF3i5vz8RagaAOo+JXxV8D/CLR7HXfHeo3trbanqUGj2SWWl3eoz3N7Nu8qGOC1ikldm2tgBTzx1IoATwP8AFLwz8Qp7u20HTPF1q9mivIdc8H6voqsGJA8tr+2hWQ8chCxHGcZFAF7x/wCP/CXwu8Iah488dat/ZmhaUsbXd35Es3lh5FjX5IlZzl3UcKeuemTQBfn8QWFtr9p4akg1I3d5by3MckemXL2qpGVDCS6WMwRudw2o7q7DJUEA4ANKgAoA57W/H/hLw74s8N+BtZ1b7Prfi5rtdGtfIlf7UbWLzp/nVSibY/m+dlz0GTxQB0NABQBX1DULDSbC51XVb63srKyhe4ubm4lWOKGJFLO7uxAVVAJJJwACTQBwnw1+P3wq+Lmoy6R4H1+9nvo9Nt9ajttQ0a+0yS506dmWG8t1vIYjc27MhAmi3pkr83zLkA6Pxr440XwBpUWs67ZeILq3muFtlTRPD2oazOHKswLQ2MM0qphDlyoQEqCQWUEA8/8ACf7V3wd8dW8954Q/4TvVra2a6jluLb4c+ImhWW23edD5n2Hb5qlGXy87y42BSxC0AeuW86XMEdzGsgSVA6iSNo2AIyMqwDKfUEAjvQBJQAUAFABQAUAFABQAUAFABQAUAFABQAUAFABQAUAFABQAUAFABQAUAFABQAUAFABQAUAFABQAUAfAf/BST4Uaj8dvG/g7wnptxcRnwppU+oyeTKyEi+m8sZwef+PA4/GgD6m/Ze+f4KaPd/8AP9favfZ9fP1O6lz/AOP0Aec/t7XdjYeC/hfe6p4w/wCETtIPir4dkn13zbaP+zUDTE3G+5R4F2D5syoyDHzAjigDA8f+IfhN4y+D3i7RX/b7t/Eul3U2kWuo6hez6HqNhpsUl/EvlXqaPBaOtpd82sxmmSMxysCygtkA8E8Vad4R8Yfs2/HLw5oHwZ+D99daLo2japeeKPhIpufDV+9vqFxJsW3MQS3vrezd5JfKedzHON8igRxgA7n43f8ACjvtuo/8M+/8IL/wi/8AwpD4m7v+EN+x/YPtXlaZ5mfsn7vzMbN38WNue1AFvwf8Cfg0vxi+AOgS/DPQJ9M8V/C7UNS8QWU9qJLfW7yBNOaG4v42yl7KjXE7K9wJCGfePmVWUA5Dw5qngE/CL4H+AviJZ/C6z0+3bxpDY+KvitZnU9F062stXe3i06C1eeCKS6eNYNjSTJ5UNrIEDlyoAMr4e6P8M9V8CfspeNvjxpXha88IaXqPjnwzqOreLNPjj0+3t4Jb+PTLSf7eW8iNRbbYYZm+QoEHzAZANf4n6J4A1z4ifFWD4mfGL4SfD60it9Ml+H2p+I/Db3V1ZeHl06NrO78MXkepWyRmO4S5bZaxOwlVC5cPGgALfx7f4e6Z4+8YeIvFXiD4MfGXWmtoNP1XwV45tbjR/GkLppMIt7Pw9IBLLEbiab7RGkNqn765k2zb8ugB9o/GvUtbf4B+NdU0LwBN4k1SbwtfSW/hm5jLyXsj2rf6JIkTbnJztZI23NyqHJFAHwx8N/iDp/wq8S/DjWvAfxs0jxp4RvrLw/Y+I/HEkrX9z4J0WJSX0TVQEkisLW5uJkEE0vkXCNHKs7yJbmaMA/SW0u7W/tYb6xuYri2uI1lhmicOkiMMqysOCCCCCOCDQB8HeFv+Ucnx9/6/PiD/AOll1QBzvxU+H3gnxFD+2F4313wzY3+v+FfDeg3ug6jcR759JuY/DkEqz2jnm3l3xxkyR7WOxQSQoAAOi8XeCdU+Hvi/Xbb9nDQDoXifxL+zxqWo+ToqlLjUtWhu7YQ3bsMvcX2LmcLPIXmZpOWJOSAb37Juh/Cm3+KXhrW/hb8cfhXdXNx4Snj1Pwt4H8JS6bfX9uPs7Jca2G1K7aO6t5HC750SffcTIXJZloA+2KACgAoAKACgAoAKACgAoAKACgAoAKACgAoAKACgAoAKACgAoAKACgAoAKACgAoAKACgAoA+ZfjGu749aoPTwhon/pbqtAHon7LnyfAzw7ad7GTULE/WC+niP/oFAHeeNNS/sfwlrGq/8JFY6B9kspZf7UvYPOgs8KT5rx703heu3cM9KAPm/wD4Xpj/AJvc+Gf4+EP/ALuoAP8Ahe2P+b3vhZ/wLwj/APfCgA/4Xxj/AJvg+Ev/AALwn/8AfGgA/wCF9f8AV8fwf/Hwp/8AfOgBP+F+Y/5vl+DH/AvC3/30oAX/AIX9j/m+f4I/j4Y/++1ACf8AC/8AH/N9PwK/Hwz/APfegA/4aBx/zfZ8Ax9fDf8A9+aAD/hoPH/N937Pv/AvDv8A9+qAD/hoXH/N+H7O3/AvD3/38oAP+Gh8f835fs3/APAtA/8Av7QAf8NE4/5v1/Zo/HQf/v8A0AH/AA0Xj/m/f9mL8dD/APwgoAP+GjMf838/st/jov8A+EVAHuvwg8Wf8Jp4Mi1z/hZ3grx9uuJY/wC2fCFv5OnPtP8Aqwv2u6+dejfvj9FoA7agAoAKACgAoAKACgAoAKACgAoAKACgAoAKACgAoAKACgAoAKACgAoAKACgAoAKACgAoAKAPlL9ofVhofxunuicfavCulR/98Xeon/2egD1f9mH5/g/a3S/6u813xFeQj0im1q9ljH/AHw60AerUAFABQAUAFABQAUAFABQAUAFABQAUAFABQAUAFABQAUAFABQAUAFABQAUAFABQAUAFABQAUAFABQAUAFABQAUAFABQAUAFABQAUAFABQAUAfFX7a0ksXxT0poG2s3h+AMR3AubnH8zQB7/8Asp/P+zb8Nbs/fvvDVjfyf9dJ4hM//j0hoA5n9sX4jeLfhv4N8E3fhLxXrPh067490fQtSvdF0iLU78WFwZRMtvbyW9x5kpCgqFhdiQAAc4IBhN8dNP8AhN8P/FnxF1Lx58XfHCaWljBFa+O/By+FrSGe5uVt4XN2+kWKpD5kqGeVjL5USs4QnCuAYfxr/aK+Odn+zL4z+K3gjSPAFkbGHTZ9D8T+GfGieIdOu0lvmt7pY2k09A0sRjRGVozGROSsm+NkAB0nj749/Ef4aeJlk8e+FLS0ubDwB4r8XvouheJUvdNu10sWjRrJPPpcNysr+e6goVRAMskxYbACLRv2nvjLrXibwf4Pi/Z/0C31P4heHZPE/h8z+OyLeKzi8pplv3WwLwShbiAKtul0GZ8FlVWkUAsJ+1lquofB/wAF/F218J+CPDth4jlvrLVJPHPj6PQbLS7+1neA2iXH2WZrl3khuSmIkykBZtpIWgDil/as+LfxM1/9nvxD8GvDvh9dH+I8PiRdU0fVNfEcNxeafFIksX2yGyuGEMUsLvFPEAZhtDxxg8AGr8Tf28tC+G/iLxToFzp/gNpvAENqfElpqPxAt9O1K4uXgWe4g0e0lt92oGKN1AaRrUSyHy1+YNgA1fit+0J428W+FfivpnwM8J2F9p3gzwy0mo+J9Q8RXGkPDc3WmG8QWEcVnO8ssNvJBI3mNb4eVFByGKgHqvwO1XXtV/Z7+H+tzXDarrV54M0q6eXULtwbu6exiYtNMVd8u5yz7XbknDHggHzl8MP2iPj9qf7M/hT4mfEi30//AIm3iaw0hNa0TXIF1G7a48QiwKTWk2km2hiWNiCY2aR1jGDE7l0AOp1j9srx5plh4m8W23wGtb3wp4X8fz/D2a5TxdHHqN3eLeizinhtpLYQ+U0kkIbzbiMoXfhlTewBra5+2FN8O9K+JafF7wDp2ha78O5dEiW307xGLvT9TOrArZFb25t7XyFEqyLK0kQWNUL5ccUAXvhb+1cfijc+OvCnhzRPBniLxh4T0RNc02z8HeOIda0vWUkWVYoBqBghFtN58Pluk0Q2rLFIC6k7QD3Dwvf63qvhnSNU8S+H/wCwtXvLC3uNQ0r7Wl19guXjVpbfzkAWXy3LJvUYbbkcGgCPxXa+LrzQ57fwNrekaRrDMnkXeraVLqNsgDDeGgiuLd2JXIBEq4JBO7GCAePfs9eJ/id8cP2RPBfiq8+IUmkeM/E+jQ3Nx4hh0u1leKQzfvHS3ZRBuMasq5QqpIYq2NpAK/wg8ZeO0/aJ8cfCGb4lah8RfC/hrQbC9vNY1OysIbvSNZmlkH9nM9jBbwy7oEWbHlb0yAzfMBQBT/aJ8Z/Evw1+0N8CdI+HNrNqkmtL4nS50WXW303T73y7S3KSXbqkmUi3O4xDKwP3VycgA9J+CXxXvPivomvy6z4XTw/rnhTxHf8AhjV7KC/+22wurYqfMt7gxxNLE8ckTgvFGwLMpUbckA9EoAKACgAoAKACgAoAKACgAoAKACgAoAKACgAoAKACgAoAKACgAoAKACgAoAKAPjX9sGwn1T4tWUFqm9oPDlo7j0DXN2B/6CaAPdf2UP8Ak2L4TkdD4M0cg+oNpHg0AT/Hv4Q6z8X9F8L23h7xdZeHdU8J+K9O8V2dze6S+owSTWZcrFJCk8DFWLjJEgOB75AA2Twp+0dd6Le21z8afBFrqvn2k+nXmm+AbiOFBHMrTxXMM+qTGaOWINH+7eB0Lbg/GKAPLR+w7o+p+GPifpmueIvD2k6l8StKtNLlPgrwoug6Xam1mkuLe7ex+0Tm5uftErs8skuWjCxjYMlgDo/G/wCzd45+KM9xqvxB+KOhSapP4I8T+CRJo3haazt1i1ZbYLP5Ut9OxaE2zEr5gEm8DMe3LAHR6T8A/wCy/Hnwx8b/APCWeb/wrjwjeeFfsv2Db9v89bRfP3+YfK2/ZPuYfPmfeG3kA4jQP2TPFPgZ/Aes+Bfijoqa/wCBk8TW8M+u+FH1Gzlh1nUPtkhjt0vYXt50wsXmpNl03Blw20AB4a/ZF1/wP4S+GVp4T+LFs/iz4Y6x4h1Oz1nWPDv2m1v4tYlu3uIrizguYCGH2lNrxzIN0Wdm1ygAOhb4H/Fzw14i8WeJPhV8ZdA8Py+PBbX2uW2p+D5dSt4dYjtVtpL+wRb+EweakUBaKY3C5hQ55YMAUvGf7NXjbULz4iQ/Dz4u2PhzSPirZxx+JIL/AMMLqFyt2LMWct1Zyx3MEULywJDvWSGUb0LLt3EUAeufDbwh/wAK9+HfhbwD/aP2/wD4RrRbHR/tfk+V9o+zwJF5mzc2zdszt3HGcZPWgDxHS/2TvFOmfDq1+DUfxT0lvBWi+JrTxFokX/CMyjU7cQa4uqC3uLr7b5U4wGhDrBEQCrkMQVYAvah+yd9v+HninwF/wn2z/hJfiYfiJ9r/ALKz9nzqkN/9j2ed8/8AqfL83cPvbtnG0gF/x/8Ast2fj7X/AIi+IpvHN7pd74zj8Nz6Tc2Voon0HUtFlmmtbtGdis/72VGKFVG1GXJ3ZUA6zTPCXx3l03xPF4n+M/h9tQ1LSTY6DPofg02UGkXhWX/TZIrm8umunDPCRGZEjxEQVJckAHaeF7DW9K8M6RpfiXxB/bur2dhb2+oar9kS1+33KRqstx5KErF5jhn2KcLuwOBQBH4rtfF15oc9v4G1vSNI1hmTyLvVtKl1G2QBhvDQRXFu7ErkAiVcEgndjBAPFvh/+zz8XPh3+zO37P8A4e+O+m6fqenWEWmaB4q0/wAJNFcWEAcGRpYJb2VZpWUuodWi2bgwUlRQB0fwG+D/AI4+DWnR+Fp/E/gW68NxrNM1to3hK+sL64vZGDPdXF3c6pdtO7fMXZ0LsSDvGMEA3PGfwm/4S74u/Dn4qf2/9k/4QBNZT7B9l8z7b9vt44c+ZvHl7PL3fdbdnHy4zQBL8KPhZ/wrCfxxP/bv9pf8Jl4uvfFOPsvk/ZPtEcKeR99vM2+Tnf8ALnd90Y5AO9oAKACgAoAKACgAoAKACgAoAKACgAoAKACgAoAKACgAoAKACgAoAKACgAoAKAPnrxzoMHif9ojxHZXLIq2Pgvw7Ku8gAmW+1oHGf+uQ/SgD0j4AaV/YXwI+G+h7dv8AZ3hHR7THp5dnEuP0oA72gAoAKACgAoAKACgAoAKACgAoAKACgAoAKACgAoAKACgAoAKACgAoAKACgAoAKACgAoAKACgAoAKACgAoAKACgAoAKACgAoAKACgAoAKACgD44/a68ff8Ku+LtprfneT/AG54bs7XOcbvs11eNj8PtX60AfR/wLvotT+CXw+1KBUWO78K6TOioAFCtaRMAAOg5oA7igAoAKACgAoAKACgAoAKACgAoAKACgAoAKACgAoAKACgAoAKACgAoAKACgAoAKACgAoAKACgAoAKACgAoAKACgAoAKACgAoAKACgAoAKACgD88P+CoNgl74z8DERrvTS7vc2OSDKuBn06/maAPsn9m3TJ9F/Z2+Fuj3TMZrHwXoltIW67ksYVP6igDhv2xLzVo9D+GGjab4i13R4PEHxP8P6NqUmjavc6bcT2U7SrLD59tJHKqsMZ2sOgPUCgDE8UXN9+zZ8bfhzYeHfGnivVfB/xAOr6frOha/rt3rklrLZ6fLexX9nNeSSXMZAgeOVPOMJWRWEauNxAOd+FP7VXxn+JV/4J1i38HzPofxA83bZw/DXxFCfDME8Ektjez6tOUsdRhG2FZRF5APnhondVywBnfs8/Ej426D+xzH8W/HXxr8EyW8Md4YNQ8TaJqM01s66xJC7XM4v3kvWKB44LaKOJ2doIg5/iAK15+1D451/T/F/hPxBBHeX/hHxh4Egg1K30LxB4Na6stZ1BIGWSxuLhbtHjaK4wxmaGZWjDRlQ6sAewfsaf8kn1v8A7KB4y/8AT9e0Ae7UAFABQAUAFABQAUAFABQAUAFABQAUAFABQAUAFABQAUAFABQAUAFABQAUAFABQAUAFABQAUAFABQAUAFABQAUAFABQAUAfBP/AAUWtxdePvCiEZ8vR5D+czf4UAfcPhS2tbPwvo9nY/8AHtBYW8cP+4sahf0AoA8//aO+GsnxK8FaWljF4ok1bwz4gsPEekjw5dadb3gvLdj5b7tQR7cou9mKupztA9iAeYeFfDPxD0bxqvxH8afBX4q/ELxNbWM2madf+I/EnhgpplrMVM8dta2kltbRtLsQSS+UZWVQhfYNtAFHwB4M+Jnwzn0bTvDHw3+O8XhDw9dTXOmeD/8AhJ/CR02BH83bbmbzVvpLeNpiUikumUbI1IKIFoAxo/hH4mtfB138O7P4QfHq18Lrqi63oel2+ueCwvhy/XUv7QjnsZjP55KT52rcSTIEYqVIAwAInwk1u51HxFrvij4L/tDeI9Y8Vah4a1LU9Qvtd8FLI8uhXb3NkqRwXkUMSEuEkVI1DKoYbZGeRwD6F+AfhSDwf4FuNOg8JeKfDn23XNV1eSw8SXOnz3iS3t5LdSkNYSyw+XvmcIN5YKAG55IB6PQAUAFABQAUAFABQAUAFABQAUAFABQAUAFABQAUAFABQAUAFABQAUAFABQAUAFABQAUAFABQAUAFABQAUAFABQAUAFABQB+f/8AwUo8T6P4N8c+DtQ1+byoNR0meG3P954ZsyD8BNH+dAH2z8L7xtQ+GnhK/fO650KwmOfVrdD/AFoAv+LPCei+NtEm8O+IEvHsbhkaRbS/uLOQlWDL+9gdHAyBwGwe9AHBf8Mx/CMfdtvFi/7vjfXF/ld0AH/DMnwpH3X8br/u/EDX1/le0AH/AAzN8Lx92++IS/7vxJ8Rr/K+oAP+GaPhqPu618TF/wB34o+J1/lqFAHdeEPCGk+CNGTQdFutauLZJHkD6vrd7qtxljkg3F5LLKR6KXwOwFAG3QAUAFABQAUAFABQAUAFABQAUAFABQAUAFABQAUAFABQAUAFABQAUAFABQAUAFABQAUAFABQAUAFABQAUAFABQAUAFABQB8Sf8FKfgnZ/GL/AIVz9rjjb+yP7X27/wDpr9jz/wCi6APrD4TJ5fwr8Gx/3fD+nD8raOgC94y8eeBvh1pA8QfEHxnoXhjS2mW3F9rOow2VuZWBKp5krKu4hWIGcnB9KAK/gf4m/Db4m2lzf/Db4g+GvFltZSCG5m0PVre/jgkIyFdoXYKSOcHnFAHS0AZ2geIvD/ivSYNf8La7p+s6ZclxDe6fdJcQSlHKPtkQlW2urKcHgqQeRQBo0AFABQAUAcV4b+N3wX8ZeJJPBvhD4u+Ctc1+HzfM0rTdftLm8TyziTMMchcbTw2Rx3oAoeIv2jP2e/B+tXfhrxb8d/h5omr2DiO60/UfFFjbXMDEAhZIpJQyHBBwQOCKAOp8TeMvDfg46QviLUDbPruqQaNpyLBJM1xeShikYWNWI+VHYscKqozMQoJoAuLr+hPrsnhddasDrMVol/JpwuUN0lqzsizmLO8Rl0dQ+NpZWGcg0Acz/wALu+C//CZ/8K5/4W74K/4Sz7R9k/sH+37T+0fPxnyvs3mebvxzt25xQBteJvGXhvwcdIXxFqBtn13VING05Fgkma4vJQxSMLGrEfKjsWOFVUZmIUE0AYvhv43fBfxl4kk8G+EPi74K1zX4fN8zStN1+0ubxPLOJMwxyFxtPDZHHegCzqXxb+FWjeMbb4d6v8TfCdj4rvTGLbQrnWraLUJy/wBzZbM4kbdg4wvPagCt4k+N3wX8G+JI/Bvi/wCLvgrQ9fm8ry9K1LX7S2vH8w4jxDJIHO48Lgc9qAJvHHxg+EnwxntLX4lfFLwj4Tmv0aS1j1zW7awadVIDNGJnUuASASM4yKAOn0/ULDVrC21XSr63vbK9hS4trm3lWSKaJ1DI6OpIZWBBBBwQQRQBYoAKACgAoAKAOK8N/G74L+MvEkng3wh8XfBWua/D5vmaVpuv2lzeJ5ZxJmGOQuNp4bI470AH/C7vgv8A8Jn/AMK5/wCFu+Cv+Es+0fZP7B/t+0/tHz8Z8r7N5nm78c7ducUAbXibxl4b8HHSF8RagbZ9d1SDRtORYJJmuLyUMUjCxqxHyo7FjhVVGZiFBNAFxdf0J9dk8LrrVgdZitEv5NOFyhuktWdkWcxZ3iMujqHxtLKwzkGgDO1/x74R8La3pPh3X9Zjs7/W4ryezR43KtDaxiS4leQKUijRWXLyFVyyrncwBAM/wP8AGP4RfE26ubH4bfFTwf4subKMS3MOh65a37wITgM6wuxUE8AnjNAElj8W/hVqfjOf4cab8TfCd34ttS4n0GDWraTUYii7n3WyuZV2jk5XgcmgCt/wu74L/wDCZ/8ACuf+Fu+Cv+Es+0fZP7B/t+0/tHz8Z8r7N5nm78c7ducUAdD4l8UeGfBeiXPiXxj4i0zQtIs9n2nUNTu47W2h3uETfLIQq5dlUZPJYAckUAalABQAUAFABQAUAFABQAUAFABQAUAFAHiP7Sun/bv+Ec+XOz7Z+vk/4UAereD7H+zPCOiabjH2TTraDHptiUf0oA8U/bD/ANR8F/8AssXhf/0ZLQBlfGG60Cx/bC+Dt74QaBfFtrp2vT+MDYKGnHhVbNtn28RAyNF9u+zfZw4IMu/YMh6APIPhZ4s8WTfFb4DX2maj4q0/wZ8ZLTxDAqa18V9R13VdZ01NMkuobqexdPs+mXCtFbvusZ90RnMRIyRQBg/D2HVfhF/wT80/4heAvEWv6XrOqau3h/Vb/UPFupfYtHsZfEklrdXCxytPBYOke4NcxWxkjJeTDMCCAe++APBfxF8J3XxI8O/Ez4iWXhHwfq3hUXKQQfFHUvEOr+H5Ns8VxqkOoapbQzWkJj2sN5kSOW3Lrty4IB734Ct9Ms/A3h200XxTdeJtOg0m0jtNbur5b2bU4RCoS6kuF+Wd5VAcyDhyxYdaAN2gAoA+Wbu20f8AaH+Jnw+0X4QaBY2fwy+EPiH+3rnxVZW6Q2l3f28c0KaXpRVdssQeRvtEqfuxs8tWL7gADK8f3/jT9mPSfi1+0P8AD34jeBfFnh/VfFkOrap4ZudJlF692ptbCfTrfUYr0olziEhEa0dvNIQrzkAHqImk+I/7UrQBt2i/B7R1dl5Ak1/VYyAfQmDT1PpxqXfsAcn4J8H+EfB37enjKHwj4W0jQ49V+F+lapfrptjFbC7vZdZ1HzLiURqPMlfau52yx2jJOKAM/wCN1to/x9vZ/wBmf4PaBYyWcfiS11Xx54ntLdI7TQJYLuO7lijlVdsurSsoBUbmjEjPKVyuQDvBNJ8R/wBqVoA27Rfg9o6uy8gSa/qsZAPoTBp6n041Lv2AODu7bR/2h/iZ8PtF+EGgWNn8MvhD4h/t658VWVukNpd39vHNCml6UVXbLEHkb7RKn7sbPLVi+4AA8k8ZtpTfsl/tRi+EP/CTL8UdfEGQgu/7S/tGA6PjPJfYbLysc7du2gD279onWrXxhpXif9m/4XeE9E174kfEDTEsvE80dspstCtZ4PJGo6nKBkMsQP2eJiZZCibV2KSAD0Sbwivh3Q7Lwj8NfGfhPS/HHh3w7p+ny6xr+kDVL0aRGHSN5oorm2l2PJFKysZPL3pL8rEHABzX7D8/hmf9lnwG3g/RbvStIjt7yG3t7m/S9c7L2dHlE6RQpIkjq0iFIo12Ou1FGAAD3SgAoAKACgAoA+Wbu20f9of4mfD7RfhBoFjZ/DL4Q+If7eufFVlbpDaXd/bxzQppelFV2yxB5G+0Sp+7Gzy1YvuAAD43W2j/AB9vZ/2Z/g9oFjJZx+JLXVfHnie0t0jtNAlgu47uWKOVV2y6tKygFRuaMSM8pXK5AO8E0nxH/alaANu0X4PaOrsvIEmv6rGQD6Ewaep9ONS79gDk/BPg/wAI+Dv29PGUPhHwtpGhx6r8L9K1S/XTbGK2F3ey6zqPmXEojUeZK+1dztljtGScUAbvg6bRPiL8Vfip8U/Fzae/hHwtbS/DyxGobRafZoAJ9anlEnyeW87R27knbjTjkAZJAMLwLbTfHz4+eGfjn4Z0A6L8OPh5o2oaV4b1R7f7PN4olvViVpYYyoYadFHFmJjt812DoCgBIB4h4Iayb9jz9mg6eLT/AITH/hZ2iAZCif8AtUapMNV8zHz7vK+2+djnbvzxQB6/8brbR/j7ez/sz/B7QLGSzj8SWuq+PPE9pbpHaaBLBdx3csUcqrtl1aVlAKjc0YkZ5SuVyAeO/t72XxS8XeBfifrfxP8Ag94ofwt4UjWHwS9jqWkSaPETJEr61eK16t1JdOHkhij+zEW6MxG5pWZAD740DU73WdGtNU1Hw9qGhXNzGHl07UHt3uLY/wByRreWWIn/AHJGHvQBoUAFABQAUAFABQAUAFABQAUAFABQB8Ff8FQvit40+H138OLHwNZXF3PdR6tLepC2DGgNoIifqfNx/umgD7g8KavH4g8LaNr0O3y9S0+3vF29MSRq4x+dAFfxl4D8DfEXSB4f+IPgzQvE+lrMtwLHWdOhvbcSqCFfy5VZdwDMAcZGT60AV/A/wy+G3wytLmw+G3w+8NeE7a9kE1zDoek29hHPIBgM6wooYgcZPOKAM7w58Dvgr4P1v/hJfCXwf8E6Jq4na6/tDTvD9pbXPnFJIzJ5scYbeUnmUtnO2WQdGOQCxZfCH4Tabq2u6/p3wv8ACVrqniiKaDXL2DRLZJ9UjlOZUupAm6dXPLByQx65oAg8M/BL4M+C9M1nRfB3wj8F6Fp3iOAWusWmmaBaWsOpQhXUR3CRxhZk2yyja4IxI4/iOQDq9L0vTND0y00XRdOtdP07T4I7W0tLWFYobeGNQqRxooCoiqAAoAAAAFAFqgAoA8z0/wDZi/Zr0nU7bWtK/Z6+GdlqFlOl1bXdv4SsI5oZkYMkiOsQZXVgCGByCARQBqf8KL+CX/CYf8LD/wCFO+B/+Eq+1fbv7c/4R60/tD7T/wA9vtHl+Z5n+1uz70AXfh98OdF+HMGuppV7f3tx4k1288Q6jd30iPNNdXBHHyKqhI40iiQY4jiQEsQWIBm2PwB+BOmeKh46034K+A7TxKLp74azB4bs474XLkl5vPWMSeYxZiW3ZJJyeaAKWsfszfs3+IdWvNe1/wDZ9+G2p6nqM8l1eXt54UsJp7mZ2LPJJI8RZ3ZiSWJJJJJoA3fh18NNB+Gdprdtolze3UniHW7vX7+4vHRpJLicqNo8tEVY440ihjULxHEgJYgsQDA0/wDZi/Zr0nU7bWtK/Z6+GdlqFlOl1bXdv4SsI5oZkYMkiOsQZXVgCGByCARQBv6h8IvhPq/jK3+I2q/DDwle+LLVo2g1640W2k1GJoxhClyyGVSo4GG47UAZvir9nz4CeOtduPFHjf4IeAPEOs3gQXGo6r4asru6mCIETfLLGzttVVUZPAUAcCgBdd/Z/wDgN4ptdLsfE3wS8A6vb6HaLp+lw3/huyuEsbVfuwQK8ZEUY7IuFHpQB3NpaWthaw2NjbRW9tbxrFDDEgRI0UYVVUcAAAAAcACgCWgAoAKACgAoA8z0/wDZi/Zr0nU7bWtK/Z6+GdlqFlOl1bXdv4SsI5oZkYMkiOsQZXVgCGByCARQA7WP2Zv2b/EOrXmva/8As+/DbU9T1GeS6vL288KWE09zM7FnkkkeIs7sxJLEkkkk0Abvw6+Gmg/DO01u20S5vbqTxDrd3r9/cXjo0klxOVG0eWiKsccaRQxqF4jiQEsQWIBm2v7P/wACtP8AEzeN9L+DPgWw8TG5kvV1y28N2SX6XTklpxP5W/zCWYlickk5zk0AXfAvwn8IeBPhlbfCaC2k1nQo7W4tbtdYWO5fUvtDu9y90NgjkaZ5ZWkGwKxkb5QDigDP8Nfs7fs/eC9ctfE/g74F/D3QtYsWZrXUNM8MWVrcwFlKsUljiDqSrMDgjgkd6ANXT/hF8J9I8ZXHxG0r4YeErLxZdNI0+vW+i20eoytIMOXuVQSsWHBy3PegDC1j9mb9m/xDq15r2v8A7Pvw21PU9Rnkury9vPClhNPczOxZ5JJHiLO7MSSxJJJJNAHb634Z8N+JtDn8MeJPD+m6to11GsU+nX1pHPbSoCCFaJwUYAgEAjHAoA06ACgAoAKACgAoAKACgAoAKACgAoAKAPgn/gop440r4a+P/Cus63BBNDrWjyWsCzqGVWtp2ZyuehIuUz9BQB9U/sw38+p/s3/Cy9uzm4k8G6MJ/wDrqLOIP/48GoA9NoAKACgAoAKACgAoAKACgAoAKACgAoAKACgAoAKACgAoAKACgAoAKACgAoAKACgAoAKACgAoAKACgAoAKACgAoAKACgAoAKACgAoAKACgAoA+Ef+Cofwhg+Kv/Cs/OtfO/sv+2ccZx5n2L/43QB9MfstfL8BPCVsPuWkNxZxn1jhuZY0I9iqCgDX+Mfxi0r4NaVoF/qHhfXvENz4m1+18NaZp+ii18+a9uFkaME3U8MSr+6YFmkGCR2yQAZHhT9pb4Za5DrsXi29f4e6r4Y1SPR9Y0nxfc2llcWlzLCZ4F8xJpLeUSwq0qNFK4ZVY9VYAA2L39oD4Dab4b07xlqPxt8A2ugaxLLDp2qzeJLJLO8kiOJEhmMmyRkIwwUkg9cUAbfiP4j/AA88HeGoPGfi7x54d0Tw/deV5GralqkFtZy+YN0e2aRgjbhyuDyORmgDMtPjh8FdQ8NJ4zsPi/4JufD8l6dNTVofEFo9m12E8w24mEmwy7AW2Z3bRnGKAK17+0H8BNN8O6b4v1H43+ALXQtZkmi03VJ/EtklpevEdsqwzGTZIUPDBSSp4OKANLxt8XfhR8NY9Pm+I3xP8JeFY9WWRtPbW9atrEXYTbvMRmdfMC+ZHnbnG9c9RQBB4o+Nfwb8Eado+seNPi14M0Cw8QwG50i61TXrW1h1GEKjGS3eSQLMoWWM7kJGJEP8QyAcV8Tv2sPhz8Mb6OKbSde8SadFoFv4s1TV9AS1ubLStFnn8mG/md50aWJ2WVgLZZnKRO23AGQDvtK+I+i638Rdd+G2lWV/cXnhqytbvVb5UjFnbS3O4w2pYvvacxr5pVUKqjIWYF0DAGv/AMJR4Z/4Sb/hCv8AhItM/wCEh+wf2p/ZP2uP7b9i8zy/tPkZ3+V5nyeZjbu4znigCxrGpJo2k3uryWl3dJY20ly0FnA088oRSxSONfmdzjCqOSSAOtAHmPhn9oe11Xxt4b8A+MfhV458Bap4xtLu70D/AISGPT3S/NtGks8X+g3dw0EqxyB9s4jyFYDLKVoAy9B/ay8Fa/qegPD4L8Y2vhTxXrT+HtB8Y3FrajSdRvg0iIiKtwbtEkeKRI5JbdI3YDDYZSQC94f/AGnfBXiL4nx/DO28NeJ4FvNZ1Xw5p2vz29v/AGXqGq6bGZL20iKzNcK8axz/ADSQpGxglCuxA3AHa/DT4j6L8VfDbeL/AA1ZX8ejyXt1aWF1dJGq6jFBK0RuoArsfIdkbYzhGZRu27WUsAdXQAUAFABQAUAFABQAUAFABQAUAFABQAUAFABQAUAFABQAUAFABQAUAFABQAUAFABQAUAFAHGfEbwFp/jf+z/t7Rj7F5uzeP7+zP8A6CKAOc/ZV+f9nP4e3f8Az/aHb32fXzwZc/8Aj9AHKftheDfFfjbTvhPp3hEa9BcWnxQ0S9udR0WzS5n0u2SO5D3ZEsUsSqhZctLG0YJG4HNAHD/GP9mjT9CHgGbS9O8R/EDVvEHxh0DXvGOsavbpfXN1bwQ3May3KQQpbw20CGONQkUcaLtyMkkgHZ+K7i4+G37V138VvFnhHxNqvh3WPANroOk6rofh++1l9NuodQmmurV7eximmjE6y2sglKBG+y7SwKoCAeQfDDwR4x+EUvwJ8d+Pfhv4mj8L6EnjfyNF0vRbjVrvwlJqt59o0xZbayWWZgtiJrUlI2EBk8skB6AOY8N6DffFXRZbyx8B6xqWnSftXtrF9ZXmjyNJbaetuC011Aykwou5d3mhShIVwrAgAHq3xi8I+I9K/ac1fxz4h174m6T4V8R+CLPRNP1PwX4St/EaxvDdTtd6fdW76bfzRLKJ4ZVdUjifynV2ZkjAAOPHhaD4Wf8ACI6x8KfEPx58G63pPgnQdOt5NZ+Fs3i221jRIJ7uaLTbqKzg82zuULlJIlns2RXiG3I3IAXNUj8b+G77wp48Wy8d/CX4m2/gfw9Y6tpfhr4YT+L/AApeWdvJcyHSoUs4nktCkjOrRpd2+xJIsNJgSgA6nxr8C4fGPwQ0z4i/Evwj4l8NeJE8AWXh/wATeAfACwta6xbQOJotGWMQTyQxCZpI1Nu8ZijnkDTFF3gA8v8AiL8Pfj38PJJobG5+I934w8QeGItf0288I/2j/Ztx4/udSzef2j9k/cC1jt1sIIxe/wCji2hkA+YNQB9jf2j4Z/4Xl/ZP/CrNT/4SH/hE/tH/AAm39hx/YvsX2zb/AGV/aGd/m+Z+/wDs2Nu35+tAHVeItXfw/wCH9T16PSNQ1VtNs5rtbDTolku7sxoW8mFGZQ0j42qCwBYgEjrQB826FMfF/wC054N8b/C3wj8QY9Na11d/Gt94z0HVbWGzhlgX7LBp51mNXtma5Cl4tO2ROi5mDbIdoB5l4I8MeNrv4H/BX9l24+HfjKx8V+BvG2kS69fTaBdw6ZaWOlag1y97DqTxi0lEscUYjWKV3zMAV4bAB3vxi/Zljt/FWlp8O9c8dtfeL/E2p3cMEflNo/hX+0omXW9VWVLcSJPJbvcxwxzXDKJ70tEg2koAYvwe0L4oeFv2gNI8M2Vh8R7Gw0jxL4ksNUtbr+0v+EVg8HxWhTQY7LzP9A8xStgB9n/0jIufN/ioA+zaACgAoAKACgAoAKACgAoAKACgAoAKACgAoAKACgAoAKACgAoAKACgAoAKACgAoAKACgAoA57xbqAsfsmW27/M/Tb/AI0AcV+yx+7+AHg2x/6BtnJpmPT7NPJBj8PLxQB6tQAUAFAHHfEH4S+CvifLpNz4ri1lLrQpZZtOu9I8QahpFzbtKmyTE1lNFIQy8FSxGO1AGl4H8CeE/hv4eh8LeDNIXT9OhkknKmWSaWaaRy8s000rNJNK7sWeSRmdmJLEk5oA36ACgAoAKACgAoAKACgAoAKACgAoAKACgAoAKACgAoAKACgAoAKACgAoAKACgAoAKACgAoAKACgAoAKACgAoAKACgAoAKACgD5I/b4+Mn/CpP+EF/wBL8n+1f7T/AIsZ8r7L/wDHKAPYf2XP3nwM8O3w6alLqGpr/u3N9cTjHtiQUAerUAFABQAUAFABQAUAFABQAUAFABQAUAFABQAUAFABQAUAFABQAUAFABQAUAFABQAUAFABQAUAFABQAUAFABQAUAFABQAUAFABQAUAFABQAUAfm5/wWL8J3Pij/hUf2dpR9m/t/OxiPvf2f1x/u0AfZv7KP/JsXwoY/fbwbo7Sn1kNpGXP4sWNAE/x9+LWr/CzQNBsvCGhWus+L/G2vW3hfw5aXk7Q2a3kyySNcXTorSLbwwwzSvsUs2wINpfcoAy0n/aC8HXNzrvjjWvBnjTw7Z6Xe3VzZ+GvC97pmrieJA8K20ct9dx3Rk2yJ5ZMJDMhDNypAOU8S/tS3ml6J4204/B/xj4d8a+HfBdz4y0zR9fTTnXUbSMtG0qyWl9JEFil8vzY3lil2yLsVieABfBf7UN/d/CTwd438e/CbxVp2veMIdKttG0m0/s6WTxDf3dt57fYFS+kEUKokkpa8kg2RrlyCDQBqP8AtVeCbbQbq61Lwn4rsfE9r4mt/Bx8Gz29qdZfV7iMTW8C7LhrUpJbnz1n+0eQI1ctIpRwoBWh/a28F2Nh8RLrxz4I8YeDbn4ZR6Y+sWGqQ2VzcTPqAP2OK2Fhc3CSyStsQLuB3SIPXABfH7TGgabL4o0zxx8PvGHg/W/C/ha58ZvpGqpYTXF/pNuWWaa2ks7qe3dldVRo3lRwZIyQFcMQCn4f/aq0LWIvBOrav8K/H3hrw/8AELUbXS9A1zWINPjtri4ubeWa3DxRXcl1CJPJ8tWkhUF5IuzbqANa9/aL0BdC+IfiDw54B8b+KoPhzrcfh67h0DTI7y51O+/ceellCJRJKIDcKJWcIAY5dpcITQB6xQB5h8ffi1q/ws0DQbLwhoVrrPi/xtr1t4X8OWl5O0Nmt5MskjXF06K0i28MMM0r7FLNsCDaX3KAMtJ/2gvB1zc67441rwZ408O2el3t1c2fhrwve6Zq4niQPCttHLfXcd0ZNsieWTCQzIQzcqQDlPEv7Ut5peieNtOPwf8AGPh3xr4d8F3PjLTNH19NOddRtIy0bSrJaX0kQWKXy/NjeWKXbIuxWJ4AF8F/tQ3938JPB3jfx78JvFWna94wh0q20bSbT+zpZPEN/d23nt9gVL6QRQqiSSlrySDZGuXIINAGo/7VXgm20G6utS8J+K7HxPa+JrfwcfBs9vanWX1e4jE1vAuy4a1KSW589Z/tHkCNXLSKUcKAVof2tvBdjYfES68c+CPGHg25+GUemPrFhqkNlc3Ez6gD9jithYXNwkskrbEC7gd0iD1wAXx+0xoGmy+KNM8cfD7xh4P1vwv4WufGb6RqqWE1xf6TbllmmtpLO6nt3ZXVUaN5UcGSMkBXDEAw9O/agm8TXvw3vrPwL4p8J6B4+1NbawvfEWk2bjU4G0+6vN0Yi1ITWQVLbJkngbO5AsZDGRADW8LftT+DfE+qeG9/g/xZo/hnxrPPa+F/FuqQWkWk6zLGkkirHtuGuYfNihlkhNxBCJFT5SSyBgC98PP2hI/iXc6Be+HvhB8QE8KeKXl/sfxbcW9h/ZtzAsUssVy0aXbXlvDMkJ8tp7aP5pIlYIzqpAPKP2i/+CkXwd/Zg+JM/wAMPiV8PfiO2oJaw3tvd6fp9jJaXlvIOJYWku0cqGDxnKL88bjtkgHQfstft2/DH9rnxBrOhfDLwJ48so9AtEur/UdZsbOG0iMj7Yod0VzI3mPiRlG3GInORgZAPpGgDyH4d/GLW9Q+KvxV+FnxHXRtOufBE1prGk3cAe3ju/D13CWink8123PDLDcRSyKVTKr8q55AOE+Gf7XeueLvDkOqS/CjxJ4o1bWba78VadovhWxgjudP8LPcyRaZc3jX93CjT3UcTSpHCxd1yViAUkgHT/8ADW/gzWPEfh7wt8N/AvjPx9feKPCsHjLTjoNvZpCdOklaLMst7c26QyK6EMkhUgkKMuCoANTSf2iofEmszW/hT4QfEDXdAtfEA8NXHiaxg05tPivFuVtbg+U14t48ME7OksyW7RgRSyKzRr5hAMLw9+1Fp82j6VbvouteL/FHiLxJ4i0XR9F0LSbewuZ49JupYrqU/ar9oEjiEaAzSXEfmGSPbGjOIwAWNW/a98AaP4NtPFU/hHxnNfTeM/8AhX914ettPhl1Sx1za7C2lRZvKYFVRhJFLIjLLGysVJYAHQeGfj/pniKx8fRzfDrxrpfiT4cwLc6t4WuLS1uNUnjktTc2/wBl+yXE1vcGZVdEVJt3mIVYKcZAK/i/4+P4QX4TavqPgPU7PQvidqlpo1zLqUn2S/0C8vLYyWUNxabWy7yjyJB5i+W5H384oA19Y+Lv2P44aL8EtG8OnU7y78O3nifV7oXgi/syzjlSC2xGVIlaeYyIo3ptEMjZOMUAZ/wd+N9/8VfFvxA8Jar8NtW8G3fgPULCwlttVvrS4upjc2Ud0GdbSSWGPCyjASaTIwTsbKKAafxo+K7fCjRNEl07w6de13xVrtp4a0LTTdi0iuL64DsPOnKv5USRxSyO4R2CxnajHAoApfCn4u65438TeNPh54y8G2fhzxf4HksmvbWy1c6jY3FreRNJa3ENw0EMhVjFMjK8KlWib7wIJAPhr4h/8FkfE3wt8ca58O/GX7Jxs9a8PX0thexf8JsSokjYglSdPG5D1VhwykEcEUAfaf7Knxy8UftG/B+w+LniP4Zf8IPBrM8p0uxbVjfyXFoh2i4ZjBDs3OJAq7TlVVwcMKAPYKACgAoAKACgAoAKACgAoA+BP+CqfxC0LwM3wxTWNNlvWvBrRQRqWKBfsWScA4zu/Q0AfUv7KnH7N3w3QdE8OWaL/urGAP0AoAn+Pvwl1f4p6BoN74Q1210bxf4J1628UeHLu8gaaza8hWSNre6RGWRreaGaaJ9jBl3hxuKbWAOY8aeHP2sfiZ4d1/w4dZ8EfDCG70O/tLS58P6xeaxfzX81vJHC/wBqktLT7HHEzrJuijklLKu149pDgHmngD9jfXdO8d6lrlx8PvhZ8NtC1T4X6p8Prmz8F3E97cT3V1NasL+aaa0tjMdkUi4k3SAqCZJfNPlgF/V/2aPij42+Efwz8H+PPB/wu1DVfhDPpf8AZ9hfajPqujeJraGyayu47yOewU2TPG/mRMqXXlyKh+bbkgGR8Qfh3b/CDwp4b+Jeo+FfgX8Gr3wr8QbHVNJsNJuZ7bRNQjlspLKWLUdQjsYRDJItzcFJzaMsXlRAlg7lQDn/AAN4G8ZftM6l8f8AxXp+s+FLGbXdV8H3fhfXNDvJdY0JtS0UC4VY7to4ftsQkSKOV0jUKXkRQWjyQD1jxf8ABH4xfF3WPFPi/wAfQ+D/AA9fSfDnWvA/hzSdK1i61K3FzqW0zXlzdSWdu6r+4tkWJYXwBI24kqoAK37SHgex8M/sHal4S8YaslrqfhDwnpq2N9YgyMuu2SwfYTblgGLPeRwxrkKSJMHGTQB1Xw/+GHxX+D/7M2neCvhrdeGLv4lpCuoXt54m886fd6rdXQuNRlna2/etky3GwgnkRg/KDQB7hQB5h8ffhLq/xT0DQb3whrtro3i/wTr1t4o8OXd5A01m15CskbW90iMsjW80M00T7GDLvDjcU2sAcx408OftY/Ezw7r/AIcOs+CPhhDd6Hf2lpc+H9YvNYv5r+a3kjhf7VJaWn2OOJnWTdFHJKWVdrx7SHAPNPAH7G+u6d471LXLj4ffCz4baFqnwv1T4fXNn4LuJ724nurqa1YX8001pbGY7IpFxJukBUEyS+afLAL+r/s0fFHxt8I/hn4P8eeD/hdqGq/CGfS/7PsL7UZ9V0bxNbQ2TWV3HeRz2CmyZ438yJlS68uRUPzbckAyPiD8O7f4QeFPDfxL1Hwr8C/g1e+FfiDY6ppNhpNzPbaJqEctlJZSxajqEdjCIZJFubgpObRli8qIEsHcqAc/4G8DeMv2mdS+P/ivT9Z8KWM2u6r4Pu/C+uaHeS6xoTalooFwqx3bRw/bYhIkUcrpGoUvIigtHkgHrHi/4I/GL4u6x4p8X+PofB/h6+k+HOteB/Dmk6VrF1qVuLnUtpmvLm6ks7d1X9xbIsSwvgCRtxJVQAa+s/s/eI9b8MfAnw5d6hpfl/DWSIa8VnlH2iIaFdae4tj5fzHzLhWG/Z8oJ64UgHEfBL9lPXfhHL4S0CP4JfAGVvCkj26/EKPTj/b91bRRyrazGzWyQJdt/o6yyfbmyRM4yWCgAf8ADH9mPx74a+KXh74g2fgb4e/CZ4JY7rxb/wAK98UanNZeKGjtJoEtpNIktbeyhiMlw83mt50yFFCtuZpAAcz/AMFT/wBmWL43fAO4+IOg2St4q+HEU+qwMo+a504KGu4TjqQqCVevMbADLmgD1D9hj9mm1/Zf+AOjeDby1iXxPqoGreJJlwS19Io/chucrEoWMYOCVZhjeaAPoSgD5s/at/Zq+IHxh1vSfEnwm8VaV4b1O/0i98FeLbm9eVWu/DV46PMkOxHBnjZHMYOwfvny44oAq/EX9k6xn+KsXxD8M/B74T+P9In8L2XhuXw744jEK6YbF3+yz2Vz9ivCqmKaSKSHy13bIW3nbtoA6b4Z/AzxV4T+Mei/Eq/0/wAFaNptp8M7fwlPo3hqKSC1tNQF+11ItrEY1UWqhyqsSrMRkxrnAAOE1f8AZh+IuufFGLx9pXgv4dfD3xD/AG7597498GeJdUs9R1LSk1EXflXWkJbJa3UtxHFFFN9puJ0BZ3AfaiUAXvC37N3xZ+HGqeGvH/hK78J6p4k0DXPGj3OlX2oXNpZahpOuakbyNfta20rwTwtHbMcQOrfvU3YKuABz/sxfEfVTpfinXNZ8OL4lv/jHY/EvXoIJ52tLSxtrX7JFY2sphDXEiQxQfvHjhDuZCQg2igD0LT/hn8RPDPxK+M3xL8M3fhyS+8a6RpMPhmK/knMUV9ZWlxGPtqogKwmWWPPlszFA33TjIBP8XvhV4j+Nf7OepfDnxjcaba+MNS0S3la60lnW0tdegVJoprdpQZBCl3GrLu+fYMHBJoA5v9lnwX8V7CHxr8Yfjt4Yj0X4g+Pb62+1aTbXkFwtnp9hbCC0gV4naPLObmbhyM3HOCDQBS+A1p8TrP47/FzxX4t+CPivwxo3xB1DS9R0291DUNGmWBbTSre0eOdLS/mkV2khcrsV124LMp4oAPitofxo+J/hPwf4yPwmGl+Ivhz8SYfEMHhsa9a3EusaZbi4tTJFPlIY5ZYLppkjlZQrIFZhnNAG58F/B/je8+MHxK+N/jjwbd+E/wDhKrbRtF0fR7+8tbi9is7COdnmnNpLLApkmun2qsrkLGCSpbbQB86/t0/8E/of2hvj78NPiH4cRrODXNRTRvG0sEZ3CyggkmS6LAEBvKga2DNxue2X1oA+69E0bSvDmjWHh7QrCGx03S7WKys7WFdscEEaBI41HZVVQAPQUAXaACgAoAKACgAoAKACgAoA+L/2yfDvgnxZ8WdPsPiNfxWWn6f4dtZtNeVciSaW5uhcAfRYrfP+8KAPev2Uef2ZvhZJ3l8I6VKfq1sjH+dAHq1ABQAUAFABQAUAFABQAUAFABQAUAFABQAUAFABQAUAFABQAjKrKVZQQRggjgigBaACgAoAKACgAoAKACgAoAKACgAoAKACgAoAKACgAoAKACgAoAKACgAoAKAPi7/got+z7q3xtn8A3WiaxJpsukpqkc7xziIyrIbUoDzztKPj03H1oA97/ZZ/d/ALwhp//QLtptLx6fZbiWDH4eVigD1agAoAKACgAoAKACgAoAKACgAoAKACgAoAKACgAoAKACgAoAKACgAoAKACgAoAKACgAoAKACgAoAKACgAoAKACgAoAKACgAoAKACgAoAKACgD4P/4KSr8V/EviTwP4X+EN75F3pFje3+qjYz5juZI0t+ARjm0uP8igD6h/Zjsbqz+APga41CIxXur6RFrl5GeqXN8TdzKfcSTuPwoA4D9t3xFdeHvC3wzC674s0zTdU+JWjadq48MXWow391YSRXJlgT+ziLp921fkiyxIGBkCgDzDT/ij8ffhfbXQ8D2GrTeE/GfxR0jwr4F/4WkuoyajDZ3NrN9tlkFw634hF1FmAXP7wxkjAUoQAdL4w+OHxN+EPjj4hWWuronizxRp/hzwnDpP2M6lpem3Wpavq93YwBrOa9uobeNCIGeSMCRwsmXOUVADp/F/xu+MXwi1jxT4Q8fTeD/EN9H8Oda8ceHNW0rR7rTbc3Om7RNZ3NrJeXDsv7+2dZVmTIMi7QQrEAwYfiL8dtVj+BHiPxnrPg1JfiVqkZtLPRbPV7WPS/N0O+ux57LqKpqK7o4P3csSIAHwC2yRADkPgr8VP2kfBv7GNr8dtX8X6F45tNEe61C+0+80S+fVptNg1iVb9jfvqDh3S1SZ4swYQRopDgZIB7b4O+NHjX4w+JfihD8IT4XufDvhTS7TTvDeqX0Vw8Gp+Ip7Q3TGWWNxttIkmsUdEjMhLyEOMBaAPXfC/wDwk3/CM6R/wmv9mf8ACQ/YLf8Atb+y/M+xfbfLXz/s/mfP5Xmbtm/5tuM85oA1KACgD5+/bC8ZeK/BOnfCfUfCJ16e4u/ihollc6dot4ltPqls8dyXtCZZYomVyq5WWRYyQNxGKAPHfjV8cviVa/En4k3934Q8a+D7PQPgTqmuW2ga1rscMVxeRagu26U6NqDmNtuY/MWaKYAEAgYJAPRda+N/xj1m2+KV/wDC298G6Ronwf0uFLiXXdJvNYn1nUV0tb+eNWjvrc26RpLBHvfzmd2kPG0bgDifDXiP4tfEj9p7wR4w8Gal4R0PWvEvwD0nV9UudU0u5v7WAT37SukFrHcwu2ZHABa4G1Qc7zQB9F/s5fFDV/jL8F/DfxE8Q6XZ6fquox3EF/BZOzW4uba5ltpXi3/MI3eFnVWJKqwUsxG4gHzx8XP+Cq/wI+CXxH174WePPhr8UbbW/D121rcCLTNPaKUYDRzRk3oJjkRlkQkAlXUkDpQB6/8Ass/tceBv2uND1vxN8O/BnjLSdJ0S6jsXvdetLWCK5uGXe0UPk3EpZkUoWyFwJUxnJwAe40AFABQAUAFABQAUAFABQAUAFABQAUAFABQAUAFABQAUAFABQAUAFABQAUAFABQAUAFAHyj+0T4/i+Fnxum1yd0Qa74V0u0Uvjn7Ld6ixxn/AK+hQB9NeFhZr4Z0hdOiWK1FhbiCNeiR+Wu0D2AxQBhfEf4W+H/ig/hR9fvNQtz4P8S2fimx+xyInmXdssgjSXejZjPmtkLtbgYYdwA+I/wt8P8AxQfwo+v3moW58H+JbPxTY/Y5ETzLu2WQRpLvRsxnzWyF2twMMO4Bznjv9m74d/EfVvGWreKpNXmbxvoemaHfRQ3YhW2TT7ma5tbi3ZFEkc6TT7w5YjMceFGDuAKI/Zn0DUpfFGp+OPiD4w8Ya34o8LXPgx9X1V7CG4sNJuCzTQ20dnawW6MzsrtI8TuTHGCSqBQAb7/A/wAJvZ/DGxOoat5fwonin0YiWLNw0eny2Ki5/d/OPKndjs2fOAemVIBieFvgjafB/wAHeJdD8I6n4l8VeG5bPVJdN8B30mmrYo9zLLcPa285t45wHeV41+0XEiKsmDgKCADI/Zv/AGdIfhF+yvpHwPkvb/QdUvdEmTWb/R7ryry11G8jJnlt5/nxJCz7YpPmwIYzzigD2HwvoX/CL+GdI8Nf2xqerf2TYW9j/aGqXHn3t35Uap51xLgeZK+3c7YGWJOBmgDUoAKAOO+I/wALfD/xQfwo+v3moW58H+JbPxTY/Y5ETzLu2WQRpLvRsxnzWyF2twMMO4BzPxO/Zt8DfFjXfEPiDxFquu21x4l8D3XgC7WynhRE0+4n855Yw8TEThuAxJTHVD1oA8Y+OPwc+JF54i+ImkfC3wZ8TrSDx3oVnpt1faL4i8PR6JrFytm1qJdQS+Bv7PZF5MUj2I3SRRqVG9QSAez/AAw/Z/0T4f6v4V8YT6vfXXiHw98PtO+H8gR0FnLbWzLJ5wQpvEhkB53424G3PNAHU/Cj4Z6D8HvAmn/D3wzd39zp2my3U0Ut9Ijzsbi5luH3FERSA8zAYUcAZyckgHw3/wAFW/2OtU+MFv4U+MHw20uObxRDqFj4W1KEEJ9qgu7lYLSQnplLiZUJPOyUEkLHQB9mfs8/BTw5+zz8HvDfwm8NKjw6LaBbq5C7WvLt/mnnbv8APIWIBJ2rtUcKKAPRqACgAoAKACgAoAKACgAoAKACgAoAKACgAoAKACgAoAKACgAoAKACgAoAKACgAoAKACgD80P+Cwus3Xh7Wfhbd2Vw0D3lrq8bsp+8I3tSo/DzG/OgDY+Bf/BUuTxL4b0TQJfgd5L2Njb2bXH/AAk27zDHGqF9v2QYzjOMnGepoA91v/22/sOnz33/AArLf5LhNn9tYzmNHznyP9vH4UAeJePP+CuH/CEJK3/DP323y/8Aqa/Lz/5JmgDJ0f8A4K1+JvE2nDU9N+Cml2CeZChjn1qS4OHkVPvCFOm7PTtQBY8Lf8FfLnW/Esnhe7/Z+iSWFgpuY/FJCtn0Q2hx/wB9GgD0yz/4KN/atLs9S/4U5t+128c+z/hIc7dyhsZ+zc4z1oA57xN/wVI/4R2Hzv8AhRn2jjOP+En2f+2hoA83t/8AgtBd6nrg0Cy/ZzhtpGGRPL4sMqjnH3BZr6/3qAPYdA/bY+K/i/Sjq+l6D4S02NTGTDcWdzckhnVSNy3EeDz1xQByeif8FT9Wb4hf8K41n4K2lxcLjOoW2vNAh5x/qWgcj/v5QB9X+E/jr/wlAQ/8It9m34/5ft+P/IYoAt/FL4zf8K10VNY/4Rv+0d8Zk8v7Z5OPbOxv5UAfEHj3/gsm3grXX0Vf2cxebM/vT4u8vOPb7Ef50AYEX/Bba5uJI4Y/2aokaWRIwzeLywUswGcfYhnGemRQB9CfC79rb4v/ABp8n/hHLHwf4a8/G37dpl1qW3PrsurfP6UAbPxO/aF+OHwZEp8R3ngbxJ5H3vsXh+803dj0338+P1oA+fP+HwGtNqM+kP8AASwMlvIEMv8AwkL7WIwc7Ps/HP8AtGgDpdG/4Kb+N/EWrWulWXwv0OzN1BLMJJb2abbsaMYwAmc+Z6jp78AHp1t+1B8atS0qTWLT/hCbeOLYzQyaLdyFgWAIDC9XB564P0oA5f4T/wDBSfUfHvxIufhlqvwgtoLmzlWJ9Rt9bYRyZ7iBoCV+nmGgD6u1P4k/2dAs39i+ZuUNj7TjqP8AdoA43Uv2jv7PZl/4Q3zNv/URx/7SoA47xL+2h/wjtlJef8K2+0eX/D/bGzP4+QaAPnfxz/wWHbwbdC0X9ncXZZwgY+LdmMnGcfYj/OgDT8Kf8FRPF/jjZ/Znwm0fS/Mxjz9Slusf98pHmgB2q/8ABTrxv4c0q11PUvhdod/9ot45ykF7Nb43KGxlg/r1xQBgeFv+Cveu+NtTk0fTfgTYaZLE/lmafxA9ypPrsW3jI69N1AHtun/tSfGjVrKPV7dPBVvbvDJKYH0a7kf5Sgx5gvFH8f8Ad7UAeb+Of+CmHjj4dRSyap8MtC1fyPmYW95NabgOSBuEuCRkA8464PSgD0n9nz/goD/wvf7N/wAWl/sP7Rj/AJj32nbn/t2TNAGt+0b+3H/wz/HcSf8ACr/7e8hScf239l3f+S74oA+b7f8A4LLakk1o93+z1bSw6hOsUSR+KGRogY1fLMbVg/3scBaAPdrT/goP9q8LDxL/AMKj25gkm8j+38/dKDG77N33+nagDyHR/wDgrN4j8Y6ne6ZoPwU03SWsbqK2aS81uS8Em+RFyAsMW37/AEyelAEfiv8A4K3eIfA+/wDtP4Iadqnl5z5Guva5/wC+oJMUAehfBT/gpl/wuFLZ/wDhSn9kfaAp/wCRk+0bc/8AbqmaAPprUvjB/Z+ix6v/AMI75nmLu8v7XjHAPXZ7+lAHz/8AFf8A4KH/APCsdNuNQ/4VB/aXkfwf8JB5O78fszYoA4TwB/wUm8ffFnR/7c8OfDnw/wCHogYyYL24m1FirOqkb0MHPPXb+FAFjwB/wVE1DxP8QZ/hzqnwWt1uLZlVtQt9fZEfJI4ha3Yjp/z0NAHsfif9s3/hHNPivv8AhW/2jzYUm2f2xsxuUHGfIPrQB4V4x/4K2f8ACJtIP+Gf/tXl5/5mvZn/AMkzQBwI/wCC3Fy6faV/ZpiWMK7FD4wJY7So+99i9/SgDpfD/wDwWO/t2GGX/hnPyPNnhhx/wl+7HmSKmf8AjyHTdn8KAPorwH+2n/wm/l/8W1+xeZj/AJjPmY/8gCgD1SL4web/AMy7j/t7/wDsKAPJvjz+2z/wpHSJ9V/4Vn/bXkf8s/7a+zZ+RW6+Q/8Aex0oA/MP9vv9rLWf2odE+Gfiq58H2nhu3shq4gtYrtrl/wB59jJ3yFUDY2DGEXv+AB//2Q==;" vertex="1" parent="1">
          <mxGeometry x="-320" y="210" width="381" height="421" as="geometry" />
        </mxCell>
        <mxCell id="52jPrDx0_dcCrGvd4Qb2-6" style="edgeStyle=orthogonalEdgeStyle;rounded=0;orthogonalLoop=1;jettySize=auto;html=1;curved=1;" edge="1" parent="1" source="52jPrDx0_dcCrGvd4Qb2-5" target="52jPrDx0_dcCrGvd4Qb2-1">
          <mxGeometry relative="1" as="geometry" />
        </mxCell>
        <mxCell id="52jPrDx0_dcCrGvd4Qb2-10" value="in case of success" style="edgeLabel;html=1;align=center;verticalAlign=middle;resizable=0;points=[];" vertex="1" connectable="0" parent="52jPrDx0_dcCrGvd4Qb2-6">
          <mxGeometry x="-0.0534" y="-3" relative="1" as="geometry">
            <mxPoint y="-1" as="offset" />
          </mxGeometry>
        </mxCell>
        <mxCell id="52jPrDx0_dcCrGvd4Qb2-5" value="Login" style="rounded=0;whiteSpace=wrap;html=1;fillColor=#dae8fc;strokeColor=#6c8ebf;" vertex="1" parent="1">
          <mxGeometry x="-120" y="431" width="120" height="60" as="geometry" />
        </mxCell>
        <mxCell id="52jPrDx0_dcCrGvd4Qb2-9" style="edgeStyle=orthogonalEdgeStyle;rounded=0;orthogonalLoop=1;jettySize=auto;html=1;curved=1;" edge="1" parent="1" source="52jPrDx0_dcCrGvd4Qb2-7" target="52jPrDx0_dcCrGvd4Qb2-8">
          <mxGeometry relative="1" as="geometry" />
        </mxCell>
        <mxCell id="52jPrDx0_dcCrGvd4Qb2-7" value="Login" style="rounded=0;whiteSpace=wrap;html=1;fillColor=#dae8fc;strokeColor=#6c8ebf;" vertex="1" parent="1">
          <mxGeometry x="-120" y="525" width="120" height="60" as="geometry" />
        </mxCell>
        <mxCell id="52jPrDx0_dcCrGvd4Qb2-8" value="" style="shape=image;verticalLabelPosition=bottom;labelBackgroundColor=default;verticalAlign=top;aspect=fixed;imageAspect=0;image=data:image/jpeg,/9j/4AAQSkZJRgABAQAAAQABAAD/2wBDAAMCAgICAgMCAgIDAwMDBAYEBAQEBAgGBgUGCQgKCgkICQkKDA8MCgsOCwkJDRENDg8QEBEQCgwSExIQEw8QEBD/2wBDAQMDAwQDBAgEBAgQCwkLEBAQEBAQEBAQEBAQEBAQEBAQEBAQEBAQEBAQEBAQEBAQEBAQEBAQEBAQEBAQEBAQEBD/wAARCAGlAX0DAREAAhEBAxEB/8QAHwAAAQUBAQEBAQEAAAAAAAAAAAECAwQFBgcICQoL/8QAtRAAAgEDAwIEAwUFBAQAAAF9AQIDAAQRBRIhMUEGE1FhByJxFDKBkaEII0KxwRVS0fAkM2JyggkKFhcYGRolJicoKSo0NTY3ODk6Q0RFRkdISUpTVFVWV1hZWmNkZWZnaGlqc3R1dnd4eXqDhIWGh4iJipKTlJWWl5iZmqKjpKWmp6ipqrKztLW2t7i5usLDxMXGx8jJytLT1NXW19jZ2uHi4+Tl5ufo6erx8vP09fb3+Pn6/8QAHwEAAwEBAQEBAQEBAQAAAAAAAAECAwQFBgcICQoL/8QAtREAAgECBAQDBAcFBAQAAQJ3AAECAxEEBSExBhJBUQdhcRMiMoEIFEKRobHBCSMzUvAVYnLRChYkNOEl8RcYGRomJygpKjU2Nzg5OkNERUZHSElKU1RVVldYWVpjZGVmZ2hpanN0dXZ3eHl6goOEhYaHiImKkpOUlZaXmJmaoqOkpaanqKmqsrO0tba3uLm6wsPExcbHyMnK0tPU1dbX2Nna4uPk5ebn6Onq8vP09fb3+Pn6/9oADAMBAAIRAxEAPwD6z/Zk/Zk/Zt1/9m34Ua7rv7Pnw11HUtR8D6Fd3l5d+E7Cae5nksIWklkkaIs7sxLFiSSSSaAPS/8Ahk79lj/o2n4Vf+Ebp3/xmgA/4ZO/ZY/6Np+FX/hG6d/8ZoAP+GTv2WP+jafhV/4Runf/ABmgA/4ZO/ZY/wCjafhV/wCEbp3/AMZoAP8Ahk79lj/o2n4Vf+Ebp3/xmgA/4ZO/ZY/6Np+FX/hG6d/8ZoAP+GTv2WP+jafhV/4Runf/ABmgA/4ZO/ZY/wCjafhV/wCEbp3/AMZoAP8Ahk79lj/o2n4Vf+Ebp3/xmgA/4ZO/ZY/6Np+FX/hG6d/8ZoAP+GTv2WP+jafhV/4Runf/ABmgA/4ZO/ZY/wCjafhV/wCEbp3/AMZoAP8Ahk79lj/o2n4Vf+Ebp3/xmgA/4ZO/ZY/6Np+FX/hG6d/8ZoAP+GTv2WP+jafhV/4Runf/ABmgA/4ZO/ZY/wCjafhV/wCEbp3/AMZoAP8Ahk79lj/o2n4Vf+Ebp3/xmgA/4ZO/ZY/6Np+FX/hG6d/8ZoAP+GTv2WP+jafhV/4Runf/ABmgA/4ZO/ZY/wCjafhV/wCEbp3/AMZoAP8Ahk79lj/o2n4Vf+Ebp3/xmgA/4ZO/ZY/6Np+FX/hG6d/8ZoAP+GTv2WP+jafhV/4Runf/ABmgA/4ZO/ZY/wCjafhV/wCEbp3/AMZoAP8Ahk79lj/o2n4Vf+Ebp3/xmgA/4ZO/ZY/6Np+FX/hG6d/8ZoAP+GTv2WP+jafhV/4Runf/ABmgA/4ZO/ZY/wCjafhV/wCEbp3/AMZoAP8Ahk79lj/o2n4Vf+Ebp3/xmgA/4ZO/ZY/6Np+FX/hG6d/8ZoAP+GTv2WP+jafhV/4Runf/ABmgA/4ZO/ZY/wCjafhV/wCEbp3/AMZoAP8Ahk79lj/o2n4Vf+Ebp3/xmgA/4ZO/ZY/6Np+FX/hG6d/8ZoAP+GTv2WP+jafhV/4Runf/ABmgA/4ZO/ZY/wCjafhV/wCEbp3/AMZoAP8Ahk79lj/o2n4Vf+Ebp3/xmgA/4ZO/ZY/6Np+FX/hG6d/8ZoAP+GTv2WP+jafhV/4Runf/ABmgA/4ZO/ZY/wCjafhV/wCEbp3/AMZoAP8Ahk79lj/o2n4Vf+Ebp3/xmgA/4ZO/ZY/6Np+FX/hG6d/8ZoAP+GTv2WP+jafhV/4Runf/ABmgA/4ZO/ZY/wCjafhV/wCEbp3/AMZoAP8Ahk79lj/o2n4Vf+Ebp3/xmgA/4ZO/ZY/6Np+FX/hG6d/8ZoA/NX/gsp8J/hZ8L/8AhUH/AArP4aeFPCX9p/8ACQfbf7C0a2sPtXl/2f5fm+Si79vmPt3ZxvbHU0AfpV+yd/yax8G/+yf+Hv8A03QUAeq0AFABQAUAFABQAUAFABQAUAFABQAUAFABQAUAFABQAUAFABQAUAFABQAUAFABQAUAFABQAUAFABQAUAFABQAUAFABQAUAFABQAUAFABQAUAflX/wXO/5on/3Mn/uNoA+//wBk7/k1j4N/9k/8Pf8ApugoA9VoAKACgAoAKACgAoAKAOc+JF1dWPw78UXtlcy29xb6LfSwzROUeN1gcqysOQQQCCOQaAPz70bxL8CLf9mLRviHd/t/eOLH4kt4Ls9VmtI/i1NqVxHrbWSSPAdLeZzIfPJRoCmRkr8pGQAeseG/jH+0WfjP8O9Ok8EXmv8AifxD8FbLWNY8P3GtHSdJsdSN4vn3U/ySiKTJEYCQu+W28KpIAPWdA/aX1/xP8NJvEuhfBTxDfeMbPxZN4Jv/AAvbXCypY6nDIVlkmvVXy0s1QCQ3OzGGUBdzAUAUoP2qNY8J6l468P8Axw+Fb+E9W8E+DpPHe3R9Y/tm11HSo2kSQxTGGBlmV4tpjdB94NnbzQBq/C/49fELxlq2gL4t+C6aR4d8VadNqOmeIdE8RJrdlbiONZPKv3SCJbV2RjtIaRGZSobOKAOHf9t6YeFR8ZE+FkTfCP7TtbX/APhJYBq32LzzD/aA0ry8m3zh8GcTeWd3ldqAPqSOSOaNZYnV0cBlZTkMD0IPcUAOoAKACgD5h/4KAah8R7b4aeA9G+FXj3UfB3iHxJ8SvD2gwapZXEkXl/apJIwJQhBki3FS0ZyrBcEGgDnPH/7Q3iXx5+yJq/iGOe/8HfEXwt4p8OeHPFmn2V09vcabqI12whuUR0IYwTxSMyMCVeKbGT81AHpfjL9pDxDF8Q/EXw3+Evw50zxbf+DY7Y6/c6r4ph0S3hnuIjNHa27NFK08/l7GIKpGvmKDIDkAAb8N/wBrTw18S/FngnSNN8Oz2Gj+OfDWq6vZaje3SrLb6jpl0kF9pssIUqHiDl/MEpBCNgYwxAOT8B/t0aZ8QvglcfFjRfh1cJqb+NbHwXpnh+fUSkl9Lez2wtLjzTDlEktrtLnGxhtUgMfvUAdx+2d4g17wt+zV4w17wxrd/pGp2v8AZ/kXthcvbzxbr+3VtsiEMuVZlODyCR0NACeIvj546v8A4h+JPh78Ffg8njeXwT9mTxHfXviGPSLeG5nhE0dpbFoZftE/lMrMG8uNd6AyAk4AMeP9r3T/ABb4c8Av8I/AN94l8W/EP7ebPw9qF6mmf2WunuI9QbUJ9svkCGUiPCpIzuyhAQcgA4Xx/wDtPeI/Enwz+NeieLvhv4m8B6x8MbjQbW7/ALF8VpDd3LXk8bCS1vEt2CRbdpDFCZEdlZYzkAA9G1z9oX4lXXxX8b/CT4W/AxPFOoeBodPur29vfE0emWssV3b+bGisYJG88kSKExswm55I9wBAPRPgv8U9H+Nnwt8OfFPQtPvLC08QWn2gWd4m2e2kVmjliceqSI6574z3oA8mtf2rvF+v6n4k1LwL8EJ/FHhDwl4ln8M6rcadrqya6ssFyLeeePSFgLNEr7mAaZJGRCwTGKAN7xR+0D44ufiH4n+HPwU+Do8dXfgaK1bxHd3fiCPSLeCe4i86KztmaGU3Fx5W1yCI413oGkBOAAY9x+1F461jxn4Z+H3w/wDgFqd3r3iPwbF4zktPEmqHQ30uD7QYJre6VoJWSZX8sKoDby5+6ql6AKuuftc6+03i3V/h98JrXxN4V8CX93putajJ4qt7C8ubi0A+2Lp1o8TfahEd6ZkkgDshCbuDQBq67+1dY6rq3hvw18FPDNh4z1bxH4Zt/GKvqWupothZ6VcMFgeadopX82Q7wsSRMw8ti2wYJAMe9/bRtIPh7YeKLH4Yalf+JD47h+Heq+GYNSgae01aRGZBFOAYp4nJhKSZRSku4lSrLQB23w0+N/izxF8UdX+DfxO+GKeD/E9jokHiSzNlrQ1WyvtPkneAss/kwlJUlUK0bJ/ECCQQSAev0AFABQAUAFABQAUAFABQB+Vf/Bc7/mif/cyf+42gD7//AGTv+TWPg3/2T/w9/wCm6CgD1WgAoAKACgAoAKACgAoAwfHumX2teBfEejaZB515f6TeW1vHuC75XhZVXLEAZJAySBQBwX7O3we0fwB8F/hro/iPwDomneLNA8K6RZak62ls88N/DZxRz/vowQzCRXBdWIPUEg5oAT/hBPFf/DWn/Czf7K/4pr/hXX9hfbvPj/4/v7T87yvL3eZ/q/m3bdvbOeKAPD/FHwU+P0HhPxTY6FoGrzadq/xm1LxPq+iaN4lh0rUNd8OTRjy1gvFlXySZVjZo2lhZlRlLLnkArfDT4EfFrwj8ZvF/xF8D/AnQ/BWnaz8NZ9F0az13XE1bzdXW7WVF1ZkmeVvNDbf3UkyLHFy4ZgpAD4a/s6+KE+MPhbxb4T/Z3f4FWUEN6PHTaf4ltptO15JbR4ktrawtZpIyBNIJBNLHCyhB8rHAABz3gf8AZc8V+APAWnfB5v2Jfg54r8SaVOLCD4ja3pukzaXdWAmOy7u7fjUHuRDgNGFIZxnzcHFAH3lBClvDHBFGiJGoRVRdqqAMAAdh7UASUAFABQB4j+1P8OfGfxHsfhdD4M0b+0X8OfFLwz4j1MfaIofI060uS9xN+8Zd21TnYuXP8KmgDy39sj9mP4k+NfEth8QfgTawTXniS90TTfHmktcRwLqVhY6jb3lteqZHVPPtzbmPP3milKjO0AgDPGv7O934c+OfxC+IWofsq+EPjlonj97LUbB72LSBqOiX0VstvLBI2ohQbV/KjcNEzMhLjy2zmgCp8av2fPjfefs4+B2+E/w+8C+H/in4Vv72eLRvCEcWl6TaQalbXVpdRxGVlXKJdRyu2R5kkDFV+YAAGnpH7LfjHw5+1d4Yu9I0qH/hT2haNpeueYZ4V/4qPTtOm0i2i8kN5hxaSQyB9uwGFRuyNpAPX/2sfAniv4mfs/8AinwT4J0r+0ta1L7D9ltfPjh8zy72CV/nlZUGERjyR0wOcCgDirfw/wDGb4F/Fr4ka74C+ET/ABD8NfEnUbbxBbmz12zsLjStRW1itp4rkXToGgfyUkWSLe65ZfLbAJAPOvC/wR+JfwG1z4V+PbRND8ZfEOODxU3iXwrZ6tBYz6hBql9HfXEml/amRH+yTvErbyodJASyEqpAOYuvDvxc+N037WOh/wDCC29j4p1a98GQ2uhw6pBMbdIY4pfKmuSyweeIQJHVXKqXChn4LAH1D8NvAnivQP2gPjJ421fSvI0XxX/wj39kXXnxt9p+y2TxT/IrF02uQPnC56jI5oAP2TvAniv4Z/s/+FvBPjbSv7N1rTft32q18+Oby/MvZ5U+eJmQ5R1PBPXB5yKAPnX40fAD4nfEfW/Edza/sy6NpPxLm1WUeG/iv4W8SRaRBbWplH2e6vUWcXkk6Q8SReVMjsvylQRtAPUoPD/x0+B3xQ+IniDwX8M2+Jei/Eaax1i3e01ay02bTNVisorScXS3LoDbyCCGRWh3unzr5Z4JAL3ws+GXxq0j44eH/HnxUvrbXbqL4WpoWs67aiCGGbWDqf2h4Y4E2sEVDhX8sKQoyQxIoA8hT9mfXPh1qfj7Rf8AhjX4cfF+58Q+ItS13wz4s1aDSB9mS9kMwt9U+1AXJEMruA0Al3oAAIzQBu+Nv2Y9R0X4m+HfiZf/ALOHw8+LGjt4HsfC2r+FrPTNOtk0i9tZGeO50qLUSIUtmE0sZiMquFVDlsbaANO3+B3xCm8G+BPsHwN8AeAprP4t6Z4quvD/AIQhtrVNP0eAOnm3kilYrq6C43tCMEFVVTtJIB6x/wAIJ4r/AOGtP+Fm/wBlf8U1/wAK6/sL7d58f/H9/afneV5e7zP9X827bt7ZzxQB65QAUAFABQAUAFABQAUAFAH5V/8ABc7/AJon/wBzJ/7jaAPv/wDZO/5NY+Df/ZP/AA9/6boKAPVaACgAoAKACgAoAKACgAoAKACgAoAKACgAoAKACgAoAKACgAoAKACgAoAKACgDi/iX8HPhz8XrfTYfH3h972XR53uNOvLW+ubC8spHXa5hubaSOaPcvDBXAYAZzgUAW/h38MPAnwo0OTw74A8PRaVZ3Fy97ckSyTTXVw4AaaeaVmlmkIVQXkZmIUDPAoA6mgAoAKACgAoAKACgAoAKACgAoAKACgAoAKACgAoAKAPyr/4Lnf8ANE/+5k/9xtAH07+y58aPi3o/7N/w1tdS/ZN8fXumad4L0WCy1HRta0G6GoW6WUKxzrDLfwyoHUB9hXcu7BGQaAOvi/a+1ya7ksk/Y5/aIEkbbSz+HNOWMn2c34Uj3BIoA6Kx+P8A471Nf9C/ZG+MasVLKLp/DtsOPUyasMdfrQBnaj8cv2h4pANJ/Ym8Z3MeRlrjxf4chOO5wt6/PtmgC3dftBfEfR9OW8179j/4upJ/FHplz4e1DH08rU95/wC+RQBkWv7WviC7x5X7Hf7Qa5/566Dpkf8A6HqAoA27P9oD4garBI+l/sifGDzEGVW+m8O2YJ+smqg/kDQBit8d/wBpwaksSfsNeKTYH7058c+HhMPpF9q2n/vsUAaGsftJ+NvDyxDV/wBkD42PLJtBXToNC1BVJ/2oNTbj3IHvigCPW/jz8dX0+O88EfsWfEDUpJF3CPWPEfh7S8H0IF/M4/FQfagCn4Y+O/7Tt3s/4TP9hnxRpefv/wBmeOfD1/j6eZdQZ/SgC7qH7TnizTJXhuf2Qfjo7IcE29hos6/gY9TYH8DQBnQ/td67PdLZp+x1+0MJG6F/D2mon4u1+FH50Ab8/wAc/ixPbxXGifsffE6cORuW91fw1aMo7/KdUZs+xAoAra3+0j408OQiTVf2QvjZI23LLp0Ghahj6fZ9Tcn8qAKOiftWeJPEG37B+x78fot3T7bo2k2f5+fqKY/GgDZvPjZ8YVydN/Y8+I86kZXz9e8Mwn8QNUbFAGS/x0/aOEuI/wBiLxgY/wC8fGfh0N+X2w/zoAv23xu+OLj/AEz9jTx9F/1y8TeGpP56itAF1PjR8WT/AKz9kL4lr/u634XP/uVFAFXUv2hvHOjxhtQ/ZF+MzNtBYWY8P3YB9B5WqsT+VAHOD9sTWWlaEfscftF7lOCT4YsAv4N9uwfwNAF+D9qrxLc48v8AY++Poz/z00fSU/8AQtRFAF5P2kfGLrvH7InxuAyBzbaEDycdDqme/wCFADJ/2l/F1v8A6z9kL45HH9yz0N//AEHUzQBVP7VPiYdf2Pvj5+GkaQf/AHI0AOh/al8TzttT9j/49A/7el6On/oWpCgDQh/aJ8aTjKfsjfGof78egJ/6FqooAnPx88dBN/8AwyR8Y8D/AG/Dmfy/tbNAGJqf7VfiTSM/av2Pfj7Jt6/ZdH0m5/8ARWotmgC1oH7THjDxPFv0n9kD44xEqSo1Kz0TTsnHQ/adTQj8qAJ7L43fHOS7dNS/Yy8ewWob5JIPE3hqWQr6lDqKgH23H60AR3/7Sni/Trj7Ncfsh/HB39YLTQ50/wC+o9UZf1oAYP2mvFhAb/hkH46YLKv/AB46J1JAH/MT6c8noBycAUAatr8dvHt3jyv2Svi+uf8AnrP4aj/9D1cUAZ+s/tI+MdBBN/8Ash/G6Tb1+xW2hXn5eRqj5oA5/T/2ytW1K5a0t/2Nv2j0dG2k3HhSygTPs8l8qke4NAHX23x0+Il/bi4sv2R/i1tPa5vPDVu3/fL6sG/SgBG+NPxcDAJ+yB8SSueSdc8MA4/8GtAFbVP2h/G2jgm8/ZF+ND4HP2RPD91+Xlaq2aAKdh+074r1LH2f9kH46pn/AJ+NP0WD/wBGamtAG2vxr+I80Qkt/wBkr4rEnoJdQ8Lx/wA9Yz+lAFSb41/GZT/o/wCx18RHH+34h8Mp/LUzQBUf44fHwH93+xb45YZ/i8VeGx/7fmgDQs/jT8W3GdQ/ZB+JUPr5Ot+GJf56qtAEjfHLx+vX9kv4u/hc+GT/AO5egAHxy8fnbj9kv4u/MMjN14Z9cc/8Tjjp3oA+B/8AgqxoPxe+PY+Fx0b4EeLfDf8AYf8Abfmf27qGijz/ADvsOPL+y38/3fKO7ft+8uN3OAD9AP2T/wDk1z4QD+74E0FfysIRQB6rQAUAFABQAUAFABQAUAFABQAUAFABQAUAFABQAUAFABQAUAFABQAUAFABQAUAFABQAUAFABQAUAFABQAUAFABQAUAFABQAUAFABQAUAFABQB4F+1VoQ1r/hF8qD5P239fI/woA679lu3Np+zL8I7U9YvAmgIfqNPhFAHnf7eLanZfCrw9rGieKPE2hXqeM9B04z6H4gvtLeS2u7+GGeNzayx+YGjYgbslc5XaeaAM3xJ8X/j7B40+M/hD4cXfgOw0L4NaLp95aSa/p2o6ne6m0ul/avIlkW8i25ZGBuCZG5GY3OWIB9B/DnxevxB+Hvhfx6lgbFfEujWWri1MvmGAXECS+XvwN23fjOBnGcCgD5e8D/tP/H6f4PeBf2ifHVt8P5PCfiTxHaaHqOiaVpd7Ff29tc37WEd5HdyXToWWcxO1uYDlNwEoOCADf0j9on4vnRPjJ8WfETeDLfwN8Ite8Sab/ZVppN3JqusQ6bGzoPtLXQitnYmNS3kyq3zHEfGADfsPi78aPAXiX4bQ/GyXwVdaN8SI7q3l/sLTbqzl8PahHp73yxPLLdTi+iMcFzGZVjgIZEbbhyqAHHWX7Rnx8vPB/wAI/jHOfAln4W+LHi/SNIg8OnQ7uXUbDTNQlk8mVtQF8IpJ/IRHIFqqq0hX5gmWALlp+0l8XrXw78ZPi94jHg2LwP8ACPxD4g0kaRaaVdvqusRWCnyv9Ka6EVq5ZogW8mYN8x2pwKAI/Cv7S3x4huNQXWfhbqnjZh4P1DXbe30j4deIvDAtNXtY1kXS3n1VXS6FxuZI5olV90JzAfMUKASfDP8Aad8b+JbDxdeWnjPwF8Rde8JeG9Tvb3wDo3hnVPDHiaLV7Zbdo7YWmoXE80lu5leJpvITEhiCiQsyKAdB+zl8etf+Kvi278P6t8Xfhxr11pdhcLrXhyx8Lap4b8QaRqEb2v37PUbqWaW1AnkRpjFEBIIgNxZwgB8mfthf8FGP2vP2WPjjrHwyuPA3wzu9IIGoaBf3Gk6hvvNOkJ8tmK3oBdSGjchVBeNyAARQB9PfsC/Hr4+/tK/C6++LPxl8O+E9F0u+vDa+HYdFsbqB7mOLKz3DtNcShkMn7tQoUhopc5BWgD6foAKACgAoAKACgDyP4nfEb4gR/FTwp8FPhYNBstZ1zStR8RajrOuWUt9bafp1o8EOEtYp7d55ZJ7qFR++QIodiG4FAHFTfEf9pu6+OGm/Aa11T4YWF8ngk+KNV1uTQ9Qu4jJ/aU1sggtReREK8awsUaYmNi+HlAGQDj9O/a8+K3iDW5Nf8MeCrzV/Ddv4wk8OjQrH4ceIrm8vLCC9Nlc6hHrSA6cjLIk0/wBnZWURxGNplkJ2gF7xJ+1X428J/FfTdBHiPwn4o0K7+I1v4GvbHRvBmthdOW6m8iEP4gMj6c15C0tuZ7bylIPmxAqy5oAxvhf8W/jD8O/CX7QHxb+IPjzTPFHhj4feNPE2/RjpF2L6X7PBC0UFpdyX0kdpb7mUCLyJNuXIb5uADS039rf4n+DbPWfEXxQ8HXms6FpvgzUfElzdWHw68Q+GItK1CzjWT+zpZ9WBjulnDMkU8flsHiO6ECQFQCDUj8ZLz9pj9mfXPi1rnhCaXU7fxLcx6ZoOiXNqdOmfRw0kT3Mt5MLoKWCh1ihztLbRu2qAdd+29/b/APZXwcHhUaf/AGwfi3oIsTqG/wCzLMYrrY0oT5igOCQuCQMArnIAMfxp+0b8bvhi3xJ8O+IdO8J+JNb+GljonjKW60rSLqzh1TwzcTOl/Gtu93M1tdwLbXTrIZZUYBMxjmgD034S/Gi/+MPxL8cw+Fjpdz8PPCkOmadY6pDFI82p6rPB9quSsu8IsMUE1omzyyxd3JcABaAPXqACgD4x+Ot18Q7Lxb8TviFc+JPHd74Z0G3hfQ/E3w+8WRvB4HmsoI5Z49V0BrqCK/KytJcSh1unlgdYikahRQBW0j45/Gbwx44+IPjGy8VaB4g8DxfE7wp4fltL21vZLk22qWWkxO+nk3Ijs40a6EyxMku9pJMlCNzgHQ2X7Wfjj/hdnh7wzJqHhXVvCHiDxTrXh9hYeF9YgFjFZ2t1LG/9uXDLp11OGtGWaGFcRtvCyOEaSgDzLxz+118XPEHgHxvoreItFeHVfhP4j8V6Vrfhnwzr2hGwurTyVjNnf35VdSiKXIZbm3SLlQ2FDKCAel337Snxg+HkGqeDfiDqvw+/4SBvCugeI9F1eDTdSeyh+3Xps5LSe2ilnur64DqfJ+z7DcsQCkAyygGT4d/at+O/iq/0/wAEaNH4Oj127+J8ngg6tqnhHV9Mh+wf2GdSFy2lXNyl1DOuNvlvLtcAYKhhIAD1Twf8WfHXxA/Zh8T+MNR8UeE/BvjTT28RaANcnXyNGs9Ssry5sobsrcNIUhLxRuVkL4LEEOBhgD5x8deI/iF8Jfh94w0a/wBW+Lfw98UXPwr8QXJsfEPiyTxNa6xf2EaFdS0rVftsk9jPF5hZ0MVuJUnQ+UrQqQAerXH7Rnxf8Cw+NfCPj3Wfh+muaLovhXVNF1RNK1NrUf2rcz27281tFLNdX1wjW5ES24Rrh3QFYAWZADh1/aC+OvxL8TeDvDuk6/pmk65pPxen8Lm9bw9q+i2Wo2J8Nz3ite6RdTrdfIZN4geVVd4oiGQEPQBur+2H8WNV0jwv4V03SdHtPGd2/ik61qdt4M1vxDpwGj6m2nokGn6a73aCeVonM0smyFVdf3rOgoAPEP7Z/wAY7/7PD4N+D+q6TrWj+D9P8S634a1PwRr2rX19qF08oGlRSWMeNNwtpOFubxG8wzREQqqSGgDV1D9qD41J4p8R6/a6V4Us/A/hvx/4X8IS6Xf6ReJrstvq0WnmR3k+0iKCaFtQX5DEwbaynYV3OAfXFABQB8k/t7+P/wDhBv8AhBf3/l/bf7T74zs+y/8AxdAHun7O67P2f/hkgGNvg7RR/wCSUVAFb47fAzTPj34d03wxrfjjxN4estN1O21cf2H9hDz3NvIssBc3VtPwkiBgF2g9G3DigAsvgJ4Xtb/4jarPr2u3t78UNOs9N1yeeS3BC29kbNZIRHCqo7IxZshl3/dVV+WgDsfBPhPTvAXgzQPA2jzXM1h4d0u10m1kuWVpnht4liRnKhVLFUBJCgZzgDpQB83fszfsp+JdC+E3w80n41+LvFkk3hHUn1uHwZLcaZ/ZVlfxXc8lrKZLS3E8+wusypJcyIJNrFcooUA9o8M/AvwL4c8N+O/CEkd5q+kfEbWNW1jXLXUZVZZG1FQtzAnlqhWErkAHLAE5Y0AYngr9m7RPCniPwt4j1n4ieNPGDeBLKax8K2uvT2Rh0dJYVgd0NtbQyXEvkL5QluXmcK0nO53ZgD5/8P8A7PPxR1XWfhr4NtPC3xJ8JeDfh/41i8SQ6b4g8QeH77QtPs7WeaSGCweyB1O4Zt6JGt4dkUbPklkjyAfTHh/4C+ANE8L+PPBd1Bd6zovxH1nVdZ1y01GVWV31AAXEKGNUKxYGF5LjP3icEAGHpH7Ot/pmiP4cuf2hvi1f6bFoM+gabFJqljbSaarpGiXUc9rZxTTXMSxAJJcvNyzlg7MTQA2b9mq11bUrrxD4x+MfxE8R6+NEvdD0bWbi50+xu9Aiu9n2iax/s+zt41nYxQHzJUkI8lVHyl1YA1/C3wNt9H8d2fxJ8X/Ejxb481/SbC403SLjX106JNLhuGRrnyYrC0tkLS+TCGeRXYCNQpUFgwB5P+3t+xzY/tZ+DfDNvpziz8R6BrlmI71Qu4aZcTxx3wO4gNsiJnUZyTDtXlzQB9GeDvCOgeAfCej+CfCunpY6PoVlDp9jbr0jhiQKoJ7nA5J5JyTyaANmgAoAKACgAoAKAPPviV8GdI+IuveHPGVt4p8QeE/FPhU3SaZrmhPbfaEt7lAlxbSR3UM9vLE+2NsSRMVaJGQqQSQCv4P+Beh+EvH1t8TZfF3ijXvEMHhk+F5brV7uGY3MBvXvGmkCRJiUyyMAE2xKgVEjUKMAGTZ/s32Gha5qV54L+K/j7wtoWs6//wAJJqHhrSrqxXT57x5Y5bgLJLaveQRzvHukjguI1JklKhN7ZAMR/wBj7wi93p1v/wALL8fJ4b0bxnH480zwwl1Yrp1nqq35vjtYWn2l4WmeXMMk7oPNYqFdY3QA6CL9m3wlFq/jU/8ACS+IJPCnxDuLy88R+DpBZPpN7c3VqlvcS7zb/bIy6xq5WO5VQ+WCjJBAGeH/ANnS00/SX8K+Lfi38QPG/hZvD9z4ZHh/XruxFmbKeNIm8x7S1guLiQQoYxJPLIwEjtkud9AFHwx+y5peheN/BPjvWvi58Q/FV38PLa5svD9trN1YfZ7eCe2Nu6utvaRNM2zb+8kZpCVGXILAgHWfGP4O6V8ZdK0Cw1DxRr3h658M6/a+JdM1DRTa+fDe26yLGSLqCaJl/esSrRnJA7ZBAMvR/g/p/gDRvHniNn1/4l+KPFlgF1OTW7izjudYjtrd47bT1EUUFpBFh5FAEaLunkdySzNQBR/ZH+CMP7Pf7PvhH4aSWcVvqltZrd6yI23g6jP+8nG/Lb1Rj5anJ+SNKAPYaACgDzPxp+zf8HfiDr9/4k8U+Gr2a41hbZdXtrbXL+zsNYFvgRfb7KCdLa9IUKmbiOQmNEjOUVVABfvfgV8KdQj1mG68KK0ev69p/ifUFW8uEE2pWP2f7LMAsg2BPsdt8iYQ+X8ync2QDCtv2VfgTa+JbLxZH4Ou3vtM1O81jT45dd1GWzsLq7MpuzbWjzm3gSYzymWKONY5Cw3q2FwAZtt+xn+zrbWsll/whWpXEL+H7nwoBd+J9WuTFo06Kj6fEZbljFbgIuyJCqxnJjCEkkA0bP8AZT+BVjoeoeH4PCN8YNSk06WS5l1/Upb6A2EgksVtrx7g3Fqlu43RJBIixkttA3HIBZ8L/syfBPwdqttrmg+ErmPULXXD4mW5uNav7qR9VNo9o93I00zGWV4JHV2fdvJ3tucBqAOq0L4YeAfDvhTU/A2m+GLRvD+tXGo3Oo6dd7ruC7e/lkluxIsxfckrzSkofkwxUALxQBxVn+yh8C7XTNX0m58MatqsGtaFJ4ZuH1nxPquqTRaU4w9pbzXVzJJaxNxuWBo87UznYuADa8Ufs/8Awl8ZXeoaj4g8Lyy3up2ulWk13Bqd3bTxpptw9xYtDLDKrwSQzSO6yxFJMnliABQBQ8L/ALMnwT8Harba5oPhK5j1C11w+JlubjWr+6kfVTaPaPdyNNMxlleCR1dn3byd7bnAagB2qfs0fBjVtEttAl8MXtpBZ6lqeq28+m67qFheRT6jI8l8Fu7edJxFO8jM8PmeU2Eyn7tNoBD4i/Za+A/ifTdJ0bUfAgt9P0XSl0GC00zUrzToZ9MVg62V0lrLGt5bhgWEVwJEBeQgZkfcAa9z8BvhNdwavazeEYxDruu6d4lv447u4jWTUbEW4tJgFcBBGLO2AjTah8v5lOWyAd/QAUAfn1/wVisJL7/hVnlsw2f25nacdfsP+FAH2L+z2wb4BfDRh0Pg/RiP/AKKgD0CgAoAKACgAoAKACgAoAKACgAoAKACgAoAKACgAoAKACgDjvFHxS8P+EviF4J+GupWeoSan49bUU02WCNDBEbK38+XzmLhlynC7VbJ64HNAFnxz8Uvhj8MYbS4+JXxG8L+E4tQZ0tH1zV7ewW4ZACwjMzqHIDLkDOMj1oAZr/xY+FnhTwrpvjrxT8S/CmjeG9Z8n+ztY1DWba3sbzzYzLF5M7uI5N8as67WO5QWGQM0AcL4t/a+/Z58Ga74I0nV/ih4bNl49ivp9N1uLW7H+y4obVTukmuGmAVHdWiRlDBpFZOCDQB6o3iLw+nh8+LX13T10NbP+0TqZukFoLTZ5nn+dnZ5ez5t+du3nOKAIf+Ew8JfadFsv8AhKNI+0eJI3m0aH7bFv1KNIxI7Wy7szBYyHJTICkE8c0Ac/oXxy+CfinxBaeEvDPxh8Eavrl/G0tpplh4gtLi7uEVWZmjhSQu4Co7EgEAKx6A0AcX+0T+1f8AC79n7wvrV3e+KvC2p+LtLjtpIfCMviO3s9SuxNLGg2xHfKPkcuMRnIU9uQAdzq3xo+DugeMIPh7rvxZ8G6d4qupoLeDQ7vXrWHUJZZiBCi27OJGaQsu0BctuGM5oA5fSP2pvghq3xe8R/BB/Hej6f4p8O3NlZfZr7VLOL+0rm5RmEFmnnGSaSMrskTYCrMowc0Adho/xX+FviHxdfeANA+JPhXU/FGmCQ32iWes281/aiNgsnm26OZE2syg7lGCQD1oAq6V8a/g3rvjGb4d6J8WvBmoeKreee2l0K0161m1COaDd50bWyyGQNHsfepXK7WzjBoAr/Ej44fDf4UXMNl4y1TUxdzWU+p/ZtK0K/wBWnisoSoluZY7KGV4YVLqDLIFTJxnINAGb4o/aU+C3hCy0vUtV8Xy3Fpq+i/8ACSwT6VpV7qccWkYUjULhrSGQWtqQ2RPNsjIV8N8jYAN/XPi38N/DUuvx6/4tsrBPC2j22v6xPPuWCzsbhplhlaXHlnebabCBi52g7cMuQDntf/aV+DnhvQtC8SXviHU7uy8SaH/wkunjSvDupalOdK2Rv9tlgtbeSW3hAljy8yoAWwTkEAA0dd+Pfwh8NaNYeIdY8cWUWmap4em8VWV1HHLNHcaXEbcG4Ro1YHc15bLGn35WlVY1dsigDLj/AGm/g1PoFt4htdf1a5F1q1xoUemW3hrU5tYGoQIZJ7dtMS3N6jxxjzG3QjajK5wrKSAQ337VPwMsfCOkeOV8W31/pGuWV7qVo2l6BqWoXC2lm4ju55ra3t3mt44JGEcrTIgjchGIbigD1DTdS07WdOtdY0e/tr6wvoEubW6tpVlhnhdQySI6kqyspBDAkEEEUAc/F8T/AADP8SZPhBB4ntJfGMGkHXZtJj3PLDYiVIvNkIG1MvKgCsQzA5AIBIAOd+IH7Rvwf+F+sXOieNfEt5aTafDbXOpT2+iX95aaXFcOUhe9ureF4LNXKtgzvGMAt93mgCbWP2g/hFoHxEh+Feq+KpIfEUt1aWLRrpt3JaQXd0jPa2014sRtoJ5lXMcMkqyPuTap3rkA9FoAKACgAoA/PH/grZ45svB7/CuO50+a8a6GuMBEpYoF+w8nA4zn9DQB9mfs7xTW/wCz/wDDKC4UrLH4O0VHU9mFlECPzoA9CoAKACgAoAKACgAoAKACgAoAKACgAoAKACgAoAKACgAoA+df2iZ73w/8f/gP4/m8M+KNS0Lw9P4lGq3Oh+Hb/V2s/tGnLFCZIrKGWQB3O0Hbjr2BoAyfir8Vda8VeMfBOpeErT4l+FfCMcOsQ6p4p0r4Vahd+IILtVtTDYx219p0slvazLI0j3AtZFke1SMOhVzQB4t8PPAviTwv8EfhVLqk3xl+GnxC8PweNLfRtZsPhz/wkcVhDc66Wa31DTre1n8t5YUgeN4lgRkD7JSuFIB3sdx8TV1z4EfGn4h/Cy802x8P+IvGZ1VPC/hO+M/2bUYbg2WoTaPB9ou7Z7kgPMjGV45Z8ylSzBQD6S+LGkah8Rfgd4y0LwvayyX3ifwpqNpp0F1E1pI0tzZyLEkiTBWiO51BDhSpyGAINAHzZ4L1fXPG/wAUf2W47D4Z/EGwi8DaDqdv4ku9X8Jahptrpt1JoiQrA0tzDGrnzI2UPHujJwA5LAEA81+BVta/EX9lP4O/Cf4d+CPEaeJ7Xx1Y+IbvWV8KXtpp2mpa6vLcXOof2hLDHazv9njaELFK8jtKExgOVANj4o6X4t0L9nX40/BB/hX491jx94o8d6lrS3Ok+E766s9XtrjVIbmC9F5HG1sAtmsMRh83zUMHl7PlGQCT9sKH4teMtH+Ongyz0L4iWs9wtinhfw/4R8AJe2HieOO2t5Wv77VXspt06uroIknt3RLOJIxLI67gD2jSIdb8E/tP/GL+09F8S2sfxL07w2nhnWLDw/fX9j50Frc28vn3NtC8VoY5NjHz2jG11YEjOADyT4A/Dd9K0n4Q+DfHs/x8HjD4e3k+NBj8JWdto1jfpbXUV3ONbj02GOW1uFaZgf7Qd5TcxBy8m7ABs/AOLxt4T8VfDrwJ8NofGvib4eWJhYaJ8RfhbPod/wCB7WPT7mN5rfWTBbQT3BkuEgaMRXEjpJLiUL5kjAHsP7SfxZ8X+Fm0/wCG3gnw/wCLrW88T2spu/GOmeENU1u28PW2djPHHY28plvWBbyY32xqR5khKqsUwB86eOvhfc+Ajq118KdK+Nlraaj8M9D0b4Yt4XsdVspI9X01rqNItYiRIzF81xbSf8TBEt2SW8bG8GgD2XQ/hjqfjXwd8YfF/wAVPAFrqPiXVNUmGkwXWlmXa+lactnbXVnHKm9S1yt5NDIoDFblSpwwJAMGb4i/EL4dfs+fB/4OaH4O8caNrmr+AtKtdW8S23gvVtWTwskdlDFKPIs7eV21DO9YoZNiRspklJCrFMAcX4v+Ed9qfhDWtT+GfgDxa/hr4ZaT4C0jwzpl5o1zaX+sabpmow6pqe22uYo5ZZWjEAKiPfJNaFApclaAOni+J3jzwDrfxR+K/hP4S+Nbk/FXxXZ2fhsX/g7WJBYQWOk21rLq2o2VtbteRQGWJhFCY0mnCIP3SMZYwDTePwj4V/Z7b4baY3x2Fv4nttXm1bxho/w8ujrOoalPO814k1nNZPcQPcvdTtHI1ssSopVbiNghIB7f+zxp/irSPgT4A0fxv4ctNA1vT/DtjaXel2hbyrIxwqiwjc7kFVVQRvbBBG49aAODi+HNl4d/bFj8U6D4AjsNB1L4eay+rX9jpGy2u9Un1Sxd/OeNNslzJHESdxMjrH3AoA4744eONP8AFOmWX7OegeA/H/hT4a6loNmNa1nSfhxrk2dHliAGi6fb2tk4tpWh2xzNMqfZ42MaxtKSYADhPHvhvxfP8YNZ1LR/ht4tN/deO/Cer6D4es/Dd6PDetWNnFarFqmoX+0CyurZElAhM1uimztlktrjOWAPuugAoAKACgD4f/bq0Twp4k+Juh2fji6jtrOy0GOWwZxkPLJcTCYD6COD/voUAfZXhHSV0DwpouhKABpunW1oAOgEcar/AEoA81sP2gdf1+TUpvCH7OfxK8Qabp2sanog1K0u/D0MFzPYXs1ncNGtzqsUwTzreUAvGpIAOOaALf8AwuT4i/8ARp3xV/8ABl4V/wDlzQAf8Lk+Iv8A0ad8Vf8AwZeFf/lzQAf8Lk+Iv/Rp3xV/8GXhX/5c0AH/AAuT4i/9GnfFX/wZeFf/AJc0AH/C5PiL/wBGnfFX/wAGXhX/AOXNAB/wuT4i/wDRp3xV/wDBl4V/+XNAB/wuT4i/9GnfFX/wZeFf/lzQAf8AC5PiL/0ad8Vf/Bl4V/8AlzQAf8Lk+Iv/AEad8Vf/AAZeFf8A5c0AH/C5PiL/ANGnfFX/AMGXhX/5c0AH/C5PiL/0ad8Vf/Bl4V/+XNAB/wALk+Iv/Rp3xV/8GXhX/wCXNAB/wuT4i/8ARp3xV/8ABl4V/wDlzQAf8Lk+Iv8A0ad8Vf8AwZeFf/lzQAf8Lk+Iv/Rp3xV/8GXhX/5c0AH/AAuT4i/9GnfFX/wZeFf/AJc0AH/C5PiL/wBGnfFX/wAGXhX/AOXNAB/wuT4i/wDRp3xV/wDBl4V/+XNAB/wuT4i/9GnfFX/wZeFf/lzQAf8AC5PiL/0ad8Vf/Bl4V/8AlzQAf8Lk+Iv/AEad8Vf/AAZeFf8A5c0AH/C5PiL/ANGnfFX/AMGXhX/5c0AH/C5PiL/0ad8Vf/Bl4V/+XNAB/wALk+Iv/Rp3xV/8GXhX/wCXNAHPeAPEusfC7whp/gPwL+xx8VdM0LSlkW0tP7Z8NTeWHkaRvnl1tnOXdjyx646YFAHQ/wDC5PiL/wBGnfFX/wAGXhX/AOXNAB/wuT4i/wDRp3xV/wDBl4V/+XNAB/wuT4i/9GnfFX/wZeFf/lzQAf8AC5PiL/0ad8Vf/Bl4V/8AlzQAf8Lk+Iv/AEad8Vf/AAZeFf8A5c0AH/C5PiL/ANGnfFX/AMGXhX/5c0AH/C5PiL/0ad8Vf/Bl4V/+XNAB/wALk+Iv/Rp3xV/8GXhX/wCXNAB/wuT4i/8ARp3xV/8ABl4V/wDlzQAf8Lk+Iv8A0ad8Vf8AwZeFf/lzQAf8Lk+Iv/Rp3xV/8GXhX/5c0AH/AAuT4i/9GnfFX/wZeFf/AJc0AH/C5PiL/wBGnfFX/wAGXhX/AOXNAB/wuT4i/wDRp3xV/wDBl4V/+XNAB/wuT4i/9GnfFX/wZeFf/lzQAf8AC5PiL/0ad8Vf/Bl4V/8AlzQAf8Lk+Iv/AEad8Vf/AAZeFf8A5c0AZPiz9o3xR4G8K6z418U/sufFWy0Xw/p9xqmo3P23wxJ5FrBG0ksmxNYZ22ojHCgscYAJ4oA9roAKAPgn/gqP8IvEvxLuPhrdeFtQuLKWxTV47l4SAZFY2hjBz6ESY/3jQB9zeHrr7boGm3uc/aLOGXP+8gP9aAPir4j6Lo3iP4O/DrQPEOk2WqaXqP7TerW15ZXsCTwXEL+LdaDRyRuCrqQSCpBBBoA7jxz4b8Jfs5ftB/CqT4I+GbTw1beM01+28TeF9BgFpYanZWemvcpeG1QCCOeGdYEE6oJGFwI2YgqoAMb4B/FD9q74if8ACuPifJ4e8W6noHjJTe6/aagfDFv4esdPuYXkgk06S1uH1QPC/kIVuVlaRTNuSJ9oQAf8OvjF8VtA8Y6PZ/tB+K/if4V8UTTSm58Oan4T0pvCWuXMtjeXA0/R9VsoZHjaIwoyfarwzOsWwo7uxQA1fDfiX45av+zHL+0/cfHe6e/1TwLqniz/AIR630bTH0mwaWwmuLSG2f7OLkSWzGAMZ5pg7RSBkG4bADO025+Iay/sz+LvHvxIk8Z3/jvW7e5uotS8O6Qlvppk8P39y32Ax2ont2LCMM5mZyEwCquykA5z4ffFz9oO2+APw0/aO8Q/GK/8S3fiDxbp+i6h4WbQtNgsbuyu9UbTtsRht1uRdLvSZXWYITHtMRBOQDm9M0LxR4b+BP7W3jSP4ma1qUWi+K/GedD1TSNFvNMvrhLOFluLmKSxLSNkqdgdYTsXMZBbcAexWviX4s/EfWvita+Fvi7L8PrH4XWen6do1hZaXprwXN02kRXz3Woi6t5X+zFriKNEt3g/dwyHduYFADG8EfFf4xfH74oeAdI034lal8PtC8S/BvS/HuoWej6Vp89x/aFxclGEM19BOEjwy/eR8qq42klqAO++B/iH4wfG74B/DXxk3xLt9B1211sv4ku4NCgnXX7GxvLm2ntjG5C2rXIiR2li5jbdsUA4AB7/AEAFABQAUAFABQAUAFABQAUAFABQAUAFABQAUAFABQAUAFABQAUAFABQAUAFABQAUAFABQAUAFAHlX7WP/JrHxk/7J/4h/8ATdPQB6rQAUAebfGLwh/wlf8AZH7rf9l+0dum7y//AImgC98BtdPij4G/DvxKzbm1XwppN6xPXMlpE5z75NAHm/wz+FXgf4u/CK50Lx3p17dW2mfFLxprFk9lql3p09tew+KdW8qaOe1ljlRl3Nghhzz1AoA9H8C/A/4a/DrX73xb4d0e/uPEGoWq2M+ta1rN9rOom1Vtwtlu76aaZId/zeUrhN3zbc80AZGi/sx/Bfw7rFrq2j+G9St4bG9udRtNH/4SHUn0S2uLgSiZ4tKa4NjHk3EzYWAANIWADc0AO8Gfs0/CHwFqmi6voela9czeGoTBokWs+K9W1e30tfL8rNrBe3MsVuwizGHjVWCMyAhWIIBWsv2VfgZp6XtrZ+FNQi069g1K3/sgeIdTOl2qX6yJd/ZLA3H2azMizzLugjjKiVwpXccgHWt8KfAL2/gu1bQcxfD2SObw2v2qb/QXS0ktFOd+ZcQSyJ+83fez94AgA8f/AGb/ANkDw58KvAfgy0+IYuNf8VeFbi4voc+JdUvtHtbx5ZzHcWtjcyC2hlWKYqJEt0ZSzkHLEkA77Xf2a/g94ivvFN7qehasI/G8VxH4hsLXxJqdrp2pGe2W2lllsobhbYzNCiKZvLEmUVt24A0AO8Yfs3fB/wAdaleatr3h7UUn1TT4dK1VdN1/UdNi1aziV1jgvorWeOO9RUkkQLcLINjsv3WIIB0tj8MvAul+M4fiDpvh2C01y20KPwzDPBI6RxaYkvmpbpAG8pVV+QQm4DjOOKAMEfs9fB8eF/CngweEP+JP4I8QR+KtBtv7Quv9D1RJpZln3+ZvkxJcStskLJ82NuAAAD0agAoAKACgAoAKACgAoAKACgAoAKACgAoAKACgAoAKACgAoAKACgAoAKACgAoAKACgAoAKACgAoA8q/ax/5NY+Mn/ZP/EP/punoA9VoAKAPlH9uz9qP/hmw+CAL3yD4i/tLoevkfZv/j1AHrH7K/y/s9eBoR9yDTBBGP7saOyIv0CqB+FAHzL8RfiB4l0r4SWHw08Ba/4s0nxH4h+IPxN1iO48MaZfaheiLT9f1Z4UaKxR5xDJfzafHI2AhiMqMw3UAdbrP7W3xY8Uya/4m+EkfgKHwt4d+FWmfE2WPWra6ubu5M/2t5rASRTxrEQlqy+aY2McilWjbf8AuwBs37W/xhmbxx8RbHSPCEfgHwP4i8N6bLpU9jcnW7201W30932zC5EMU0TX42gxOsvKfuym9wDzrwz+1H4q+F1zfeJvFLar4qtdHPxU1UxXOuX3mumm6tClraqpmNv5YWQIGkhkaJR+62jcrgHv3jn4nftA/Czw/p1h498TfDJNb13Wra003UtL8L63qHnQG1kkubeHRLWWW7uriOSIlXWdIzCzO4iaPZKAfOOq/tM/G7xhaX/xGu9bsLK20j4SfEC41DQ7a21jTLe9vNL1iK0juVRbyG5spSPIIJ/fwqLmPcGmDQgHsup/tQfFPTrPX/HOjaV4X/4Qb4ea14c8M63p15Ddy6zqUt9FZNPdW1wZ9sKx/wBpW4SOSKYzeVKfNUsoUAsfDz9o/wCNeteNfCNx4sg8EHwj4w+IPifwLb2mnabdx6lbDThfm3unnkuWiYubAo8YiGMh1bny1ANP9oP48fGnwH408faR8OV8Eppfw++GMXxDuRrem3dzcXzC41BZbRGhuYliDR2SlZCr7WyCrh8xgGFf/tSfGLwmfFXhvxNpng3UfEUlj4NuPC81jaXVrY203iG9lskS/wDMnkaRLaVA5dDD5ygjEJYFQDnfHvxo+P198UfCXwlh8ReG9P8AGPhv4o2+h3eqWNteW+iarp954furyJp7H7UZGaNWybY3JDSwxEOu4FQDj/jF+058TtY8NeI9HuZY9G8SaD4O+JWnX2q6BqOo2UP9oaPLbRR3VnEtzsUMJAwMyyyxOGWOQDcXAPQ7T9rX4pf8JS2meGPBGo69oXhXUtE8O6pYW3gzXNU1LVTNbW0l7fR6pbqbC18lbuNhbz7nkEEpZ4vNjwAaX7XnxK8Y/Cz4v+CPGC63PP4S8P8AgvxZ4quvDtnPf2cmo3em/YZFEs1tdJHIrCZEVZoJYo1NwzxzGRPJAMr4hftPftE/CvUG+HfiKH4car4u1BPCl9pup2GmXsWmR2+q6mdPnhmgN28jPFIpZJVmCyKc7FKkEA9U+Pur+NLe3+Evw2uPF02knx34pg0PxLr+irJpxaKPTrq6khtj5kktobmW2WNGWVpI1dgsm7D0AeTa18ctT/Z31X4g+ENE0X4lyajMnh1/D2j+NrtvEUVrNqN/Ppwv4bm2vb3Ubm2doUl+wkLNut3EYU3OIwC3B+0/+0Fqeu+E/h3ZeHtI0rWPEHjWfw9H4l1/wHrel6fqGnDS5b1Lu2068nguUlR4nhkjaV0LRhlcCQbACdv2h/2kNR1vTn0iT4bW2ka/8WNe+GFjFc6Lfy3NotnJf+Tfyut4qzHy7Fg0CrHubBEqB9sYBBL+1j8U7zwN4ea31TwZpni57nxTaatDD4P1zxCbt9Iv3s0ktNP06Qzw27lFaWeeXbEXRVEpYlQDBuf2xvj9rXgfU/iH4U0r4fWOn+GvhHoXxK1Oz1HT725mu7i7+1NNaQyR3MaxJttWKSMshU4BWQNuQA9l+H3x38ceMfjTdfCa607Q4G0a81m81RhDKso0dYdPm0pkHmMollXU0DscoxtLgKEIwADrfjR8RfFfhXVvAvgHwCmkw+JPiFrc2l2eo6xbSXNjp0VvZT3txNJbxSxSTsYrZo0jEsY3yBmfCFWAPJ/HXx7/AGiPDp8UaTY6V8PLbWPhT4Eh8Y+Lxcx3k9vrbvJdbYNOYSxNZo0OnzyeZKLnY88UZB8tpHAMHxf+1T8dM+OfF/gWw8Cx+GPCGu+ENKt9O1fTr1r+8j1y10x9z3EdwqQtDLqQP+pfcgxhSm6QAtXf7SPx+tvEdr8K4m+H0viv/haZ8BXGsPo95HpzWL6GNTju0tPtpkEy7tpiM5V9m0MpfcoBXv8A9rT4oy6LDoltqHg7TPGGkar4m0fWFh8Ia54iGoy6VOsKT2Wn6c5ngtnLr5s1xLthYqi+cSSoBg3P7Y3x+1rwPqfxD8KaV8PrHT/DXwj0L4lanZ6jp97czXdxd/ammtIZI7mNYk22rFJGWQqcArIG3IAey/D747+OPGPxpuvhNdadocDaNeazeaowhlWUaOsOnzaUyDzGUSyrqaB2OUY2lwFCEYAB75QAUAFABQAUAFABQAUAFABQAUAFABQAUAeVftY/8msfGT/sn/iH/wBN09AHqtABQB8Pftz+DdO8d/FPRrDWrcXsGmeH4poIJACkLzXNwHcYGcsIYwckj92uAOcgH0Z+yxz+z74Jbs+nlx9DK5H6GgDn/wBmnwH4U8jWPif/AGWT4lPijx1oIvTcSkLY/wDCYapP5Qi3eWMyYYsF3HCgkhQAAY9p+wp8FIfHOpa/cWF3J4cutDtdEt/DkWpahBDHGl9eXlws8iXI+1280t2M2sytCoiUBSuFUA29F/ZH+G9v8T/FnxQ8TrPrd34h8RWXiCzsftF1bWVm9pZ28Fuktqk/2e8aJ4GmjklizG0nygFdxAOksv2Z/gdY3jXsXgG2leSLXIZY7m7uLiGWPWJRLqSPFJIyOszqCVZSFGQoUEigDNt/2S/gVa2qRW/hzXI72O/i1GPWV8Wav/bMcsdq9rGqan9q+2LEsEssYhEwiCySYT52yAQL+x3+zpFo0Xh228ATWumQ2Ws6YLW11zUYI3s9VKtfW7hJx5kUjqsgjbKxyKHjCON1AG1qf7NfwV1fxbY+NtQ8GtJqdg1hIqLqd4lncTWKlbOe5tFlFvdTwqQI5po3kUIgDAIm0A0tO+B3wt0n+xP7P8L+V/wjniC/8U6Z/ptw3kape/aPtM/Mh3b/ALXcfI2UXzPlUbVwAWfE/wAH/h14xv8AxJqfiTw79sufF3hr/hD9Zf7XPH9q0jdcN9nwjgJzd3Hzptk+f73yrgAo6z8BPhJ4hTXI9b8HQ3i+I9EsfDuoiS6nPmWNm8j2qp8/7qSKSZ3SaPbKr7WD7kQqAYNx+yb8B7vRbTQ7jwnqTrZa83ieK+/4STVBqZ1Zomh+2Pfi4+1STCNiqs8pKALtxtXABLdfsqfAO90S18O3PgFXsbTRtV0BE/tK8DvZ6kyvfiSQS75ZJnRWeZ2aUtlt4LEkAt6v+zX8Fte8S2nivVPB8kt5aNYSGBdVvY7G6lshi0murNJRbXc0QChJZ45HAjjG7CIFAOn8TfDTwJ4z13T/ABH4r8NWuq3umabqOkW/2otJCbK/EQvIJICfKlSUW8QIkVuFIGAzZAOJ0j9k/wCAuiac+m23g27uEkvdKv2n1DXtRvrrzNNcPYILi4neYQwsoKQh/KGT8nzHIB3vjrwB4O+Jfh2bwp440KDVdNmdZRG7MkkMyHMc0MqESQzIfmSWNldGAKsCM0AchY/s0/BWy0XxJokvg+XUh4uWNNav9X1a91LVLtYwnkg6hdTSXa+SY0eHbKPJdQ8ex/moAXw/+zZ8GfDGoaXrOl+FLh9U0fWZvENvqN7rF9e3smoy2zWrzz3E8zy3J8hzGBMzhVxtAwMAGpb/AAR+GFr9g+z+GNv9l+K7zxvaf6bcHy9auvtHn3XMnO77ZcfuzmMeZwo2rgAwdQ/ZZ+BupRwRS+EbyAQyaq7Gz17UbQ3Canci6v4Lgwzqbi3mmAdreXfDxgIBxQBLp/7MPwO0vwzqvg+y8FMmka34Yt/Bt9btql6/m6NB5/k2odpi6BftMwDqQ+GA3YVcAGj4H+Edv4T+JPjH4mXd/ZXmoeJ4NO0y1W3077P9i02ySQQwM5kdppC80rPKSoYeWuweWCQDc8ffDjwh8TdJttG8YafczxWN5HqNlPZ6hc2F3Z3SBlWa3uraSOeB9ryIWjdSUkdTlWYEA4bVf2Sf2e9Y0rRdDu/h6sVhoenHSYoLTVL21W8sjMJ2t77yZl/tCNpg0rLd+aGkklc5aWQsAdHqvwN+FmtR+JIdR8KrJH4u1PS9Y1hVvLiMXN3p32b7HIAsg8sR/Yrb5U2q3l/MG3NkA434mfsnfD74i+JNH8QCW70jyPGA8Z60LS7u459TvE0x7CJo7iKdJLN0XyHDwkYMA4DMWoA1bn9lb4FXOl6Po48HXVtbaJa3tjD9j1zULWW5tryVJbuG8linV76OeWNXlS5aVZGyWBJOQCbT/wBmH4HaX4Z1XwfZeCmTSNb8MW/g2+t21S9fzdGg8/ybUO0xdAv2mYB1IfDAbsKuADR8D/CO38J/Enxj8TLu/srzUPE8GnaZarb6d9n+xabZJIIYGcyO00heaVnlJUMPLXYPLBIB6FQAUAFABQAUAFABQAUAFABQAUAFABQAUAeVftY/8msfGT/sn/iH/wBN09AHqtABQB8q/tBRW03xvuVvDhF8KaUU+pvNSz/IUAeqfsp/N+zb8NZu0/huyuAfUSRBwf8Ax6gBf2af+Sdav/2UDx3/AOpVqlAHqtABQAUAFABQAUAFABQAUAFABQAUAFABQAUAFABQAUAFABQAUAFABQAUAFABQAUAFABQAUAFABQAUAFABQAUAFABQAUAFABQAUAeVftY/wDJrHxk/wCyf+If/TdPQB6rQAUAfG/7XusQaB8XLO6uJ0hW78OWkalzgMY7q7JA+nmD86APoP8AZx006N+zz8L9IIwbLwZotuR7pYwr/SgDj/BWiftJfDWx1jw1oXw8+Gut6bP4o8Ra3Z31347v7GeSDUdXu7+NZIF0eZY3RboIQJXGUJB5oA6D/hI/2p/+iN/Cr/w5eo//ACioAP8AhI/2p/8Aojfwq/8ADl6j/wDKKgA/4SP9qf8A6I38Kv8Aw5eo/wDyioAP+Ej/AGp/+iN/Cr/w5eo//KKgA/4SP9qf/ojfwq/8OXqP/wAoqAD/AISP9qf/AKI38Kv/AA5eo/8AyioAP+Ej/an/AOiN/Cr/AMOXqP8A8oqAD/hI/wBqf/ojfwq/8OXqP/yioAP+Ej/an/6I38Kv/Dl6j/8AKKgA/wCEj/an/wCiN/Cr/wAOXqP/AMoqAD/hI/2p/wDojfwq/wDDl6j/APKKgA/4SP8Aan/6I38Kv/Dl6j/8oqAD/hI/2p/+iN/Cr/w5eo//ACioAP8AhI/2p/8Aojfwq/8ADl6j/wDKKgA/4SP9qf8A6I38Kv8Aw5eo/wDyioAP+Ej/AGp/+iN/Cr/w5eo//KKgA/4SP9qf/ojfwq/8OXqP/wAoqAD/AISP9qf/AKI38Kv/AA5eo/8AyioAP+Ej/an/AOiN/Cr/AMOXqP8A8oqAD/hI/wBqf/ojfwq/8OXqP/yioAP+Ej/an/6I38Kv/Dl6j/8AKKgA/wCEj/an/wCiN/Cr/wAOXqP/AMoqAD/hI/2p/wDojfwq/wDDl6j/APKKgA/4SP8Aan/6I38Kv/Dl6j/8oqAD/hI/2p/+iN/Cr/w5eo//ACioAP8AhI/2p/8Aojfwq/8ADl6j/wDKKgA/4SP9qf8A6I38Kv8Aw5eo/wDyioAP+Ej/AGp/+iN/Cr/w5eo//KKgA/4SP9qf/ojfwq/8OXqP/wAoqAD/AISP9qf/AKI38Kv/AA5eo/8AyioAP+Ej/an/AOiN/Cr/AMOXqP8A8oqAD/hI/wBqf/ojfwq/8OXqP/yioAP+Ej/an/6I38Kv/Dl6j/8AKKgA/wCEj/an/wCiN/Cr/wAOXqP/AMoqAD/hI/2p/wDojfwq/wDDl6j/APKKgA/4SP8Aan/6I38Kv/Dl6j/8oqAD/hI/2p/+iN/Cr/w5eo//ACioAP8AhI/2p/8Aojfwq/8ADl6j/wDKKgA/4SP9qf8A6I38Kv8Aw5eo/wDyioAP+Ej/AGp/+iN/Cr/w5eo//KKgA/4SP9qf/ojfwq/8OXqP/wAoqAD/AISP9qf/AKI38Kv/AA5eo/8AyioA5T4saR+1P8UPhZ4y+Gf/AAq/4VaZ/wAJb4f1HQvtv/CxNRm+y/araSHzfL/sNd+3zN23cucYyM5oA+gKACgD85/+CuHh7xlqF78LtQ8FS+VM0Wsw3h2k7lU2ZiHBHQvJ+dAH2t+ztqX9sfs/fDLV9277d4O0W5z677KJv60AafxL+K/gf4RaTp2s+O9RvraDV9Th0awjsdJu9RuLq9lV2jhjgtIpJWZhG+ML2x1IoAd8O/ir4E+Kthf3/gjWJbo6VePp+o2l3Y3Fhe2NyoBMVxa3Mcc8LYIYB0XKkEZBBoA62gAoA5n4m/EDRvhT8PPEnxL8RW17caX4X0y41a8iskR7h4YULssauyqWIBwCwGe4oA6Cyuo76zgvYVYR3ESyqGHIDAEZ9+aAJqACgAoAKACgAoAKACgAoAKACgAoAKACgAoAKACgAoAKACgAoAKACgAoAKACgAoAKACgAoAKACgAoAKACgAoAKACgAoAKAPi3/go7rH9k/8ACvPn2+b/AGt+n2T/ABoA98/ZTBi/Zw+HdgWJOm6BbaZz1/0ZfIx/5DoA4T9tqHW7jT/gzD4b1CxsdUf4u6Atpc31m93bwy+VdbWkhSWJpFB6qJEJ/vCgDyn9oP4L+Jvh/DY+NvG/xE0jU7b4h/EDT7r4laxqPhqQ+G4LK3sprfS4brTY7xGGnRzC1WVprtlLlZJWZAY6AOfOjeB9E8F2FvYfFzwd40+C8vxa06bxnaeDNGaw8K6HavpzMbZs3V1D/Z73psJ7qPzfJRpmLqivIKAMb4znwCPhJ+0qfgtNpkPwdEPgv7HJoUqR6Ems/b0/tBtNe3IgVRB9hM5iIAmySd++gCb43WXwhWy+KU/7Kc3hh/BcXwS8QR+Np/CcsU2lXF7vX+zBNLb7opb8D7cxZ2M3lFi5w6bgCH4m6J4e1z4hfFSD46/GL4Z/D6/it9Ml8Ian4z8NzXWqWWkLp0bQXfh68/tK28uWO7S7Z0t4nkE6qZC+9EAB+iWhLdroenLqF/JfXQtIRPdSW32Zp5Ng3SGHjyyxySn8OcdqAL1ABQAUAFABQAUAFABQAUAFABQAUAFABQAUAFABQAUAFABQAUAFABQAUAFABQAUAFABQAUAFABQAUAFABQAUAFABQAUAfEX/BS3w5c6/wD8K5+zs48j+2M7f9r7H/hQB9D/ALL/APyRbSSv+qOo6yYP+uP9qXXl/wDjm2gCr8VviTr3hTxOml6X8Y/hB4ZiNrHKbHxWzi93EsN423cQ8sgDHydQ3JoA43/hd/jD/o5T9m7/AL+S/wDyxoAP+F3+MP8Ao5T9m7/v5L/8saAOO+L2u6h8afh7qnw18U/tQfs/Wumas1s80un3DJOpguI502s986jLxKDlTwTjB5AB2P8Awu/xh/0cp+zd/wB/Jf8A5Y0AH/C7/GH/AEcp+zd/38l/+WNAB/wu/wAYf9HKfs3f9/Jf/ljQAf8AC7/GH/Ryn7N3/fyX/wCWNAB/wu/xh/0cp+zd/wB/Jf8A5Y0AH/C7/GH/AEcp+zd/38l/+WNAB/wu/wAYf9HKfs3f9/Jf/ljQAf8AC7/GH/Ryn7N3/fyX/wCWNAHQeAfiv4k1/wAX6bo+ofHb4G63BcuyvYaA0h1CfCMQsIN64zkAn5G+UHigD3KgAoAKACgAoAKACgAoAKACgAoAKACgAoAKACgAoAKACgAoAKACgAoAKACgAoAKACgAoAKACgAoAKAPkT9v74g+C/An/CB/8JfLs+3f2p9n+YDOz7Lu6/760Aey/sq/P+zn8Pbo/fvNCt72Qdw8w81gffc5oA9E1TQ/DuoMb7WtH065aKPBmureNyiDJ+8w4AyT6cmgDB8KJ8IfHmhweJ/Ay+D/ABFo9yzrBqGki1u7aUoxVwssW5GIYEHB4IINAGv/AMIZ4P8A+hT0b/wAi/8AiaAKOu6T8M/C+j3fiHxLpvhjSdK0+Jp7u+vobe3t7eIdXkkcBUUdySBQBat/Cfge7gjurXw1oc0MyCSOSOzhZXUjIYEDBBHIIoAk/wCEM8H/APQp6N/4ARf/ABNAB/whng//AKFPRv8AwAi/+JoAP+EM8H/9Cno3/gBF/wDE0AH/AAhng/8A6FPRv/ACL/4mgA/4Qzwf/wBCno3/AIARf/E0AH/CGeD/APoU9G/8AIv/AImgA/4Qzwf/ANCno3/gBF/8TQBw3h/4vfsvXni2Dwz4V+J/wtn8TvcPaQafp+t6c1+ZxlWiWJH8zfwwKgZ6igDsfB3j/wAJeP11pvCWrfbx4e1m60DUv3EsXkX9sQJof3iru2lh8y5U54JoA6GgAoA57RPH/hLxF4s8SeBtG1b7RrfhFrRdZtfIlT7KbqLzoPnZQj7o/m+Rmx0ODxQB0NABQAUAcJ4v+PPwN+Hust4c8ffGfwL4a1ZI1maw1jxFZ2dwI2+6xjlkVsHscYNAGrZ/ErwPqHjaP4d2GvxXOvzaGniWK2ijkdJNMebyUuFmC+UwLjAAfdjnGOaAOmoA57WfH/hLw/4v8OeA9X1b7Prvi1bxtHtPIlf7SLSNZLj51Uom1HU/Oy5zgZPFAHQ0AFABQAUAFABQAUAFABQAUAFABQAUAFABQAUAFABQAUAFABQAUAfEX7cfwd0n4/8AxQ0bwrrrQrB4S0CLULczdC9/cTo+PfFhHn8KAPof9lr938BvCtl/0D47rT8en2e7mhx+Hl0Acx+2t4u8RaT8G2+HvgW1vrzxb8Tr+LwfpNtp7QfailwrNeyR+c6RgpZx3LB3dVVthLL1oA8c+Gmu638H/EHxn+CWgaFN8EYPEfh6Xxr8PJPF1xpklppdyLdLO9d5Le5uYfLS5W1nCMzHEkrMhGA4Ba8Oav4w+HGqa/8AD/xLc+MPhl8RLrwVr/8Awj+veI/ifP4v8J3otxZKmrzfbpGlspY55Bt8y0hiKPKD5pKxKAcl428TeLvhH4G+I/hTxRp3xU8E/ECL4beJ7rRb8fFS98VaRq0NnHZk6nHJPMLqwulkc+WTb267ZJRudiqIAdj4n1LUfHcH7RfiDxp8R/F2j3Hwv0S1i8O2Gl+Lr7RorCI6El6t/L9iuIhctPcSycz7wBbqgAw4IAz4bW/iD4tfFz4ZeF/F/wASfHw0aT4B6H4ivbLTPFd/pov9Se48trmeW2lSZpCGJLBwWIG8sBigDkfCPxB+NnxF0D4B/DufxFc6tDrul+KpLiW+8bX/AIYudfu9LvTbW0Emp6fby3Lyx2oknaNdnnGNpJHbYVcA2Lu8/aHTxR8MfgH4j8X6LrqXJ8VTYsfibqulyajJZTRfZNNuNctLL7ZPdWttNM0iCKEzeR5krMUYOAeweB/D+s23w38HeH/jd8fY9J1bw/8AEARaXc6D42Mr6q0c832PQb+8uIYn1GQo3lSxGNJJjArNl9zEA+i6ACgDivjbD4Xuvg544sfG/iKXQPD974d1C01TVYs77C1lt3jknXAJyisWBx2oA+btN8R/En4F6J8K/DPjnTfg78UPhNqOq+FvDXgvV/D1tPY6nHcSIBb6ilm/2q2uAip5ytbzRsFVpFAHyqAebXek6n4W+Ef7Rvxu8NeOvGOleJPC/wAW9Yn0lLHX7q20+Fo9RtSwlsY3W3uhIHZHFykuV4G0UAbH7WnxD8VaVD8aPif8LtQ8S2E3wsu9JiutZ1D4m3+l2lnqYjtJVtbLQYo5LS8gdZYFc3gQTSXEypvVQaAD9rT4h+KtKh+NHxP+F2oeJbCb4WXekxXWs6h8Tb/S7Sz1MR2kq2tloMUclpeQOssCubwIJpLiZU3qoNAHTXngXQvEv7QH7U/iLxF8QvFvha08P6XoNyt3ovia70aKzYaIXN5K1tJH5piEeQsxeIDdlDkmgDk9e8f/ABC+Knw80/UNR/4Sa28b6P8ABiw8WeKr5viZqHgzTNJNxFcPFeQ22nxv9qu38qaWQTRrbxLFDGWUsyAA6j4baj4p+Pvxc+GcHjz4h+NINO1j4B6H4v1LTtC8RXeiwXmq3Fxh7h/sLxMrfvD/AKtkBwoIKgLQB7d+xz4n8SeL/wBnDwhrHi3XbzWtUQX9hJf3rh7i4jtb+4tomlfA3yeXCm5z8zNlmJJJIB4zpsHjb4Zab8UfiV8BfGvwi+Ivw6vPFniXxF480rxIlzp2pWE6RBruw+3xGaI7NhwtzarsiKDcyMrAAq+FdG8M/HH9pvwRrENv4l8G6FqHwF0rVrfRNC1e50OS2jk1BjFaPLZtDMscQcAJGyISi5BUAUAZvgPxn4s+J3w4+Cnga5vvF3izxvqFh4mmLP8AES/8JWc+n6dfi0+0397p6NdXdyALZEjRH3eZPLLjAYgHK/DS81r47L+yPJ438ca7c3FwfiDY3GraTr0qXd5bWMpt4R/aMIjmffFbxhrhDHLIMsWBdiQDb1Tx78V9P0JPhRoni7U7rSJfjzqXghb7WfFt7YXX9mrafa7TTH1pIri9iMtyywJNh5mUpCJFDb1ALvjO8/aH+Htpofwq1Lxfoo0zxX8SrTTUto/ibqtxfaZZzadJcR6Tc6+9l9vgFzdxL5LiJptkwhEoVlZQB/jfTfjZ4S0bw18PPEfxTudIttZ+M2g6db2/hzx9f6zq+laVeWUzT2F1qV1BDcSI8itLGJUZlWRRvYJGVAPa/gIdT8OfHH4z/C2HxN4h1Pw34ePh2/0mDXNZutWns5Lyzl+0Kl1dySXDRs1ujhHkZVYvtChiKAPzq/4KZzftPfs4/HF9d8H/AB/+KNl4G8cCTUdJig8XaikNlcgj7TZqBNhVVmDooAVY5UUfdNAH27/wTZ8CfGDRPgPB8RPjh8R/GPibxB46MepWttr+uXV8NO00Kfs6okzsEeQM0rMuMq8QPKUAfWtABQAUAFABQAUAFABQAUAFABQAUAFABQAUAFAHxv8Ate+If+EU+Llnf+Zs+3+HLSHOevlXV2f/AGrQB7n+y18/wF8KXf8Az/RXN/n18+6llz/4/QB6HfeG/Dup6xpniLUtA0671XRfO/sy+ntY5Liy85Ak3kyMC0e9QFbaRuAwcigCr4j8C+CPGMkM3i7wdoeuSW9rd2UL6lp0NyY7e6j8u6hUyKcJNGAkijh1GGBHFAGJ4c+BnwT8H6drGkeEfg94I0Sw8RWpstYtdO8PWltDqNuVZTDcJHGFmTbI42uCMOwxyaAGaB8CPgf4U0zWNF8LfBrwNo+n+IbcWmr2mn+HbO3h1GABh5VwiRhZkw7ja4I+ZvU0AeZ/Gz9lfUPjH4o1DU7vWvhymm3mmQ6TaPqvw3t9S1vRIFDiQ6dqRuYzA5MjOnmQyrG+GVTyCAew+Ffhz4L8GQaQmheHrGO60TRLbw5aag9ujXi6dAB5duZ8bzGCobbnbuycZoAg1X4R/CjXfCkPgPW/hj4T1DwzbTm6h0a70W2msY5izsZFt2Qxhy0kjbgucux6k0AQ3PwX+Dt74KtPhtefCbwbP4RsJjcWugS6DatptvKWdy8dsU8pGLSSNkKDl2PUmgCzZ/Cr4X6doWi+FtP+G/ha10Xw3frqmjadDo9ulrpt6ru63NtEE2Qyh5JGEiAMGdjnJNAHU0AFABQBwnhD4DfA34e6yviPwD8GPAvhrVkjaFb/AEfw7Z2dwI2+8okijVsHuM4NAG3L8PfAM+kat4fn8D+H5NL167kv9VsX0yE29/cyMGeaeMrtlkZlUl2BJKgk8UAZPiT4HfBXxlr8virxf8H/AATrmtzwG1l1LUvD9pc3UkJjMZjaWSMuUMbMm0nG0kdDigA8SfA74K+Mtfl8VeL/AIP+Cdc1ueA2supal4ftLm6khMZjMbSyRlyhjZk2k42kjocUAR+I/gP8DvGHiRvGXi34M+Bdb192iZtV1Hw7Z3N4TGAIyZpIy+VCqF54CjHSgC94s+Enwq8e6vYeIfHPwy8J+ItU0oAWF9q2i213cWoDbx5UkqM0eG+YbSOeetAGjpHgfwVoF3Z6hoXg/RNNutP0uLQ7Se00+KGS302M5js42VQUgUgFYhhARwKALeheH9B8L6XFofhnRLDSNOgZ2is7G2S3gjLuzuVRAFBZ2ZjgcliTyTQBymvfAb4G+KfFD+OPE/wY8C6v4jkkimfWL/w7Z3F60kSqsTGd4zISiogU5yAqgYwKAOq/4R3w+PEB8WjQtP8A7cNmNOOp/ZU+1m0D+YIPOxv8veS2zO3cc4zQBzWt/A/4LeJtD0/wx4k+EHgnVdH0mWaew0++8P2k9taSSsWleKJ4ykbOxLMVALEknNAGtp3w88AaRLpU2k+BvD9lJoT3kulvb6ZBG1g92xa6aAqo8ozMzNIVxvJJbOaAG33w5+Hup6NrHhzUvAnh270nxFcte6xYT6XBJb6jcMVLS3EbKVmc+XHlnBJ2LzwKAM/Tfgv8HdG8H6h8PdI+E3g2x8K6tMbi/wBDttBtYtPu5SEBeW3VBHI2Io+WUn92n90YAF0H4N/CDwtpdtofhj4VeD9I06y1RdctrOw0O1t4IdSVAi3iIiBVnCAKJQN4AAzigDobTw/oOn6tqGv2GiWFtqerLCuoXsNsiT3YhBWISyAbpAgZgu4naGOMZoA8/wD2hf2e/Av7SPg3T/BfjuyimtdO1zTtZido9zAW9wjTRDBBAmg86AnPAl3YJUUAemxRRQRJDDGsccahURRhVUcAADoKAH0AFABQAUAFABQAUAFABQAUAFABQAUAFABQAUAfmr/wV98UXngfWvhfqtnHKx1S11e3fywTxA9qwzj/AK7mgD7V/ZS/5Np+GDf3/CumufctApJ/WgDovjL8S9L+Dnws8T/E3WEMsHh7TpbqOAAlrmfG2CBcAndJK0cY93FAHm/wS/aB8R3fgfx7L+0lF4f8LeK/hZdyDxUumLKLKKxa1S7gu41Z5XKNC5HDuS8T47CgC7J+1Romk+Ebrx342+E3xF8JaGulw6np11qen2cp1Xz5Yore1gjtLqaRLqV54VSCdYXO45A2SbQC7qv7SFt4a0wz+M/g/wDEHw9q11qthomjaLdwadNc63e3nmGKK0mtryW0JCwytIZZ4xEiF5CqlSQCreftWeC9F8NeM9a8VeD/ABZoOq+AbnS4Nd8PXkNm+oQJqMkcdnOjQXEltLFIZD8yTtjypVIDoVoA3/HHx+8HeAfFuueDdY03WZr3w/4HvPH9zJbQxNE+n20pjkiQtIpM5I4UgJjq46UAc94N/ao0LxhqnhjTW+Fnj/Qx460m71bwnPq1rYxJrYt4UmeCNUu3kglMT71+1LAjBWIbpkA5z4A/tQ/EP4lfBC3+J3iz4B+LZbxxME/sBNOkg1OQai1okVrE2oPMjKMNI9wIowI5W37QuQDJ+Ov7U+tWHwP+KWp+EdF8S+AfH3w7n0MXmn61ZWV1cw299dW4jnj+zyXVtOksRuEAV2dWjcFVIUkAufGL9qjUNL+GXxKsNM8J+Lfh1490bwDqHi/w6PEVnYSG8ghVlNxCIZriLdFIYd8M4SQeahMZBbAB1fiH9qTw54TXWVbwT4x8S2PgqytLjxlrmi2lrJZaF5sCzt5yyTxzTNHAyzyJaxTMkbKSASFoA6Hxx8RfGl7d6p4G+D/hqe48RyeEz4m0LxHqulvceFbqXzwiWEl1DNG3nyD5gFPyRuJfnC+WwB5n4e/a71L4pXWh2Hwp8ITS32i6fda38S9Mms5L2/8ADi2xmibRVhR4s6nPdQSxwhyB5cLymNlZAQDsD+1JoOlt4qs/HXwy8c+DtU8LeD7nxydN1aLT5ZtR0q33id7Z7O7nh8xGVFMcskTZmjOCCxUAytL/AGv9N1nV9D8P6f8AAj4qyar4s0g694btGstMjbV9PXYZJ1dr4R2oRZI2K3bW7fvEVQzsqEA39D/aPtPGfgfwl48+G/wk8f8Ai+18Ww3kq22nW+n28umNayiGaK8e8u4IY5BLvQKsj7jHIV3Ku6gDIf8AbA8CXWk/Di/8MeB/HHiO9+KKaiNG0rTtPt1u4LiwKrd291588ccLxuXRnLmLMTnzNu1mAPQvhR8VtE+Lmhajq2laRq+j3eiaxeaBq+latFEl3p9/bOBJE5hkkhfKsjq8UjoyyKQ2cgAHj/8Aw0tceB/i98ZdB8b3uoazY6JrvhrRPB3h7S7OB7+7ur7S453trcfIZWZzJIWlk2xorEsiKcAHY+O/2k4/htHfav4w+C3xGsvDWjGw/tjxH5GmvY6cLkQlnZRe/aJ0gM4Er20MygpIFL7TQBieGPjZ44tPF/xZsLvwn4n8dx6F49tfDuh6XoFpYrNZ20mi2l2xkknlt4liEjzEyTS53SIgJyq0AV/G37WNvY/BvXviR4d8F+J9OvPDXiBvDWv21/pdleTeHryOeJG+1W66lAlwjrNEUa1uZeJ425CuoAPR/h18Q7nxl4r+I/h83MU58F6/Ho6J/ZptNhext7oKZftE32ji5X955cGOV8s7d7AHwZ8Q/wDgsj4m+FvjjXPh34y/ZONnrXh6+lsL2L/hNiVEkbEEqTp43IeqsOGUgjgigD7T/ZU+OXij9o34P2Hxc8R/DL/hB4NZnlOl2Lasb+S4tEO0XDMYIdm5xIFXacqquDhhQB7BQAUAFABQAUAFABQAUAFABQAUAFABQAUAFABQAUAFABQAUAFAH52f8FdYIpv+FUebEj7f7dxuGcf8eFAH17+yn8v7Nvw2tT9+y8N2VjJ/10gjET/+PIaAK/7QnwZ1n46P4K8HXV/DbeB7LXk1rxSkOo3Npf3aW0bPZ29u8ABUG6MUjv5kbL5KlCSeADzXxz+xT/aXinxPF4I8X6nZ+FviV4IvvCfjEa54i1PWL0XK/Npl/AbyWVpWhLzo0byxqEc7eWagDc8Z/Db9pv4tfD6Hw141l+HHh7XfDzaTrujappmoXupR3/iDT7uC5ilnhktrcWtq7QOrRqZ2AmBDHysSAF/xv8P/ANoD4kf8I74u1TTfh/4f8R+AfE9n4g8P6Zaa1e39rfxi3uLa9gu717OFofNhumEbR2shiaMMfMDFFAOZ8b/s0fFL4r6D8XNf8X6t4Y0Lxf4903RNN0Ow0+6nv9P0yLSJ2u4FmunggkmM91JIZGEA8uMqFEhUlgBfEnwL+PPxL8feOfHfjK28A6CPEPwo1T4faZp+ma3e6h5V1cS+Yk808lnBmMktnbHuXAwHzkAHX2HwM8W2usfs+ahJqOkGP4T6XdWOtBZpd1xJJpAs1Nt+7+ceYMnfsO3nBPy0Aef2f7OPx00z9ne//ZuspvB50iw1GSew1MeIr6CTxBp76ybuXTr+GKzDWcU9rJJbyvDPMTlhtKOQADmNQ/Yu+It54W+N1j4c8I/CbwI/xLtPCcejaB4duZ49NsZdKvJprgzzJYxbjKrqwkS3ByxRl+TzJADtPiz+zx8ZPj4nizXvG9v4J8Oas/w91jwX4Y03TtavNRt1utSKGe8urt7O3ZVCwQRrEkD4BlcsxKqoBm6/+yNqmm+OPGninSfgp8DfiavjH7JqEE3j2IxXei6hHZpbSxrINPumurRzBDKse6AoxmAzv3AA+iNNs/iTp3ju10+OLwfH8OrXw2kKpbQ3EOqLrCzAAJHkwJZC3HC5MgfAyVoA8uX4AfEOzg/aIk8N+MLHw7qvxYuftPhzVdPllW401xpUNqskrBFMbiaN2DRszAMGVg/QA8r0r9i/xrDqfirUdG+HXwg+HVvrXwf1z4dRWHhi9urj7TqV21uYb67uXsoXkTETK25ZJV2ht8xkIjAPYtD+Bni3TPiZ8HfGc+o6Q1l8PvAt/wCGNTjSaUyzXU6WKo8AMYDRg2smSxVuVwpycAHmMH7JnxJ0/wANfDzRdb8P/Dv4jaV4TuPFNxqHhHxJqt1b6NPdajqUlzaX64sp1mnhgkli2zQFU8+UxsD8xANX4KfsoeP/AIaH4Fpq2qeFHj+F9x41k1RNL8+GGVNXuZZLVbSJo/lVFdQ6Mw2YwrSYyQD2D4JfDPXvhtc/EWbXLuwnXxd451HxNY/ZJHYx2s8VuiJLuRcSAwtkLuXBGGPOADyHxT+yX45n+O3j79pHwT4n0rTPHE19pV54LluLq5ks3t4tNitL/T9St9mwQ3PlAeZEGlQpDIrZj8tgDj/jz+x98XfjRF8S21Xwj8JdY1rx5a2Q0bxH4h1a8u7zwekVrEr6dYxmwK+R9oW4ZZ4nt3JumlkikZfLYA6/x/8AsvfEjX9e8V6tajwh4h0TxB8SLTxfdeE9Z1K6tdO1zTodGgs1tb947eU5juoUuFiMc0LmKPeCRhQDyv4hfDu2+Bn7N/xU+EmvXnw80bxX8VPHNrr/AIT8E+FLrDGCafSoFtLS1aOKSdo3t5AXiiCsB5hWPc0aAH1r8Kvhrrvgbxv8VfEurXdhNa+OfFEOt6clvI7SRQJplnalZgyqFfzLaQ4UsNpU5ySAAfKP7dX/AAT+g/aG+Pvw0+Ifh1Gs4Nc1FNG8bSwxncLOCCSZLokAgN5UDWwZuNz2y+tAH3XomjaV4c0aw8PaFYQ2Om6XaxWVnawrtjggjQJHGo7KqqAB6CgC7QAUAFABQAUAFABQAUAFABQAUAFABQAUAFABQAUAFABQAUAFAHwD/wAFWtGudX/4Vd9nH+q/tvPHr9h/woA+qP2Yv3fwihsh93T/ABD4l05P9y31y+hX/wAdjFAHq1ABQAUAFABQAUAFABQAUAFABQAUAFABQAUAFABQAUAFABQAUAFABQAUAFABQAUAFABQAUAFABQAUAFABQAUAFABQAUAFABQAUAFABQAUAFAHx7/AMFCLrw1bf8ACA/8JDqEVru/tXyd/wDF/wAeu7H6fnQB7Z+zL/ySyc/3vF3i5vz8RagaAOo+JXxV8D/CLR7HXfHeo3trbanqUGj2SWWl3eoz3N7Nu8qGOC1ikldm2tgBTzx1IoATwP8AFLwz8Qp7u20HTPF1q9mivIdc8H6voqsGJA8tr+2hWQ8chCxHGcZFAF7x/wCP/CXwu8Iah488dat/ZmhaUsbXd35Es3lh5FjX5IlZzl3UcKeuemTQBfn8QWFtr9p4akg1I3d5by3MckemXL2qpGVDCS6WMwRudw2o7q7DJUEA4ANKgAoA57W/H/hLw74s8N+BtZ1b7Prfi5rtdGtfIlf7UbWLzp/nVSibY/m+dlz0GTxQB0NABQBX1DULDSbC51XVb63srKyhe4ubm4lWOKGJFLO7uxAVVAJJJwACTQBwnw1+P3wq+Lmoy6R4H1+9nvo9Nt9ajttQ0a+0yS506dmWG8t1vIYjc27MhAmi3pkr83zLkA6Pxr440XwBpUWs67ZeILq3muFtlTRPD2oazOHKswLQ2MM0qphDlyoQEqCQWUEA8/8ACf7V3wd8dW8954Q/4TvVra2a6jluLb4c+ImhWW23edD5n2Hb5qlGXy87y42BSxC0AeuW86XMEdzGsgSVA6iSNo2AIyMqwDKfUEAjvQBJQAUAFABQAUAFABQAUAFABQAUAFABQAUAFABQAUAFABQAUAFABQAUAFABQAUAFABQAUAFABQAUAfAf/BST4Uaj8dvG/g7wnptxcRnwppU+oyeTKyEi+m8sZwef+PA4/GgD6m/Ze+f4KaPd/8AP9favfZ9fP1O6lz/AOP0Aec/t7XdjYeC/hfe6p4w/wCETtIPir4dkn13zbaP+zUDTE3G+5R4F2D5syoyDHzAjigDA8f+IfhN4y+D3i7RX/b7t/Eul3U2kWuo6hez6HqNhpsUl/EvlXqaPBaOtpd82sxmmSMxysCygtkA8E8Vad4R8Yfs2/HLw5oHwZ+D99daLo2japeeKPhIpufDV+9vqFxJsW3MQS3vrezd5JfKedzHON8igRxgA7n43f8ACjvtuo/8M+/8IL/wi/8AwpD4m7v+EN+x/YPtXlaZ5mfsn7vzMbN38WNue1AFvwf8Cfg0vxi+AOgS/DPQJ9M8V/C7UNS8QWU9qJLfW7yBNOaG4v42yl7KjXE7K9wJCGfePmVWUA5Dw5qngE/CL4H+AviJZ/C6z0+3bxpDY+KvitZnU9F062stXe3i06C1eeCKS6eNYNjSTJ5UNrIEDlyoAMr4e6P8M9V8CfspeNvjxpXha88IaXqPjnwzqOreLNPjj0+3t4Jb+PTLSf7eW8iNRbbYYZm+QoEHzAZANf4n6J4A1z4ifFWD4mfGL4SfD60it9Ml+H2p+I/Db3V1ZeHl06NrO78MXkepWyRmO4S5bZaxOwlVC5cPGgALfx7f4e6Z4+8YeIvFXiD4MfGXWmtoNP1XwV45tbjR/GkLppMIt7Pw9IBLLEbiab7RGkNqn765k2zb8ugB9o/GvUtbf4B+NdU0LwBN4k1SbwtfSW/hm5jLyXsj2rf6JIkTbnJztZI23NyqHJFAHwx8N/iDp/wq8S/DjWvAfxs0jxp4RvrLw/Y+I/HEkrX9z4J0WJSX0TVQEkisLW5uJkEE0vkXCNHKs7yJbmaMA/SW0u7W/tYb6xuYri2uI1lhmicOkiMMqysOCCCCCOCDQB8HeFv+Ucnx9/6/PiD/AOll1QBzvxU+H3gnxFD+2F4313wzY3+v+FfDeg3ug6jcR759JuY/DkEqz2jnm3l3xxkyR7WOxQSQoAAOi8XeCdU+Hvi/Xbb9nDQDoXifxL+zxqWo+ToqlLjUtWhu7YQ3bsMvcX2LmcLPIXmZpOWJOSAb37Juh/Cm3+KXhrW/hb8cfhXdXNx4Snj1Pwt4H8JS6bfX9uPs7Jca2G1K7aO6t5HC750SffcTIXJZloA+2KACgAoAKACgAoAKACgAoAKACgAoAKACgAoAKACgAoAKACgAoAKACgAoAKACgAoAKACgAoA+ZfjGu749aoPTwhon/pbqtAHon7LnyfAzw7ad7GTULE/WC+niP/oFAHeeNNS/sfwlrGq/8JFY6B9kspZf7UvYPOgs8KT5rx703heu3cM9KAPm/wD4Xpj/AJvc+Gf4+EP/ALuoAP8Ahe2P+b3vhZ/wLwj/APfCgA/4Xxj/AJvg+Ev/AALwn/8AfGgA/wCF9f8AV8fwf/Hwp/8AfOgBP+F+Y/5vl+DH/AvC3/30oAX/AIX9j/m+f4I/j4Y/++1ACf8AC/8AH/N9PwK/Hwz/APfegA/4aBx/zfZ8Ax9fDf8A9+aAD/hoPH/N937Pv/AvDv8A9+qAD/hoXH/N+H7O3/AvD3/38oAP+Gh8f835fs3/APAtA/8Av7QAf8NE4/5v1/Zo/HQf/v8A0AH/AA0Xj/m/f9mL8dD/APwgoAP+GjMf838/st/jov8A+EVAHuvwg8Wf8Jp4Mi1z/hZ3grx9uuJY/wC2fCFv5OnPtP8Aqwv2u6+dejfvj9FoA7agAoAKACgAoAKACgAoAKACgAoAKACgAoAKACgAoAKACgAoAKACgAoAKACgAoAKACgAoAKAPlL9ofVhofxunuicfavCulR/98Xeon/2egD1f9mH5/g/a3S/6u813xFeQj0im1q9ljH/AHw60AerUAFABQAUAFABQAUAFABQAUAFABQAUAFABQAUAFABQAUAFABQAUAFABQAUAFABQAUAFABQAUAFABQAUAFABQAUAFABQAUAFABQAUAFABQAUAfFX7a0ksXxT0poG2s3h+AMR3AubnH8zQB7/8Asp/P+zb8Nbs/fvvDVjfyf9dJ4hM//j0hoA5n9sX4jeLfhv4N8E3fhLxXrPh067490fQtSvdF0iLU78WFwZRMtvbyW9x5kpCgqFhdiQAAc4IBhN8dNP8AhN8P/FnxF1Lx58XfHCaWljBFa+O/By+FrSGe5uVt4XN2+kWKpD5kqGeVjL5USs4QnCuAYfxr/aK+Odn+zL4z+K3gjSPAFkbGHTZ9D8T+GfGieIdOu0lvmt7pY2k09A0sRjRGVozGROSsm+NkAB0nj749/Ef4aeJlk8e+FLS0ubDwB4r8XvouheJUvdNu10sWjRrJPPpcNysr+e6goVRAMskxYbACLRv2nvjLrXibwf4Pi/Z/0C31P4heHZPE/h8z+OyLeKzi8pplv3WwLwShbiAKtul0GZ8FlVWkUAsJ+1lquofB/wAF/F218J+CPDth4jlvrLVJPHPj6PQbLS7+1neA2iXH2WZrl3khuSmIkykBZtpIWgDil/as+LfxM1/9nvxD8GvDvh9dH+I8PiRdU0fVNfEcNxeafFIksX2yGyuGEMUsLvFPEAZhtDxxg8AGr8Tf28tC+G/iLxToFzp/gNpvAENqfElpqPxAt9O1K4uXgWe4g0e0lt92oGKN1AaRrUSyHy1+YNgA1fit+0J428W+FfivpnwM8J2F9p3gzwy0mo+J9Q8RXGkPDc3WmG8QWEcVnO8ssNvJBI3mNb4eVFByGKgHqvwO1XXtV/Z7+H+tzXDarrV54M0q6eXULtwbu6exiYtNMVd8u5yz7XbknDHggHzl8MP2iPj9qf7M/hT4mfEi30//AIm3iaw0hNa0TXIF1G7a48QiwKTWk2km2hiWNiCY2aR1jGDE7l0AOp1j9srx5plh4m8W23wGtb3wp4X8fz/D2a5TxdHHqN3eLeizinhtpLYQ+U0kkIbzbiMoXfhlTewBra5+2FN8O9K+JafF7wDp2ha78O5dEiW307xGLvT9TOrArZFb25t7XyFEqyLK0kQWNUL5ccUAXvhb+1cfijc+OvCnhzRPBniLxh4T0RNc02z8HeOIda0vWUkWVYoBqBghFtN58Pluk0Q2rLFIC6k7QD3Dwvf63qvhnSNU8S+H/wCwtXvLC3uNQ0r7Wl19guXjVpbfzkAWXy3LJvUYbbkcGgCPxXa+LrzQ57fwNrekaRrDMnkXeraVLqNsgDDeGgiuLd2JXIBEq4JBO7GCAePfs9eJ/id8cP2RPBfiq8+IUmkeM/E+jQ3Nx4hh0u1leKQzfvHS3ZRBuMasq5QqpIYq2NpAK/wg8ZeO0/aJ8cfCGb4lah8RfC/hrQbC9vNY1OysIbvSNZmlkH9nM9jBbwy7oEWbHlb0yAzfMBQBT/aJ8Z/Evw1+0N8CdI+HNrNqkmtL4nS50WXW303T73y7S3KSXbqkmUi3O4xDKwP3VycgA9J+CXxXvPivomvy6z4XTw/rnhTxHf8AhjV7KC/+22wurYqfMt7gxxNLE8ckTgvFGwLMpUbckA9EoAKACgAoAKACgAoAKACgAoAKACgAoAKACgAoAKACgAoAKACgAoAKACgAoAKAPjX9sGwn1T4tWUFqm9oPDlo7j0DXN2B/6CaAPdf2UP8Ak2L4TkdD4M0cg+oNpHg0AT/Hv4Q6z8X9F8L23h7xdZeHdU8J+K9O8V2dze6S+owSTWZcrFJCk8DFWLjJEgOB75AA2Twp+0dd6Le21z8afBFrqvn2k+nXmm+AbiOFBHMrTxXMM+qTGaOWINH+7eB0Lbg/GKAPLR+w7o+p+GPifpmueIvD2k6l8StKtNLlPgrwoug6Xam1mkuLe7ex+0Tm5uftErs8skuWjCxjYMlgDo/G/wCzd45+KM9xqvxB+KOhSapP4I8T+CRJo3haazt1i1ZbYLP5Ut9OxaE2zEr5gEm8DMe3LAHR6T8A/wCy/Hnwx8b/APCWeb/wrjwjeeFfsv2Db9v89bRfP3+YfK2/ZPuYfPmfeG3kA4jQP2TPFPgZ/Aes+Bfijoqa/wCBk8TW8M+u+FH1Gzlh1nUPtkhjt0vYXt50wsXmpNl03Blw20AB4a/ZF1/wP4S+GVp4T+LFs/iz4Y6x4h1Oz1nWPDv2m1v4tYlu3uIrizguYCGH2lNrxzIN0Wdm1ygAOhb4H/Fzw14i8WeJPhV8ZdA8Py+PBbX2uW2p+D5dSt4dYjtVtpL+wRb+EweakUBaKY3C5hQ55YMAUvGf7NXjbULz4iQ/Dz4u2PhzSPirZxx+JIL/AMMLqFyt2LMWct1Zyx3MEULywJDvWSGUb0LLt3EUAeufDbwh/wAK9+HfhbwD/aP2/wD4RrRbHR/tfk+V9o+zwJF5mzc2zdszt3HGcZPWgDxHS/2TvFOmfDq1+DUfxT0lvBWi+JrTxFokX/CMyjU7cQa4uqC3uLr7b5U4wGhDrBEQCrkMQVYAvah+yd9v+HninwF/wn2z/hJfiYfiJ9r/ALKz9nzqkN/9j2ed8/8AqfL83cPvbtnG0gF/x/8Ast2fj7X/AIi+IpvHN7pd74zj8Nz6Tc2Voon0HUtFlmmtbtGdis/72VGKFVG1GXJ3ZUA6zTPCXx3l03xPF4n+M/h9tQ1LSTY6DPofg02UGkXhWX/TZIrm8umunDPCRGZEjxEQVJckAHaeF7DW9K8M6RpfiXxB/bur2dhb2+oar9kS1+33KRqstx5KErF5jhn2KcLuwOBQBH4rtfF15oc9v4G1vSNI1hmTyLvVtKl1G2QBhvDQRXFu7ErkAiVcEgndjBAPFvh/+zz8XPh3+zO37P8A4e+O+m6fqenWEWmaB4q0/wAJNFcWEAcGRpYJb2VZpWUuodWi2bgwUlRQB0fwG+D/AI4+DWnR+Fp/E/gW68NxrNM1to3hK+sL64vZGDPdXF3c6pdtO7fMXZ0LsSDvGMEA3PGfwm/4S74u/Dn4qf2/9k/4QBNZT7B9l8z7b9vt44c+ZvHl7PL3fdbdnHy4zQBL8KPhZ/wrCfxxP/bv9pf8Jl4uvfFOPsvk/ZPtEcKeR99vM2+Tnf8ALnd90Y5AO9oAKACgAoAKACgAoAKACgAoAKACgAoAKACgAoAKACgAoAKACgAoAKACgAoAKAPnrxzoMHif9ojxHZXLIq2Pgvw7Ku8gAmW+1oHGf+uQ/SgD0j4AaV/YXwI+G+h7dv8AZ3hHR7THp5dnEuP0oA72gAoAKACgAoAKACgAoAKACgAoAKACgAoAKACgAoAKACgAoAKACgAoAKACgAoAKACgAoAKACgAoAKACgAoAKACgAoAKACgAoAKACgAoAKACgD44/a68ff8Ku+LtprfneT/AG54bs7XOcbvs11eNj8PtX60AfR/wLvotT+CXw+1KBUWO78K6TOioAFCtaRMAAOg5oA7igAoAKACgAoAKACgAoAKACgAoAKACgAoAKACgAoAKACgAoAKACgAoAKACgAoAKACgAoAKACgAoAKACgAoAKACgAoAKACgAoAKACgAoAKACgD88P+CoNgl74z8DERrvTS7vc2OSDKuBn06/maAPsn9m3TJ9F/Z2+Fuj3TMZrHwXoltIW67ksYVP6igDhv2xLzVo9D+GGjab4i13R4PEHxP8P6NqUmjavc6bcT2U7SrLD59tJHKqsMZ2sOgPUCgDE8UXN9+zZ8bfhzYeHfGnivVfB/xAOr6frOha/rt3rklrLZ6fLexX9nNeSSXMZAgeOVPOMJWRWEauNxAOd+FP7VXxn+JV/4J1i38HzPofxA83bZw/DXxFCfDME8Ektjez6tOUsdRhG2FZRF5APnhondVywBnfs8/Ej426D+xzH8W/HXxr8EyW8Md4YNQ8TaJqM01s66xJC7XM4v3kvWKB44LaKOJ2doIg5/iAK15+1D451/T/F/hPxBBHeX/hHxh4Egg1K30LxB4Na6stZ1BIGWSxuLhbtHjaK4wxmaGZWjDRlQ6sAewfsaf8kn1v8A7KB4y/8AT9e0Ae7UAFABQAUAFABQAUAFABQAUAFABQAUAFABQAUAFABQAUAFABQAUAFABQAUAFABQAUAFABQAUAFABQAUAFABQAUAFABQAUAfBP/AAUWtxdePvCiEZ8vR5D+czf4UAfcPhS2tbPwvo9nY/8AHtBYW8cP+4sahf0AoA8//aO+GsnxK8FaWljF4ok1bwz4gsPEekjw5dadb3gvLdj5b7tQR7cou9mKupztA9iAeYeFfDPxD0bxqvxH8afBX4q/ELxNbWM2madf+I/EnhgpplrMVM8dta2kltbRtLsQSS+UZWVQhfYNtAFHwB4M+Jnwzn0bTvDHw3+O8XhDw9dTXOmeD/8AhJ/CR02BH83bbmbzVvpLeNpiUikumUbI1IKIFoAxo/hH4mtfB138O7P4QfHq18Lrqi63oel2+ueCwvhy/XUv7QjnsZjP55KT52rcSTIEYqVIAwAInwk1u51HxFrvij4L/tDeI9Y8Vah4a1LU9Qvtd8FLI8uhXb3NkqRwXkUMSEuEkVI1DKoYbZGeRwD6F+AfhSDwf4FuNOg8JeKfDn23XNV1eSw8SXOnz3iS3t5LdSkNYSyw+XvmcIN5YKAG55IB6PQAUAFABQAUAFABQAUAFABQAUAFABQAUAFABQAUAFABQAUAFABQAUAFABQAUAFABQAUAFABQAUAFABQAUAFABQAUAFABQB+f/8AwUo8T6P4N8c+DtQ1+byoNR0meG3P954ZsyD8BNH+dAH2z8L7xtQ+GnhK/fO650KwmOfVrdD/AFoAv+LPCei+NtEm8O+IEvHsbhkaRbS/uLOQlWDL+9gdHAyBwGwe9AHBf8Mx/CMfdtvFi/7vjfXF/ld0AH/DMnwpH3X8br/u/EDX1/le0AH/AAzN8Lx92++IS/7vxJ8Rr/K+oAP+GaPhqPu618TF/wB34o+J1/lqFAHdeEPCGk+CNGTQdFutauLZJHkD6vrd7qtxljkg3F5LLKR6KXwOwFAG3QAUAFABQAUAFABQAUAFABQAUAFABQAUAFABQAUAFABQAUAFABQAUAFABQAUAFABQAUAFABQAUAFABQAUAFABQAUAFABQB8Sf8FKfgnZ/GL/AIVz9rjjb+yP7X27/wDpr9jz/wCi6APrD4TJ5fwr8Gx/3fD+nD8raOgC94y8eeBvh1pA8QfEHxnoXhjS2mW3F9rOow2VuZWBKp5krKu4hWIGcnB9KAK/gf4m/Db4m2lzf/Db4g+GvFltZSCG5m0PVre/jgkIyFdoXYKSOcHnFAHS0AZ2geIvD/ivSYNf8La7p+s6ZclxDe6fdJcQSlHKPtkQlW2urKcHgqQeRQBo0AFABQAUAcV4b+N3wX8ZeJJPBvhD4u+Ctc1+HzfM0rTdftLm8TyziTMMchcbTw2Rx3oAoeIv2jP2e/B+tXfhrxb8d/h5omr2DiO60/UfFFjbXMDEAhZIpJQyHBBwQOCKAOp8TeMvDfg46QviLUDbPruqQaNpyLBJM1xeShikYWNWI+VHYscKqozMQoJoAuLr+hPrsnhddasDrMVol/JpwuUN0lqzsizmLO8Rl0dQ+NpZWGcg0Acz/wALu+C//CZ/8K5/4W74K/4Sz7R9k/sH+37T+0fPxnyvs3mebvxzt25xQBteJvGXhvwcdIXxFqBtn13VING05Fgkma4vJQxSMLGrEfKjsWOFVUZmIUE0AYvhv43fBfxl4kk8G+EPi74K1zX4fN8zStN1+0ubxPLOJMwxyFxtPDZHHegCzqXxb+FWjeMbb4d6v8TfCdj4rvTGLbQrnWraLUJy/wBzZbM4kbdg4wvPagCt4k+N3wX8G+JI/Bvi/wCLvgrQ9fm8ry9K1LX7S2vH8w4jxDJIHO48Lgc9qAJvHHxg+EnwxntLX4lfFLwj4Tmv0aS1j1zW7awadVIDNGJnUuASASM4yKAOn0/ULDVrC21XSr63vbK9hS4trm3lWSKaJ1DI6OpIZWBBBBwQQRQBYoAKACgAoAKAOK8N/G74L+MvEkng3wh8XfBWua/D5vmaVpuv2lzeJ5ZxJmGOQuNp4bI470AH/C7vgv8A8Jn/AMK5/wCFu+Cv+Es+0fZP7B/t+0/tHz8Z8r7N5nm78c7ducUAbXibxl4b8HHSF8RagbZ9d1SDRtORYJJmuLyUMUjCxqxHyo7FjhVVGZiFBNAFxdf0J9dk8LrrVgdZitEv5NOFyhuktWdkWcxZ3iMujqHxtLKwzkGgDO1/x74R8La3pPh3X9Zjs7/W4ryezR43KtDaxiS4leQKUijRWXLyFVyyrncwBAM/wP8AGP4RfE26ubH4bfFTwf4subKMS3MOh65a37wITgM6wuxUE8AnjNAElj8W/hVqfjOf4cab8TfCd34ttS4n0GDWraTUYii7n3WyuZV2jk5XgcmgCt/wu74L/wDCZ/8ACuf+Fu+Cv+Es+0fZP7B/t+0/tHz8Z8r7N5nm78c7ducUAdD4l8UeGfBeiXPiXxj4i0zQtIs9n2nUNTu47W2h3uETfLIQq5dlUZPJYAckUAalABQAUAFABQAUAFABQAUAFABQAUAFAHiP7Sun/bv+Ec+XOz7Z+vk/4UAereD7H+zPCOiabjH2TTraDHptiUf0oA8U/bD/ANR8F/8AssXhf/0ZLQBlfGG60Cx/bC+Dt74QaBfFtrp2vT+MDYKGnHhVbNtn28RAyNF9u+zfZw4IMu/YMh6APIPhZ4s8WTfFb4DX2maj4q0/wZ8ZLTxDAqa18V9R13VdZ01NMkuobqexdPs+mXCtFbvusZ90RnMRIyRQBg/D2HVfhF/wT80/4heAvEWv6XrOqau3h/Vb/UPFupfYtHsZfEklrdXCxytPBYOke4NcxWxkjJeTDMCCAe++APBfxF8J3XxI8O/Ez4iWXhHwfq3hUXKQQfFHUvEOr+H5Ns8VxqkOoapbQzWkJj2sN5kSOW3Lrty4IB734Ct9Ms/A3h200XxTdeJtOg0m0jtNbur5b2bU4RCoS6kuF+Wd5VAcyDhyxYdaAN2gAoA+Wbu20f8AaH+Jnw+0X4QaBY2fwy+EPiH+3rnxVZW6Q2l3f28c0KaXpRVdssQeRvtEqfuxs8tWL7gADK8f3/jT9mPSfi1+0P8AD34jeBfFnh/VfFkOrap4ZudJlF692ptbCfTrfUYr0olziEhEa0dvNIQrzkAHqImk+I/7UrQBt2i/B7R1dl5Ak1/VYyAfQmDT1PpxqXfsAcn4J8H+EfB37enjKHwj4W0jQ49V+F+lapfrptjFbC7vZdZ1HzLiURqPMlfau52yx2jJOKAM/wCN1to/x9vZ/wBmf4PaBYyWcfiS11Xx54ntLdI7TQJYLuO7lijlVdsurSsoBUbmjEjPKVyuQDvBNJ8R/wBqVoA27Rfg9o6uy8gSa/qsZAPoTBp6n041Lv2AODu7bR/2h/iZ8PtF+EGgWNn8MvhD4h/t658VWVukNpd39vHNCml6UVXbLEHkb7RKn7sbPLVi+4AA8k8ZtpTfsl/tRi+EP/CTL8UdfEGQgu/7S/tGA6PjPJfYbLysc7du2gD279onWrXxhpXif9m/4XeE9E174kfEDTEsvE80dspstCtZ4PJGo6nKBkMsQP2eJiZZCibV2KSAD0Sbwivh3Q7Lwj8NfGfhPS/HHh3w7p+ny6xr+kDVL0aRGHSN5oorm2l2PJFKysZPL3pL8rEHABzX7D8/hmf9lnwG3g/RbvStIjt7yG3t7m/S9c7L2dHlE6RQpIkjq0iFIo12Ou1FGAAD3SgAoAKACgAoA+Wbu20f9of4mfD7RfhBoFjZ/DL4Q+If7eufFVlbpDaXd/bxzQppelFV2yxB5G+0Sp+7Gzy1YvuAAD43W2j/AB9vZ/2Z/g9oFjJZx+JLXVfHnie0t0jtNAlgu47uWKOVV2y6tKygFRuaMSM8pXK5AO8E0nxH/alaANu0X4PaOrsvIEmv6rGQD6Ewaep9ONS79gDk/BPg/wAI+Dv29PGUPhHwtpGhx6r8L9K1S/XTbGK2F3ey6zqPmXEojUeZK+1dztljtGScUAbvg6bRPiL8Vfip8U/Fzae/hHwtbS/DyxGobRafZoAJ9anlEnyeW87R27knbjTjkAZJAMLwLbTfHz4+eGfjn4Z0A6L8OPh5o2oaV4b1R7f7PN4olvViVpYYyoYadFHFmJjt812DoCgBIB4h4Iayb9jz9mg6eLT/AITH/hZ2iAZCif8AtUapMNV8zHz7vK+2+djnbvzxQB6/8brbR/j7ez/sz/B7QLGSzj8SWuq+PPE9pbpHaaBLBdx3csUcqrtl1aVlAKjc0YkZ5SuVyAeO/t72XxS8XeBfifrfxP8Ag94ofwt4UjWHwS9jqWkSaPETJEr61eK16t1JdOHkhij+zEW6MxG5pWZAD740DU73WdGtNU1Hw9qGhXNzGHl07UHt3uLY/wByRreWWIn/AHJGHvQBoUAFABQAUAFABQAUAFABQAUAFABQB8Ff8FQvit40+H138OLHwNZXF3PdR6tLepC2DGgNoIifqfNx/umgD7g8KavH4g8LaNr0O3y9S0+3vF29MSRq4x+dAFfxl4D8DfEXSB4f+IPgzQvE+lrMtwLHWdOhvbcSqCFfy5VZdwDMAcZGT60AV/A/wy+G3wytLmw+G3w+8NeE7a9kE1zDoek29hHPIBgM6wooYgcZPOKAM7w58Dvgr4P1v/hJfCXwf8E6Jq4na6/tDTvD9pbXPnFJIzJ5scYbeUnmUtnO2WQdGOQCxZfCH4Tabq2u6/p3wv8ACVrqniiKaDXL2DRLZJ9UjlOZUupAm6dXPLByQx65oAg8M/BL4M+C9M1nRfB3wj8F6Fp3iOAWusWmmaBaWsOpQhXUR3CRxhZk2yyja4IxI4/iOQDq9L0vTND0y00XRdOtdP07T4I7W0tLWFYobeGNQqRxooCoiqAAoAAAAFAFqgAoA8z0/wDZi/Zr0nU7bWtK/Z6+GdlqFlOl1bXdv4SsI5oZkYMkiOsQZXVgCGByCARQBqf8KL+CX/CYf8LD/wCFO+B/+Eq+1fbv7c/4R60/tD7T/wA9vtHl+Z5n+1uz70AXfh98OdF+HMGuppV7f3tx4k1288Q6jd30iPNNdXBHHyKqhI40iiQY4jiQEsQWIBm2PwB+BOmeKh46034K+A7TxKLp74azB4bs474XLkl5vPWMSeYxZiW3ZJJyeaAKWsfszfs3+IdWvNe1/wDZ9+G2p6nqM8l1eXt54UsJp7mZ2LPJJI8RZ3ZiSWJJJJJoA3fh18NNB+Gdprdtolze3UniHW7vX7+4vHRpJLicqNo8tEVY440ihjULxHEgJYgsQDA0/wDZi/Zr0nU7bWtK/Z6+GdlqFlOl1bXdv4SsI5oZkYMkiOsQZXVgCGByCARQBv6h8IvhPq/jK3+I2q/DDwle+LLVo2g1640W2k1GJoxhClyyGVSo4GG47UAZvir9nz4CeOtduPFHjf4IeAPEOs3gQXGo6r4asru6mCIETfLLGzttVVUZPAUAcCgBdd/Z/wDgN4ptdLsfE3wS8A6vb6HaLp+lw3/huyuEsbVfuwQK8ZEUY7IuFHpQB3NpaWthaw2NjbRW9tbxrFDDEgRI0UYVVUcAAAAAcACgCWgAoAKACgAoA8z0/wDZi/Zr0nU7bWtK/Z6+GdlqFlOl1bXdv4SsI5oZkYMkiOsQZXVgCGByCARQA7WP2Zv2b/EOrXmva/8As+/DbU9T1GeS6vL288KWE09zM7FnkkkeIs7sxJLEkkkk0Abvw6+Gmg/DO01u20S5vbqTxDrd3r9/cXjo0klxOVG0eWiKsccaRQxqF4jiQEsQWIBm2v7P/wACtP8AEzeN9L+DPgWw8TG5kvV1y28N2SX6XTklpxP5W/zCWYlickk5zk0AXfAvwn8IeBPhlbfCaC2k1nQo7W4tbtdYWO5fUvtDu9y90NgjkaZ5ZWkGwKxkb5QDigDP8Nfs7fs/eC9ctfE/g74F/D3QtYsWZrXUNM8MWVrcwFlKsUljiDqSrMDgjgkd6ANXT/hF8J9I8ZXHxG0r4YeErLxZdNI0+vW+i20eoytIMOXuVQSsWHBy3PegDC1j9mb9m/xDq15r2v8A7Pvw21PU9Rnkury9vPClhNPczOxZ5JJHiLO7MSSxJJJJNAHb634Z8N+JtDn8MeJPD+m6to11GsU+nX1pHPbSoCCFaJwUYAgEAjHAoA06ACgAoAKACgAoAKACgAoAKACgAoAKAPgn/gop440r4a+P/Cus63BBNDrWjyWsCzqGVWtp2ZyuehIuUz9BQB9U/sw38+p/s3/Cy9uzm4k8G6MJ/wDrqLOIP/48GoA9NoAKACgAoAKACgAoAKACgAoAKACgAoAKACgAoAKACgAoAKACgAoAKACgAoAKACgAoAKACgAoAKACgAoAKACgAoAKACgAoAKACgAoAKACgAoA+Ef+Cofwhg+Kv/Cs/OtfO/sv+2ccZx5n2L/43QB9MfstfL8BPCVsPuWkNxZxn1jhuZY0I9iqCgDX+Mfxi0r4NaVoF/qHhfXvENz4m1+18NaZp+ii18+a9uFkaME3U8MSr+6YFmkGCR2yQAZHhT9pb4Za5DrsXi29f4e6r4Y1SPR9Y0nxfc2llcWlzLCZ4F8xJpLeUSwq0qNFK4ZVY9VYAA2L39oD4Dab4b07xlqPxt8A2ugaxLLDp2qzeJLJLO8kiOJEhmMmyRkIwwUkg9cUAbfiP4j/AA88HeGoPGfi7x54d0Tw/deV5GralqkFtZy+YN0e2aRgjbhyuDyORmgDMtPjh8FdQ8NJ4zsPi/4JufD8l6dNTVofEFo9m12E8w24mEmwy7AW2Z3bRnGKAK17+0H8BNN8O6b4v1H43+ALXQtZkmi03VJ/EtklpevEdsqwzGTZIUPDBSSp4OKANLxt8XfhR8NY9Pm+I3xP8JeFY9WWRtPbW9atrEXYTbvMRmdfMC+ZHnbnG9c9RQBB4o+Nfwb8Eado+seNPi14M0Cw8QwG50i61TXrW1h1GEKjGS3eSQLMoWWM7kJGJEP8QyAcV8Tv2sPhz8Mb6OKbSde8SadFoFv4s1TV9AS1ubLStFnn8mG/md50aWJ2WVgLZZnKRO23AGQDvtK+I+i638Rdd+G2lWV/cXnhqytbvVb5UjFnbS3O4w2pYvvacxr5pVUKqjIWYF0DAGv/AMJR4Z/4Sb/hCv8AhItM/wCEh+wf2p/ZP2uP7b9i8zy/tPkZ3+V5nyeZjbu4znigCxrGpJo2k3uryWl3dJY20ly0FnA088oRSxSONfmdzjCqOSSAOtAHmPhn9oe11Xxt4b8A+MfhV458Bap4xtLu70D/AISGPT3S/NtGks8X+g3dw0EqxyB9s4jyFYDLKVoAy9B/ay8Fa/qegPD4L8Y2vhTxXrT+HtB8Y3FrajSdRvg0iIiKtwbtEkeKRI5JbdI3YDDYZSQC94f/AGnfBXiL4nx/DO28NeJ4FvNZ1Xw5p2vz29v/AGXqGq6bGZL20iKzNcK8axz/ADSQpGxglCuxA3AHa/DT4j6L8VfDbeL/AA1ZX8ejyXt1aWF1dJGq6jFBK0RuoArsfIdkbYzhGZRu27WUsAdXQAUAFABQAUAFABQAUAFABQAUAFABQAUAFABQAUAFABQAUAFABQAUAFABQAUAFABQAUAFAHGfEbwFp/jf+z/t7Rj7F5uzeP7+zP8A6CKAOc/ZV+f9nP4e3f8Az/aHb32fXzwZc/8Aj9AHKftheDfFfjbTvhPp3hEa9BcWnxQ0S9udR0WzS5n0u2SO5D3ZEsUsSqhZctLG0YJG4HNAHD/GP9mjT9CHgGbS9O8R/EDVvEHxh0DXvGOsavbpfXN1bwQ3May3KQQpbw20CGONQkUcaLtyMkkgHZ+K7i4+G37V138VvFnhHxNqvh3WPANroOk6rofh++1l9NuodQmmurV7eximmjE6y2sglKBG+y7SwKoCAeQfDDwR4x+EUvwJ8d+Pfhv4mj8L6EnjfyNF0vRbjVrvwlJqt59o0xZbayWWZgtiJrUlI2EBk8skB6AOY8N6DffFXRZbyx8B6xqWnSftXtrF9ZXmjyNJbaetuC011Aykwou5d3mhShIVwrAgAHq3xi8I+I9K/ac1fxz4h174m6T4V8R+CLPRNP1PwX4St/EaxvDdTtd6fdW76bfzRLKJ4ZVdUjifynV2ZkjAAOPHhaD4Wf8ACI6x8KfEPx58G63pPgnQdOt5NZ+Fs3i221jRIJ7uaLTbqKzg82zuULlJIlns2RXiG3I3IAXNUj8b+G77wp48Wy8d/CX4m2/gfw9Y6tpfhr4YT+L/AApeWdvJcyHSoUs4nktCkjOrRpd2+xJIsNJgSgA6nxr8C4fGPwQ0z4i/Evwj4l8NeJE8AWXh/wATeAfACwta6xbQOJotGWMQTyQxCZpI1Nu8ZijnkDTFF3gA8v8AiL8Pfj38PJJobG5+I934w8QeGItf0288I/2j/Ztx4/udSzef2j9k/cC1jt1sIIxe/wCji2hkA+YNQB9jf2j4Z/4Xl/ZP/CrNT/4SH/hE/tH/AAm39hx/YvsX2zb/AGV/aGd/m+Z+/wDs2Nu35+tAHVeItXfw/wCH9T16PSNQ1VtNs5rtbDTolku7sxoW8mFGZQ0j42qCwBYgEjrQB826FMfF/wC054N8b/C3wj8QY9Na11d/Gt94z0HVbWGzhlgX7LBp51mNXtma5Cl4tO2ROi5mDbIdoB5l4I8MeNrv4H/BX9l24+HfjKx8V+BvG2kS69fTaBdw6ZaWOlag1y97DqTxi0lEscUYjWKV3zMAV4bAB3vxi/Zljt/FWlp8O9c8dtfeL/E2p3cMEflNo/hX+0omXW9VWVLcSJPJbvcxwxzXDKJ70tEg2koAYvwe0L4oeFv2gNI8M2Vh8R7Gw0jxL4ksNUtbr+0v+EVg8HxWhTQY7LzP9A8xStgB9n/0jIufN/ioA+zaACgAoAKACgAoAKACgAoAKACgAoAKACgAoAKACgAoAKACgAoAKACgAoAKACgAoAKACgAoA57xbqAsfsmW27/M/Tb/AI0AcV+yx+7+AHg2x/6BtnJpmPT7NPJBj8PLxQB6tQAUAFAHHfEH4S+CvifLpNz4ri1lLrQpZZtOu9I8QahpFzbtKmyTE1lNFIQy8FSxGO1AGl4H8CeE/hv4eh8LeDNIXT9OhkknKmWSaWaaRy8s000rNJNK7sWeSRmdmJLEk5oA36ACgAoAKACgAoAKACgAoAKACgAoAKACgAoAKACgAoAKACgAoAKACgAoAKACgAoAKACgAoAKACgAoAKACgAoAKACgAoAKACgD5I/b4+Mn/CpP+EF/wBL8n+1f7T/AIsZ8r7L/wDHKAPYf2XP3nwM8O3w6alLqGpr/u3N9cTjHtiQUAerUAFABQAUAFABQAUAFABQAUAFABQAUAFABQAUAFABQAUAFABQAUAFABQAUAFABQAUAFABQAUAFABQAUAFABQAUAFABQAUAFABQAUAFABQAUAfm5/wWL8J3Pij/hUf2dpR9m/t/OxiPvf2f1x/u0AfZv7KP/JsXwoY/fbwbo7Sn1kNpGXP4sWNAE/x9+LWr/CzQNBsvCGhWus+L/G2vW3hfw5aXk7Q2a3kyySNcXTorSLbwwwzSvsUs2wINpfcoAy0n/aC8HXNzrvjjWvBnjTw7Z6Xe3VzZ+GvC97pmrieJA8K20ct9dx3Rk2yJ5ZMJDMhDNypAOU8S/tS3ml6J4204/B/xj4d8a+HfBdz4y0zR9fTTnXUbSMtG0qyWl9JEFil8vzY3lil2yLsVieABfBf7UN/d/CTwd438e/CbxVp2veMIdKttG0m0/s6WTxDf3dt57fYFS+kEUKokkpa8kg2RrlyCDQBqP8AtVeCbbQbq61Lwn4rsfE9r4mt/Bx8Gz29qdZfV7iMTW8C7LhrUpJbnz1n+0eQI1ctIpRwoBWh/a28F2Nh8RLrxz4I8YeDbn4ZR6Y+sWGqQ2VzcTPqAP2OK2Fhc3CSyStsQLuB3SIPXABfH7TGgabL4o0zxx8PvGHg/W/C/ha58ZvpGqpYTXF/pNuWWaa2ks7qe3dldVRo3lRwZIyQFcMQCn4f/aq0LWIvBOrav8K/H3hrw/8AELUbXS9A1zWINPjtri4ubeWa3DxRXcl1CJPJ8tWkhUF5IuzbqANa9/aL0BdC+IfiDw54B8b+KoPhzrcfh67h0DTI7y51O+/ceellCJRJKIDcKJWcIAY5dpcITQB6xQB5h8ffi1q/ws0DQbLwhoVrrPi/xtr1t4X8OWl5O0Nmt5MskjXF06K0i28MMM0r7FLNsCDaX3KAMtJ/2gvB1zc67441rwZ408O2el3t1c2fhrwve6Zq4niQPCttHLfXcd0ZNsieWTCQzIQzcqQDlPEv7Ut5peieNtOPwf8AGPh3xr4d8F3PjLTNH19NOddRtIy0bSrJaX0kQWKXy/NjeWKXbIuxWJ4AF8F/tQ3938JPB3jfx78JvFWna94wh0q20bSbT+zpZPEN/d23nt9gVL6QRQqiSSlrySDZGuXIINAGo/7VXgm20G6utS8J+K7HxPa+JrfwcfBs9vanWX1e4jE1vAuy4a1KSW589Z/tHkCNXLSKUcKAVof2tvBdjYfES68c+CPGHg25+GUemPrFhqkNlc3Ez6gD9jithYXNwkskrbEC7gd0iD1wAXx+0xoGmy+KNM8cfD7xh4P1vwv4WufGb6RqqWE1xf6TbllmmtpLO6nt3ZXVUaN5UcGSMkBXDEAw9O/agm8TXvw3vrPwL4p8J6B4+1NbawvfEWk2bjU4G0+6vN0Yi1ITWQVLbJkngbO5AsZDGRADW8LftT+DfE+qeG9/g/xZo/hnxrPPa+F/FuqQWkWk6zLGkkirHtuGuYfNihlkhNxBCJFT5SSyBgC98PP2hI/iXc6Be+HvhB8QE8KeKXl/sfxbcW9h/ZtzAsUssVy0aXbXlvDMkJ8tp7aP5pIlYIzqpAPKP2i/+CkXwd/Zg+JM/wAMPiV8PfiO2oJaw3tvd6fp9jJaXlvIOJYWku0cqGDxnKL88bjtkgHQfstft2/DH9rnxBrOhfDLwJ48so9AtEur/UdZsbOG0iMj7Yod0VzI3mPiRlG3GInORgZAPpGgDyH4d/GLW9Q+KvxV+FnxHXRtOufBE1prGk3cAe3ju/D13CWink8123PDLDcRSyKVTKr8q55AOE+Gf7XeueLvDkOqS/CjxJ4o1bWba78VadovhWxgjudP8LPcyRaZc3jX93CjT3UcTSpHCxd1yViAUkgHT/8ADW/gzWPEfh7wt8N/AvjPx9feKPCsHjLTjoNvZpCdOklaLMst7c26QyK6EMkhUgkKMuCoANTSf2iofEmszW/hT4QfEDXdAtfEA8NXHiaxg05tPivFuVtbg+U14t48ME7OksyW7RgRSyKzRr5hAMLw9+1Fp82j6VbvouteL/FHiLxJ4i0XR9F0LSbewuZ49JupYrqU/ar9oEjiEaAzSXEfmGSPbGjOIwAWNW/a98AaP4NtPFU/hHxnNfTeM/8AhX914ettPhl1Sx1za7C2lRZvKYFVRhJFLIjLLGysVJYAHQeGfj/pniKx8fRzfDrxrpfiT4cwLc6t4WuLS1uNUnjktTc2/wBl+yXE1vcGZVdEVJt3mIVYKcZAK/i/4+P4QX4TavqPgPU7PQvidqlpo1zLqUn2S/0C8vLYyWUNxabWy7yjyJB5i+W5H384oA19Y+Lv2P44aL8EtG8OnU7y78O3nifV7oXgi/syzjlSC2xGVIlaeYyIo3ptEMjZOMUAZ/wd+N9/8VfFvxA8Jar8NtW8G3fgPULCwlttVvrS4upjc2Ud0GdbSSWGPCyjASaTIwTsbKKAafxo+K7fCjRNEl07w6de13xVrtp4a0LTTdi0iuL64DsPOnKv5USRxSyO4R2CxnajHAoApfCn4u65438TeNPh54y8G2fhzxf4HksmvbWy1c6jY3FreRNJa3ENw0EMhVjFMjK8KlWib7wIJAPhr4h/8FkfE3wt8ca58O/GX7Jxs9a8PX0thexf8JsSokjYglSdPG5D1VhwykEcEUAfaf7Knxy8UftG/B+w+LniP4Zf8IPBrM8p0uxbVjfyXFoh2i4ZjBDs3OJAq7TlVVwcMKAPYKACgAoAKACgAoAKACgAoA+BP+CqfxC0LwM3wxTWNNlvWvBrRQRqWKBfsWScA4zu/Q0AfUv7KnH7N3w3QdE8OWaL/urGAP0AoAn+Pvwl1f4p6BoN74Q1210bxf4J1628UeHLu8gaaza8hWSNre6RGWRreaGaaJ9jBl3hxuKbWAOY8aeHP2sfiZ4d1/w4dZ8EfDCG70O/tLS58P6xeaxfzX81vJHC/wBqktLT7HHEzrJuijklLKu149pDgHmngD9jfXdO8d6lrlx8PvhZ8NtC1T4X6p8Prmz8F3E97cT3V1NasL+aaa0tjMdkUi4k3SAqCZJfNPlgF/V/2aPij42+Efwz8H+PPB/wu1DVfhDPpf8AZ9hfajPqujeJraGyayu47yOewU2TPG/mRMqXXlyKh+bbkgGR8Qfh3b/CDwp4b+Jeo+FfgX8Gr3wr8QbHVNJsNJuZ7bRNQjlspLKWLUdQjsYRDJItzcFJzaMsXlRAlg7lQDn/AAN4G8ZftM6l8f8AxXp+s+FLGbXdV8H3fhfXNDvJdY0JtS0UC4VY7to4ftsQkSKOV0jUKXkRQWjyQD1jxf8ABH4xfF3WPFPi/wAfQ+D/AA9fSfDnWvA/hzSdK1i61K3FzqW0zXlzdSWdu6r+4tkWJYXwBI24kqoAK37SHgex8M/sHal4S8YaslrqfhDwnpq2N9YgyMuu2SwfYTblgGLPeRwxrkKSJMHGTQB1Xw/+GHxX+D/7M2neCvhrdeGLv4lpCuoXt54m886fd6rdXQuNRlna2/etky3GwgnkRg/KDQB7hQB5h8ffhLq/xT0DQb3whrtro3i/wTr1t4o8OXd5A01m15CskbW90iMsjW80M00T7GDLvDjcU2sAcx408OftY/Ezw7r/AIcOs+CPhhDd6Hf2lpc+H9YvNYv5r+a3kjhf7VJaWn2OOJnWTdFHJKWVdrx7SHAPNPAH7G+u6d471LXLj4ffCz4baFqnwv1T4fXNn4LuJ724nurqa1YX8001pbGY7IpFxJukBUEyS+afLAL+r/s0fFHxt8I/hn4P8eeD/hdqGq/CGfS/7PsL7UZ9V0bxNbQ2TWV3HeRz2CmyZ438yJlS68uRUPzbckAyPiD8O7f4QeFPDfxL1Hwr8C/g1e+FfiDY6ppNhpNzPbaJqEctlJZSxajqEdjCIZJFubgpObRli8qIEsHcqAc/4G8DeMv2mdS+P/ivT9Z8KWM2u6r4Pu/C+uaHeS6xoTalooFwqx3bRw/bYhIkUcrpGoUvIigtHkgHrHi/4I/GL4u6x4p8X+PofB/h6+k+HOteB/Dmk6VrF1qVuLnUtpmvLm6ks7d1X9xbIsSwvgCRtxJVQAa+s/s/eI9b8MfAnw5d6hpfl/DWSIa8VnlH2iIaFdae4tj5fzHzLhWG/Z8oJ64UgHEfBL9lPXfhHL4S0CP4JfAGVvCkj26/EKPTj/b91bRRyrazGzWyQJdt/o6yyfbmyRM4yWCgAf8ADH9mPx74a+KXh74g2fgb4e/CZ4JY7rxb/wAK98UanNZeKGjtJoEtpNIktbeyhiMlw83mt50yFFCtuZpAAcz/AMFT/wBmWL43fAO4+IOg2St4q+HEU+qwMo+a504KGu4TjqQqCVevMbADLmgD1D9hj9mm1/Zf+AOjeDby1iXxPqoGreJJlwS19Io/chucrEoWMYOCVZhjeaAPoSgD5s/at/Zq+IHxh1vSfEnwm8VaV4b1O/0i98FeLbm9eVWu/DV46PMkOxHBnjZHMYOwfvny44oAq/EX9k6xn+KsXxD8M/B74T+P9In8L2XhuXw744jEK6YbF3+yz2Vz9ivCqmKaSKSHy13bIW3nbtoA6b4Z/AzxV4T+Mei/Eq/0/wAFaNptp8M7fwlPo3hqKSC1tNQF+11ItrEY1UWqhyqsSrMRkxrnAAOE1f8AZh+IuufFGLx9pXgv4dfD3xD/AG7597498GeJdUs9R1LSk1EXflXWkJbJa3UtxHFFFN9puJ0BZ3AfaiUAXvC37N3xZ+HGqeGvH/hK78J6p4k0DXPGj3OlX2oXNpZahpOuakbyNfta20rwTwtHbMcQOrfvU3YKuABz/sxfEfVTpfinXNZ8OL4lv/jHY/EvXoIJ52tLSxtrX7JFY2sphDXEiQxQfvHjhDuZCQg2igD0LT/hn8RPDPxK+M3xL8M3fhyS+8a6RpMPhmK/knMUV9ZWlxGPtqogKwmWWPPlszFA33TjIBP8XvhV4j+Nf7OepfDnxjcaba+MNS0S3la60lnW0tdegVJoprdpQZBCl3GrLu+fYMHBJoA5v9lnwX8V7CHxr8Yfjt4Yj0X4g+Pb62+1aTbXkFwtnp9hbCC0gV4naPLObmbhyM3HOCDQBS+A1p8TrP47/FzxX4t+CPivwxo3xB1DS9R0291DUNGmWBbTSre0eOdLS/mkV2khcrsV124LMp4oAPitofxo+J/hPwf4yPwmGl+Ivhz8SYfEMHhsa9a3EusaZbi4tTJFPlIY5ZYLppkjlZQrIFZhnNAG58F/B/je8+MHxK+N/jjwbd+E/wDhKrbRtF0fR7+8tbi9is7COdnmnNpLLApkmun2qsrkLGCSpbbQB86/t0/8E/of2hvj78NPiH4cRrODXNRTRvG0sEZ3CyggkmS6LAEBvKga2DNxue2X1oA+69E0bSvDmjWHh7QrCGx03S7WKys7WFdscEEaBI41HZVVQAPQUAXaACgAoAKACgAoAKACgAoA+L/2yfDvgnxZ8WdPsPiNfxWWn6f4dtZtNeVciSaW5uhcAfRYrfP+8KAPev2Uef2ZvhZJ3l8I6VKfq1sjH+dAHq1ABQAUAFABQAUAFABQAUAFABQAUAFABQAUAFABQAUAFABQAjKrKVZQQRggjgigBaACgAoAKACgAoAKACgAoAKACgAoAKACgAoAKACgAoAKACgAoAKACgAoAKAPi7/got+z7q3xtn8A3WiaxJpsukpqkc7xziIyrIbUoDzztKPj03H1oA97/ZZ/d/ALwhp//QLtptLx6fZbiWDH4eVigD1agAoAKACgAoAKACgAoAKACgAoAKACgAoAKACgAoAKACgAoAKACgAoAKACgAoAKACgAoAKACgAoAKACgAoAKACgAoAKACgAoAKACgAoAKACgD4P/4KSr8V/EviTwP4X+EN75F3pFje3+qjYz5juZI0t+ARjm0uP8igD6h/Zjsbqz+APga41CIxXur6RFrl5GeqXN8TdzKfcSTuPwoA4D9t3xFdeHvC3wzC674s0zTdU+JWjadq48MXWow391YSRXJlgT+ziLp921fkiyxIGBkCgDzDT/ij8ffhfbXQ8D2GrTeE/GfxR0jwr4F/4WkuoyajDZ3NrN9tlkFw634hF1FmAXP7wxkjAUoQAdL4w+OHxN+EPjj4hWWuronizxRp/hzwnDpP2M6lpem3Wpavq93YwBrOa9uobeNCIGeSMCRwsmXOUVADp/F/xu+MXwi1jxT4Q8fTeD/EN9H8Oda8ceHNW0rR7rTbc3Om7RNZ3NrJeXDsv7+2dZVmTIMi7QQrEAwYfiL8dtVj+BHiPxnrPg1JfiVqkZtLPRbPV7WPS/N0O+ux57LqKpqK7o4P3csSIAHwC2yRADkPgr8VP2kfBv7GNr8dtX8X6F45tNEe61C+0+80S+fVptNg1iVb9jfvqDh3S1SZ4swYQRopDgZIB7b4O+NHjX4w+JfihD8IT4XufDvhTS7TTvDeqX0Vw8Gp+Ip7Q3TGWWNxttIkmsUdEjMhLyEOMBaAPXfC/wDwk3/CM6R/wmv9mf8ACQ/YLf8Atb+y/M+xfbfLXz/s/mfP5Xmbtm/5tuM85oA1KACgD5+/bC8ZeK/BOnfCfUfCJ16e4u/ihollc6dot4ltPqls8dyXtCZZYomVyq5WWRYyQNxGKAPHfjV8cviVa/En4k3934Q8a+D7PQPgTqmuW2ga1rscMVxeRagu26U6NqDmNtuY/MWaKYAEAgYJAPRda+N/xj1m2+KV/wDC298G6Ronwf0uFLiXXdJvNYn1nUV0tb+eNWjvrc26RpLBHvfzmd2kPG0bgDifDXiP4tfEj9p7wR4w8Gal4R0PWvEvwD0nV9UudU0u5v7WAT37SukFrHcwu2ZHABa4G1Qc7zQB9F/s5fFDV/jL8F/DfxE8Q6XZ6fquox3EF/BZOzW4uba5ltpXi3/MI3eFnVWJKqwUsxG4gHzx8XP+Cq/wI+CXxH174WePPhr8UbbW/D121rcCLTNPaKUYDRzRk3oJjkRlkQkAlXUkDpQB6/8Ass/tceBv2uND1vxN8O/BnjLSdJ0S6jsXvdetLWCK5uGXe0UPk3EpZkUoWyFwJUxnJwAe40AFABQAUAFABQAUAFABQAUAFABQAUAFABQAUAFABQAUAFABQAUAFABQAUAFABQAUAFAHyj+0T4/i+Fnxum1yd0Qa74V0u0Uvjn7Ld6ixxn/AK+hQB9NeFhZr4Z0hdOiWK1FhbiCNeiR+Wu0D2AxQBhfEf4W+H/ig/hR9fvNQtz4P8S2fimx+xyInmXdssgjSXejZjPmtkLtbgYYdwA+I/wt8P8AxQfwo+v3moW58H+JbPxTY/Y5ETzLu2WQRpLvRsxnzWyF2twMMO4Bznjv9m74d/EfVvGWreKpNXmbxvoemaHfRQ3YhW2TT7ma5tbi3ZFEkc6TT7w5YjMceFGDuAKI/Zn0DUpfFGp+OPiD4w8Ya34o8LXPgx9X1V7CG4sNJuCzTQ20dnawW6MzsrtI8TuTHGCSqBQAb7/A/wAJvZ/DGxOoat5fwonin0YiWLNw0eny2Ki5/d/OPKndjs2fOAemVIBieFvgjafB/wAHeJdD8I6n4l8VeG5bPVJdN8B30mmrYo9zLLcPa285t45wHeV41+0XEiKsmDgKCADI/Zv/AGdIfhF+yvpHwPkvb/QdUvdEmTWb/R7ryry11G8jJnlt5/nxJCz7YpPmwIYzzigD2HwvoX/CL+GdI8Nf2xqerf2TYW9j/aGqXHn3t35Uap51xLgeZK+3c7YGWJOBmgDUoAKAOO+I/wALfD/xQfwo+v3moW58H+JbPxTY/Y5ETzLu2WQRpLvRsxnzWyF2twMMO4BzPxO/Zt8DfFjXfEPiDxFquu21x4l8D3XgC7WynhRE0+4n855Yw8TEThuAxJTHVD1oA8Y+OPwc+JF54i+ImkfC3wZ8TrSDx3oVnpt1faL4i8PR6JrFytm1qJdQS+Bv7PZF5MUj2I3SRRqVG9QSAez/AAw/Z/0T4f6v4V8YT6vfXXiHw98PtO+H8gR0FnLbWzLJ5wQpvEhkB53424G3PNAHU/Cj4Z6D8HvAmn/D3wzd39zp2my3U0Ut9Ijzsbi5luH3FERSA8zAYUcAZyckgHw3/wAFW/2OtU+MFv4U+MHw20uObxRDqFj4W1KEEJ9qgu7lYLSQnplLiZUJPOyUEkLHQB9mfs8/BTw5+zz8HvDfwm8NKjw6LaBbq5C7WvLt/mnnbv8APIWIBJ2rtUcKKAPRqACgAoAKACgAoAKACgAoAKACgAoAKACgAoAKACgAoAKACgAoAKACgAoAKACgAoAKACgD80P+Cwus3Xh7Wfhbd2Vw0D3lrq8bsp+8I3tSo/DzG/OgDY+Bf/BUuTxL4b0TQJfgd5L2Njb2bXH/AAk27zDHGqF9v2QYzjOMnGepoA91v/22/sOnz33/AArLf5LhNn9tYzmNHznyP9vH4UAeJePP+CuH/CEJK3/DP323y/8Aqa/Lz/5JmgDJ0f8A4K1+JvE2nDU9N+Cml2CeZChjn1qS4OHkVPvCFOm7PTtQBY8Lf8FfLnW/Esnhe7/Z+iSWFgpuY/FJCtn0Q2hx/wB9GgD0yz/4KN/atLs9S/4U5t+128c+z/hIc7dyhsZ+zc4z1oA57xN/wVI/4R2Hzv8AhRn2jjOP+En2f+2hoA83t/8AgtBd6nrg0Cy/ZzhtpGGRPL4sMqjnH3BZr6/3qAPYdA/bY+K/i/Sjq+l6D4S02NTGTDcWdzckhnVSNy3EeDz1xQByeif8FT9Wb4hf8K41n4K2lxcLjOoW2vNAh5x/qWgcj/v5QB9X+E/jr/wlAQ/8It9m34/5ft+P/IYoAt/FL4zf8K10VNY/4Rv+0d8Zk8v7Z5OPbOxv5UAfEHj3/gsm3grXX0Vf2cxebM/vT4u8vOPb7Ef50AYEX/Bba5uJI4Y/2aokaWRIwzeLywUswGcfYhnGemRQB9CfC79rb4v/ABp8n/hHLHwf4a8/G37dpl1qW3PrsurfP6UAbPxO/aF+OHwZEp8R3ngbxJ5H3vsXh+803dj0338+P1oA+fP+HwGtNqM+kP8AASwMlvIEMv8AwkL7WIwc7Ps/HP8AtGgDpdG/4Kb+N/EWrWulWXwv0OzN1BLMJJb2abbsaMYwAmc+Z6jp78AHp1t+1B8atS0qTWLT/hCbeOLYzQyaLdyFgWAIDC9XB564P0oA5f4T/wDBSfUfHvxIufhlqvwgtoLmzlWJ9Rt9bYRyZ7iBoCV+nmGgD6u1P4k/2dAs39i+ZuUNj7TjqP8AdoA43Uv2jv7PZl/4Q3zNv/URx/7SoA47xL+2h/wjtlJef8K2+0eX/D/bGzP4+QaAPnfxz/wWHbwbdC0X9ncXZZwgY+LdmMnGcfYj/OgDT8Kf8FRPF/jjZ/Znwm0fS/Mxjz9Slusf98pHmgB2q/8ABTrxv4c0q11PUvhdod/9ot45ykF7Nb43KGxlg/r1xQBgeFv+Cveu+NtTk0fTfgTYaZLE/lmafxA9ypPrsW3jI69N1AHtun/tSfGjVrKPV7dPBVvbvDJKYH0a7kf5Sgx5gvFH8f8Ad7UAeb+Of+CmHjj4dRSyap8MtC1fyPmYW95NabgOSBuEuCRkA8464PSgD0n9nz/goD/wvf7N/wAWl/sP7Rj/AJj32nbn/t2TNAGt+0b+3H/wz/HcSf8ACr/7e8hScf239l3f+S74oA+b7f8A4LLakk1o93+z1bSw6hOsUSR+KGRogY1fLMbVg/3scBaAPdrT/goP9q8LDxL/AMKj25gkm8j+38/dKDG77N33+nagDyHR/wDgrN4j8Y6ne6ZoPwU03SWsbqK2aS81uS8Em+RFyAsMW37/AEyelAEfiv8A4K3eIfA+/wDtP4Iadqnl5z5Guva5/wC+oJMUAehfBT/gpl/wuFLZ/wDhSn9kfaAp/wCRk+0bc/8AbqmaAPprUvjB/Z+ix6v/AMI75nmLu8v7XjHAPXZ7+lAHz/8AFf8A4KH/APCsdNuNQ/4VB/aXkfwf8JB5O78fszYoA4TwB/wUm8ffFnR/7c8OfDnw/wCHogYyYL24m1FirOqkb0MHPPXb+FAFjwB/wVE1DxP8QZ/hzqnwWt1uLZlVtQt9fZEfJI4ha3Yjp/z0NAHsfif9s3/hHNPivv8AhW/2jzYUm2f2xsxuUHGfIPrQB4V4x/4K2f8ACJtIP+Gf/tXl5/5mvZn/AMkzQBwI/wCC3Fy6faV/ZpiWMK7FD4wJY7So+99i9/SgDpfD/wDwWO/t2GGX/hnPyPNnhhx/wl+7HmSKmf8AjyHTdn8KAPorwH+2n/wm/l/8W1+xeZj/AJjPmY/8gCgD1SL4web/AMy7j/t7/wDsKAPJvjz+2z/wpHSJ9V/4Vn/bXkf8s/7a+zZ+RW6+Q/8Aex0oA/MP9vv9rLWf2odE+Gfiq58H2nhu3shq4gtYrtrl/wB59jJ3yFUDY2DGEXv+AB//2Q==;" vertex="1" parent="1">
          <mxGeometry x="430" y="550" width="381" height="421" as="geometry" />
        </mxCell>
        <mxCell id="52jPrDx0_dcCrGvd4Qb2-12" value="" style="rounded=0;whiteSpace=wrap;html=1;" vertex="1" parent="1">
          <mxGeometry x="-733" y="30" width="320" height="450" as="geometry" />
        </mxCell>
        <mxCell id="52jPrDx0_dcCrGvd4Qb2-13" value="Login" style="rounded=0;whiteSpace=wrap;html=1;fillColor=#dae8fc;strokeColor=#6c8ebf;" vertex="1" parent="1">
          <mxGeometry x="-700" y="240" width="120" height="60" as="geometry" />
        </mxCell>
        <mxCell id="52jPrDx0_dcCrGvd4Qb2-14" value="View public projects" style="rounded=0;whiteSpace=wrap;html=1;fillColor=#dae8fc;strokeColor=#6c8ebf;" vertex="1" parent="1">
          <mxGeometry x="-700" y="350" width="120" height="61" as="geometry" />
        </mxCell>
      </root>
    </mxGraphModel>
  </diagram>
</mxfile>
